<?xml version="1.0" encoding="utf-8"?>
<!-- Generator: Adobe Illustrator 16.0.0, SVG Export Plug-In . SVG Version: 6.00 Build 0)  -->
<!DOCTYPE svg PUBLIC "-//W3C//DTD SVG 1.1 Tiny//EN" "http://www.w3.org/Graphics/SVG/1.1/DTD/svg11-tiny.dtd">
<svg version="1.1" baseProfile="tiny" id="Layer_1" xmlns="http://www.w3.org/2000/svg" xmlns:xlink="http://www.w3.org/1999/xlink"
	 x="0px" y="0px" width="258px" height="255px" viewBox="0 0 258 255" xml:space="preserve">
<g id="WAaYSn.tif">
</g>
<g>
	<rect x="-46.724" y="-20.613" fill="#75D1EA" width="328.324" height="211.066"/>
	<path fill="#5EAD9A" d="M-8.29,101.857c20.195,1.303,18.892-6.515,28.012-0.651c9.12,5.863,17.589,14.237,26.058,18.844
		s11.726,3.304,16.938,9.167c5.211,5.863,16.937,5.863,18.892,4.56c1.954-1.303,3.257-1.955,7.166-1.955
		c3.909,0,12.377-1.303,16.286-2.605s20.194-9.215,35.829-9.167c15.634,0.047,18.24-1.255,29.314-4.513
		c11.075-3.257,16.286-2.606,22.8-7.166c6.515-4.56,2.606-3.257,14.983-15.634c12.377-12.377,6.515-7.817,12.377-12.377
		s13.029-4.56,19.543-0.651c6.515,3.909,6.515,3.909,6.515,3.909s14.852-0.908,17.523-0.779c2.672,0.128,14.232,52.243,7.801,65.271
		c-6.433,13.029-240.949,16.938-277.43,1.303C-42.164,133.778-8.29,101.857-8.29,101.857z"/>
	<g>
		<path fill="#724A2D" d="M-168.689,160.947c0,0,53.799-28.019,184.646-20.377c130.848,7.641,103.898,6.626,201.837,0.796
			c64.178-3.821,83.836-6.299,146.359-2.753c48.542,2.753,62.122,5.459,62.122,5.459l-0.193,64.922h-594.772V160.947z"/>
		<path fill="#603813" d="M-86.563,195.643c0,0,165.299-5.782,228.686-18.07c63.385-12.288,144.974-34.926,201.622-32.15
			c56.65,2.776,160.377-25.312,160.377-25.312l8.007,96.22l-592.623,50.51L-86.563,195.643z"/>
		<path fill="#47330A" d="M385.635,233.65c0,0-86.787-32.246-163.43-23.465c-76.642,8.78-112.649-10.204-175.501-39.122
			c-62.851-28.919-92.37-16.484-157.861-12.235c-65.492,4.247-95.373,15.67-95.373,15.67l-7.892,104.312l592.994,45.966
			L385.635,233.65z"/>
		<g>
			<path fill="#603813" d="M-0.749,158.326c0.838-0.231,1.681-0.465,2.528-0.699c0.847-0.238,1.705-0.451,2.562-0.679
				c0.858-0.225,1.719-0.449,2.583-0.676c0.867-0.211,1.737-0.424,2.61-0.637c0.872-0.21,1.745-0.429,2.622-0.632
				c0.878-0.198,1.757-0.396,2.636-0.593c3.512-0.809,7.046-1.521,10.531-2.19c0.873-0.157,1.742-0.314,2.607-0.471
				c0.865-0.154,1.723-0.324,2.582-0.462c1.716-0.285,3.408-0.583,5.08-0.827c0.835-0.127,1.664-0.253,2.484-0.377
				c0.822-0.117,1.636-0.231,2.442-0.345c0.403-0.057,0.803-0.113,1.201-0.171c0.399-0.052,0.796-0.103,1.19-0.153
				c0.789-0.102,1.567-0.201,2.336-0.301c1.539-0.175,3.035-0.362,4.485-0.509c0.725-0.078,1.438-0.153,2.138-0.229
				c0.701-0.066,1.388-0.132,2.061-0.195c2.694-0.246,5.167-0.446,7.361-0.589c2.194-0.149,4.11-0.235,5.688-0.297
				c1.578-0.056,2.819-0.092,3.666-0.104c0.846-0.013,1.298-0.009,1.298-0.009s-0.452-0.026-1.297-0.058
				c-0.847-0.024-2.089-0.07-3.67-0.065c-1.582,0.001-3.502,0.015-5.706,0.082c-1.102,0.023-2.273,0.077-3.508,0.123
				c-0.618,0.032-1.251,0.065-1.899,0.1c-0.649,0.033-1.312,0.073-1.988,0.122c-2.708,0.164-5.637,0.419-8.731,0.725
				c-3.091,0.334-6.353,0.692-9.708,1.188c-3.36,0.471-6.821,1.03-10.328,1.664c-3.501,0.659-7.053,1.358-10.583,2.156
				c-0.883,0.202-1.765,0.403-2.646,0.605c-0.879,0.207-1.755,0.431-2.631,0.645c-0.875,0.218-1.748,0.435-2.618,0.649
				c-0.867,0.23-1.731,0.46-2.592,0.689c-0.86,0.231-1.72,0.449-2.569,0.692c-0.848,0.244-1.692,0.489-2.53,0.732
				c-0.838,0.246-1.674,0.476-2.498,0.731c-0.822,0.256-1.639,0.509-2.45,0.761c-0.809,0.253-1.614,0.497-2.407,0.752
				c-0.791,0.263-1.573,0.524-2.348,0.783c-0.773,0.261-1.539,0.518-2.295,0.772c-0.755,0.256-1.494,0.531-2.227,0.791
				c-0.731,0.263-1.453,0.521-2.164,0.776c-0.355,0.128-0.708,0.254-1.058,0.38c-0.35,0.128-0.692,0.265-1.034,0.395
				c-1.364,0.528-2.681,1.038-3.946,1.528c-0.634,0.239-1.244,0.506-1.845,0.749c-0.6,0.248-1.186,0.49-1.756,0.727
				c-1.14,0.479-2.226,0.921-3.229,1.379c-1.007,0.447-1.949,0.865-2.82,1.253c-0.435,0.194-0.853,0.379-1.251,0.557
				c-0.4,0.177-0.773,0.362-1.131,0.528c-1.432,0.672-2.547,1.218-3.312,1.583C-39.592,172.045-40,172.24-40,172.24
				s0.417-0.174,1.198-0.501c0.78-0.331,1.929-0.802,3.38-1.426c0.364-0.152,0.743-0.323,1.15-0.483
				c0.404-0.163,0.829-0.332,1.271-0.509c0.883-0.354,1.839-0.735,2.861-1.144c1.016-0.419,2.117-0.818,3.271-1.253
				c1.157-0.428,2.362-0.905,3.634-1.366c1.275-0.454,2.602-0.927,3.976-1.415c0.344-0.121,0.69-0.245,1.039-0.369
				c0.352-0.117,0.706-0.237,1.062-0.357c0.713-0.24,1.437-0.484,2.171-0.73c0.735-0.245,1.477-0.505,2.234-0.745
				c0.758-0.238,1.525-0.479,2.302-0.724c0.774-0.245,1.559-0.493,2.35-0.743c0.792-0.245,1.598-0.479,2.407-0.721
				c0.809-0.241,1.626-0.483,2.448-0.728C-2.421,158.78-1.585,158.562-0.749,158.326z"/>
			<path fill="#603813" d="M38.858,155.904c0.736-0.188,1.475-0.378,2.211-0.567c0.738-0.188,1.472-0.392,2.211-0.567
				c0.74-0.18,1.479-0.356,2.215-0.535c0.368-0.088,0.737-0.177,1.105-0.266c0.369-0.082,0.738-0.164,1.105-0.247
				c0.737-0.163,1.472-0.327,2.204-0.489c0.73-0.166,1.465-0.302,2.192-0.456c0.728-0.148,1.449-0.308,2.171-0.447
				c1.444-0.27,2.866-0.563,4.274-0.798c0.704-0.122,1.401-0.244,2.092-0.364c0.692-0.112,1.379-0.223,2.057-0.332
				c1.355-0.231,2.688-0.409,3.983-0.604c2.595-0.35,5.05-0.674,7.325-0.907c2.273-0.241,4.362-0.431,6.216-0.568
				c1.853-0.142,3.471-0.231,4.805-0.295c1.334-0.06,2.384-0.094,3.099-0.108c0.716-0.012,1.098-0.009,1.098-0.009
				s-0.381-0.025-1.097-0.057c-0.716-0.024-1.767-0.066-3.104-0.068c-1.337-0.001-2.964,0.002-4.826,0.072
				c-0.932,0.024-1.922,0.08-2.967,0.124c-1.044,0.063-2.142,0.122-3.286,0.214c-2.29,0.16-4.765,0.402-7.378,0.701
				c-1.305,0.166-2.648,0.314-4.015,0.515c-0.684,0.097-1.375,0.194-2.073,0.293c-0.696,0.111-1.399,0.225-2.107,0.338
				c-1.419,0.215-2.852,0.49-4.308,0.741c-1.453,0.272-2.92,0.555-4.395,0.865c-0.736,0.16-1.476,0.32-2.218,0.481
				c-0.371,0.08-0.742,0.162-1.113,0.243c-0.371,0.087-0.741,0.175-1.112,0.263c-0.742,0.175-1.486,0.351-2.23,0.526
				c-0.745,0.173-1.484,0.374-2.227,0.561c-0.74,0.193-1.481,0.387-2.221,0.579c-0.736,0.208-1.472,0.414-2.206,0.621
				c-0.733,0.211-1.469,0.403-2.195,0.627c-0.727,0.22-1.45,0.439-2.172,0.657c-0.72,0.221-1.442,0.427-2.15,0.665
				c-0.71,0.234-1.415,0.467-2.116,0.698c-1.407,0.451-2.778,0.953-4.132,1.429c-1.356,0.469-2.676,0.968-3.964,1.466
				c-0.645,0.247-1.283,0.491-1.913,0.733c-0.625,0.256-1.242,0.508-1.85,0.757c-0.609,0.249-1.208,0.495-1.8,0.736
				c-0.593,0.237-1.171,0.486-1.735,0.739c-1.132,0.5-2.226,0.984-3.275,1.447c-1.042,0.48-2.035,0.952-2.98,1.399
				c-0.472,0.225-0.931,0.443-1.378,0.656c-0.448,0.21-0.873,0.437-1.289,0.645c-0.832,0.421-1.608,0.815-2.328,1.18
				c-0.359,0.184-0.703,0.36-1.032,0.528c-0.328,0.17-0.635,0.343-0.93,0.502c-2.345,1.285-3.684,2.02-3.684,2.02
				s1.38-0.656,3.792-1.804c0.302-0.143,0.617-0.299,0.952-0.453c0.336-0.151,0.689-0.31,1.057-0.475
				c0.732-0.333,1.525-0.691,2.371-1.076c0.425-0.189,0.857-0.398,1.312-0.589c0.454-0.193,0.921-0.392,1.401-0.597
				c0.958-0.41,1.965-0.843,3.016-1.294c2.123-0.851,4.41-1.801,6.864-2.718c0.611-0.233,1.231-0.471,1.859-0.71
				c0.633-0.226,1.273-0.454,1.92-0.685c0.647-0.233,1.301-0.468,1.961-0.705c0.657-0.244,1.333-0.456,2.008-0.689
				c1.354-0.454,2.724-0.934,4.13-1.361c1.402-0.438,2.816-0.9,4.256-1.317c0.719-0.213,1.44-0.429,2.163-0.644
				c0.723-0.219,1.456-0.407,2.185-0.613C37.392,156.31,38.125,156.106,38.858,155.904z"/>
			<path fill="#603813" d="M81.225,153.734c0.589-0.13,1.176-0.259,1.759-0.388c1.163-0.268,2.323-0.483,3.46-0.715
				c1.139-0.221,2.263-0.418,3.363-0.617c1.101-0.184,2.177-0.377,3.23-0.527c0.526-0.08,1.046-0.157,1.557-0.233
				c0.513-0.07,1.016-0.14,1.513-0.208c0.992-0.143,1.954-0.251,2.876-0.366c0.924-0.101,1.81-0.204,2.652-0.283
				c0.843-0.09,1.645-0.161,2.397-0.225c1.507-0.123,2.822-0.218,3.906-0.274c1.084-0.06,1.938-0.097,2.52-0.113
				c0.583-0.019,0.893-0.019,0.893-0.019s-0.31-0.022-0.891-0.048c-0.583-0.022-1.438-0.06-2.526-0.062
				c-1.089-0.009-2.411,0-3.927,0.053c-1.518,0.044-3.227,0.138-5.09,0.276c-1.861,0.151-3.879,0.326-6.003,0.603
				c-1.064,0.122-2.151,0.285-3.266,0.438c-0.558,0.075-1.117,0.172-1.684,0.264c-0.566,0.096-1.139,0.179-1.714,0.287
				c-1.149,0.214-2.321,0.411-3.498,0.661c-0.589,0.119-1.182,0.24-1.779,0.36c-0.593,0.137-1.188,0.273-1.787,0.41
				c-1.199,0.263-2.396,0.582-3.602,0.882c-0.604,0.146-1.202,0.32-1.803,0.483c-0.601,0.166-1.202,0.332-1.803,0.498
				c-1.192,0.365-2.388,0.722-3.571,1.103c-0.589,0.197-1.178,0.394-1.764,0.59c-0.587,0.195-1.172,0.388-1.748,0.602
				c-1.152,0.426-2.308,0.812-3.42,1.276c-0.559,0.223-1.114,0.443-1.667,0.664c-0.275,0.11-0.551,0.216-0.823,0.331
				c-0.271,0.116-0.541,0.233-0.809,0.349c-0.537,0.231-1.069,0.461-1.597,0.688c-0.264,0.113-0.527,0.228-0.787,0.339
				c-0.257,0.122-0.513,0.242-0.767,0.362c-0.509,0.241-1.013,0.479-1.509,0.714c-0.497,0.236-0.992,0.46-1.466,0.71
				c-0.955,0.486-1.882,0.961-2.78,1.419c-0.88,0.49-1.731,0.964-2.549,1.418c-0.821,0.444-1.582,0.919-2.311,1.357
				c-0.364,0.221-0.719,0.437-1.063,0.646c-0.344,0.209-0.681,0.409-0.996,0.621c-0.634,0.417-1.228,0.807-1.776,1.167
				c-0.545,0.367-1.056,0.687-1.493,1.011c-0.883,0.637-1.577,1.138-2.049,1.479c-0.471,0.342-0.723,0.523-0.723,0.523
				s0.264-0.162,0.761-0.469c0.495-0.307,1.219-0.757,2.144-1.329c0.456-0.296,0.985-0.583,1.549-0.914
				c0.565-0.33,1.175-0.686,1.829-1.067c0.323-0.195,0.669-0.376,1.021-0.567c0.354-0.191,0.716-0.387,1.089-0.589
				c0.747-0.398,1.517-0.846,2.354-1.253c0.829-0.418,1.692-0.854,2.586-1.307c0.904-0.427,1.84-0.87,2.801-1.325
				c1.937-0.881,3.993-1.773,6.144-2.642c2.148-0.875,4.401-1.692,6.697-2.5c0.571-0.21,1.153-0.397,1.736-0.587
				c0.582-0.19,1.167-0.382,1.751-0.573c1.174-0.372,2.362-0.717,3.546-1.075c0.595-0.168,1.19-0.336,1.785-0.504
				c0.595-0.166,1.187-0.341,1.785-0.489c1.194-0.305,2.378-0.628,3.566-0.896C80.048,154.014,80.637,153.874,81.225,153.734z"/>
			<path fill="#603813" d="M125.111,149.803c0.273-0.023,0.506-0.042,0.693-0.045c0.378-0.019,0.581-0.016,0.581-0.016
				s-0.2-0.026-0.578-0.051c-0.189-0.018-0.424-0.025-0.698-0.033c-0.274-0.011-0.591-0.024-0.944-0.011
				c-0.354,0.009-0.748,0.008-1.174,0.027c-0.426,0.029-0.888,0.061-1.38,0.094c-0.494,0.032-1.013,0.111-1.565,0.168
				c-0.275,0.034-0.557,0.067-0.847,0.103c-0.287,0.048-0.58,0.097-0.88,0.147c-0.599,0.104-1.227,0.2-1.871,0.323
				c-0.64,0.143-1.302,0.291-1.982,0.443c-0.684,0.14-1.372,0.336-2.078,0.529c-0.705,0.194-1.429,0.389-2.155,0.613
				c-0.722,0.238-1.455,0.481-2.198,0.728c-0.372,0.122-0.745,0.247-1.121,0.371c-0.371,0.137-0.739,0.288-1.112,0.431
				c-0.743,0.292-1.492,0.585-2.244,0.88l-0.564,0.221c-0.187,0.079-0.371,0.163-0.556,0.244l-1.111,0.493
				c-0.737,0.336-1.476,0.67-2.21,1.004c-0.371,0.16-0.726,0.35-1.084,0.53c-0.358,0.182-0.715,0.363-1.07,0.544
				c-1.422,0.72-2.821,1.431-4.125,2.208c-0.657,0.38-1.306,0.745-1.935,1.118c-0.314,0.184-0.626,0.366-0.933,0.547
				c-0.154,0.091-0.307,0.18-0.458,0.27c-0.15,0.091-0.295,0.188-0.442,0.282c-1.171,0.749-2.269,1.47-3.281,2.137
				c-0.505,0.336-0.996,0.645-1.448,0.961c-0.447,0.325-0.87,0.635-1.267,0.925c-0.797,0.577-1.484,1.091-2.052,1.512
				c-0.568,0.419-1.006,0.759-1.309,0.985c-0.301,0.229-0.461,0.351-0.461,0.351s0.173-0.103,0.5-0.297
				c0.324-0.193,0.806-0.471,1.408-0.838c0.604-0.365,1.338-0.806,2.171-1.322c0.418-0.258,0.861-0.531,1.331-0.819
				c0.474-0.279,0.978-0.562,1.501-0.863c1.048-0.598,2.182-1.246,3.372-1.945c0.149-0.086,0.297-0.177,0.451-0.26
				c0.155-0.082,0.31-0.164,0.466-0.248c0.313-0.164,0.63-0.332,0.951-0.502c0.642-0.335,1.29-0.692,1.953-1.048
				c0.665-0.352,1.326-0.737,2.029-1.062c0.697-0.336,1.4-0.681,2.105-1.033c0.354-0.177,0.708-0.353,1.063-0.529
				c0.356-0.176,0.709-0.361,1.078-0.516c0.729-0.323,1.461-0.648,2.193-0.974l1.094-0.497c0.182-0.082,0.363-0.167,0.547-0.246
				l0.555-0.224c0.74-0.297,1.477-0.594,2.208-0.887c0.366-0.147,0.73-0.293,1.093-0.438c0.367-0.133,0.732-0.265,1.095-0.396
				c0.727-0.262,1.444-0.521,2.15-0.776c0.71-0.243,1.419-0.443,2.105-0.671c0.688-0.221,1.36-0.445,2.026-0.613
				c0.664-0.181,1.31-0.357,1.935-0.528c0.626-0.16,1.238-0.292,1.823-0.432c0.292-0.068,0.579-0.133,0.859-0.197
				c0.283-0.054,0.559-0.106,0.828-0.157c0.538-0.099,1.047-0.217,1.53-0.286c0.484-0.073,0.936-0.143,1.354-0.205
				c0.419-0.06,0.806-0.095,1.155-0.138C124.527,149.844,124.839,149.826,125.111,149.803z"/>
			<path fill="#603813" d="M133.929,149.926c-0.104,0.045-0.229,0.091-0.357,0.158c-0.131,0.065-0.277,0.138-0.436,0.216
				c-0.156,0.084-0.318,0.185-0.495,0.287c-0.18,0.101-0.357,0.227-0.55,0.353c-0.189,0.129-0.394,0.262-0.589,0.42
				c-0.199,0.156-0.405,0.319-0.619,0.488c-0.208,0.175-0.411,0.369-0.627,0.562c-0.106,0.099-0.214,0.198-0.324,0.299
				c-0.103,0.107-0.207,0.215-0.312,0.324c-0.208,0.221-0.422,0.447-0.639,0.678c-0.207,0.237-0.406,0.488-0.612,0.739
				c-0.205,0.252-0.419,0.503-0.602,0.778c-0.377,0.543-0.78,1.084-1.112,1.668c-0.169,0.289-0.34,0.578-0.51,0.866l-0.127,0.215
				l-0.112,0.223c-0.074,0.148-0.148,0.297-0.222,0.444c-0.148,0.295-0.292,0.588-0.433,0.879c-0.148,0.287-0.265,0.583-0.382,0.874
				c-0.233,0.581-0.466,1.14-0.655,1.68c-0.176,0.546-0.335,1.063-0.478,1.541c-0.069,0.24-0.141,0.467-0.198,0.688
				c-0.049,0.223-0.096,0.434-0.139,0.631c-0.09,0.396-0.156,0.743-0.213,1.028c-0.059,0.284-0.094,0.509-0.123,0.662
				c-0.025,0.153-0.039,0.235-0.039,0.235s0.037-0.075,0.106-0.216c0.065-0.141,0.17-0.347,0.287-0.609
				c0.12-0.264,0.269-0.582,0.424-0.951c0.08-0.184,0.164-0.379,0.253-0.584c0.096-0.203,0.198-0.416,0.305-0.639
				c0.21-0.443,0.434-0.925,0.664-1.436c0.242-0.506,0.522-1.026,0.787-1.573c0.254-0.554,0.582-1.091,0.879-1.654
				c0.156-0.277,0.295-0.568,0.467-0.84c0.167-0.275,0.333-0.552,0.5-0.828c0.314-0.565,0.696-1.084,1.036-1.62
				c0.168-0.271,0.361-0.519,0.542-0.771c0.183-0.252,0.363-0.501,0.54-0.746c0.188-0.235,0.374-0.467,0.555-0.694
				c0.09-0.114,0.179-0.227,0.268-0.339c0.094-0.106,0.186-0.212,0.278-0.316c0.182-0.208,0.36-0.412,0.531-0.609
				c0.18-0.189,0.354-0.372,0.52-0.548c0.163-0.184,0.338-0.335,0.494-0.492c0.159-0.155,0.306-0.309,0.458-0.436
				c0.148-0.132,0.287-0.256,0.416-0.37c0.133-0.109,0.256-0.21,0.366-0.301c0.225-0.176,0.404-0.32,0.531-0.405
				c0.125-0.091,0.197-0.136,0.197-0.136s-0.081,0.02-0.229,0.073C134.125,149.847,134.034,149.882,133.929,149.926z"/>
			<path fill="#603813" d="M325.268,169.446c-0.765-0.364-1.881-0.91-3.312-1.582c-0.358-0.167-0.732-0.353-1.132-0.528
				c-0.398-0.178-0.816-0.364-1.251-0.558c-0.872-0.387-1.813-0.805-2.82-1.253c-1.003-0.458-2.089-0.899-3.228-1.378
				c-0.571-0.236-1.157-0.479-1.757-0.728c-0.602-0.242-1.211-0.509-1.845-0.749c-1.266-0.489-2.583-0.999-3.946-1.527
				c-0.342-0.131-0.685-0.268-1.034-0.395c-0.349-0.126-0.701-0.253-1.058-0.381c-0.711-0.254-1.433-0.514-2.164-0.775
				c-0.733-0.26-1.472-0.535-2.227-0.792c-0.756-0.254-1.521-0.512-2.295-0.772c-0.774-0.258-1.557-0.519-2.347-0.783
				c-0.794-0.255-1.599-0.499-2.408-0.751c-0.811-0.252-1.628-0.505-2.449-0.761c-0.823-0.256-1.661-0.485-2.497-0.732
				c-0.84-0.243-1.683-0.487-2.53-0.733c-0.849-0.242-1.709-0.459-2.569-0.69c-0.861-0.229-1.725-0.459-2.592-0.689
				c-0.871-0.216-1.744-0.433-2.619-0.649c-0.874-0.215-1.75-0.438-2.63-0.645c-0.881-0.202-1.764-0.403-2.646-0.605
				c-3.53-0.799-7.082-1.498-10.583-2.157c-3.506-0.634-6.968-1.192-10.328-1.663c-3.356-0.497-6.617-0.854-9.708-1.188
				c-3.094-0.307-6.023-0.562-8.731-0.727c-0.677-0.048-1.339-0.088-1.987-0.121c-0.649-0.034-1.281-0.067-1.899-0.1
				c-1.236-0.045-2.407-0.101-3.508-0.123c-2.203-0.068-4.124-0.081-5.705-0.082c-1.583-0.005-2.825,0.041-3.671,0.066
				c-0.846,0.029-1.298,0.056-1.298,0.056s0.452-0.003,1.299,0.009c0.845,0.014,2.086,0.049,3.666,0.104
				c1.578,0.062,3.494,0.147,5.688,0.298c2.194,0.143,4.667,0.343,7.361,0.588c0.673,0.064,1.36,0.129,2.061,0.196
				c0.7,0.074,1.413,0.15,2.138,0.228c1.45,0.147,2.946,0.335,4.486,0.509c0.768,0.1,1.547,0.2,2.334,0.302
				c0.395,0.05,0.792,0.102,1.19,0.153c0.398,0.057,0.798,0.113,1.201,0.17c0.805,0.114,1.62,0.229,2.44,0.345
				c0.822,0.124,1.65,0.25,2.486,0.377c1.672,0.245,3.363,0.542,5.079,0.828c0.859,0.137,1.717,0.307,2.582,0.462
				c0.865,0.156,1.735,0.313,2.608,0.471c3.483,0.67,7.018,1.381,10.531,2.189c0.879,0.197,1.757,0.396,2.635,0.594
				c0.878,0.202,1.75,0.422,2.622,0.632c0.872,0.212,1.742,0.425,2.61,0.637c0.864,0.226,1.726,0.45,2.583,0.675
				c0.857,0.229,1.716,0.44,2.562,0.679c0.847,0.234,1.69,0.468,2.527,0.699c0.837,0.235,1.674,0.454,2.496,0.7
				c0.822,0.244,1.639,0.487,2.449,0.728c0.809,0.242,1.614,0.477,2.407,0.721c0.792,0.25,1.575,0.498,2.351,0.743
				c0.775,0.244,1.543,0.485,2.301,0.724c0.758,0.241,1.499,0.501,2.234,0.745c0.734,0.247,1.458,0.491,2.172,0.73
				c0.357,0.12,0.711,0.24,1.062,0.357c0.349,0.125,0.695,0.248,1.038,0.37c1.374,0.488,2.702,0.961,3.977,1.413
				c1.271,0.462,2.478,0.94,3.634,1.369c1.154,0.434,2.255,0.833,3.271,1.252c1.021,0.407,1.977,0.79,2.861,1.143
				c0.441,0.177,0.866,0.347,1.271,0.509c0.405,0.161,0.785,0.331,1.149,0.483c1.451,0.624,2.601,1.096,3.38,1.426
				c0.781,0.327,1.197,0.502,1.197,0.502S326.03,169.813,325.268,169.446z"/>
			<path fill="#603813" d="M282.45,167.906c-0.329-0.169-0.674-0.345-1.032-0.528c-0.719-0.365-1.496-0.759-2.327-1.181
				c-0.417-0.207-0.842-0.434-1.29-0.645c-0.446-0.213-0.907-0.431-1.378-0.656c-0.946-0.446-1.939-0.918-2.98-1.398
				c-1.05-0.464-2.144-0.947-3.275-1.447c-0.564-0.253-1.142-0.501-1.734-0.739c-0.592-0.242-1.191-0.487-1.801-0.736
				c-0.608-0.249-1.226-0.502-1.85-0.757c-0.63-0.242-1.268-0.486-1.913-0.733c-1.288-0.499-2.608-0.998-3.965-1.466
				c-1.354-0.477-2.725-0.978-4.131-1.429c-0.702-0.231-1.408-0.465-2.117-0.698c-0.708-0.238-1.43-0.444-2.149-0.665
				c-0.722-0.219-1.445-0.438-2.172-0.657c-0.726-0.224-1.462-0.417-2.195-0.627c-0.734-0.207-1.469-0.413-2.206-0.621
				c-0.741-0.192-1.48-0.386-2.222-0.58c-0.743-0.186-1.481-0.387-2.226-0.561c-0.745-0.175-1.489-0.351-2.231-0.525
				c-0.371-0.088-0.742-0.176-1.112-0.263c-0.372-0.082-0.743-0.163-1.113-0.243c-0.742-0.162-1.481-0.322-2.218-0.481
				c-1.475-0.311-2.943-0.594-4.395-0.865c-1.456-0.252-2.89-0.526-4.308-0.742c-0.709-0.113-1.411-0.226-2.107-0.337
				c-0.699-0.099-1.39-0.196-2.074-0.293c-1.366-0.201-2.708-0.349-4.014-0.516c-2.613-0.298-5.088-0.541-7.378-0.7
				c-1.144-0.093-2.242-0.151-3.286-0.215c-1.045-0.044-2.035-0.099-2.967-0.122c-1.863-0.072-3.488-0.075-4.825-0.074
				c-1.337,0.002-2.389,0.045-3.105,0.069c-0.715,0.03-1.097,0.057-1.097,0.057s0.382-0.003,1.098,0.01
				c0.715,0.015,1.764,0.048,3.099,0.107c1.333,0.063,2.952,0.154,4.805,0.295c1.854,0.138,3.941,0.326,6.215,0.568
				c2.274,0.233,4.73,0.558,7.325,0.906c1.294,0.195,2.628,0.374,3.983,0.604c0.679,0.109,1.365,0.221,2.057,0.332
				c0.691,0.121,1.389,0.242,2.091,0.365c1.409,0.233,2.831,0.527,4.275,0.798c0.721,0.139,1.443,0.298,2.17,0.447
				c0.727,0.155,1.461,0.29,2.192,0.456c0.731,0.162,1.466,0.325,2.203,0.489c0.369,0.082,0.738,0.164,1.106,0.246
				c0.368,0.09,0.736,0.178,1.105,0.267c0.737,0.179,1.476,0.356,2.215,0.534c0.74,0.176,1.473,0.38,2.211,0.568
				c0.737,0.189,1.475,0.379,2.212,0.567c0.733,0.203,1.465,0.405,2.196,0.606c0.73,0.206,1.463,0.395,2.185,0.613
				c0.725,0.215,1.445,0.43,2.163,0.644c1.44,0.417,2.854,0.88,4.256,1.316c1.407,0.429,2.776,0.908,4.13,1.362
				c0.676,0.232,1.352,0.446,2.008,0.688c0.661,0.237,1.314,0.473,1.962,0.705c0.646,0.231,1.287,0.46,1.92,0.687
				c0.627,0.239,1.247,0.476,1.859,0.71c2.453,0.916,4.74,1.865,6.863,2.717c1.051,0.451,2.059,0.883,3.016,1.293
				c0.479,0.205,0.947,0.404,1.4,0.597c0.457,0.191,0.889,0.399,1.312,0.589c0.848,0.385,1.64,0.744,2.372,1.077
				c0.368,0.164,0.72,0.323,1.056,0.475c0.336,0.153,0.65,0.311,0.952,0.454c2.413,1.146,3.793,1.803,3.793,1.803
				s-1.34-0.734-3.685-2.021C283.085,168.249,282.778,168.076,282.45,167.906z"/>
			<path fill="#603813" d="M243.394,168.426c-0.438-0.325-0.949-0.644-1.493-1.011c-0.548-0.36-1.142-0.75-1.776-1.166
				c-0.315-0.214-0.651-0.412-0.996-0.622c-0.345-0.21-0.699-0.426-1.062-0.646c-0.73-0.438-1.49-0.914-2.312-1.357
				c-0.817-0.455-1.668-0.929-2.549-1.418c-0.898-0.459-1.826-0.932-2.78-1.419c-0.474-0.251-0.97-0.474-1.465-0.71
				c-0.499-0.235-1.001-0.473-1.511-0.714c-0.253-0.12-0.509-0.24-0.767-0.362c-0.261-0.112-0.523-0.226-0.786-0.34
				c-0.527-0.228-1.06-0.456-1.597-0.688c-0.269-0.115-0.539-0.232-0.81-0.349c-0.271-0.114-0.548-0.221-0.823-0.332
				c-0.552-0.22-1.107-0.441-1.667-0.664c-1.112-0.463-2.267-0.85-3.419-1.274c-0.574-0.216-1.161-0.408-1.748-0.603
				c-0.586-0.196-1.174-0.393-1.764-0.589c-1.183-0.382-2.378-0.738-3.571-1.104c-0.602-0.166-1.203-0.332-1.803-0.498
				c-0.602-0.164-1.199-0.338-1.803-0.483c-1.207-0.3-2.402-0.619-3.602-0.882c-0.598-0.138-1.194-0.273-1.787-0.41
				c-0.597-0.121-1.189-0.241-1.779-0.361c-1.177-0.248-2.349-0.446-3.498-0.66c-0.575-0.108-1.148-0.191-1.714-0.287
				c-0.567-0.092-1.127-0.188-1.685-0.264c-1.114-0.154-2.202-0.316-3.266-0.438c-2.124-0.276-4.142-0.452-6.003-0.604
				c-1.863-0.138-3.573-0.231-5.089-0.275c-1.517-0.053-2.839-0.062-3.928-0.053c-1.088,0.002-1.943,0.04-2.526,0.062
				c-0.582,0.026-0.893,0.049-0.893,0.049s0.312,0,0.893,0.018c0.583,0.018,1.436,0.055,2.52,0.113
				c1.084,0.057,2.4,0.153,3.906,0.275c0.753,0.062,1.554,0.135,2.397,0.225c0.843,0.079,1.728,0.183,2.652,0.282
				c0.922,0.116,1.885,0.225,2.876,0.367c0.495,0.068,1,0.137,1.513,0.208c0.511,0.075,1.03,0.153,1.556,0.232
				c1.053,0.151,2.13,0.345,3.231,0.528c1.1,0.199,2.223,0.396,3.363,0.616c1.137,0.231,2.296,0.448,3.46,0.717
				c0.582,0.128,1.168,0.257,1.758,0.388c0.587,0.139,1.178,0.278,1.771,0.419c1.188,0.268,2.373,0.591,3.566,0.895
				c0.598,0.148,1.19,0.324,1.785,0.49c0.595,0.168,1.189,0.336,1.786,0.503c1.183,0.359,2.371,0.704,3.545,1.075
				c0.585,0.191,1.169,0.383,1.752,0.574c0.583,0.189,1.164,0.376,1.735,0.586c2.297,0.809,4.55,1.626,6.698,2.501
				c2.15,0.867,4.208,1.762,6.143,2.642c0.962,0.455,1.897,0.897,2.803,1.325c0.893,0.452,1.756,0.888,2.585,1.307
				c0.836,0.407,1.606,0.854,2.353,1.253c0.374,0.202,0.737,0.397,1.089,0.589c0.354,0.191,0.7,0.372,1.022,0.567
				c0.653,0.381,1.265,0.737,1.828,1.066c0.565,0.331,1.095,0.618,1.55,0.915c0.924,0.572,1.649,1.021,2.144,1.329
				c0.496,0.306,0.761,0.469,0.761,0.469s-0.252-0.183-0.724-0.524C244.97,169.562,244.276,169.062,243.394,168.426z"/>
			<path fill="#603813" d="M201.582,165.767c-0.527-0.396-1.165-0.879-1.907-1.421c-0.741-0.541-1.563-1.177-2.515-1.786
				c-0.94-0.629-1.96-1.31-3.047-2.015c-0.271-0.178-0.546-0.357-0.824-0.539c-0.28-0.181-0.573-0.347-0.864-0.524
				c-0.582-0.353-1.187-0.697-1.796-1.057c-0.61-0.358-1.232-0.723-1.86-1.091c-0.634-0.36-1.293-0.692-1.951-1.039
				c-0.661-0.343-1.326-0.689-1.993-1.037l-0.502-0.259c-0.169-0.084-0.342-0.16-0.513-0.24l-1.03-0.476
				c-0.688-0.312-1.378-0.625-2.064-0.936c-0.34-0.163-0.69-0.3-1.039-0.438c-0.348-0.14-0.697-0.278-1.042-0.417
				c-0.692-0.276-1.378-0.553-2.063-0.806c-0.693-0.232-1.378-0.463-2.051-0.689c-0.336-0.112-0.67-0.225-1.001-0.334
				c-0.332-0.108-0.668-0.19-0.998-0.282c-0.66-0.18-1.305-0.354-1.934-0.526c-0.633-0.15-1.255-0.28-1.854-0.408
				c-0.3-0.062-0.595-0.123-0.884-0.184c-0.293-0.045-0.58-0.09-0.861-0.133c-0.281-0.044-0.556-0.087-0.825-0.128
				c-0.269-0.04-0.53-0.091-0.789-0.106c-0.516-0.048-1.005-0.092-1.466-0.136c-0.459-0.036-0.894-0.042-1.292-0.056
				c-0.398-0.02-0.766-0.005-1.097,0.004c-0.165,0.004-0.322,0.008-0.469,0.012c-0.147,0.005-0.286,0.022-0.414,0.033
				c-0.255,0.025-0.473,0.034-0.649,0.064c-0.352,0.046-0.536,0.088-0.536,0.088s0.047-0.004,0.139-0.009
				c0.092-0.003,0.226-0.007,0.403-0.01c0.175-0.01,0.393,0.007,0.647,0.012c0.255,0.002,0.547,0.024,0.874,0.051
				c0.326,0.025,0.687,0.046,1.079,0.106c0.391,0.057,0.815,0.091,1.264,0.167c0.448,0.079,0.925,0.163,1.428,0.253
				c0.501,0.091,1.024,0.223,1.57,0.339c0.272,0.062,0.551,0.123,0.835,0.187c0.281,0.077,0.566,0.157,0.857,0.237
				c0.581,0.166,1.186,0.312,1.801,0.493c0.61,0.197,1.237,0.399,1.877,0.607c0.319,0.105,0.646,0.202,0.97,0.315
				c0.322,0.118,0.648,0.238,0.977,0.358c0.656,0.241,1.323,0.486,1.999,0.734c0.665,0.276,1.339,0.555,2.018,0.837
				c0.34,0.139,0.681,0.279,1.023,0.42c0.342,0.14,0.688,0.277,1.022,0.441c0.674,0.313,1.352,0.629,2.029,0.943l1.02,0.466
				c0.169,0.078,0.34,0.152,0.508,0.234l0.498,0.254c0.665,0.336,1.327,0.671,1.983,1.003c0.329,0.165,0.656,0.331,0.982,0.495
				c0.325,0.166,0.657,0.314,0.972,0.492c0.633,0.347,1.259,0.689,1.874,1.027c0.617,0.335,1.219,0.673,1.816,0.989
				c0.296,0.162,0.596,0.312,0.881,0.479c0.285,0.167,0.566,0.333,0.844,0.496c1.108,0.657,2.164,1.266,3.141,1.825
				c0.983,0.551,1.851,1.111,2.633,1.585c0.778,0.482,1.464,0.892,2.028,1.232c0.562,0.342,1.012,0.601,1.315,0.781
				c0.305,0.179,0.468,0.273,0.468,0.273s-0.148-0.114-0.428-0.33C202.519,166.479,202.11,166.16,201.582,165.767z"/>
			<path fill="#603813" d="M159.722,166.444c-0.065-0.306-0.141-0.678-0.243-1.102c-0.053-0.211-0.094-0.44-0.165-0.674
				c-0.073-0.232-0.149-0.479-0.229-0.734c-0.167-0.509-0.336-1.067-0.553-1.645c-0.235-0.568-0.487-1.168-0.757-1.786
				c-0.064-0.156-0.138-0.309-0.219-0.46c-0.08-0.151-0.16-0.304-0.24-0.457c-0.159-0.31-0.324-0.62-0.492-0.933
				c-0.159-0.316-0.36-0.613-0.549-0.918c-0.191-0.304-0.385-0.608-0.577-0.912c-0.198-0.302-0.424-0.585-0.634-0.876
				c-0.215-0.288-0.423-0.579-0.65-0.853c-0.229-0.272-0.46-0.538-0.689-0.801c-0.115-0.132-0.229-0.262-0.341-0.391
				c-0.122-0.123-0.242-0.243-0.361-0.363c-0.239-0.239-0.475-0.475-0.705-0.705c-0.246-0.215-0.484-0.425-0.718-0.629
				c-0.117-0.101-0.232-0.201-0.346-0.299c-0.12-0.092-0.237-0.182-0.353-0.271c-0.234-0.175-0.454-0.349-0.674-0.505
				c-0.451-0.302-0.859-0.578-1.244-0.789c-0.374-0.229-0.723-0.389-1.002-0.529c-0.286-0.131-0.513-0.224-0.672-0.281
				c-0.155-0.06-0.242-0.084-0.242-0.084s0.076,0.049,0.211,0.146c0.138,0.09,0.329,0.245,0.579,0.426
				c0.241,0.193,0.536,0.423,0.859,0.702c0.332,0.269,0.677,0.608,1.066,0.955c0.187,0.184,0.381,0.374,0.582,0.572
				c0.101,0.098,0.203,0.197,0.307,0.299c0.099,0.106,0.199,0.215,0.301,0.324c0.205,0.217,0.414,0.44,0.629,0.668
				c0.204,0.238,0.412,0.48,0.625,0.728c0.106,0.123,0.212,0.246,0.321,0.371c0.102,0.13,0.205,0.261,0.308,0.392
				c0.206,0.264,0.415,0.53,0.628,0.795c0.211,0.268,0.397,0.559,0.604,0.836c0.198,0.282,0.412,0.555,0.599,0.847
				c0.188,0.29,0.377,0.582,0.564,0.872c0.182,0.294,0.39,0.57,0.551,0.872c0.333,0.597,0.695,1.167,1.006,1.74
				c0.299,0.58,0.596,1.139,0.882,1.668c0.145,0.265,0.254,0.536,0.379,0.79c0.123,0.257,0.241,0.504,0.355,0.74
				c0.116,0.237,0.228,0.465,0.334,0.682c0.111,0.213,0.19,0.428,0.278,0.624c0.167,0.396,0.325,0.737,0.453,1.021
				c0.126,0.284,0.235,0.504,0.305,0.655c0.074,0.151,0.113,0.231,0.113,0.231s-0.016-0.088-0.045-0.251
				C159.831,166.99,159.79,166.748,159.722,166.444z"/>
		</g>
	</g>
</g>
<g>
	<path fill="#291A12" d="M185.376,114.588c11.811-14.271-2.461-15.748-4.503-37.4c-2.042-21.652-12.497-30.553-18.014-24.113
		c-30.325,35.41-32.873,84.903-33.077,94.717c-3.251-3.165-8.315-9.395-7.125-14.445c2.201-9.357-6.33-21.674-6.695-22.193
		c-0.704-1.006-2.091-1.253-3.098-0.546c-1.006,0.706-1.251,2.093-0.544,3.099c2.163,3.085,7.461,12.447,6.005,18.617
		c-1.014,4.32,0.753,8.701,3.072,12.273c-3.23-3.846-7.319-8.86-11.411-14.303c-9.733-12.944-19.269-11.227-19.668-11.149
		c-1.205,0.241-1.99,1.409-1.751,2.615c0.238,1.205,1.408,1.993,2.614,1.75c0.069-0.015,7.305-1.108,15.249,9.457l10.44,14.912
		c-14.192-7.575-73.547-38.382-83.066-28.861c-10.827,10.826,11.319,13.287,21.652,25.589
		c10.336,12.304,34.448,26.573,34.448,26.573c0.984,25.098,49.211,41.83,54.626,31.496c5.411-10.332-7.875-37.893-7.875-37.893
		c3.937,3.445,14.271,19.193,16.239,15.279c1.969-3.91-4.92-10.359-4.92-10.359s4.428,1.969,17.183,6.398
		c12.757,4.43,25.629,11.809,35.966-21.158C211.458,121.97,185.376,114.588,185.376,114.588z"/>
	<g>
		<path fill="#F69321" d="M179.846,134.339l9.942-4.46c-1.042-2.502-2.343-4.705-3.919-6.432c-0.879-0.962-1.898-1.58-3.021-1.911
			L179.846,134.339z"/>
		<path fill="#FAAF42" d="M186.663,136.883l6.23,6.961c-0.239-3.076-0.714-6.125-1.448-8.971L186.663,136.883z"/>
		<path fill="#FAAF42" d="M165.641,145.711l10.004,6.766l17.349-0.869c0.038-0.736,0.061-1.479,0.073-2.227l-10.821-10.643
			L165.641,145.711z"/>
		<path fill="#FAAF42" d="M160.403,147.912l-12.047,5.061c0.02,0.182,0.054,0.352,0.113,0.494c0.045,0.119,0.112,0.238,0.164,0.359
			l16.5-0.824L160.403,147.912z"/>
		<path fill="#FFCC29" d="M190.997,157.895l-20.182,11.758c5.964,2.041,11.662,2.73,15.054,1.037
			c3.136-1.568,5.342-6.539,6.431-12.795H190.997z"/>
		<path fill="#F69321" d="M169.349,139.053l7.042-16.927c-9.61,3.586-21.77,17.247-26.271,25.555L169.349,139.053z"/>
		<path fill="#FFCA61" d="M181.411,157.895h-29.958c2.742,2.973,6.819,5.879,11.299,8.248
			C167.604,163.754,175.817,160.24,181.411,157.895z"/>
	</g>
	<g>
		<path fill="#F69321" d="M165.813,103.144l-13.095,21.604l12.784-3.379c1.85-1.927,3.611-3.872,5.206-5.766L165.813,103.144z"/>
		<path fill="#F69321" d="M143.99,139.148c3.082-1.512,7.449-4.745,12.047-8.75h-6.745L143.99,139.148z"/>
		<path fill="#F15B2A" d="M166.688,86.146l5.245-10.09c-1.662-3.169-3.702-5.893-6.243-7.727c-1.515-1.093-3.168-0.098-4.883,2.347
			L166.688,86.146z"/>
		<path fill="#F15B2A" d="M154.125,85.713l3.747,17.396l4.515-8.689l-5.918-15.069C155.686,81.309,154.904,83.448,154.125,85.713z"
			/>
		<path fill="#F15B2A" d="M153.98,110.593L153.98,110.593L150.41,97.55c-4.747,16.268-8.77,34.018-10.311,38.446
			c-0.326,0.942-0.489,1.697-0.517,2.3L153.98,110.593z"/>
		<path fill="#F15B2A" d="M175.854,86.579l-5.533,9.126l5.171,13.597c2.003-3.044,3.163-5.642,2.994-7.363
			C178.068,97.607,177.286,92.04,175.854,86.579z"/>
	</g>
	<g>
		<path fill="#F69321" d="M80.145,141.691l-10.642,5.697c7.002,4.838,13.983,9.375,18.809,12.477
			c1.736-5.055,6.273-13.412,6.278-13.422L80.145,141.691z"/>
		<path fill="#F15B2A" d="M47.504,123.143l17.891,9.162l34.017,10.793C84.804,134.192,57.028,123.355,47.504,123.143z"/>
		<path fill="#F15B2A" d="M77.329,140.762l-14.489-4.766l-16.474-12.815c-0.49,0.045-0.913,0.128-1.242,0.266
			c-4.885,2.01,7.506,12.069,21.113,21.665L77.329,140.762z"/>
		<path fill="#F69321" d="M99.139,147.938l-6.828,14.457c11.364,6.648,11.329-5.463,15.669-9.297c0.64-0.562,0.782-1.27,0.518-2.08
			L99.139,147.938z"/>
	</g>
	<g>
		<path fill="#FAAF42" d="M121.765,174.289l0.622-0.156l3.195-11.928c-2.33-2.516-4.946-4.105-7.76-4.275L121.765,174.289z"/>
		<path fill="#FFCA61" d="M123.371,177.088l13.435,17.549c-0.029-8.824-3.434-21.545-8.879-29.473L123.371,177.088z"/>
		<polygon fill="#6F489D" points="122.545,177.523 123.371,177.088 122.531,177.473 		"/>
		<path fill="#FAAF42" d="M118.368,175.137l-3.121-16.91c-6.702,1.92-18.889,11.838-13.136,20.957L118.368,175.137z"/>
		<path fill="#FFCC29" d="M124.786,186.834L128,200.17c3.439,1.357,6.246,1.512,7.696-0.279L124.786,186.834z"/>
		<path fill="#FFCA61" d="M119.317,180.289l-0.608-0.729l0.431-0.23l-0.051-0.275l-12.285,5.643
			c4.338,4.43,10.234,9.33,15.657,12.639L119.317,180.289z"/>
	</g>
</g>
</svg>
