<?xml version="1.0" encoding="utf-8"?>
<!-- Generator: Adobe Illustrator 16.0.0, SVG Export Plug-In . SVG Version: 6.00 Build 0)  -->
<!DOCTYPE svg PUBLIC "-//W3C//DTD SVG 1.1//EN" "http://www.w3.org/Graphics/SVG/1.1/DTD/svg11.dtd">
<svg version="1.1" id="Layer_1" xmlns="http://www.w3.org/2000/svg" xmlns:xlink="http://www.w3.org/1999/xlink" x="0px" y="0px"
	 width="156px" height="155px" viewBox="0 0 156 155" enable-background="new 0 0 156 155" xml:space="preserve">
<g>
	<path fill="#E7E8E8" d="M134.814,20.787v112.39H23.751V20.787H134.814 M136.564,18.972H22v116.02h114.564V18.972L136.564,18.972z"
		/>
</g>
<polygon fill="#FEBE10" points="38.215,111.428 39.609,114.252 42.727,114.706 40.472,116.906 41.005,120.01 38.215,118.544 
	35.427,120.01 35.959,116.906 33.702,114.706 36.82,114.252 "/>
<rect x="21.834" y="60.639" fill="#E7E8E8" width="114.73" height="2.36"/>
<rect x="33.456" y="72.836" fill="#E0E1E2" width="80.137" height="9.958"/>
<rect x="32.741" y="89.768" fill="#E0E1E2" width="92.675" height="3.024"/>
<rect x="32.741" y="95.381" fill="#E0E1E2" width="92.255" height="3.024"/>
<polygon fill="#FEBE10" points="50.651,111.428 52.045,114.252 55.162,114.706 52.908,116.906 53.439,120.01 50.651,118.544 
	47.861,120.01 48.393,116.906 46.137,114.706 49.255,114.252 "/>
<polygon fill="#FEBE10" points="63.085,111.428 64.48,114.252 67.598,114.706 65.342,116.906 65.874,120.01 63.085,118.544 
	60.296,120.01 60.829,116.906 58.572,114.706 61.689,114.252 "/>
<polygon fill="#FEBE10" points="75.521,111.428 76.914,114.252 80.031,114.706 77.778,116.906 78.31,120.01 75.521,118.544 
	72.732,120.01 73.265,116.906 71.007,114.706 74.125,114.252 "/>
<polygon fill="#E0E1E2" points="87.955,111.428 89.35,114.252 92.467,114.706 90.211,116.906 90.743,120.01 87.955,118.544 
	85.166,120.01 85.699,116.906 83.444,114.706 86.56,114.252 "/>
<rect x="32.741" y="101.57" fill="#E0E1E2" width="92.255" height="3.023"/>
<g>
	<path fill="#FAA54F" d="M118.7,115.99c-4.317,4.317-11.317,4.315-15.634,0L55.97,68.894c-4.316-4.318-4.316-11.317,0-15.634l0,0
		c4.317-4.315,11.316-4.315,15.632,0l47.097,47.097C123.015,104.674,123.015,111.674,118.7,115.99L118.7,115.99z"/>
	<polygon fill="#FFE799" points="70.071,51.728 38.002,32.875 54.603,67.521 55.246,58.661 63.303,58.661 63.303,52.7 	"/>
	<path fill="#292728" d="M37.179,31.999l15.646,9.185c0,0,1.022,8.845-7.993,7.313L37.179,31.999z"/>
</g>
</svg>
