<?xml version="1.0" encoding="utf-8"?>
<!-- Generator: Adobe Illustrator 16.0.0, SVG Export Plug-In . SVG Version: 6.00 Build 0)  -->
<!DOCTYPE svg PUBLIC "-//W3C//DTD SVG 1.1//EN" "http://www.w3.org/Graphics/SVG/1.1/DTD/svg11.dtd">
<svg version="1.1" id="Layer_1" xmlns="http://www.w3.org/2000/svg" xmlns:xlink="http://www.w3.org/1999/xlink" x="0px" y="0px"
	 width="1200px" height="517px" viewBox="0 0 1200 517" enable-background="new 0 0 1200 517" xml:space="preserve">
<g opacity="0.4">
	<rect fill="#D8D9DA" width="1200" height="518"/>
	<path fill="#C9CACC" d="M1200,329c0,0-79-42-199-42s-566,36-680,36s-159.001-36-240-36s-81,0-81,0V50h1200V329z"/>
	<path fill="#E4E5E6" d="M1200,237c0,0-79,32-199,32s-536-52-650-52s-189.001,20-270,20s-81,0-81,0V0h1200V237z"/>
	<rect y="407" fill="#97999C" width="1200" height="111"/>
</g>
<g>
	<g>
		<g>
			<g>
				<path fill="#D8BCAD" d="M288.527,620.052c7.567-64.21,21.079-226.513,44.363-251.652c23.286-25.135,48.334-23.668,73.243-58.204
					c24.909-34.535,35.763-59.62,57.765-37.794c22,21.826,0.448,112.696-12.001,131.528c-12.445,18.836-30.998,76.824-23.13,87.748
					c7.871,10.929,45.19-36.181,45.19-36.181s240.106-252.962,277.686-249.977c37.58,2.977,53.338,29.527,50.302,53.018
					c-3.037,23.489-20.213,34.514-20.213,34.514s45.388-1.743,51.802,37.362c6.416,39.107-13.896,48.581-13.896,48.581
					s56.388,9.166,51.879,56.143c-4.509,46.977-15.479,43.885-15.479,43.885s26.678,17.114,23.679,49.997
					c-3,32.882-23.342,34.529-29.529,53.339c-6.185,18.808-5.039,14.853-20.583,42.221L288.527,620.052z"/>
				<path fill="#C59C87" d="M787.668,605.391c31.454,37.521-10.427-11.608,3.613-23.494c13.066-11.058,72.686-18.601,72.686-18.601
					l-34.202,0.36c0,0-42.199,15.821-67.326-4.43c-25.123-20.247-22.094-45.308,13.803-72.059c0,0-38.082-9.241-37.991-46.806
					c0.091-37.57,43.904-40.873,43.904-40.873s-26.598,3.234-36.068-17.076c-9.474-20.308-20.634-71.921,2.812-79.837
					c23.447-7.921,32.833-9.524,32.833-9.524s-25.546,14.957-37.623-13.937c-12.076-28.896-9.54-37.53-9.54-37.53L612.561,656.871
					L787.668,605.391z"/>
				<g>
					<path fill="#FFFFFF" d="M458.484,626.545c0.059,14.788,12.088,26.725,26.878,26.664l238.711-0.946
						c14.788-0.059,26.725-12.091,26.665-26.881l-2.178-548.208c-0.058-14.781-12.089-26.722-26.877-26.664l-238.711,0.948
						c-14.79,0.059-26.724,12.096-26.665,26.876L458.484,626.545z"/>
					
						<rect x="467.609" y="109.06" transform="matrix(-1 0.004 -0.004 -1 1208.3081 679.0384)" fill="#FFFFFF" width="271.742" height="463.317"/>
					<path fill="#D1D2D3" d="M574.807,609.368c-0.062-15.564,12.499-28.224,28.062-28.286c15.562-0.062,28.226,12.499,28.288,28.062
						c0.062,15.561-12.504,28.224-28.063,28.286C587.53,637.492,574.869,624.928,574.807,609.368z"/>
					<path fill="#FFFFFF" d="M578.783,609.353c-0.054-13.367,10.739-24.246,24.1-24.299c13.366-0.054,24.244,10.74,24.298,24.106
						c0.052,13.362-10.739,24.24-24.104,24.291C589.712,633.506,578.834,622.716,578.783,609.353z"/>
					<path fill="#414142" d="M580.555,86.06c0.008,1.946,1.591,3.515,3.536,3.508l34.044-0.136c1.943-0.007,3.516-1.589,3.509-3.535
						l0,0c-0.008-1.943-1.593-3.512-3.536-3.504l-34.046,0.135C582.117,82.535,580.547,84.117,580.555,86.06L580.555,86.06z"/>
				</g>
				<path fill="#D4B9A6" d="M457.056,266.88c0,0,29.282,25.606,0.499,125.2C457.555,392.08,415.851,280.277,457.056,266.88z"/>
				<path fill="#D4B9A6" d="M752.258,390.91c0,0-16.063-73.051-0.354-89.343C751.903,301.567,784.992,386.78,752.258,390.91z"/>
				<path fill="#E1C6BA" d="M801.709,540.736c0,0-22.353,11.435-38.703-8.101c-11.97-14.298-10.671-28.11,10.315-34.423
					C804.193,488.928,852.101,492.396,801.709,540.736z"/>
				<path fill="#E1C6BA" d="M754.993,408.88c0,0,23.953,20.364,34.331,46.934c0,0,54.754-33.308,33.956-47.206
					C802.485,394.713,754.993,408.88,754.993,408.88z"/>
				<path fill="#E1C6BA" d="M766.5,311.896c-6.096,0.526,33.917,9.257,24.786,48.427c0,0,10.01,24.271,20.395-14.322
					C822.068,307.414,804.399,308.614,766.5,311.896z"/>
				<path fill="#C59C87" d="M457.88,473.995c0,0-8.776,14.473-29.113,17.683l26.514,3.8L457.88,473.995z"/>
				<path fill="#C59C87" d="M819.638,378.995c0,0-15.733,23.421-51.646,23.622C767.991,402.616,785.241,388.52,819.638,378.995z"/>
				<path fill="#C59C87" d="M856.037,479.022c0,0-43.593-18.606-79.796,8.146C776.241,487.168,832.179,436.543,856.037,479.022z"/>
			</g>
		</g>
	</g>
	<g>
		<defs>
			<rect id="SVGID_1_" x="466.245" y="109.269" width="272.802" height="227.793"/>
		</defs>
		<clipPath id="SVGID_2_">
			<use xlink:href="#SVGID_1_"  overflow="visible"/>
		</clipPath>
		<g clip-path="url(#SVGID_2_)">
			<rect x="289.625" y="49.72" fill="#08A650" width="637.326" height="275.114"/>
			<path fill="#44A84C" d="M926.951,224.454c0,0-41.957-22.307-105.689-22.307c-63.733,0-300.605,19.12-361.152,19.12
				c-60.545,0-84.446-19.12-127.465-19.12s-43.02,0-43.02,0V76.275h637.326V224.454z"/>
			<path fill="#2270AF" d="M926.951,200.592c0,0-41.957,16.996-105.689,16.996c-63.733,0-284.673-27.618-345.218-27.618
				c-60.547,0-100.379,10.623-143.399,10.623s-43.02,0-43.02,0V74.72h637.326V200.592z"/>
			<g>
				<path fill="#FFFFFF" d="M757.602,93.882v-7.609c0-4.879-3.955-8.835-8.835-8.835h-98.618c-4.88,0-8.837,3.957-8.837,8.835v7.609
					c0,4.879,3.957,8.836,8.837,8.836h98.618C753.646,102.718,757.602,98.761,757.602,93.882z"/>
			</g>
			<rect x="289.625" y="265.88" fill="#333333" width="637.326" height="58.954"/>
			<g>
				<g>
					<g>
						<g>
							<g>
								<g>
									
										<rect x="602.866" y="134.274" transform="matrix(0.9988 -0.0493 0.0493 0.9988 -6.7393 31.2341)" fill="#08A650" width="53.663" height="35.875"/>
									<g>
										<path fill="#EFC889" d="M516.855,302.644c32.064,4.248,173.127,6.187,180.307-2.978
											c11.018-14.059,15.333-26.494,1.242-34.749c-14.084-8.256-131.533-15.218-168.976-6.27
											C491.99,267.595,508.259,301.504,516.855,302.644z"/>
										<path fill="#51392E" d="M500.895,277.304c0,0,97.301,17.424,211.883,0c0,0,10.74-6.154,2.469-22.888
											c-8.274-16.731-181.738-17.702-202.591-10.944C491.8,250.228,500.895,277.304,500.895,277.304z"/>
										<path fill="#65B457" d="M498.92,254.417c6.459,2.904,4.255,0.654,17.523,7.884c13.27,7.23,19.169-8.765,31.281,6.264
											c12.11,15.033,14.218,22.525,32.228,11.75c18.011-10.781,15.338-11.958,26.629-10.406
											c11.288,1.553,14.004,6.38,27.812,6.38c13.807,0,36.559,3.86,41.295-1.931c4.741-5.793,1.899-5.038,12.321-4.45
											c10.427,0.588,21.568-1.343,24.815-4.237c3.255-2.895,19.206,3.354,18.112-3.376c-1.092-6.728,4.535-11.584,0.053-13.03
											c-4.483-1.447,3.524-3.863-12.618-3.863s5.976-9.768-19.936-5.85c-25.912,3.923-28.225-1.009-48.235,0
											c-20.014,1.014-37.867,5.607-63.036,0.017c-25.171-5.59-27.121-5.792-50.818-0.943c-23.7,4.852-35.457,5.814-35.457,5.814
											S481.396,246.531,498.92,254.417z"/>
										<path fill="#EDE48A" d="M713.255,242.301c5.078,1.204-4.917,19.499-17.577,18.72c-12.656-0.781-11.123-0.893-29.241,2.515
											c-18.117,3.411-25.047-1.304-34.663,1.869c-9.609,3.17,9.928-10.59-16.858-8.161c-26.789,2.428-30.298,2.566-41.154,2.497
											c-10.854-0.067-27.344,0.695-34.134,1.278c-6.789,0.581-30.07,0.432-6.789-15.902
											C556.117,228.792,672.514,232.649,713.255,242.301z"/>
										<path fill="#C25A5A" d="M697.055,230.502c14.721,2.618,30.719,17.594,16.499,19.487c-14.222,1.898-68.714,9.054-81.018,0
											C620.235,240.941,647.318,221.643,697.055,230.502z"/>
										<path fill="#C25A5A" d="M524.976,242.722c24.097,4.8,28.435,17.812,54.979,11.694
											c26.541-6.118,53.081,2.446,36.019-14.866c-17.062-17.313-28.436-21.171-55.924-20.206
											C532.561,220.309,477.581,233.287,524.976,242.722z"/>
										<path fill="#D36464" d="M651.194,237.707c0,0-0.118,0.019-0.329,0.063c-2.94,0.566-24.443,4.721-24.41,4.671
											c0.029-0.054,30.495,0,30.495,0l-9.886,11.518l22.982-13.598l10.934,12.918l6.152-9.252l22.13,7.053l-25.522-15.646
											l18.335,4.065l-15.825-8.928L651.194,237.707z"/>
										<path fill="#D36464" d="M571.423,242.722l-3.792,11.694l-7.583-11.694l-20.854-1.178l9.478-7.723l-36.694-2.775
											l39.539-2.471l19.907-9.306c0,0-5.689,10.617,0,10.654c5.686,0.036,33.794,0,33.794,0l-18.051,4.638l19.415,8.162h-26.629
											l7.214,6.541L571.423,242.722z"/>
										<path fill="#EFC889" d="M511.98,238.98c33.83,4.312,182.637,6.539,190.188-2.614c11.591-14.04,16.117-26.462,1.245-34.748
											c-14.878-8.285-100.708-35.14-178.255-6.617C487.134,208.992,502.907,237.824,511.98,238.98z"/>
									</g>
									<path fill="#F4D8B1" d="M649.891,195.465c3.92,0,7.099,1.712,7.099,3.824c0,2.112-3.179,3.825-7.099,3.825
										c-3.928,0-7.105-1.713-7.105-3.825C642.785,197.177,645.963,195.465,649.891,195.465z"/>
									<ellipse fill="#F4D8B1" cx="577.225" cy="203.116" rx="7.101" ry="3.826"/>
									<ellipse fill="#F4D8B1" cx="622.692" cy="219.268" rx="7.102" ry="3.824"/>
									<ellipse fill="#DBAF75" cx="601.569" cy="203.116" rx="7.103" ry="3.826"/>
									<ellipse fill="#F4D8B1" cx="543.896" cy="215.444" rx="7.104" ry="3.826"/>
									<polygon fill="#343130" points="605.04,199.557 605.04,127.806 598.098,127.806 601.569,204.699 									"/>
									<g transform="matrix(0.1,0,0,-0.1,0,362)">
										<path fill="#FFFFFF" d="M6404.13,2230.083c-6.074-1.479-18.926-4.106-28.467-5.811
											c-24.365-4.307-28.291-5.669-39.268-13.481c-15.527-11.143-26.729-33.013-27.051-53.062
											c-0.029-7.646,0.986-13.096,2.256-11.704c0.371,0.386,1.455,2.554,2.373,4.814c4.854,11.03,18.564,27.725,30.176,36.641
											c5.898,4.59,17.744,8.965,17.666,6.553c-0.01-0.83-4.121-5.752-8.965-10.64c-4.551-4.688-6.123-6.616-14.736-18.652
											c-8.965-12.612-20.742-35.239-28.779-55.425c-7.793-19.619-13.555-35.244-17.393-46.978
											c-6.533-20.088-12.354-35.938-13.33-36.226c-1.23-0.43-4.336,10.449-10.762,37.442
											c-10.029,42.28-14.375,56.812-24.883,83.359c-7.256,18.057-16.953,32.632-36.787,55.02
											c-10.889,12.407-26.504,24.355-35.957,27.729c-6.162,2.227-6.738,1.172-2.139-4.126
											c21.621-25.317,34.043-44.014,47.119-70.537c10.957-22.529,18.408-44.844,31.709-95.967
											c3.379-13.076,10.781-46.348,13.125-59.277c2.588-14.331,5.479-28.398,6.27-30.601c0.293-0.679,1.387-1.631,2.539-1.958
											c2.559-0.728,14.99-0.947,17.617-0.332c3.965,1.074,4.785,4.141,10.898,39.731c4.121,24.092,7.48,38.477,14.131,59.922
											c11.191,36.562,22.9,63.262,29.795,67.52c0.986,0.586,5.889,1.694,10.967,2.451c19.736,2.852,35.693,11.265,47.148,24.888
											c7.686,9.072,9.746,15.864,12.119,38.511c1.201,12.012,1.865,15.396,4.277,22.544c1.514,4.668,2.578,8.877,2.441,9.409
											C6417.734,2233.213,6416.533,2233.081,6404.13,2230.083z"/>
									</g>
								</g>
							</g>
						</g>
					</g>
				</g>
			</g>
		</g>
	</g>
	<rect x="483.224" y="350.645" fill="#C7C8CA" width="167.53" height="29.431"/>
	<rect x="483.224" y="404.837" fill="#C7C8CA" width="235.448" height="18.395"/>
	<rect x="483.224" y="438.797" fill="#C7C8CA" width="235.448" height="18.394"/>
	<rect x="483.224" y="472.755" fill="#C7C8CA" width="235.448" height="18.395"/>
	<rect x="483.224" y="506.714" fill="#C7C8CA" width="235.448" height="18.395"/>
</g>
<g>
	<path fill="#FFFFFF" d="M1163.328,71.345V58.824c0-9.188-7.449-16.637-16.637-16.637H961.006c-9.188,0-16.637,7.449-16.637,16.637
		v12.458H837.781c-9.188,0-16.637,7.449-16.637,16.636v14.327c0,9.187,7.449,16.636,16.637,16.636h28.587
		c-2.575,2.93-4.149,6.761-4.149,10.967v14.327c0,9.188,7.449,16.637,16.637,16.637h56.479h129.207h56.479
		c9.188,0,16.637-7.449,16.637-16.637v-14.327c0-4.207-1.574-8.038-4.149-10.967h28.587c9.188,0,16.637-7.449,16.637-16.636V87.918
		C1178.73,79.148,1171.938,71.979,1163.328,71.345z"/>
</g>
<path fill="#FFFFFF" d="M334.502,102.188H148.816c-9.188,0-16.637,7.449-16.637,16.637v14.327c0,2.519,0.576,4.897,1.578,7.037
	H88.816c-9.188,0-16.637,7.449-16.637,16.637v14.327c0,9.187,7.449,16.636,16.637,16.636h185.686
	c9.188,0,16.637-7.449,16.637-16.636v-14.327c0-2.519-0.576-4.897-1.578-7.037h44.941c9.188,0,16.637-7.449,16.637-16.636v-14.327
	C351.139,109.637,343.689,102.188,334.502,102.188z"/>
</svg>
