<?xml version="1.0" encoding="utf-8"?>
<!-- Generator: Adobe Illustrator 16.0.0, SVG Export Plug-In . SVG Version: 6.00 Build 0)  -->
<!DOCTYPE svg PUBLIC "-//W3C//DTD SVG 1.1//EN" "http://www.w3.org/Graphics/SVG/1.1/DTD/svg11.dtd">
<svg version="1.1" id="Layer_1" xmlns="http://www.w3.org/2000/svg" xmlns:xlink="http://www.w3.org/1999/xlink" x="0px" y="0px"
	 width="156px" height="155px" viewBox="0 0 156 155" enable-background="new 0 0 156 155" xml:space="preserve">
<path fill="#EAB87D" d="M140.307,81.869c0.313,0.994-0.239,2.054-1.234,2.366l-3.953,1.244c-0.994,0.312-2.053-0.238-2.365-1.233
	l-9.938-31.586c-0.312-0.994,0.238-2.053,1.232-2.366l3.953-1.244c0.995-0.312,2.055,0.24,2.367,1.234L140.307,81.869z"/>
<g>
	<path fill="#2676BA" d="M117.84,27.065c-0.894-2.085-2.379-5.216-2.089-7.323c-7.683,2.707-11.892,11.032-9.429,18.858
		l11.104,35.293l28.949-9.109l-9.348-29.708c-0.673,0.33-2.231,0.511-2.998,0.43C125.253,34.589,120.713,33.767,117.84,27.065z"/>
	<path fill="#15629B" d="M134.234,31.833c-6.066,1.909-11.962-0.721-13.871-6.787c-0.565-1.798-1.216-4.375-0.921-6.113
		c-1.062,0.098-2.143,0.309-3.198,0.641c-0.166,0.052-0.329,0.112-0.493,0.168c-0.29,2.107-0.133,4.311,0.548,6.475
		c2.461,7.821,10.796,12.166,18.616,9.705c0.736-0.231,1.44-0.515,2.112-0.846l-1.221-3.882
		C135.303,31.438,134.784,31.659,134.234,31.833z"/>
</g>
<rect x="116.359" y="65.722" transform="matrix(-0.9539 0.3001 -0.3001 -0.9539 277.2935 93.4047)" fill="#2D9BE0" width="30.228" height="4.554"/>
<g>
	<g>
		<path fill="#EFC889" d="M37.684,130.98c21.752,7.849,64.033,7.849,81.916-1.354c5.006-6.387,6.967-12.036,0.564-15.786
			c-6.398-3.753-59.757-6.916-76.77-2.85C26.386,115.059,33.777,130.463,37.684,130.98z"/>
		<path fill="#51382D" d="M30.432,119.469c0,0,44.207,7.915,96.263,0c0,0,4.88-2.797,1.121-10.398
			c-3.758-7.6-82.566-8.04-92.041-4.971C26.3,107.169,30.432,119.469,30.432,119.469z"/>
		<path fill="#65B458" d="M29.535,109.07c2.934,1.32,1.933,0.3,7.961,3.582c6.029,3.285,8.709-3.983,14.211,2.847
			s6.46,10.233,14.643,5.337c8.182-4.896,6.969-5.434,12.097-4.727c5.13,0.705,6.361,2.896,12.638,2.896
			c6.272,0,16.608,1.752,18.763-0.877c2.153-2.631,0.862-2.289,5.6-2.021c4.738,0.268,9.798-0.609,11.271-1.926
			c1.479-1.314,8.727,1.523,8.229-1.533c-0.496-3.058,2.062-5.265,0.023-5.92c-2.037-0.654,1.602-1.754-5.734-1.754
			c-7.332,0,2.719-4.438-9.055-2.658c-11.772,1.779-12.824-0.461-21.916,0c-9.094,0.461-17.203,2.548-28.641,0.008
			c-11.434-2.539-12.32-2.631-23.088-0.43c-10.766,2.205-16.107,2.644-16.107,2.644S21.573,105.488,29.535,109.07z"/>
		<path fill="#EDE48A" d="M126.912,103.566c2.309,0.547-2.234,8.856-7.982,8.506c-5.752-0.354-5.057-0.406-13.287,1.144
			c-8.229,1.55-11.381-0.593-15.748,0.851c-4.367,1.439,4.514-4.812-7.66-3.709c-12.167,1.104-13.763,1.166-18.694,1.138
			c-4.932-0.031-12.422,0.313-15.508,0.582c-3.084,0.264-13.661,0.192-3.084-7.228C55.521,97.43,108.402,99.182,126.912,103.566z"/>
		<path fill="#C15959" d="M119.553,98.205c6.688,1.189,13.959,7.994,7.496,8.854c-6.462,0.864-31.219,4.113-36.811,0
			C84.65,102.949,96.956,94.182,119.553,98.205z"/>
		<path fill="#C15959" d="M41.373,103.758c10.947,2.182,12.918,8.092,24.979,5.312c12.059-2.78,24.117,1.109,16.363-6.754
			c-7.751-7.865-12.918-9.619-25.406-9.183C44.818,93.574,19.84,99.471,41.373,103.758z"/>
		<path fill="#D36363" d="M98.717,101.479c0,0-0.052,0.012-0.15,0.029c-1.334,0.258-11.104,2.145-11.09,2.122
			c0.017-0.024,13.854,0,13.854,0l-4.491,5.231l10.442-6.178l4.967,5.871l2.796-4.203l10.055,3.203l-11.597-7.107l8.331,1.847
			l-7.191-4.058L98.717,101.479z"/>
		<path fill="#D36363" d="M62.477,103.758l-1.724,5.312l-3.444-5.312l-9.476-0.535l4.308-3.508l-16.67-1.262l17.961-1.123
			l9.045-4.229c0,0-2.586,4.823,0,4.842c2.582,0.019,15.353,0,15.353,0l-8.201,2.105l8.82,3.708H66.35l3.278,2.976L62.477,103.758z"
			/>
		<path fill="#EFC889" d="M35.469,102.057c15.369,1.961,82.976,2.974,86.407-1.185c5.267-6.379,7.323-12.024,0.565-15.787
			c-6.76-3.765-45.754-15.966-80.987-3.005C24.182,88.434,31.346,101.532,35.469,102.057z"/>
	</g>
	<path fill="#DBAF75" d="M79.979,80.096c9.459,0.19,17.101,2.908,17.066,6.074c-0.027,3.163-7.727,5.575-17.184,5.389
		c-9.458-0.19-17.096-2.908-17.067-6.072C62.824,82.325,70.515,79.91,79.979,80.096z"/>
</g>
<path fill="#A355A1" d="M79.729,23.911c-10.888,0.001-19.712,8.824-19.712,19.715c0,17.814,19.712,41.076,19.712,41.076
	c1.308,1.315,19.715-21.367,19.715-41.076C99.443,32.737,90.616,23.912,79.729,23.911z M79.964,53.964
	c-5.507,0.001-9.972-4.468-9.972-9.974c0-5.505,4.465-9.971,9.972-9.974c5.507,0.002,9.979,4.468,9.979,9.974
	C89.938,49.496,85.471,53.969,79.964,53.964z"/>
<polygon fill="#FEBE10" points="36.327,27.923 41.853,39.122 54.213,40.916 45.267,49.637 47.381,61.945 36.327,56.134 
	25.272,61.945 27.38,49.637 18.437,40.916 30.796,39.122 "/>
</svg>
