<?xml version="1.0" encoding="utf-8"?>
<!-- Generator: Adobe Illustrator 16.0.0, SVG Export Plug-In . SVG Version: 6.00 Build 0)  -->
<!DOCTYPE svg PUBLIC "-//W3C//DTD SVG 1.1//EN" "http://www.w3.org/Graphics/SVG/1.1/DTD/svg11.dtd">
<svg version="1.1" id="Layer_1" xmlns="http://www.w3.org/2000/svg" xmlns:xlink="http://www.w3.org/1999/xlink" x="0px" y="0px"
	 width="156px" height="155px" viewBox="0 0 156 155" enable-background="new 0 0 156 155" xml:space="preserve">
<path fill="#1CA149" d="M76.468,22.25c0,0-4.377-7.441,3.064-8.316c7.44-0.875,10.942,9.629,10.942,9.629s17.508-0.875,16.194,8.316
	C105.356,41.07,83.472,31.879,76.468,22.25z"/>
<path fill="#4F2500" d="M24.82,75.648c0,0,7.44-7.879,17.507-10.942c10.067-3.064,67.405-9.191,77.91-0.438
	c10.505,8.754,10.505,14.444,10.505,14.444s-12.08,18.296-52.435,17.902C37.951,96.22,18.254,85.277,24.82,75.648z"/>
<path fill="#DA4279" d="M30.248,90.227c0,0,2.625,30.242,10.858,36.052c8.232,5.81,20.436,9.489,39.692,9.769
	s32.057-6.977,36.509-12.165c4.453-5.188,10.182-37.936,10.182-37.936S106.316,97.02,78.308,96.614
	C50.297,96.208,30.248,90.227,30.248,90.227z"/>
<path fill="#E3BBAD" d="M27.446,74.335c0,0-9.629,8.754,12.255,13.569c21.885,4.813,66.53,4.377,80.098-3.939
	c13.569-8.316,9.629-5.253,5.689-13.131c0,0,15.32,0.876,10.505,10.067c-4.814,9.191-26.262,16.195-56.9,17.508
	c-30.638,1.313-53.836-6.564-58.213-15.319C16.504,74.335,27.446,74.335,27.446,74.335z"/>
<path fill="#FFEAE3" d="M41.891,66.895c-4.726,3.998,15.757,5.69,20.571,5.252s4.814-0.438,4.814-0.438s-2.188,8.753,9.191,3.501
	c11.38-5.252,17.946-7.441,17.946-7.441s-3.502,9.63,8.315,1.751c11.818-7.878,8.755-14.881,7.441-21.009
	s4.377-11.818-21.885-11.818c-26.262,0-45.521,5.69-49.897,18.821C38.389,55.515,47.58,62.08,41.891,66.895z"/>
<path fill="#F7CDCD" d="M38.389,55.515c0,0,38.955-0.438,49.459-10.067c0,0,9.63,6.128-20.571,14.882c0,0-10.067,3.063-18.383,3.063
	C40.577,63.393,38.389,55.515,38.389,55.515z"/>
<path fill="#F7CDCD" d="M56.772,70.833c0,0,8.754-5.689,21.008-11.38c12.256-5.69,22.762-7.003,22.762-15.757
	c0,0,3.938,7.003-6.128,14.006C84.347,64.706,67.276,70.396,56.772,70.833z"/>
<path fill="#F7CDCD" d="M94.414,67.77c0,0,11.817-7.44,12.692-11.817c0,0-2.626,15.319-11.817,17.07
	C95.289,73.022,89.6,70.396,94.414,67.77z"/>
<path fill="#EF433F" d="M51.957,32.754c0.528,1.28,3.064,14.881,11.38,17.07c8.317,2.188,4.377,3.501,15.757-0.438
	c11.381-3.939,17.07-3.063,18.384-10.067c1.312-7.003-0.875-17.945-14.882-17.945C68.59,21.375,48.894,25.313,51.957,32.754z"/>
<path fill="#F79F9F" d="M81.282,24.438c0,0,12.256,2.188,2.189,13.13C73.404,48.511,73.404,48.511,73.404,48.511
	s-16.195-13.568-8.316-20.134S81.282,24.438,81.282,24.438z"/>
<path fill="#EF433F" d="M73.841,25.751c0,0-3.501,5.69-2.188,14.882C71.654,40.633,83.472,26.189,73.841,25.751z"/>
</svg>
