<?xml version="1.0" encoding="utf-8"?>
<!-- Generator: Adobe Illustrator 16.0.0, SVG Export Plug-In . SVG Version: 6.00 Build 0)  -->
<!DOCTYPE svg PUBLIC "-//W3C//DTD SVG 1.1//EN" "http://www.w3.org/Graphics/SVG/1.1/DTD/svg11.dtd">
<svg version="1.1" id="Layer_1" xmlns="http://www.w3.org/2000/svg" xmlns:xlink="http://www.w3.org/1999/xlink" x="0px" y="0px"
	 width="449px" height="63.5px" viewBox="0 0 449 63.5" enable-background="new 0 0 449 63.5" xml:space="preserve">
<g>
	<path fill="#00A651" d="M36.011,3.892h16.06L23.947,60.604H7.034L3,3.892h14.818l1.047,31.072v1.979
		c0,3.724-0.208,7.034-0.621,9.93h0.31c0.362-1.654,0.938-3.691,1.727-6.109c0.789-2.418,1.506-4.299,2.153-5.644L36.011,3.892z"/>
	<path fill="#00A651" d="M77.191,60.604h-33.67L55.507,3.892h33.67l-2.521,12.297H68.153l-1.823,8.922h17.223L80.76,37.407H63.537
		l-2.211,10.707h18.503L77.191,60.604z"/>
	<path fill="#00A651" d="M111.272,27.399h23.663l-6.478,30.839c-6.465,2.095-13.202,3.142-20.21,3.142
		c-6.75,0-11.986-1.965-15.71-5.896c-3.724-3.93-5.586-9.503-5.586-16.719c0-6.904,1.422-13.136,4.267-18.697
		c2.844-5.56,6.743-9.794,11.695-12.704C107.865,4.455,113.625,3,120.194,3c6.879,0,12.671,1.384,17.378,4.151l-5.702,11.986
		c-3.957-2.328-7.914-3.491-11.87-3.491c-3.414,0-6.433,0.938-9.058,2.812c-2.625,1.875-4.72,4.649-6.284,8.321
		c-1.565,3.672-2.347,7.59-2.347,11.753c0,6.828,2.702,10.241,8.107,10.241c1.629,0,3.349-0.181,5.159-0.544l1.978-8.998h-8.883
		L111.272,27.399z"/>
	<path fill="#00A651" d="M169.211,3c6.724,0,11.953,1.92,15.69,5.761c3.737,3.84,5.605,9.2,5.605,16.079
		c0,6.879-1.286,13.169-3.859,18.872s-6.123,10.073-10.648,13.111c-4.525,3.039-9.775,4.558-15.749,4.558
		c-6.957,0-12.329-1.926-16.117-5.779c-3.789-3.854-5.683-9.206-5.683-16.06c0-6.853,1.332-13.15,3.996-18.891
		c2.663-5.741,6.29-10.118,10.881-13.131C157.916,4.507,163.211,3,169.211,3z M175.185,24.995c0-2.948-0.62-5.256-1.862-6.924
		c-1.241-1.668-3.038-2.502-5.392-2.502c-2.56,0-4.913,1.086-7.06,3.258c-2.147,2.172-3.86,5.159-5.14,8.961
		c-1.28,3.801-1.921,7.694-1.921,11.676c0,6.258,2.586,9.387,7.759,9.387c2.456,0,4.738-1.072,6.847-3.219
		c2.107-2.146,3.763-5.043,4.965-8.689S175.185,29.313,175.185,24.995z"/>
	<path fill="#00A651" d="M226.877,43.188c0,5.741-1.9,10.208-5.702,13.402s-9.103,4.79-15.904,4.79
		c-2.845,0-5.534-0.316-8.068-0.949c-2.535-0.635-4.72-1.559-6.556-2.774V44.079c2.172,1.371,4.661,2.521,7.467,3.453
		c2.806,0.931,5.347,1.396,7.623,1.396c1.913,0,3.361-0.4,4.345-1.203c0.982-0.801,1.474-1.939,1.474-3.413
		c0-0.698-0.155-1.351-0.466-1.959c-0.31-0.607-0.75-1.216-1.318-1.823c-0.569-0.607-2.095-1.945-4.577-4.015
		c-3.026-2.431-5.225-4.914-6.595-7.448c-1.371-2.534-2.056-5.314-2.056-8.34c0-3.388,0.847-6.433,2.541-9.135
		c1.693-2.702,4.085-4.797,7.176-6.284c3.09-1.487,6.549-2.23,10.377-2.23c6.18,0,11.74,1.384,16.68,4.151l-5.236,11.521
		c-4.423-2.275-8.186-3.414-11.288-3.414c-1.655,0-2.929,0.363-3.821,1.086c-0.893,0.724-1.338,1.784-1.338,3.181
		c0,1.268,0.433,2.451,1.299,3.549c0.866,1.1,2.515,2.567,4.946,4.403c3.051,2.25,5.314,4.616,6.788,7.099
		C226.141,37.136,226.877,39.981,226.877,43.188z"/>
	<path fill="#00A651" d="M267.359,3.892h16.059l-28.123,56.712h-16.913l-4.034-56.712h14.818l1.047,31.072v1.979
		c0,3.724-0.207,7.034-0.62,9.93h0.311c0.361-1.654,0.937-3.691,1.726-6.109s1.507-4.299,2.153-5.644L267.359,3.892z"/>
	<path fill="#00A651" d="M306.871,49.976h-17.378l-4.849,10.629h-15.749l28.86-56.712h19.512l4.771,56.712H307.26L306.871,49.976z
		 M295.04,37.873h11.366l-0.66-16.447l-0.077-3.336c0-1.939,0.052-3.633,0.155-5.082c-0.621,2.224-1.41,4.371-2.366,6.439
		L295.04,37.873z"/>
	<path fill="#00A651" d="M344.135,39.968l-4.384,20.637h-15.167L336.57,3.892h15.012c6.517,0,11.508,1.293,14.974,3.879
		c3.465,2.586,5.198,6.478,5.198,11.676c0,4.034-0.919,7.552-2.755,10.551c-1.836,3-4.564,5.29-8.185,6.866l8.689,20.016
		l1.552,3.725H354.53l-7.564-20.637H344.135z M346.578,28.447h1.979c2.456,0,4.409-0.704,5.857-2.114
		c1.448-1.409,2.172-3.381,2.172-5.916c0-1.603-0.445-2.825-1.338-3.666c-0.893-0.84-2.191-1.261-3.898-1.261h-2.056L346.578,28.447
		z"/>
</g>
<g>
	<path fill="#00A651" d="M443.571,4.374c-6.859-1.001-25.438,2.029-38.858,12.73c-12.903,10.289-16.797,26.635-14.117,34.611
		C408.924,11.041,443.571,4.374,443.571,4.374z"/>
	<path fill="#00A651" d="M395.253,59.676c4.205,1.233,20.994,4.437,36.631-16.773c11.743-15.932,13.762-34.981,13.907-36.493
		C408.067,22.366,398.282,53.562,395.253,59.676z"/>
</g>
</svg>
