<?xml version="1.0" encoding="utf-8"?>
<!-- Generator: Adobe Illustrator 16.0.0, SVG Export Plug-In . SVG Version: 6.00 Build 0)  -->
<!DOCTYPE svg PUBLIC "-//W3C//DTD SVG 1.1 Tiny//EN" "http://www.w3.org/Graphics/SVG/1.1/DTD/svg11-tiny.dtd">
<svg version="1.1" baseProfile="tiny" id="Layer_1" xmlns="http://www.w3.org/2000/svg" xmlns:xlink="http://www.w3.org/1999/xlink"
	 x="0px" y="0px" width="357.578px" height="85px" viewBox="0 0 357.578 85" xml:space="preserve">
<rect y="-0.724" fill="#242224" width="358.078" height="86.667"/>
<g>
	<g>
		<path fill="#FFFFFF" d="M109.546,28.003h10.887l-19.063,38.44H89.903l-2.733-38.44h10.044l0.711,21.062v1.345
			c0,2.522-0.143,4.77-0.423,6.729h0.21c0.245-1.119,0.635-2.504,1.17-4.143c0.535-1.637,1.021-2.915,1.459-3.825L109.546,28.003z"
			/>
		<path fill="#FFFFFF" d="M137.461,66.443h-22.823l8.124-38.44h22.824l-1.709,8.338h-12.543l-1.235,6.046h11.675l-1.894,8.336
			h-11.674l-1.499,7.262h12.542L137.461,66.443z"/>
		<path fill="#FFFFFF" d="M160.563,43.941h16.04l-4.391,20.906c-4.382,1.418-8.949,2.125-13.7,2.125
			c-4.575,0-8.125-1.328-10.649-3.996c-2.524-2.66-3.785-6.443-3.785-11.332c0-4.68,0.963-8.903,2.891-12.676
			c1.929-3.769,4.57-6.635,7.928-8.609c3.357-1.974,7.261-2.96,11.713-2.96c4.663,0,8.588,0.94,11.781,2.817l-3.866,8.124
			c-2.682-1.577-5.365-2.372-8.047-2.372c-2.313,0-4.359,0.64-6.141,1.911c-1.778,1.27-3.197,3.15-4.258,5.638
			c-1.06,2.49-1.591,5.146-1.591,7.967c0,4.632,1.832,6.945,5.495,6.945c1.106,0,2.272-0.123,3.498-0.369l1.342-6.104h-6.022
			L160.563,43.941z"/>
		<path fill="#FFFFFF" d="M199.837,27.398c4.56,0,8.104,1.302,10.636,3.905c2.536,2.604,3.801,6.24,3.801,10.899
			c0,4.666-0.871,8.929-2.613,12.792c-1.744,3.869-4.151,6.828-7.219,8.892c-3.067,2.062-6.629,3.089-10.678,3.089
			c-4.717,0-8.357-1.303-10.926-3.916s-3.851-6.24-3.851-10.887s0.904-8.916,2.708-12.806c1.805-3.893,4.264-6.859,7.377-8.901
			C192.182,28.422,195.771,27.398,199.837,27.398z M203.887,42.307c0-1.997-0.418-3.56-1.262-4.693
			c-0.841-1.13-2.061-1.694-3.652-1.694c-1.734,0-3.332,0.737-4.787,2.208s-2.617,3.497-3.484,6.075
			c-0.866,2.576-1.303,5.215-1.303,7.916c0,4.24,1.754,6.363,5.261,6.363c1.665,0,3.215-0.727,4.642-2.184
			c1.432-1.454,2.553-3.417,3.365-5.89C203.479,47.938,203.887,45.232,203.887,42.307z"/>
		<path fill="#FFFFFF" d="M239.967,55.167c0,3.894-1.285,6.921-3.865,9.087c-2.578,2.164-6.17,3.249-10.777,3.249
			c-1.934,0-3.756-0.213-5.473-0.646c-1.719-0.429-3.199-1.058-4.443-1.879v-9.205c1.473,0.928,3.16,1.707,5.062,2.34
			c1.903,0.631,3.625,0.947,5.166,0.947c1.297,0,2.28-0.272,2.947-0.815c0.666-0.54,1-1.313,1-2.312
			c0-0.473-0.105-0.916-0.318-1.332c-0.205-0.41-0.504-0.824-0.894-1.233c-0.382-0.411-1.419-1.319-3.099-2.724
			c-2.053-1.648-3.545-3.33-4.476-5.047c-0.929-1.717-1.394-3.605-1.394-5.654c0-2.295,0.574-4.363,1.721-6.193
			c1.15-1.83,2.771-3.253,4.866-4.259c2.097-1.009,4.44-1.51,7.034-1.51c4.188,0,7.961,0.938,11.309,2.814l-3.55,7.808
			c-2.996-1.542-5.548-2.313-7.647-2.313c-1.128,0-1.99,0.246-2.594,0.737c-0.607,0.487-0.906,1.207-0.906,2.155
			c0,0.86,0.291,1.661,0.877,2.406c0.588,0.747,1.705,1.743,3.354,2.987c2.067,1.525,3.603,3.126,4.601,4.812
			C239.469,51.064,239.967,52.993,239.967,55.167z"/>
		<path fill="#FFFFFF" d="M267.409,28.53h10.884L259.23,66.975h-11.465l-2.736-38.444h10.048l0.709,21.064v1.343
			c0,2.521-0.14,4.768-0.42,6.73h0.211c0.243-1.121,0.634-2.505,1.171-4.146c0.535-1.636,1.021-2.912,1.461-3.82L267.409,28.53z"/>
		<path fill="#FFFFFF" d="M293.516,59.771h-11.779l-3.286,7.203h-10.679l19.564-38.44h13.225l3.234,38.44h-10.018L293.516,59.771z
			 M285.494,51.564h7.705l-0.448-11.148l-0.052-2.261c0-1.315,0.033-2.462,0.104-3.447c-0.421,1.507-0.955,2.964-1.604,4.365
			L285.494,51.564z"/>
		<path fill="#FFFFFF" d="M318.773,52.986l-2.973,13.988h-10.279l8.123-38.444h10.176c4.418,0,7.802,0.875,10.152,2.629
			c2.348,1.754,3.522,4.396,3.522,7.917c0,2.734-0.624,5.12-1.869,7.153c-1.245,2.029-3.094,3.586-5.549,4.651l5.891,13.568
			l1.052,2.528h-11.205l-5.121-13.99L318.773,52.986L318.773,52.986z M320.43,45.174h1.342c1.666,0,2.988-0.475,3.972-1.431
			c0.979-0.956,1.472-2.292,1.472-4.011c0-1.085-0.303-1.912-0.908-2.485c-0.604-0.57-1.484-0.853-2.646-0.853h-1.394L320.43,45.174
			z"/>
	</g>
	<path fill="#FFFFFF" d="M70.463,55.779c1.719-3.643,2.59-7.536,2.59-11.579c0-15.04-12.236-27.276-27.277-27.276
		c-15.042,0-27.279,12.236-27.279,27.276c0,15.038,12.238,27.274,27.279,27.274c4.062,0,7.969-0.875,11.621-2.608l16.094,3.042
		L70.463,55.779z M67.757,66.168L56.73,64.084l-0.697,0.354C52.825,66.07,49.376,66.9,45.776,66.9c-3.516,0-6.846-0.803-9.819-2.237
		c1.924-5.861,3.796-9.937,5.034-10.729c0.225-0.138,1.329-0.416,2.484-0.604c4.484-0.742,8.089-2.727,10.642-5.883
		c1.706-2.104,2.156-3.657,2.587-8.831c0.223-2.743,0.361-3.518,0.878-5.157c0.329-1.07,0.553-2.035,0.519-2.155
		c-0.121-0.312-0.397-0.277-3.208,0.465c-1.381,0.362-4.295,1.017-6.468,1.449c-5.537,1.086-6.417,1.413-8.883,3.241
		c-3.501,2.605-5.951,7.643-5.934,12.213c0.017,1.74,0.277,2.984,0.569,2.657c0.071-0.087,0.311-0.586,0.519-1.104
		c1.05-2.535,4.104-6.398,6.709-8.488c1.327-1.069,4.002-2.121,4.002-1.568c0,0.189-0.915,1.328-2.002,2.467
		c-1.018,1.087-1.362,1.534-3.278,4.312c-1.982,2.918-4.569,8.121-6.312,12.766c-0.4,1.064-0.767,2.064-1.117,3.025
		c-5.819-4.115-9.626-10.891-9.626-18.538c0-12.516,10.184-22.701,22.702-22.701c12.517,0,22.7,10.185,22.7,22.701
		c0,3.584-0.821,7.022-2.442,10.223l-0.352,0.692L67.757,66.168z"/>
</g>
</svg>
