<?xml version="1.0" encoding="utf-8"?>
<!-- Generator: Adobe Illustrator 16.0.0, SVG Export Plug-In . SVG Version: 6.00 Build 0)  -->
<!DOCTYPE svg PUBLIC "-//W3C//DTD SVG 1.1 Tiny//EN" "http://www.w3.org/Graphics/SVG/1.1/DTD/svg11-tiny.dtd">
<svg version="1.1" baseProfile="tiny" id="Layer_1" xmlns="http://www.w3.org/2000/svg" xmlns:xlink="http://www.w3.org/1999/xlink"
	 x="0px" y="0px" width="357.578px" height="85px" viewBox="0 0 357.578 85" xml:space="preserve">
<rect fill="#242224" width="358.078" height="85"/>
<g>
	<g>
		<path fill="#00A651" d="M109.546,27.06h10.887L101.37,65.5H89.903L87.17,27.06h10.044l0.711,21.062v1.345
			c0,2.522-0.143,4.77-0.423,6.729h0.21c0.245-1.119,0.635-2.504,1.17-4.143c0.535-1.637,1.021-2.914,1.459-3.824L109.546,27.06z"/>
		<path fill="#00A651" d="M137.461,65.5h-22.823l8.124-38.44h22.824l-1.709,8.338h-12.543l-1.235,6.046h11.675l-1.894,8.336h-11.674
			l-1.499,7.261h12.542L137.461,65.5z"/>
		<path fill="#00A651" d="M160.563,42.998h16.04l-4.391,20.906c-4.382,1.418-8.949,2.125-13.7,2.125
			c-4.575,0-8.125-1.328-10.649-3.996c-2.524-2.66-3.785-6.443-3.785-11.332c0-4.68,0.963-8.903,2.891-12.675
			c1.929-3.769,4.57-6.635,7.928-8.609c3.357-1.974,7.261-2.96,11.713-2.96c4.663,0,8.588,0.94,11.781,2.817l-3.866,8.124
			c-2.682-1.577-5.365-2.372-8.047-2.372c-2.313,0-4.359,0.64-6.141,1.911c-1.778,1.27-3.197,3.15-4.258,5.638
			c-1.06,2.489-1.591,5.146-1.591,7.967c0,4.632,1.832,6.944,5.495,6.944c1.106,0,2.272-0.123,3.498-0.369l1.342-6.104h-6.022
			L160.563,42.998z"/>
		<path fill="#00A651" d="M199.837,26.455c4.56,0,8.104,1.302,10.636,3.905c2.536,2.604,3.801,6.24,3.801,10.899
			c0,4.667-0.871,8.928-2.613,12.792c-1.744,3.869-4.151,6.828-7.219,8.893c-3.067,2.061-6.629,3.088-10.678,3.088
			c-4.717,0-8.357-1.303-10.926-3.916s-3.851-6.24-3.851-10.887c0-4.646,0.904-8.916,2.708-12.805
			c1.805-3.893,4.264-6.859,7.377-8.901C192.182,27.479,195.771,26.455,199.837,26.455z M203.887,41.364
			c0-1.997-0.418-3.56-1.262-4.693c-0.841-1.13-2.061-1.694-3.652-1.694c-1.734,0-3.332,0.737-4.787,2.208s-2.617,3.497-3.484,6.075
			c-0.866,2.576-1.303,5.215-1.303,7.916c0,4.241,1.754,6.363,5.261,6.363c1.665,0,3.215-0.727,4.642-2.184
			c1.432-1.453,2.553-3.416,3.365-5.889S203.887,44.29,203.887,41.364z"/>
		<path fill="#00A651" d="M239.967,54.225c0,3.893-1.285,6.92-3.865,9.086c-2.578,2.164-6.17,3.25-10.777,3.25
			c-1.934,0-3.756-0.213-5.473-0.646c-1.719-0.428-3.199-1.057-4.443-1.879V54.83c1.473,0.928,3.16,1.707,5.062,2.34
			c1.903,0.631,3.625,0.947,5.166,0.947c1.297,0,2.28-0.271,2.947-0.814c0.666-0.541,1-1.314,1-2.312
			c0-0.473-0.105-0.916-0.318-1.331c-0.205-0.411-0.504-0.824-0.894-1.233c-0.382-0.412-1.419-1.32-3.099-2.724
			c-2.053-1.649-3.545-3.33-4.476-5.048c-0.929-1.716-1.394-3.605-1.394-5.653c0-2.295,0.574-4.363,1.721-6.193
			c1.15-1.83,2.771-3.253,4.866-4.259c2.097-1.009,4.44-1.51,7.034-1.51c4.188,0,7.961,0.938,11.309,2.814l-3.55,7.808
			c-2.996-1.542-5.548-2.313-7.647-2.313c-1.128,0-1.99,0.246-2.594,0.737c-0.607,0.487-0.906,1.207-0.906,2.155
			c0,0.86,0.291,1.661,0.877,2.406c0.588,0.747,1.705,1.743,3.354,2.987c2.067,1.525,3.603,3.127,4.601,4.812
			C239.469,50.122,239.967,52.051,239.967,54.225z"/>
		<path fill="#00A651" d="M267.409,27.587h10.884L259.23,66.031h-11.465l-2.736-38.443h10.048l0.709,21.064v1.342
			c0,2.521-0.14,4.768-0.42,6.73h0.211c0.243-1.121,0.634-2.504,1.171-4.146c0.535-1.636,1.021-2.913,1.461-3.821L267.409,27.587z"
			/>
		<path fill="#00A651" d="M293.516,58.828h-11.779l-3.286,7.203h-10.679l19.564-38.44h13.225l3.234,38.44h-10.018L293.516,58.828z
			 M285.494,50.622h7.705l-0.448-11.149l-0.052-2.261c0-1.315,0.033-2.462,0.104-3.447c-0.421,1.507-0.955,2.964-1.604,4.365
			L285.494,50.622z"/>
		<path fill="#00A651" d="M318.773,52.043l-2.973,13.988h-10.279l8.123-38.443h10.176c4.418,0,7.802,0.875,10.152,2.629
			c2.348,1.754,3.522,4.396,3.522,7.917c0,2.734-0.624,5.12-1.869,7.153c-1.245,2.029-3.094,3.586-5.549,4.652l5.891,13.568
			l1.052,2.527h-11.205l-5.121-13.99L318.773,52.043L318.773,52.043z M320.43,44.23h1.342c1.666,0,2.988-0.475,3.972-1.43
			c0.979-0.956,1.472-2.292,1.472-4.011c0-1.085-0.303-1.912-0.908-2.485c-0.604-0.57-1.484-0.853-2.646-0.853h-1.394L320.43,44.23z
			"/>
	</g>
	<path fill="#00A651" d="M70.463,54.836c1.719-3.643,2.59-7.535,2.59-11.578c0-15.041-12.236-27.277-27.277-27.277
		c-15.042,0-27.279,12.236-27.279,27.277c0,15.037,12.238,27.273,27.279,27.273c4.062,0,7.969-0.875,11.621-2.607l16.094,3.041
		L70.463,54.836z M67.757,65.225L56.73,63.141l-0.697,0.354c-3.208,1.633-6.657,2.463-10.257,2.463
		c-3.516,0-6.846-0.803-9.819-2.236c1.924-5.861,3.796-9.937,5.034-10.729c0.225-0.138,1.329-0.416,2.484-0.604
		c4.484-0.742,8.089-2.727,10.642-5.882c1.706-2.104,2.156-3.658,2.587-8.832c0.223-2.743,0.361-3.518,0.878-5.157
		c0.329-1.07,0.553-2.035,0.519-2.155c-0.121-0.312-0.397-0.277-3.208,0.465c-1.381,0.362-4.295,1.017-6.468,1.449
		c-5.537,1.086-6.417,1.413-8.883,3.241c-3.501,2.605-5.951,7.642-5.934,12.212c0.017,1.74,0.277,2.984,0.569,2.658
		c0.071-0.088,0.311-0.586,0.519-1.104c1.05-2.535,4.104-6.399,6.709-8.488c1.327-1.069,4.002-2.121,4.002-1.568
		c0,0.189-0.915,1.328-2.002,2.467c-1.018,1.086-1.362,1.534-3.278,4.311c-1.982,2.918-4.569,8.122-6.312,12.766
		c-0.4,1.064-0.767,2.064-1.117,3.025c-5.819-4.115-9.626-10.891-9.626-18.537c0-12.517,10.184-22.702,22.702-22.702
		c12.517,0,22.7,10.185,22.7,22.702c0,3.584-0.821,7.022-2.442,10.223l-0.352,0.691L67.757,65.225z"/>
</g>
</svg>
