<?xml version="1.0" encoding="utf-8"?>
<!-- Generator: Adobe Illustrator 16.0.0, SVG Export Plug-In . SVG Version: 6.00 Build 0)  -->
<!DOCTYPE svg PUBLIC "-//W3C//DTD SVG 1.1//EN" "http://www.w3.org/Graphics/SVG/1.1/DTD/svg11.dtd">
<svg version="1.1" id="Layer_1" xmlns="http://www.w3.org/2000/svg" xmlns:xlink="http://www.w3.org/1999/xlink" x="0px" y="0px"
	 width="156px" height="155px" viewBox="0 0 156 155" enable-background="new 0 0 156 155" xml:space="preserve">
<rect x="-3.028" y="-1.5" fill="#F4F4F4" width="160.528" height="158.5"/>
<g>
	<path fill="#EFC889" d="M27.777,125.721c17.227,2.282,93.015,3.324,96.872-1.601c5.92-7.554,8.238-14.234,0.668-18.669
		c-7.567-4.438-70.667-8.178-90.784-3.369C14.417,106.891,23.158,125.107,27.777,125.721z"/>
	<path fill="#51382D" d="M19.202,112.105c0,0,52.276,9.361,113.836,0c0,0,5.771-3.307,1.327-12.297
		C129.92,90.82,36.724,90.3,25.52,93.93C14.316,97.561,19.202,112.105,19.202,112.105z"/>
	<path fill="#65B458" d="M18.141,99.811c3.47,1.561,2.286,0.352,9.415,4.235c7.13,3.886,10.299-4.711,16.806,3.365
		c6.506,8.077,7.639,12.103,17.315,6.312c9.676-5.791,8.241-6.425,14.307-5.59c6.065,0.834,7.524,3.428,14.943,3.428
		s19.642,2.072,22.187-1.037c2.548-3.111,1.021-2.707,6.621-2.391c5.603,0.315,11.586-0.722,13.332-2.277
		c1.748-1.556,10.317,1.803,9.73-1.813c-0.587-3.615,2.438-6.224,0.029-7.001c-2.41-0.775,1.893-2.074-6.781-2.074
		c-8.672,0,3.212-5.248-10.709-3.144c-13.922,2.106-15.165-0.544-25.916,0c-10.753,0.545-20.345,3.012-33.868,0.009
		c-13.522-3.003-14.57-3.111-27.303-0.507C25.518,93.932,19.2,94.449,19.2,94.449S8.726,95.573,18.141,99.811z"/>
	<path fill="#EDE48A" d="M133.295,93.301c2.729,0.646-2.643,10.477-9.441,10.059c-6.801-0.42-5.978-0.481-15.711,1.352
		c-9.733,1.832-13.459-0.701-18.623,1.004c-5.164,1.703,5.334-5.689-9.06-4.385c-14.391,1.306-16.277,1.379-22.109,1.342
		s-14.69,0.373-18.339,0.688c-3.647,0.312-16.155,0.231-3.647-8.543C48.871,86.042,111.407,88.115,133.295,93.301z"/>
	<path fill="#C15959" d="M124.592,86.961c7.909,1.407,16.506,9.453,8.864,10.471c-7.642,1.021-36.918,4.863-43.528,0
		C83.318,92.57,97.87,82.201,124.592,86.961z"/>
	<path fill="#C15959" d="M32.14,93.527c12.946,2.578,15.277,9.568,29.538,6.281c14.26-3.287,28.52,1.314,19.351-7.986
		c-9.166-9.301-15.276-11.375-30.045-10.855C36.215,81.484,6.677,88.457,32.14,93.527z"/>
	<path fill="#D36363" d="M99.952,90.832c0,0-0.062,0.011-0.179,0.035c-1.578,0.304-13.131,2.535-13.113,2.51
		c0.017-0.029,16.384,0,16.384,0l-5.312,6.188l12.349-7.306l5.874,6.942l3.307-4.971l11.889,3.787l-13.713-8.404l9.852,2.184
		L118.785,87L99.952,90.832z"/>
	<path fill="#D36363" d="M57.095,93.527l-2.037,6.281l-4.074-6.281L39.78,92.893l5.093-4.147l-19.714-1.492l21.242-1.328
		l10.695-4.999c0,0-3.057,5.705,0,5.725c3.055,0.021,18.156,0,18.156,0l-9.698,2.492l10.431,4.385H61.677l3.876,3.515L57.095,93.527
		z"/>
	<path fill="#EFC889" d="M25.158,91.516c18.175,2.317,98.123,3.514,102.181-1.402c6.228-7.543,8.66-14.219,0.669-18.669
		c-7.992-4.451-54.107-18.88-95.771-3.554C11.809,75.404,20.283,90.895,25.158,91.516z"/>
</g>
<ellipse fill="#F4D8B0" cx="99.251" cy="70.192" rx="3.815" ry="2.055"/>
<ellipse fill="#F4D8B0" cx="60.211" cy="72.247" rx="3.816" ry="2.055"/>
<ellipse fill="#F4D8B0" cx="84.641" cy="80.926" rx="3.814" ry="2.055"/>
<path fill="#DBAF75" d="M77.768,64.945c7.093,0.1,12.823,1.53,12.799,3.193c-0.021,1.664-5.794,2.931-12.886,2.832
	c-7.093-0.099-12.819-1.528-12.798-3.191S70.673,64.847,77.768,64.945z"/>
<ellipse fill="#F4D8B0" cx="42.306" cy="78.871" rx="3.816" ry="2.055"/>
<path fill="#00A651" d="M76.925,9.732c-8.405,0-15.219,6.813-15.219,15.219c0,13.752,15.219,31.721,15.219,31.721
	c1.008,1.009,15.219-16.502,15.219-31.721C92.145,16.546,85.33,9.732,76.925,9.732z M77.109,32.936
	c-4.253,0-7.702-3.448-7.702-7.701c0-4.253,3.448-7.702,7.702-7.702c4.251,0,7.699,3.448,7.699,7.702
	C84.809,29.488,81.36,32.936,77.109,32.936z"/>
</svg>
