<?xml version="1.0" encoding="utf-8"?>
<!-- Generator: Adobe Illustrator 16.0.0, SVG Export Plug-In . SVG Version: 6.00 Build 0)  -->
<!DOCTYPE svg PUBLIC "-//W3C//DTD SVG 1.1//EN" "http://www.w3.org/Graphics/SVG/1.1/DTD/svg11.dtd">
<svg version="1.1" id="Layer_1" xmlns="http://www.w3.org/2000/svg" xmlns:xlink="http://www.w3.org/1999/xlink" x="0px" y="0px"
	 width="156px" height="155px" viewBox="0 0 156 155" enable-background="new 0 0 156 155" xml:space="preserve">
<rect x="-3.028" y="-1.5" fill="#F4F4F4" width="160.528" height="158.5"/>
<g>
	<g>
		<g>
			<path fill="#404041" d="M53.063,277.389c0,0,25.753-2.576,26.787,7.211c1.028,9.785-15.97,8.121-29.875,8.121
				c-13.908,0-16.483-3.486-16.483-3.486s-9.786,3.486-25.754,3.486c-15.97,0-29.361-2.971-19.573-10.18
				c9.786-7.213,30.904-5.666,30.904-5.666S39.157,268.631,53.063,277.389z"/>
			<path fill="#FFFFFF" d="M64.213,189.079c0,0-1.723,62.885-9.348,86.463c0,0,0.17,3.603-8.549,4.54
				c-8.718,0.938-13.062-3.492-13.062-3.492s-1.756,6.273-11.065,5.692c-9.312-0.583-12.622-5.062-12.622-5.062
				s3.877-47.631,2.599-84.698L64.213,189.079z"/>
			<path fill="#EDC1B4" d="M55.795,42.81c-2.757-4.333,4.11-15.821-24.469-12.436C13.972,32.431-0.364,40.292,1.24,56.336
				c0,0-8.021,0.514-8.424,6.53c-0.399,6.02,5.616,8.022,8.826,4.813c0,0,6.818,24.872,30.486,25.672
				c23.667,0.803,37.707-10.83,38.511-28.479C71.44,47.222,64.218,56.047,55.795,42.81z"/>
			<path fill="#FFFFFF" stroke="#FFFFFF" stroke-miterlimit="10" d="M33.858,50.376c-2.973-4.321-13.947-0.314-12.367,6.489
				C23.071,63.668,41.451,61.424,33.858,50.376z"/>
			<circle fill="#3F2F29" cx="27.552" cy="54.195" r="4.515"/>
			<path fill="#3F2F29" d="M53.792,39.559c0,0-2.406-6.469-13.84-4.929c-11.433,1.541-3.659,15.071-18.46,22.236
				C8.702,63.056,8.362,72.22,8.362,72.22S0.439,67.392,1.24,57.943c0,0-8.823,1.028-7.019,6.573c1.807,5.546,7.22,1.232,7.22,1.232
				s5.416,12.017,6.622,13.867c0,0-5.418-3.082-5.719-4.622l-3.306,3.694c0,0-7.522-3.387-9.934-20.026
				C-13.3,42.025-16.611,30.008,4.15,15.526c20.758-14.481,59.87-1.851,57.162,33.277C61.312,48.804,55.296,47.571,53.792,39.559z"
				/>
			<path fill="#FFFFFF" stroke="#FFFFFF" stroke-miterlimit="10" d="M46.422,44.573c2.229-4.374,11.714,0.542,10.812,7.621
				C56.329,59.273,40.72,55.75,46.422,44.573z"/>
			<path fill="#3F2F29" d="M45.746,49.625c0-2.493,2.021-4.513,4.511-4.513c2.496,0,4.516,2.02,4.516,4.513s-2.02,4.515-4.516,4.515
				C47.767,54.14,45.746,52.118,45.746,49.625z"/>
			<path fill="#FFFFFF" d="M63.418,64.573c0,0-15.944,11.732-35.499,4.513c0,0,3.006,9.928,17.75,7.821
				C61.522,74.643,63.418,64.573,63.418,64.573z"/>
			<path fill="#C4968A" d="M42.792,64.739c0,0,9.451-1.104,12.632-4.524C55.424,60.215,52.247,68.749,42.792,64.739z"/>
			<path fill="#EDC1B4" d="M31.27,103.051c0,0,44.768,16.167,61.73,6.948c20.412-11.097,18.333-37.333,18.333-37.333
				s-6.667-0.667-9.261-3.171c-2.859-2.76-0.74-4.426,5.898-4.794c6.641-0.369,12.168-1.107,12.168-1.107s14.383-1.106,22.496-0.738
				c8.111,0.37,3.738,6.728-1.148,6.63c-16.922-0.335-14.82,16.847-14.82,16.847s-4,28-29,38.667
				c-23.874,10.186-43.9,0.292-43.9,0.292s4.218,19.704,5.946,37.56c2.64,27.285,3.27,27.599,3.27,27.599s-7.005,3.319-20.281,3.319
				c-13.274,0-30.242-5.162-30.242-5.162l-1.477-63.06c0,0-16.96,18.81-14.75,43.886c2.214,25.076,4.794,30.236,4.794,30.236
				s11.433,7.375,1.478,15.119c-9.957,7.744-26.185-2.581-22.497-12.536c3.689-9.958-1.474-21.389,4.425-49.047
				c5.9-27.658,9.387-53.743,27.455-52.636C29.957,101.674,31.27,103.051,31.27,103.051z"/>
			<path fill="#F6921E" d="M130.334,86.333c0,0-4.334-13-21.334-5.333c0,0-2,24-24,28.667c-21.432,4.546-48.938-7.317-48.938-7.317
				s11.059,13.61-5.904,13.242c-16.963-0.369-18.673-15.56-18.673-15.56s-16.809-1.519-21.78,15.101
				c-4.731,15.821-11.173,51.719-10.808,73.105c0,0,4.059,5.164,12.907,4.794c8.851-0.368,9.59-4.056,9.59-4.056
				s1.436-15.793,4.02-29.438c1.314-6.961,4.966-20.197,4.966-20.197l-1.979,55.532c0,0,12.536,7.006,33.925,4.795
				c21.388-2.213,24.708-4.795,24.708-4.795s-4.477-37.837-10.965-64.967c0,0,27.93,8.091,49.93-6.576
				C127.832,108.777,130.334,86.333,130.334,86.333z"/>
			<path fill="#EDC1B4" d="M8.836,79.305c0,0,6.576,10.844,4.733,25.227c0,0,8.628,19.176,27.065,8.851
				c0,0-1.886-8.495-5.495-21.131L8.836,79.305z"/>
			<path fill="#F1F1F2" d="M33.254,276.59l8.459-48.89l4.97-3.849C46.684,223.852,39.756,282.979,33.254,276.59z"/>
		</g>
	</g>
	<path fill="#FFFFFF" d="M165.885,60.303c0,6.034-20.754,10.926-46.354,10.926c-25.596,0-46.35-4.892-46.35-10.926
		c0-6.033,20.754-10.926,46.35-10.926C145.131,49.377,165.885,54.27,165.885,60.303z"/>
	<path fill="#F9BD7D" d="M134.203,50.683c0,0-33.131,0.345-44.799,0.35c-9.145,0.003-22.498,12.765,24.783,15.525l13.617-3.576
		L134.203,50.683z"/>
	<path fill="#2FA866" d="M138.982,51.059c-5.875-3.044-42.885-8.371-44.65,0.764c-1.764,9.133,7.639,10.66,7.639,10.66h52.283
		L138.982,51.059z"/>
	<path fill="#46D38D" d="M113.904,67.256c0,0,54.959,1.987,47.088-13.124c-2.455-4.715-11.426,0-11.426,0l3.315-6.638
		c0,0-4.426-5.165-6.271-2.951c-1.842,2.213-7.743-1.106-7.743-1.106s-9.22,0.37-9.957,4.425c-0.738,4.056-9.591,7.007-10.695,9.221
		c-1.104,2.21-8.944-4.064-8.944-4.064s-4.697,5.168-2.486,7.012c2.215,1.846-5.531,0.74-5.531,0.74l-2.578,1.843L113.904,67.256z"
		/>
	<path fill="#BE1E2D" d="M130.594,51.712c-2.396-5.094-16.961-0.738-14.381,5.532C118.793,63.512,133.545,57.98,130.594,51.712z"/>
	<polygon fill="#D33246" points="122.273,50.814 123.75,53.027 128.912,50.814 126.332,54.5 128.543,56.713 124.119,57.083 
		118.217,57.083 121.535,55.238 	"/>
	<path fill="#F9EC31" d="M144.645,52.661c0,0-4.707,1.219-10.424,2.705c-5.717,1.483-10.154,1.683-10.281,2.668
		c-0.397,3.131,6.07,4.328,11.787,2.846C141.445,59.396,145.438,55.716,144.645,52.661z"/>
</g>
<path fill="#404041" d="M11.486,99.41c0,0,2.348,25.924,21.754,25.65C55.5,127,41.5,104,41.5,104l7.5,2
	c0,0,20.528,60.297,21.627,107.583c0,0-25.842,22.616-65.979-2.126c0,0,10.447-52.855-0.55-111.139L11.486,99.41z"/>
</svg>
