<?xml version="1.0" encoding="utf-8"?>
<!-- Generator: Adobe Illustrator 16.0.0, SVG Export Plug-In . SVG Version: 6.00 Build 0)  -->
<!DOCTYPE svg PUBLIC "-//W3C//DTD SVG 1.1//EN" "http://www.w3.org/Graphics/SVG/1.1/DTD/svg11.dtd">
<svg version="1.1" id="Layer_1" xmlns="http://www.w3.org/2000/svg" xmlns:xlink="http://www.w3.org/1999/xlink" x="0px" y="0px"
	 width="156px" height="155px" viewBox="0 0 156 155" enable-background="new 0 0 156 155" xml:space="preserve">
<rect x="-3.028" y="-1.5" fill="#F4F4F4" width="160.528" height="158.5"/>
<rect x="73.987" y="29.263" transform="matrix(0.9988 -0.0493 0.0493 0.9988 -1.8102 4.4053)" fill="#00A651" width="28.833" height="19.273"/>
<g>
	<path fill="#EFC889" d="M27.777,119.721c17.227,2.282,93.015,3.324,96.872-1.601c5.92-7.554,8.238-14.234,0.668-18.669
		c-7.567-4.438-70.667-8.178-90.784-3.369C14.417,100.891,23.158,119.107,27.777,119.721z"/>
	<path fill="#51382D" d="M19.202,106.105c0,0,52.276,9.361,113.836,0c0,0,5.771-3.307,1.327-12.297
		C129.92,84.82,36.724,84.3,25.52,87.93C14.316,91.561,19.202,106.105,19.202,106.105z"/>
	<path fill="#65B458" d="M18.141,93.811c3.47,1.561,2.286,0.352,9.415,4.235c7.13,3.886,10.299-4.711,16.806,3.365
		c6.506,8.077,7.639,12.103,17.315,6.312c9.676-5.791,8.241-6.425,14.307-5.59c6.065,0.834,7.524,3.428,14.943,3.428
		s19.642,2.072,22.187-1.037c2.548-3.111,1.021-2.707,6.621-2.391c5.603,0.315,11.586-0.722,13.332-2.277
		c1.748-1.556,10.317,1.803,9.73-1.813c-0.587-3.615,2.438-6.224,0.029-7.001c-2.41-0.775,1.893-2.074-6.781-2.074
		c-8.672,0,3.212-5.248-10.709-3.144c-13.922,2.106-15.165-0.544-25.916,0c-10.753,0.545-20.345,3.012-33.868,0.009
		c-13.522-3.003-14.57-3.111-27.303-0.507C25.518,87.932,19.2,88.449,19.2,88.449S8.726,89.573,18.141,93.811z"/>
	<path fill="#EDE48A" d="M133.295,87.301c2.729,0.646-2.643,10.477-9.441,10.059c-6.801-0.42-5.978-0.481-15.711,1.352
		c-9.733,1.832-13.459-0.701-18.623,1.004c-5.164,1.703,5.334-5.689-9.06-4.385c-14.391,1.306-16.277,1.379-22.109,1.342
		s-14.69,0.373-18.339,0.688c-3.647,0.312-16.155,0.231-3.647-8.543C48.871,80.042,111.407,82.115,133.295,87.301z"/>
	<path fill="#C15959" d="M124.592,80.961c7.909,1.407,16.506,9.453,8.864,10.471c-7.642,1.021-36.918,4.863-43.528,0
		C83.318,86.57,97.87,76.201,124.592,80.961z"/>
	<path fill="#C15959" d="M32.14,87.527c12.946,2.578,15.277,9.568,29.538,6.281c14.26-3.287,28.52,1.314,19.351-7.986
		c-9.166-9.3-15.276-11.375-30.045-10.855C36.215,75.485,6.677,82.457,32.14,87.527z"/>
	<path fill="#D36363" d="M99.952,84.832c0,0-0.062,0.011-0.179,0.035c-1.578,0.304-13.131,2.535-13.113,2.51
		c0.017-0.029,16.384,0,16.384,0l-5.312,6.188l12.349-7.306l5.874,6.942l3.307-4.971l11.889,3.787l-13.713-8.404l9.852,2.184
		L118.785,81L99.952,84.832z"/>
	<path fill="#D36363" d="M57.095,87.527l-2.037,6.281l-4.074-6.281L39.78,86.893l5.093-4.147l-19.714-1.492l21.242-1.328
		l10.695-4.999c0,0-3.057,5.705,0,5.725c3.055,0.021,18.156,0,18.156,0l-9.698,2.492l10.431,4.385H61.677l3.876,3.515L57.095,87.527
		z"/>
	<path fill="#EFC889" d="M25.158,85.516c18.175,2.317,98.123,3.514,102.181-1.402c6.228-7.543,8.66-14.219,0.669-18.669
		c-7.992-4.451-54.107-18.88-95.771-3.554C11.809,69.404,20.283,84.895,25.158,85.516z"/>
</g>
<ellipse fill="#F4D8B0" cx="99.251" cy="64.192" rx="3.815" ry="2.055"/>
<ellipse fill="#F4D8B0" cx="60.211" cy="66.247" rx="3.816" ry="2.055"/>
<ellipse fill="#F4D8B0" cx="84.641" cy="74.926" rx="3.814" ry="2.055"/>
<ellipse fill="#DBAF75" cx="73.291" cy="66.247" rx="3.816" ry="2.055"/>
<ellipse fill="#F4D8B0" cx="42.306" cy="72.871" rx="3.816" ry="2.055"/>
<polygon fill="#333130" points="75.155,64.335 75.155,25.786 71.426,25.786 73.291,67.098 "/>
<g transform="matrix(0.1,0,0,-0.1,0,362)">
	<path fill="#FFFFFF" d="M941.611,3302.041c-3.271-0.791-10.176-2.202-15.303-3.12c-13.096-2.314-15.195-3.047-21.094-7.246
		c-8.359-5.981-14.365-17.734-14.531-28.506c-0.029-4.102,0.518-7.036,1.211-6.284c0.195,0.205,0.781,1.367,1.279,2.583
		c2.598,5.923,9.971,14.893,16.201,19.688c3.174,2.461,9.531,4.819,9.492,3.521c-0.01-0.444-2.217-3.096-4.814-5.718
		c-2.451-2.524-3.291-3.56-7.92-10.015c-4.814-6.777-11.143-18.936-15.459-29.785c-4.189-10.537-7.285-18.936-9.346-25.239
		c-3.506-10.791-6.641-19.302-7.168-19.458c-0.654-0.234-2.324,5.605-5.781,20.112c-5.381,22.715-7.725,30.522-13.369,44.78
		c-3.896,9.707-9.102,17.534-19.766,29.565c-5.85,6.665-14.228,13.081-19.307,14.897c-3.311,1.196-3.623,0.63-1.152-2.217
		c11.621-13.604,18.291-23.647,25.312-37.896c5.889-12.104,9.893-24.097,17.041-51.558c1.816-7.031,5.781-24.912,7.041-31.846
		c1.396-7.705,2.949-15.259,3.379-16.45c0.146-0.361,0.752-0.869,1.357-1.05c1.367-0.386,8.047-0.513,9.473-0.176
		c2.129,0.566,2.568,2.227,5.85,21.348c2.207,12.939,4.023,20.664,7.588,32.188c6.016,19.644,12.305,33.994,16.016,36.279
		c0.527,0.312,3.154,0.913,5.889,1.313c10.605,1.543,19.18,6.055,25.332,13.379c4.131,4.873,5.244,8.521,6.504,20.684
		c0.654,6.45,1.006,8.276,2.305,12.109c0.82,2.51,1.387,4.771,1.318,5.059C948.906,3303.726,948.262,3303.652,941.611,3302.041z"/>
</g>
</svg>
