<?xml version="1.0" encoding="utf-8"?>
<!-- Generator: Adobe Illustrator 16.0.0, SVG Export Plug-In . SVG Version: 6.00 Build 0)  -->
<!DOCTYPE svg PUBLIC "-//W3C//DTD SVG 1.1//EN" "http://www.w3.org/Graphics/SVG/1.1/DTD/svg11.dtd">
<svg version="1.1" id="Layer_1" xmlns="http://www.w3.org/2000/svg" xmlns:xlink="http://www.w3.org/1999/xlink" x="0px" y="0px"
	 width="258px" height="255px" viewBox="0 0 258 255" enable-background="new 0 0 258 255" xml:space="preserve">
<rect x="-12.5" y="-20" fill="#66A82C" width="326" height="312"/>
<polygon fill="#7BC14B" points="-12.5,-20 -10.304,88.492 317.5,40 311.5,-12 "/>
<g id="WAaYSn.tif">
</g>
<g>
	<g>
		<path fill="#F2F2F2" d="M-111.805,49.243c16.967-3.218,32.604-24.692,64.107-20.23c31.504,4.462,73.409,36.697,108.604,34.244
			c0,0,20.559-27.533,41.89-28.042c21.332-0.51,25.235-5.012,25.235-5.012s-0.314,6.587-6.606,9.881l15.28-3.714l-3.752,7.56
			c0,0,11.814,4.138,22.398,0.579c10.584-3.559,12.854,3.789,12.854,3.789s-0.793-23.045,27.413-23.623
			c28.207-0.577,36.414,13.772,24.618,31.471c-11.796,17.7-17.075,18.088-41.742,13.362c0,0,3.593,14.24,3.202,23.845
			c0,0,5.639,16.83,17.416,18.32c11.777,1.488,13.099,4.287,13.099,4.287s26.552,26.656,19.569,39.252
			c-6.979,12.596-9.244,21.463-24.912,26.869c-15.668,5.41-19.449,5.641-29.197,10.514c-9.749,4.875-49.654,15.926-75.999,2.752
			c0,0-7.924,10.203-16.791,15.67c-8.864,5.465-24.979,11.727-26.364,22.717c-1.389,10.99-7.667,16.832-1.24,32.395
			c6.427,15.564,15.273,38.301,15.273,38.301l-205.781-1.246c1.928-9.566-0.85-23.559,3.731-35.184L-111.805,49.243z"/>
		<path fill="#2B343A" d="M-81.63,50.454c4.358-10.118,24.776-16.302,39.041-8.793s25.713-2.07,46.295,6.394
			c20.582,8.464,29.746,15.284,45.031,18.711c15.286,3.426,16.037,4.081,28.8,0c12.764-4.082,21.021,13.252,39.042,22.227
			c18.019,8.979,52.171,15.668,50.485,29.967c-1.685,14.299-4.324,24.811,7.508,21.807c11.831-3.004,18.212,7.998,13.52,23.896
			c-4.692,15.896,3.392,29.264-15.666,33.092c-19.058,3.826-56.382,13.889-70.755-2.402c0,0-18.127-44.824-22.631-35.814
			c-4.505,9.01,5.256,19.521,2.251,31.533c-3.002,12.014,3.589,19.949,3.589,19.949s-9.341,11.201-17.853,16.959
			c-8.514,5.76-10.766,15.197-10.766,15.197s-14.763-7.059-27.525-19.07c-12.764-12.014-7.509-13.451-24.776-8.229
			c-17.268,5.225-21.771,0.209-25.526,12.102c-3.754,11.893-1.502,7.389-17.269,18.648c-15.766,11.264-12.764,0.752-24.025,7.51
			c-11.262,6.756-7.507,17.268-11.262,25.525c-3.754,8.26-2.252,16.518-2.252,16.518s-30.782,4.521-33.786-34.152
			c-3.003-38.672,7.508-65.701,16.518-82.219c9.011-16.52,21.384-37.668,7.688-63.133C-99.648,91.211-89.949,69.762-81.63,50.454z"
			/>
		<path fill="#2B343A" d="M155.676,53.672c0,6.49,10.455,18.377,4.448,24.58c-6.005,6.201,8.816,19.621,26.181,24.174
			c0,0,0.633-22.434-7.812-32.917c0,0,18.42,15.603,36.438-2.744c18.02-18.348,24.776-44.625,0-46.877
			c-24.774-2.252-43.341-0.645-48.697,18.447v7.13C166.234,45.464,155.676,39.912,155.676,53.672z"/>
		<path fill="#F8A893" d="M190.784,124.139c15.742-4.137,33.799-6.926,36.009,12.201c2.209,19.133,5.93,22.971-13.846,32.855
			s-38.355,13.799-52.425,3.283c-14.069-10.512-23.077-38.498,0-44.545C183.601,121.887,178.771,127.297,190.784,124.139z"/>
		<path fill="#E2816F" d="M222.439,135.096c-0.822-8.221-12.205,4.918-10.607,11.674
			C213.432,153.527,223.471,145.375,222.439,135.096z"/>
		<path fill="#60403C" d="M186.197,179.799c0,0,0.827-10.248-7.742-15.256c-8.57-5.01-22.91-8.764-21.746-20.025
			s9.406-18.953,9.406-18.953s-24.76,3.938-23.259,19.705C144.358,161.035,153.285,182.92,186.197,179.799z"/>
		<path fill="#562822" d="M151.867,149.926c12.546-5.021,21.021,6.605,18.018,9.607
			C166.883,162.537,142.105,153.834,151.867,149.926z"/>
		<path fill="#F2F2F2" d="M91.052,100.611c8.345-5.076,15.018,10.709,7.509,12.291C91.052,114.486,80.542,107.008,91.052,100.611z"
			/>
		<path fill="#F2F2F2" d="M181.262,82.883c0,0-12.631,0-2.676,10.824c5.343,5.811,4.841,1.078,4.841,1.078L181.262,82.883z"/>
		<circle fill="#1F272B" cx="95.696" cy="103.753" r="6.146"/>
		<circle fill="#1F272B" cx="180.104" cy="86.859" r="4.42"/>
		<path fill="#1F272B" d="M59.519,82.709c0,0-12.3-4.785-20.038-7.787c-7.739-3.004-50.535,0.113-49.784,13.57
			c0.75,13.457,2.252,42.221,30.03,43.982c27.78,1.758,43.547-6.424,50.305-11.344c6.757-4.918-13.051-16.361-30.551-14.77
			s-12.245-17.98,5.773-13.449c18.02,4.531,12.763,17.863,20.271,13.449C73.033,101.951,59.519,82.709,59.519,82.709z"/>
		<path fill="#1F272B" d="M180.193,53.149c-0.678-5.216-5.117-11.611,7.304-14.815c12.42-3.204,25.935-0.952,20.679,3.553
			c-5.256,4.504-10.076-4.505-14.799,11.262C188.655,68.917,180.739,57.372,180.193,53.149z"/>
		<path fill="#1F272B" d="M217.098,178.721c0,0-28.573,20.885-74.307,24.611C142.791,203.332,183.975,185.666,217.098,178.721z"/>
		<path fill="#1F272B" d="M64.023,140.859c0,0,30.513,15.719,31.673,37.859C95.696,178.721,64.023,147.484,64.023,140.859z"/>
	</g>
	<path fill="#E1E0E2" d="M128.03,30.204c0,0-7.399,10.859-20.399,13.43C107.631,43.634,124.43,49.204,128.03,30.204z"/>
	<path fill="#E1E0E2" d="M122.131,48.184l14.573-11.813C136.704,36.371,137.631,47.663,122.131,48.184z"/>
	<path fill="#E1E0E2" d="M112.177,60.497c-9.034-0.019,57-8.939,33,0c-24,8.938-48.102,13.772-22.801,13.105
		s25.178,7.564,25.178,7.564s-8.377-4.23-20.877-4.23s-35.58-3.452-20.29-8.476C121.677,63.434,144.177,60.556,112.177,60.497z"/>
	<path fill="#E1E0E2" d="M175.684,113.117c-5.068-5.328,21.067,0,21.067,0S182.736,120.529,175.684,113.117z"/>
	<path fill="#1F272B" d="M80.942,99.812c0,0,5.862-16.389,22.064-8.733C103.006,91.079,80.924,73.896,80.942,99.812z"/>
	<path fill="#1F272B" d="M174.763,81.438c0,0,1.868-5.732,6.868-2.232C181.631,79.205,175.895,68.67,174.763,81.438z"/>
	<path fill="#2B343A" d="M86.619,103.754c0,0,13.432-10.232,15.222,2.609C101.841,106.363,103.208,86.375,86.619,103.754z"/>
	<path fill="#2B343A" d="M173.684,85.859c0,0,6.892-7.729,9.756,4.42l1.086-4.42l-1.086-6.236
		C183.439,79.623,173.736,77.014,173.684,85.859z"/>
</g>
</svg>
