<?xml version="1.0" encoding="utf-8"?>
<!-- Generator: Adobe Illustrator 16.0.0, SVG Export Plug-In . SVG Version: 6.00 Build 0)  -->
<!DOCTYPE svg PUBLIC "-//W3C//DTD SVG 1.1//EN" "http://www.w3.org/Graphics/SVG/1.1/DTD/svg11.dtd">
<svg version="1.1" id="Layer_1" xmlns="http://www.w3.org/2000/svg" xmlns:xlink="http://www.w3.org/1999/xlink" x="0px" y="0px"
	 width="300px" height="300px" viewBox="0 0 300 300" enable-background="new 0 0 300 300" xml:space="preserve">
<rect fill="#F1F1F2" width="300" height="302"/>
<g>
	<g>
		<g>
			<g>
				<g>
					<rect x="27.757" y="234.557" fill="#D0D2D3" width="117.935" height="12.201"/>
					<rect x="27.757" y="252.014" fill="#D0D2D3" width="78.622" height="8.133"/>
					<rect x="27.757" y="270.309" fill="#D0D2D3" width="157.247" height="5.979"/>
					<rect x="27.757" y="281.354" fill="#D0D2D3" width="157.247" height="5.98"/>
					<rect x="198.874" y="232.939" fill="#D0D2D3" width="77.869" height="38.213"/>
					<g>
						
							<rect x="142.932" y="47.434" transform="matrix(0.9988 -0.0493 0.0493 0.9988 -2.9928 8.4114)" fill="#00A651" width="52.189" height="34.889"/>
						<g>
							<path fill="#EFC889" d="M59.286,211.177c31.183,4.13,168.368,6.017,175.351-2.897c10.715-13.672,14.911-25.766,1.209-33.793
								c-13.697-8.029-127.919-14.801-164.333-6.098C35.103,177.09,50.926,210.066,59.286,211.177z"/>
							<path fill="#51382D" d="M43.764,186.532c0,0,94.627,16.946,206.058,0c0,0,10.445-5.985,2.402-22.259
								C244.177,148.002,75.481,147.058,55.2,153.63C34.919,160.2,43.764,186.532,43.764,186.532z"/>
							<path fill="#65B458" d="M41.843,164.273c6.282,2.824,4.138,0.636,17.042,7.668c12.905,7.031,18.642-8.525,30.421,6.092
								c11.777,14.619,13.828,21.906,31.342,11.426c17.516-10.484,14.916-11.63,25.897-10.12
								c10.979,1.511,13.619,6.204,27.048,6.204s35.554,3.754,40.16-1.876c4.61-5.634,1.847-4.899,11.983-4.328
								c10.141,0.572,20.975-1.306,24.134-4.121c3.165-2.815,18.677,3.263,17.614-3.284c-1.062-6.543,4.41-11.266,0.052-12.672
								c-4.361-1.406,3.427-3.756-12.272-3.756s5.812-9.499-19.387-5.689c-25.199,3.814-27.449-0.982-46.91,0
								c-19.464,0.986-36.826,5.453-61.305,0.015c-24.478-5.436-26.375-5.633-49.422-0.917c-23.047,4.719-34.481,5.655-34.481,5.655
								S24.8,156.605,41.843,164.273z"/>
							<path fill="#EDE48A" d="M250.287,152.491c4.939,1.172-4.782,18.963-17.094,18.206c-12.309-0.76-10.817-0.87-28.438,2.445
								c-17.62,3.317-24.359-1.269-33.71,1.818c-9.347,3.082,9.654-10.299-16.397-7.938c-26.05,2.361-29.463,2.496-40.021,2.428
								c-10.555-0.065-26.592,0.676-33.195,1.244c-6.602,0.564-29.243,0.42-6.602-15.465
								C97.468,139.354,210.666,143.105,250.287,152.491z"/>
							<path fill="#C15959" d="M234.533,141.017c14.314,2.546,29.875,17.111,16.045,18.952c-13.83,1.846-66.826,8.805-78.792,0
								C159.823,151.169,186.163,132.401,234.533,141.017z"/>
							<path fill="#C15959" d="M67.184,152.9c23.433,4.668,27.653,17.322,53.466,11.373c25.812-5.949,51.624,2.379,35.03-14.458
								c-16.593-16.837-27.655-20.59-54.388-19.65C74.559,131.104,21.091,143.724,67.184,152.9z"/>
							<path fill="#D36363" d="M189.932,148.024c0,0-0.113,0.018-0.32,0.062c-2.857,0.55-23.77,4.591-23.738,4.543
								c0.029-0.054,29.656,0,29.656,0l-9.613,11.2l22.352-13.224l10.633,12.563l5.982-8.997l21.521,6.858l-24.82-15.216
								l17.83,3.953l-15.391-8.682L189.932,148.024z"/>
							<path fill="#D36363" d="M112.354,152.9l-3.688,11.373l-7.375-11.373l-20.281-1.146l9.218-7.51l-35.686-2.699l38.451-2.404
								l19.36-9.049c0,0-5.532,10.325,0,10.361c5.53,0.035,32.865,0,32.865,0l-17.554,4.51l18.881,7.938h-25.897l7.016,6.359
								L112.354,152.9z"/>
							<path fill="#EFC889" d="M54.545,149.261c32.899,4.194,177.616,6.359,184.959-2.541c11.273-13.653,15.676-25.736,1.212-33.792
								c-14.469-8.058-97.941-34.175-173.357-6.435C30.381,120.098,45.72,148.137,54.545,149.261z"/>
						</g>
						<path fill="#F4D8B0" d="M188.664,106.944c3.812,0,6.904,1.663,6.904,3.718c0,2.054-3.092,3.719-6.904,3.719
							c-3.818,0-6.91-1.665-6.91-3.719C181.754,108.607,184.846,106.944,188.664,106.944z"/>
						<ellipse fill="#F4D8B0" cx="117.996" cy="114.383" rx="6.907" ry="3.72"/>
						<ellipse fill="#F4D8B0" cx="162.214" cy="130.092" rx="6.906" ry="3.719"/>
						<ellipse fill="#DBAF75" cx="141.671" cy="114.383" rx="6.908" ry="3.72"/>
						<ellipse fill="#F4D8B0" cx="85.584" cy="126.373" rx="6.908" ry="3.72"/>
						<polygon fill="#333130" points="145.046,110.922 145.046,41.143 138.296,41.143 141.671,115.923 						"/>
						<g transform="matrix(0.1,0,0,-0.1,0,362)">
							<path fill="#FFFFFF" d="M1794.492,3099.79c-5.918-1.44-18.418-3.994-27.705-5.649c-23.691-4.189-27.51-5.518-38.174-13.115
								c-15.117-10.835-26.006-32.1-26.318-51.602c-0.039-7.427,0.947-12.734,2.197-11.377c0.361,0.366,1.416,2.476,2.314,4.678
								c4.717,10.723,18.047,26.958,29.336,35.635c5.732,4.458,17.256,8.721,17.178,6.372c-0.01-0.806-4.004-5.601-8.701-10.347
								c-4.443-4.565-5.967-6.44-14.346-18.135c-8.721-12.266-20.166-34.277-27.988-53.906
								c-7.578-19.077-13.184-34.277-16.914-45.688c-6.348-19.536-12.021-34.946-12.969-35.225
								c-1.191-0.425-4.219,10.151-10.459,36.411c-9.756,41.113-13.984,55.244-24.209,81.06
								c-7.061,17.568-16.484,31.738-35.771,53.511c-10.586,12.065-25.771,23.687-34.961,26.973
								c-5.986,2.163-6.553,1.138-2.08-4.014c21.035-24.624,33.105-42.808,45.82-68.604c10.654-21.909,17.9-43.608,30.84-93.325
								c3.281-12.72,10.479-45.088,12.754-57.642c2.529-13.95,5.342-27.627,6.113-29.771c0.264-0.654,1.348-1.587,2.461-1.899
								c2.48-0.713,14.57-0.933,17.139-0.317c3.857,1.03,4.658,4.019,10.596,38.633c3.994,23.423,7.285,37.412,13.73,58.271
								c10.889,35.552,22.275,61.528,28.984,65.664c0.957,0.566,5.723,1.65,10.664,2.383c19.199,2.783,34.717,10.957,45.859,24.209
								c7.461,8.828,9.482,15.425,11.777,37.451c1.172,11.68,1.807,14.976,4.17,21.924c1.475,4.541,2.5,8.628,2.383,9.155
								C1807.705,3102.832,1806.533,3102.705,1794.492,3099.79z"/>
						</g>
					</g>
				</g>
			</g>
		</g>
	</g>
</g>
</svg>
