<?xml version="1.0" encoding="utf-8"?>
<!-- Generator: Adobe Illustrator 16.0.0, SVG Export Plug-In . SVG Version: 6.00 Build 0)  -->
<!DOCTYPE svg PUBLIC "-//W3C//DTD SVG 1.1//EN" "http://www.w3.org/Graphics/SVG/1.1/DTD/svg11.dtd">
<svg version="1.1" id="Layer_1" xmlns="http://www.w3.org/2000/svg" xmlns:xlink="http://www.w3.org/1999/xlink" x="0px" y="0px"
	 width="500px" height="200px" viewBox="0 0 500 200" enable-background="new 0 0 500 200" xml:space="preserve">
<rect y="-3" fill="#62A09C" width="502.5" height="202"/>
<path fill="#78B4A3" d="M68.5,145.5c-16.128-11.827-26-49-22-69s8-15,4-20s1-4,9,2s4,6,1,9s1,35,28,57s48,10,54,16s11,14,3,13
	S98.5,167.5,68.5,145.5z"/>
<circle fill="#78B4A3" cx="101.5" cy="79.5" r="27"/>
<polygon fill="#78B4A3" points="126.5,116.5 168.5,39.5 165.5,28.5 242.5,57.5 199.5,147.5 "/>
<path fill="#78B4A3" d="M150.5,167.5c0,0,78-19,82-18s6-4,6-4l5,21l-9,1c0,0-30,13-82,14l-4,4l-4-21L150.5,167.5z"/>
<path fill="#78B4A3" d="M247.5,133.5c-11.559-10.788-4-31,9-40s20-23,22-15s21,25,18,42S277.5,161.5,247.5,133.5z"/>
<polygon fill="#78B4A3" points="280.5,51.5 317.5,106.5 374.5,67.5 334.5,18.5 "/>
<path fill="#78B4A3" d="M237.5,22.5c-9.896,6.25,29,26,36,11S256.5,10.5,237.5,22.5z"/>
<path fill="#78B4A3" d="M304.5,154.5c0,0,81-54,87-69s17-47,23-52s22-7,22-7v15l11-22l7,6v28l36-1l-26,25l21,13l-5,10h-19l-57,16
	l32,1l9-2l-9,9l-33-3l-79,45c0,0-2,11-10,14S291.5,154.5,304.5,154.5z"/>
<circle fill="#78B4A3" cx="417.5" cy="163.5" r="14"/>
<circle fill="#78B4A3" cx="384.5" cy="145.5" r="7"/>
<circle fill="#78B4A3" cx="458.5" cy="126.5" r="7"/>
<circle fill="#78B4A3" cx="32.5" cy="144.5" r="16"/>
<circle fill="#78B4A3" cx="61.5" cy="171.5" r="12"/>
<circle fill="#78B4A3" cx="27.5" cy="129.5" r="4"/>
<polygon fill="#78B4A3" points="2.5,54.585 19.032,79.16 44.5,61.734 26.627,39.84 "/>
<polygon fill="#78B4A3" points="345.5,168.585 362.031,193.16 387.5,175.734 369.627,153.84 "/>
<polygon fill="#78B4A3" points="447.5,151.585 464.031,176.16 489.5,158.734 471.627,136.84 "/>
</svg>
