<?xml version="1.0" encoding="utf-8"?>
<!-- Generator: Adobe Illustrator 16.0.0, SVG Export Plug-In . SVG Version: 6.00 Build 0)  -->
<!DOCTYPE svg PUBLIC "-//W3C//DTD SVG 1.1//EN" "http://www.w3.org/Graphics/SVG/1.1/DTD/svg11.dtd">
<svg version="1.1" id="Layer_1" xmlns="http://www.w3.org/2000/svg" xmlns:xlink="http://www.w3.org/1999/xlink" x="0px" y="0px"
	 width="207.82px" height="47.645px" viewBox="-34.955 -8.887 207.82 47.645" enable-background="new -34.955 -8.887 207.82 47.645"
	 xml:space="preserve">
<g>
	<path fill="#FFFFFF" d="M5.761,21.556c1.346-2.854,2.029-5.903,2.029-9.073c0-11.784-9.587-21.37-21.372-21.37
		c-11.786,0-21.374,9.586-21.374,21.37c0,11.784,9.588,21.372,21.374,21.372c3.182,0,6.244-0.688,9.104-2.046l12.611,2.385
		L5.761,21.556z"/>
	<path fill-rule="evenodd" clip-rule="evenodd" fill="#231F20" d="M1.326,10.789c-0.032-0.366-0.133-0.713-0.325-1.028
		C0.558,9.039-0.061,8.633-0.938,8.636c-2.404,0.01-4.808,0.004-7.21,0.004c-0.085,0-0.086,0-0.066-0.082
		c0.057-0.233,0.113-0.467,0.173-0.699c0.222-0.86,0.415-1.724,0.472-2.613c0.041-0.634-0.001-1.258-0.163-1.874
		C-8.041,2.194-8.534,1.094-9.138,0.04c-0.1-0.177-0.237-0.303-0.413-0.392c-0.648-0.326-1.335-0.435-2.049-0.338
		c-0.741,0.099-1.33,0.458-1.754,1.079c-0.028,0.042-0.042,0.083-0.041,0.137c0.017,1.274,0.032,2.55,0.049,3.824
		c0.001,0.05-0.008,0.096-0.03,0.142c-0.276,0.58-0.57,1.149-0.883,1.709c-0.582,1.041-1.205,2.056-1.913,3.016
		c-0.357,0.484-0.735,0.951-1.171,1.366c-0.107,0.103-0.113,0.105-0.198-0.011c-0.045-0.063-0.097-0.08-0.172-0.08
		c-1.008,0-2.016-0.005-3.024-0.007c-2.055-0.004-4.11-0.007-6.166-0.01c-0.059,0-0.118-0.001-0.176,0.014
		c-0.334,0.079-0.572,0.287-0.746,0.576c-0.054,0.089-0.076,0.186-0.077,0.293c-0.008,0.386,0.036,0.768,0.062,1.152
		c0.028,0.404,0.061,0.806,0.092,1.209c0.038,0.493,0.075,0.982,0.113,1.475c0.031,0.404,0.062,0.806,0.093,1.208
		c0.038,0.481,0.076,0.963,0.112,1.445c0.032,0.412,0.062,0.824,0.093,1.231c0.038,0.491,0.076,0.979,0.113,1.467
		c0.031,0.407,0.062,0.811,0.093,1.218c0.038,0.482,0.083,0.962,0.11,1.443c0.018,0.327,0.15,0.592,0.386,0.806
		c0.136,0.122,0.292,0.214,0.482,0.229c0.001,0.005,0.002,0.009,0.003,0.014c2.801,0,5.602,0,8.403,0
		c0-0.005,0.001-0.009,0.002-0.014c0.353-0.033,0.709-0.354,0.75-0.705c0.027-0.235,0.021-0.475,0.03-0.709
		c0.003-0.077,0.007-0.152,0.011-0.226c0.008-0.007,0.016-0.012,0.023-0.016c0.002,0.009,0.001,0.022,0.008,0.028
		c0.16,0.181,0.343,0.338,0.544,0.469c0.331,0.215,0.68,0.363,1.084,0.361c3.639-0.002,7.277-0.002,10.917,0.002
		c0.441,0,0.861-0.084,1.261-0.267c0.717-0.33,1.275-0.83,1.622-1.546c0.333-0.687,0.359-1.406,0.172-2.135
		c-0.015-0.058-0.005-0.089,0.041-0.13c0.36-0.313,0.628-0.69,0.782-1.147c0.206-0.613,0.17-1.229-0.02-1.841
		c-0.016-0.048-0.01-0.077,0.03-0.112c0.321-0.285,0.581-0.618,0.758-1.01c0.308-0.681,0.329-1.357-0.035-2.026
		c-0.024-0.047-0.002-0.066,0.026-0.09c0.196-0.172,0.372-0.363,0.527-0.572c0.303-0.408,0.493-0.861,0.538-1.371
		c0.005,0,0.009,0,0.015,0c0-0.137,0-0.274,0-0.412C1.335,10.789,1.331,10.789,1.326,10.789z M-26.204,19.551
		c-0.013-0.147-0.024-0.296-0.035-0.444c-0.018-0.24-0.038-0.477-0.056-0.715c-0.011-0.142-0.023-0.282-0.032-0.423
		c-0.015-0.243-0.036-0.488-0.055-0.731c-0.012-0.145-0.021-0.292-0.033-0.437c-0.02-0.241-0.039-0.481-0.058-0.722
		c-0.011-0.15-0.02-0.302-0.032-0.452c-0.017-0.237-0.038-0.472-0.056-0.708c-0.011-0.142-0.021-0.284-0.031-0.423
		c-0.02-0.243-0.045-0.487-0.056-0.73c-0.008-0.156-0.023-0.311-0.034-0.468c-0.016-0.231-0.04-0.46-0.055-0.691
		c-0.01-0.134-0.019-0.268-0.031-0.402c-0.014-0.151-0.019-0.302-0.032-0.453c-0.007-0.068,0.019-0.081,0.082-0.081
		c1.276,0.001,2.551,0.001,3.827,0.001c1.27,0,2.541,0,3.811,0c0.095,0,0.095,0,0.095,0.095c0.001,2.146-0.01,4.292,0.005,6.438
		c0.012,1.621,0.002,3.242,0.01,4.861c0.001,0.099,0,0.099-0.1,0.099c-2.254,0-4.508,0-6.762,0.002
		c-0.069,0-0.101-0.009-0.104-0.093c-0.005-0.182-0.024-0.36-0.04-0.539c-0.018-0.224-0.038-0.447-0.056-0.672
		c-0.013-0.152-0.02-0.307-0.032-0.46c-0.018-0.228-0.041-0.456-0.055-0.685c-0.009-0.149-0.021-0.298-0.033-0.444
		C-26.169,20.032-26.185,19.791-26.204,19.551z M-0.542,12.393c-0.156,0.103-0.318,0.189-0.5,0.239
		C-1.221,12.68-1.266,12.964-1.12,13.1c0.247,0.229,0.383,0.518,0.441,0.841c0.11,0.591-0.117,1.065-0.553,1.452
		c-0.178,0.158-0.381,0.282-0.6,0.376c-0.23,0.1-0.277,0.407-0.09,0.569c0.434,0.37,0.559,0.891,0.333,1.445
		c-0.185,0.451-0.48,0.812-0.912,1.05c-0.058,0.03-0.12,0.056-0.183,0.075c-0.153,0.049-0.214,0.122-0.226,0.281
		c-0.01,0.12,0.024,0.216,0.119,0.297c0.238,0.207,0.406,0.455,0.447,0.773c0.03,0.228-0.013,0.447-0.106,0.657
		c-0.156,0.349-0.4,0.625-0.687,0.871c-0.2,0.171-0.416,0.32-0.658,0.426c-0.122,0.056-0.248,0.083-0.385,0.083
		c-0.69-0.004-1.383-0.004-2.074-0.006c-0.187,0-0.372-0.005-0.559-0.009c-2.33-0.002-4.662,0-6.992-0.005
		c-0.474-0.002-0.947-0.002-1.419-0.02c-0.079-0.004-0.149-0.021-0.22-0.054c-0.409-0.21-0.804-0.448-1.196-0.689
		c-0.121-0.073-0.239-0.117-0.378-0.102c-0.026,0.003-0.054,0-0.081-0.002c-0.25,0.002-0.5,0.002-0.75,0.003
		c-0.036,0.002-0.048-0.013-0.045-0.046c0.001-0.016,0-0.031,0-0.044c0-2.961,0-5.922-0.002-8.881c0-0.067,0.022-0.105,0.076-0.141
		c0.223-0.147,0.443-0.299,0.663-0.45c0.018-0.012,0.039-0.021,0.058-0.032c0.239-0.167,0.478-0.335,0.717-0.501
		c0.032-0.022,0.06-0.05,0.083-0.081c1.272-1.591,2.366-3.299,3.348-5.08c0.257-0.466,0.506-0.935,0.749-1.408
		c0.028-0.053,0.042-0.106,0.042-0.168c-0.002-1.243-0.001-2.485-0.002-3.729c0-0.065,0.021-0.103,0.071-0.139
		c0.293-0.21,0.623-0.315,0.981-0.326c0.385-0.016,0.735,0.091,1.052,0.305c0.021,0.015,0.034,0.035,0.046,0.057
		c0.422,0.895,0.792,1.81,1.061,2.763c0.075,0.266,0.137,0.536,0.177,0.808c0.03,0.199,0.03,0.402,0.016,0.602
		c-0.016,0.23-0.028,0.46-0.051,0.689C-8.855,6.062-8.919,6.51-8.996,6.956c-0.13,0.761-0.285,1.517-0.451,2.272
		C-9.483,9.39-9.518,9.552-9.556,9.714c-0.003,0.02-0.01,0.038-0.001,0.057c0.448,0,0.897,0,1.346,0c1.299,0,2.599,0,3.898,0.001
		C-4.29,9.75-4.262,9.76-4.236,9.76c0.822,0,1.643,0.001,2.465,0.003c0.277,0.001,0.555-0.006,0.831,0.008
		c0.455,0.024,0.956,0.314,1.103,0.924C0.315,11.325,0.029,12.012-0.542,12.393z"/>
	<g>
		<path fill="#FFFFFF" d="M22.053,15.34h-1.35V3.733h6.471v1.199h-5.121v4.248h4.812v1.199h-4.812V15.34z"/>
		<path fill="#FFFFFF" d="M36.114,10.982c0,1.418-0.356,2.526-1.071,3.322c-0.715,0.797-1.702,1.195-2.961,1.195
			c-0.778,0-1.469-0.183-2.072-0.548s-1.069-0.889-1.397-1.572s-0.492-1.482-0.492-2.397c0-1.418,0.354-2.523,1.063-3.315
			c0.709-0.791,1.694-1.187,2.954-1.187c1.217,0,2.184,0.405,2.901,1.214C35.755,8.505,36.114,9.6,36.114,10.982z M29.485,10.982
			c0,1.111,0.223,1.958,0.667,2.541c0.444,0.582,1.099,0.873,1.961,0.873s1.518-0.29,1.965-0.869s0.671-1.428,0.671-2.544
			c0-1.106-0.224-1.946-0.671-2.521c-0.447-0.574-1.107-0.861-1.98-0.861c-0.863,0-1.514,0.283-1.953,0.85
			S29.485,9.86,29.485,10.982z M29.874,4.281c0-0.275,0.069-0.474,0.21-0.596c0.141-0.122,0.309-0.183,0.504-0.183
			c0.201,0,0.375,0.061,0.521,0.183c0.146,0.122,0.218,0.32,0.218,0.596c0,0.265-0.072,0.462-0.218,0.591
			c-0.146,0.13-0.319,0.194-0.521,0.194c-0.195,0-0.363-0.064-0.504-0.194C29.944,4.743,29.874,4.546,29.874,4.281z M32.899,4.281
			c0-0.275,0.07-0.474,0.21-0.596c0.141-0.122,0.309-0.183,0.505-0.183c0.195,0,0.366,0.061,0.512,0.183
			c0.146,0.122,0.219,0.32,0.219,0.596c0,0.265-0.073,0.462-0.219,0.591c-0.146,0.13-0.316,0.194-0.512,0.194
			c-0.196,0-0.364-0.064-0.505-0.194C32.969,4.743,32.899,4.546,32.899,4.281z"/>
		<path fill="#FFFFFF" d="M39.449,15.34h-1.317V2.987h1.317V15.34z"/>
		<path fill="#FFFFFF" d="M40.896,19.246c-0.503,0-0.911-0.066-1.223-0.199v-1.072c0.365,0.106,0.725,0.159,1.079,0.159
			c0.413,0,0.716-0.112,0.909-0.337s0.29-0.567,0.29-1.028V6.639h1.317v10.035C43.269,18.389,42.478,19.246,40.896,19.246z
			 M41.84,4.281c0-0.302,0.074-0.523,0.223-0.663c0.147-0.14,0.333-0.21,0.556-0.21c0.211,0,0.394,0.072,0.548,0.214
			c0.153,0.143,0.229,0.363,0.229,0.659s-0.076,0.517-0.229,0.663c-0.154,0.146-0.337,0.219-0.548,0.219
			c-0.223,0-0.408-0.073-0.556-0.219C41.914,4.798,41.84,4.577,41.84,4.281z"/>
		<path fill="#FFFFFF" d="M51.608,15.34l-3.303-8.701h1.413l1.874,5.16c0.423,1.207,0.672,1.99,0.746,2.35h0.063
			c0.058-0.28,0.242-0.861,0.552-1.743s1.004-2.804,2.084-5.768h1.413l-3.303,8.701H51.608z"/>
		<path fill="#FFFFFF" d="M62.906,15.34l-0.262-1.238H62.58c-0.435,0.545-0.867,0.914-1.298,1.107
			c-0.432,0.193-0.971,0.29-1.616,0.29c-0.862,0-1.539-0.222-2.028-0.667c-0.489-0.444-0.734-1.077-0.734-1.897
			c0-1.757,1.405-2.678,4.216-2.763l1.477-0.047v-0.54c0-0.683-0.146-1.187-0.44-1.512c-0.294-0.326-0.764-0.488-1.409-0.488
			c-0.726,0-1.546,0.222-2.461,0.667L57.88,7.242c0.429-0.233,0.898-0.416,1.409-0.548s1.022-0.199,1.536-0.199
			c1.037,0,1.807,0.23,2.307,0.691s0.75,1.199,0.75,2.215v5.938H62.906z M59.929,14.411c0.82,0,1.464-0.225,1.933-0.675
			c0.469-0.45,0.703-1.08,0.703-1.89v-0.786l-1.318,0.056c-1.048,0.037-1.804,0.2-2.267,0.488s-0.694,0.737-0.694,1.346
			c0,0.477,0.144,0.839,0.433,1.087C59.006,14.287,59.409,14.411,59.929,14.411z M62.54,3.765c0,0.519-0.162,0.936-0.488,1.25
			c-0.325,0.315-0.758,0.472-1.298,0.472c-0.534,0-0.961-0.155-1.278-0.464S58.999,4.3,58.999,3.781c0-0.519,0.16-0.93,0.48-1.234
			c0.32-0.304,0.745-0.457,1.274-0.457c0.534,0,0.966,0.158,1.294,0.473S62.54,3.278,62.54,3.765z M61.683,3.781
			c0-0.296-0.087-0.525-0.262-0.687c-0.175-0.161-0.397-0.242-0.667-0.242s-0.492,0.081-0.667,0.242
			c-0.175,0.162-0.262,0.391-0.262,0.687c0,0.297,0.079,0.525,0.238,0.687c0.158,0.162,0.389,0.242,0.69,0.242
			c0.275,0,0.499-0.081,0.671-0.242S61.683,4.077,61.683,3.781z"/>
		<path fill="#FFFFFF" d="M70.275,6.48c0.386,0,0.732,0.032,1.04,0.095l-0.183,1.223c-0.36-0.08-0.678-0.119-0.953-0.119
			c-0.704,0-1.306,0.286-1.806,0.857c-0.501,0.571-0.751,1.283-0.751,2.136v4.668h-1.317V6.639h1.088l0.15,1.611h0.063
			c0.323-0.566,0.712-1.003,1.167-1.31C69.229,6.634,69.729,6.48,70.275,6.48z"/>
		<path fill="#FFFFFF" d="M78,15.34l-0.262-1.238h-0.063c-0.435,0.545-0.867,0.914-1.298,1.107c-0.432,0.193-0.971,0.29-1.616,0.29
			c-0.862,0-1.539-0.222-2.028-0.667c-0.489-0.444-0.734-1.077-0.734-1.897c0-1.757,1.405-2.678,4.216-2.763l1.477-0.047v-0.54
			c0-0.683-0.146-1.187-0.44-1.512c-0.294-0.326-0.764-0.488-1.409-0.488c-0.726,0-1.546,0.222-2.461,0.667l-0.405-1.008
			c0.429-0.233,0.898-0.416,1.409-0.548s1.022-0.199,1.536-0.199c1.037,0,1.807,0.23,2.307,0.691s0.75,1.199,0.75,2.215v5.938H78z
			 M75.024,14.411c0.82,0,1.464-0.225,1.933-0.675c0.469-0.45,0.703-1.08,0.703-1.89v-0.786l-1.318,0.056
			c-1.048,0.037-1.804,0.2-2.267,0.488s-0.694,0.737-0.694,1.346c0,0.477,0.144,0.839,0.433,1.087
			C74.101,14.287,74.504,14.411,75.024,14.411z"/>
		<path fill="#FFFFFF" d="M92.451,6.639v0.833l-1.611,0.19c0.147,0.186,0.28,0.428,0.396,0.727c0.116,0.299,0.175,0.637,0.175,1.012
			c0,0.852-0.291,1.532-0.873,2.041c-0.582,0.508-1.382,0.762-2.397,0.762c-0.26,0-0.503-0.021-0.73-0.063
			c-0.562,0.296-0.842,0.669-0.842,1.119c0,0.238,0.098,0.414,0.294,0.528c0.195,0.114,0.532,0.171,1.008,0.171h1.54
			c0.942,0,1.666,0.198,2.172,0.595c0.505,0.397,0.758,0.974,0.758,1.731c0,0.963-0.386,1.698-1.159,2.203
			c-0.772,0.505-1.899,0.758-3.382,0.758c-1.138,0-2.016-0.212-2.632-0.635c-0.616-0.424-0.925-1.021-0.925-1.794
			c0-0.529,0.169-0.987,0.508-1.374s0.815-0.648,1.43-0.786c-0.223-0.101-0.409-0.257-0.56-0.469
			c-0.151-0.211-0.227-0.458-0.227-0.738c0-0.317,0.084-0.595,0.254-0.833c0.169-0.238,0.437-0.468,0.802-0.69
			c-0.45-0.186-0.816-0.5-1.1-0.945c-0.283-0.445-0.425-0.953-0.425-1.524c0-0.953,0.286-1.687,0.857-2.203
			c0.572-0.516,1.382-0.774,2.43-0.774c0.455,0,0.865,0.053,1.23,0.159H92.451z M85.513,16.801c0,0.471,0.198,0.828,0.596,1.072
			c0.396,0.243,0.966,0.365,1.706,0.365c1.106,0,1.926-0.166,2.458-0.497c0.531-0.331,0.798-0.779,0.798-1.346
			c0-0.471-0.146-0.798-0.438-0.98s-0.839-0.273-1.643-0.273h-1.58c-0.599,0-1.064,0.143-1.397,0.429
			C85.68,15.856,85.513,16.266,85.513,16.801z M86.227,9.426c0,0.608,0.173,1.069,0.517,1.381c0.344,0.312,0.823,0.468,1.437,0.468
			c1.286,0,1.93-0.625,1.93-1.874c0-1.307-0.651-1.961-1.953-1.961c-0.619,0-1.096,0.167-1.429,0.5
			C86.394,8.274,86.227,8.769,86.227,9.426z"/>
		<path fill="#FFFFFF" d="M101.455,10.982c0,1.418-0.356,2.526-1.071,3.322c-0.715,0.797-1.702,1.195-2.961,1.195
			c-0.778,0-1.469-0.183-2.072-0.548s-1.069-0.889-1.397-1.572s-0.492-1.482-0.492-2.397c0-1.418,0.354-2.523,1.063-3.315
			c0.709-0.791,1.694-1.187,2.954-1.187c1.217,0,2.184,0.405,2.901,1.214C101.097,8.505,101.455,9.6,101.455,10.982z M94.826,10.982
			c0,1.111,0.223,1.958,0.667,2.541c0.444,0.582,1.099,0.873,1.961,0.873s1.518-0.29,1.965-0.869s0.671-1.428,0.671-2.544
			c0-1.106-0.224-1.946-0.671-2.521c-0.447-0.574-1.107-0.861-1.98-0.861c-0.863,0-1.514,0.283-1.953,0.85
			S94.826,9.86,94.826,10.982z"/>
		<path fill="#FFFFFF" d="M109.397,14.173h-0.072c-0.608,0.884-1.519,1.326-2.73,1.326c-1.139,0-2.023-0.389-2.656-1.167
			c-0.632-0.778-0.948-1.884-0.948-3.318c0-1.435,0.317-2.549,0.952-3.342c0.636-0.794,1.52-1.191,2.652-1.191
			c1.18,0,2.085,0.429,2.715,1.286h0.104l-0.056-0.627l-0.032-0.611V2.987h1.318V15.34h-1.072L109.397,14.173z M106.76,14.395
			c0.9,0,1.553-0.245,1.957-0.734c0.405-0.489,0.607-1.279,0.607-2.37v-0.278c0-1.233-0.205-2.113-0.615-2.64
			c-0.41-0.526-1.064-0.79-1.965-0.79c-0.772,0-1.364,0.3-1.774,0.901s-0.615,1.449-0.615,2.544c0,1.112,0.204,1.951,0.611,2.517
			C105.373,14.112,105.972,14.395,106.76,14.395z"/>
		<path fill="#FFFFFF" d="M118.495,15.34l-0.262-1.238h-0.063c-0.435,0.545-0.867,0.914-1.298,1.107
			c-0.432,0.193-0.971,0.29-1.616,0.29c-0.862,0-1.539-0.222-2.028-0.667c-0.489-0.444-0.734-1.077-0.734-1.897
			c0-1.757,1.405-2.678,4.216-2.763l1.477-0.047v-0.54c0-0.683-0.146-1.187-0.44-1.512c-0.294-0.326-0.764-0.488-1.409-0.488
			c-0.726,0-1.546,0.222-2.461,0.667l-0.405-1.008c0.429-0.233,0.898-0.416,1.409-0.548s1.022-0.199,1.536-0.199
			c1.037,0,1.807,0.23,2.307,0.691s0.75,1.199,0.75,2.215v5.938H118.495z M115.519,14.411c0.82,0,1.464-0.225,1.933-0.675
			c0.469-0.45,0.703-1.08,0.703-1.89v-0.786l-1.318,0.056c-1.048,0.037-1.804,0.2-2.267,0.488s-0.694,0.737-0.694,1.346
			c0,0.477,0.144,0.839,0.433,1.087C114.596,14.287,114.999,14.411,115.519,14.411z"/>
		<path fill="#FFFFFF" d="M26.459,34.851v-5.629c0-0.709-0.161-1.238-0.484-1.588s-0.828-0.523-1.517-0.523
			c-0.91,0-1.577,0.246-2,0.738c-0.424,0.492-0.636,1.305-0.636,2.437v4.565h-1.317V26.15h1.071l0.215,1.19h0.063
			c0.27-0.429,0.648-0.761,1.135-0.996c0.487-0.235,1.029-0.354,1.628-0.354c1.048,0,1.837,0.253,2.366,0.759
			c0.528,0.505,0.794,1.313,0.794,2.425v5.677H26.459z"/>
		<path fill="#FFFFFF" d="M28.81,26.15h1.413l1.905,4.962c0.419,1.133,0.678,1.95,0.778,2.453h0.063
			c0.069-0.27,0.213-0.731,0.433-1.386c0.22-0.653,0.938-2.663,2.155-6.029h1.414l-3.74,9.908c-0.37,0.979-0.803,1.674-1.298,2.084
			s-1.102,0.615-1.821,0.615c-0.402,0-0.8-0.045-1.191-0.135v-1.057c0.291,0.063,0.616,0.096,0.977,0.096
			c0.905,0,1.551-0.508,1.938-1.524l0.484-1.238L28.81,26.15z"/>
		<path fill="#FFFFFF" d="M44.046,34.851v-5.629c0-0.709-0.161-1.238-0.484-1.588s-0.828-0.523-1.517-0.523
			c-0.915,0-1.583,0.248-2.004,0.746c-0.421,0.497-0.632,1.312-0.632,2.445v4.549h-1.317V22.497h1.317v3.739
			c0,0.45-0.021,0.823-0.063,1.12h0.08c0.259-0.418,0.628-0.748,1.107-0.989c0.479-0.24,1.025-0.36,1.639-0.36
			c1.064,0,1.862,0.252,2.395,0.758c0.531,0.506,0.798,1.309,0.798,2.409v5.677H44.046z"/>
		<path fill="#FFFFFF" d="M51.455,35.01c-1.286,0-2.301-0.392-3.045-1.176c-0.743-0.783-1.115-1.87-1.115-3.263
			c0-1.402,0.346-2.517,1.036-3.342c0.69-0.826,1.618-1.239,2.782-1.239c1.091,0,1.953,0.359,2.589,1.076
			c0.635,0.717,0.952,1.663,0.952,2.838v0.834H48.66c0.026,1.021,0.284,1.797,0.774,2.326c0.489,0.529,1.179,0.794,2.068,0.794
			c0.937,0,1.862-0.196,2.778-0.588v1.175c-0.466,0.201-0.906,0.346-1.322,0.433C52.544,34.966,52.042,35.01,51.455,35.01z
			 M51.098,27.094c-0.698,0-1.256,0.228-1.671,0.683c-0.416,0.456-0.66,1.086-0.734,1.89h4.549c0-0.83-0.186-1.467-0.556-1.909
			C52.316,27.316,51.785,27.094,51.098,27.094z"/>
		<path fill="#FFFFFF" d="M59.419,33.922c0.232,0,0.457-0.018,0.675-0.052c0.217-0.034,0.389-0.07,0.516-0.107v1.009
			c-0.143,0.068-0.354,0.125-0.631,0.17c-0.278,0.045-0.528,0.068-0.75,0.068c-1.684,0-2.525-0.887-2.525-2.66v-5.176h-1.246v-0.636
			l1.246-0.548l0.556-1.857h0.763v2.017h2.524v1.024h-2.524v5.12c0,0.524,0.124,0.927,0.373,1.207S58.985,33.922,59.419,33.922z"/>
		<path fill="#FFFFFF" d="M65.732,35.01c-1.286,0-2.301-0.392-3.045-1.176c-0.743-0.783-1.115-1.87-1.115-3.263
			c0-1.402,0.346-2.517,1.036-3.342c0.69-0.826,1.618-1.239,2.782-1.239c1.091,0,1.953,0.359,2.589,1.076
			c0.635,0.717,0.952,1.663,0.952,2.838v0.834h-5.994c0.026,1.021,0.284,1.797,0.774,2.326c0.489,0.529,1.179,0.794,2.068,0.794
			c0.937,0,1.862-0.196,2.778-0.588v1.175c-0.466,0.201-0.906,0.346-1.322,0.433C66.821,34.966,66.319,35.01,65.732,35.01z
			 M65.374,27.094c-0.698,0-1.256,0.228-1.671,0.683c-0.416,0.456-0.66,1.086-0.734,1.89h4.549c0-0.83-0.186-1.467-0.556-1.909
			C66.592,27.316,66.062,27.094,65.374,27.094z"/>
		<path fill="#FFFFFF" d="M74.855,25.99c0.386,0,0.732,0.032,1.04,0.096l-0.183,1.223c-0.36-0.079-0.678-0.119-0.953-0.119
			c-0.704,0-1.306,0.286-1.806,0.857c-0.501,0.571-0.751,1.283-0.751,2.136v4.668h-1.317V26.15h1.088l0.15,1.611h0.063
			c0.323-0.566,0.712-1.003,1.167-1.31S74.309,25.99,74.855,25.99z"/>
		<path fill="#FFFFFF" d="M85.209,35.01c-0.566,0-1.084-0.104-1.552-0.314c-0.469-0.209-0.861-0.53-1.18-0.964h-0.095
			c0.063,0.508,0.095,0.989,0.095,1.444v3.581H81.16V26.15h1.071l0.183,1.19h0.063c0.339-0.476,0.733-0.82,1.184-1.031
			c0.449-0.212,0.966-0.318,1.548-0.318c1.153,0,2.044,0.395,2.672,1.184c0.627,0.788,0.94,1.895,0.94,3.318
			c0,1.429-0.319,2.539-0.957,3.33C87.227,34.615,86.342,35.01,85.209,35.01z M85.019,27.111c-0.89,0-1.532,0.246-1.93,0.738
			c-0.396,0.492-0.601,1.275-0.611,2.35v0.294c0,1.223,0.204,2.097,0.611,2.624c0.408,0.526,1.062,0.79,1.961,0.79
			c0.752,0,1.341-0.305,1.767-0.913c0.426-0.609,0.64-1.448,0.64-2.517c0-1.085-0.214-1.918-0.64-2.497
			C86.391,27.4,85.791,27.111,85.019,27.111z"/>
		<path fill="#FFFFFF" d="M96.182,34.851l-0.262-1.238h-0.063c-0.435,0.545-0.867,0.914-1.298,1.107
			c-0.432,0.193-0.971,0.29-1.616,0.29c-0.862,0-1.539-0.223-2.028-0.667c-0.489-0.445-0.734-1.077-0.734-1.897
			c0-1.758,1.405-2.679,4.216-2.763l1.477-0.048v-0.54c0-0.683-0.146-1.187-0.44-1.513c-0.294-0.325-0.764-0.488-1.409-0.488
			c-0.726,0-1.546,0.223-2.461,0.667l-0.405-1.008c0.429-0.233,0.898-0.416,1.409-0.548c0.511-0.133,1.022-0.198,1.536-0.198
			c1.037,0,1.807,0.229,2.307,0.69c0.5,0.46,0.75,1.198,0.75,2.215v5.938H96.182z M93.205,33.922c0.82,0,1.464-0.225,1.933-0.675
			s0.703-1.08,0.703-1.89v-0.786l-1.318,0.056c-1.048,0.037-1.804,0.2-2.267,0.488s-0.694,0.737-0.694,1.346
			c0,0.477,0.144,0.839,0.433,1.088C92.282,33.798,92.686,33.922,93.205,33.922z M95.817,23.276c0,0.519-0.162,0.936-0.488,1.25
			c-0.325,0.315-0.758,0.473-1.298,0.473c-0.534,0-0.961-0.154-1.278-0.464c-0.317-0.311-0.477-0.725-0.477-1.243
			s0.16-0.93,0.48-1.234s0.745-0.456,1.274-0.456c0.534,0,0.966,0.157,1.294,0.472C95.653,22.388,95.817,22.788,95.817,23.276z
			 M94.959,23.291c0-0.296-0.087-0.525-0.262-0.687s-0.397-0.242-0.667-0.242s-0.492,0.081-0.667,0.242s-0.262,0.391-0.262,0.687
			c0,0.297,0.079,0.525,0.238,0.687c0.158,0.162,0.389,0.242,0.69,0.242c0.275,0,0.499-0.08,0.671-0.242
			C94.873,23.817,94.959,23.588,94.959,23.291z"/>
		<path fill="#FFFFFF" d="M105.06,34.851h-1.35V23.243h6.471v1.199h-5.121v4.247h4.812v1.199h-4.812V34.851z"/>
		<path fill="#FFFFFF" d="M116.962,34.851l-0.262-1.238h-0.063c-0.435,0.545-0.867,0.914-1.298,1.107
			c-0.432,0.193-0.971,0.29-1.616,0.29c-0.862,0-1.539-0.223-2.028-0.667c-0.489-0.445-0.734-1.077-0.734-1.897
			c0-1.758,1.405-2.679,4.216-2.763l1.477-0.048v-0.54c0-0.683-0.146-1.187-0.44-1.513c-0.294-0.325-0.764-0.488-1.409-0.488
			c-0.726,0-1.546,0.223-2.461,0.667l-0.405-1.008c0.429-0.233,0.898-0.416,1.409-0.548c0.511-0.133,1.022-0.198,1.536-0.198
			c1.037,0,1.807,0.229,2.307,0.69c0.5,0.46,0.75,1.198,0.75,2.215v5.938H116.962z M113.986,33.922c0.82,0,1.464-0.225,1.933-0.675
			s0.703-1.08,0.703-1.89v-0.786l-1.318,0.056c-1.048,0.037-1.804,0.2-2.267,0.488s-0.694,0.737-0.694,1.346
			c0,0.477,0.144,0.839,0.433,1.088C113.063,33.798,113.466,33.922,113.986,33.922z"/>
		<path fill="#FFFFFF" d="M123.839,35.01c-1.26,0-2.235-0.388-2.926-1.163s-1.036-1.873-1.036-3.291c0-1.456,0.351-2.58,1.052-3.374
			s1.7-1.191,2.997-1.191c0.418,0,0.836,0.045,1.255,0.136c0.418,0.09,0.746,0.195,0.984,0.317l-0.405,1.119
			c-0.291-0.116-0.608-0.213-0.953-0.29c-0.344-0.076-0.648-0.115-0.912-0.115c-1.769,0-2.652,1.128-2.652,3.383
			c0,1.068,0.216,1.889,0.647,2.461c0.431,0.571,1.07,0.857,1.917,0.857c0.726,0,1.469-0.156,2.231-0.469v1.167
			C125.455,34.859,124.723,35.01,123.839,35.01z"/>
		<path fill="#FFFFFF" d="M131.485,35.01c-1.286,0-2.301-0.392-3.045-1.176c-0.743-0.783-1.115-1.87-1.115-3.263
			c0-1.402,0.346-2.517,1.036-3.342c0.69-0.826,1.618-1.239,2.782-1.239c1.091,0,1.953,0.359,2.589,1.076
			c0.635,0.717,0.952,1.663,0.952,2.838v0.834h-5.994c0.026,1.021,0.284,1.797,0.774,2.326c0.489,0.529,1.179,0.794,2.068,0.794
			c0.937,0,1.862-0.196,2.778-0.588v1.175c-0.466,0.201-0.906,0.346-1.322,0.433C132.573,34.966,132.072,35.01,131.485,35.01z
			 M131.127,27.094c-0.698,0-1.256,0.228-1.671,0.683c-0.416,0.456-0.66,1.086-0.734,1.89h4.549c0-0.83-0.186-1.467-0.556-1.909
			C132.345,27.316,131.815,27.094,131.127,27.094z"/>
		<path fill="#FFFFFF" d="M140.688,26.007c1.144,0,2.031,0.39,2.663,1.171c0.633,0.78,0.949,1.885,0.949,3.314
			c0,1.429-0.319,2.539-0.957,3.33c-0.638,0.792-1.522,1.188-2.655,1.188c-0.566,0-1.084-0.104-1.552-0.314
			c-0.469-0.209-0.861-0.53-1.18-0.964h-0.095l-0.278,1.119h-0.944V22.497h1.317v3.001c0,0.673-0.021,1.275-0.063,1.811h0.063
			C138.571,26.441,139.481,26.007,140.688,26.007z M140.497,27.111c-0.9,0-1.548,0.258-1.945,0.773
			c-0.396,0.517-0.596,1.386-0.596,2.608s0.204,2.097,0.611,2.624c0.408,0.526,1.062,0.79,1.961,0.79
			c0.811,0,1.413-0.295,1.811-0.886c0.396-0.59,0.596-1.438,0.596-2.544c0-1.133-0.199-1.978-0.596-2.533
			C141.942,27.388,141.328,27.111,140.497,27.111z"/>
		<path fill="#FFFFFF" d="M153.82,30.492c0,1.418-0.356,2.525-1.071,3.322s-1.702,1.195-2.961,1.195
			c-0.778,0-1.469-0.183-2.072-0.548s-1.069-0.89-1.397-1.572s-0.492-1.481-0.492-2.397c0-1.419,0.354-2.523,1.063-3.314
			s1.694-1.188,2.954-1.188c1.217,0,2.184,0.405,2.901,1.215C153.461,28.015,153.82,29.111,153.82,30.492z M147.191,30.492
			c0,1.111,0.223,1.958,0.667,2.54c0.444,0.583,1.099,0.874,1.961,0.874s1.518-0.29,1.965-0.87c0.447-0.579,0.671-1.428,0.671-2.544
			c0-1.106-0.224-1.946-0.671-2.521s-1.107-0.861-1.98-0.861c-0.863,0-1.514,0.283-1.953,0.849
			C147.41,28.526,147.191,29.37,147.191,30.492z"/>
		<path fill="#FFFFFF" d="M163.347,30.492c0,1.418-0.356,2.525-1.071,3.322s-1.702,1.195-2.961,1.195
			c-0.778,0-1.469-0.183-2.072-0.548s-1.069-0.89-1.397-1.572s-0.492-1.481-0.492-2.397c0-1.419,0.354-2.523,1.063-3.314
			s1.694-1.188,2.954-1.188c1.217,0,2.184,0.405,2.901,1.215C162.989,28.015,163.347,29.111,163.347,30.492z M156.718,30.492
			c0,1.111,0.223,1.958,0.667,2.54c0.444,0.583,1.099,0.874,1.961,0.874s1.518-0.29,1.965-0.87c0.447-0.579,0.671-1.428,0.671-2.544
			c0-1.106-0.224-1.946-0.671-2.521s-1.107-0.861-1.98-0.861c-0.863,0-1.514,0.283-1.953,0.849
			C156.938,28.526,156.718,29.37,156.718,30.492z"/>
		<path fill="#FFFFFF" d="M166.667,30.397c0.228-0.322,0.574-0.746,1.04-1.27l2.811-2.978h1.563l-3.524,3.707l3.771,4.994h-1.597
			l-3.072-4.112l-0.992,0.857v3.255h-1.302V22.497h1.302v6.55c0,0.291-0.021,0.741-0.063,1.35H166.667z"/>
	</g>
</g>
</svg>
