<?xml version="1.0" encoding="utf-8"?>
<!-- Generator: Adobe Illustrator 16.0.0, SVG Export Plug-In . SVG Version: 6.00 Build 0)  -->
<!DOCTYPE svg PUBLIC "-//W3C//DTD SVG 1.1//EN" "http://www.w3.org/Graphics/SVG/1.1/DTD/svg11.dtd">
<svg version="1.1" id="Layer_1" xmlns="http://www.w3.org/2000/svg" xmlns:xlink="http://www.w3.org/1999/xlink" x="0px" y="0px"
	 width="28.895px" height="28.895px" viewBox="0 0 28.895 28.895" enable-background="new 0 0 28.895 28.895" xml:space="preserve">
<path id="White_2_" fill="#FFFFFF" d="M27.3,0H1.595C0.714,0,0,0.714,0,1.595V27.3c0,0.881,0.714,1.595,1.595,1.595h13.839V17.705
	h-3.766v-4.361h3.766v-3.216c0-3.732,2.279-5.764,5.608-5.764c1.595,0,2.966,0.119,3.365,0.172v3.9l-2.31,0.001
	c-1.811,0-2.161,0.86-2.161,2.123v2.784h4.318l-0.562,4.361h-3.756v11.189H27.3c0.881,0,1.595-0.714,1.595-1.595V1.595
	C28.895,0.714,28.181,0,27.3,0z"/>
</svg>
