<?xml version="1.0" encoding="utf-8"?>
<!-- Generator: Adobe Illustrator 16.0.0, SVG Export Plug-In . SVG Version: 6.00 Build 0)  -->
<!DOCTYPE svg PUBLIC "-//W3C//DTD SVG 1.1//EN" "http://www.w3.org/Graphics/SVG/1.1/DTD/svg11.dtd">
<svg version="1.1" id="Layer_1" xmlns="http://www.w3.org/2000/svg" xmlns:xlink="http://www.w3.org/1999/xlink" x="0px" y="0px"
	 width="25.25px" height="32px" viewBox="0 0 25.25 32" enable-background="new 0 0 25.25 32" xml:space="preserve">
<g id="_x37_2EDic.tif">
	<g>
		<g>
			<path fill-rule="evenodd" clip-rule="evenodd" fill="#1B1B1C" d="M16.527,30.715c0.544-0.634,1.105-1.252,1.627-1.901
				c2.846-3.532,3.132-8.195,0.765-12.35c-1.155-2.027-2.713-3.702-4.648-5.295c0.4,3.852-0.512,7.243-2.587,10.511
				c-0.33-1.91-1.054-3.458-2.43-4.545c-0.821,1.728-1.664,3.402-2.418,5.116c-0.9,2.048-1.169,4.115,0.276,6.061
				c0.428,0.58,0.945,1.093,1.437,1.623c0.122,0.132,0.302,0.206,0.39,0.383c-1.579-0.399-2.979-1.102-4.208-2.113
				c-3.155-2.593-4.068-6.316-2.601-10.488c0.842-2.396,2.267-4.473,3.616-6.59c1.752-2.75,3.408-5.546,4.366-8.693
				c0.176-0.579,0.345-1.161,0.518-1.74c0.004-0.015,0.029-0.024,0.093-0.072c0.758,0.669,1.536,1.338,2.294,2.026
				c2.827,2.564,5.584,5.193,7.822,8.312c1.722,2.4,2.945,5.005,3.387,7.955c0.52,3.492-0.095,6.636-2.733,9.182
				c-1.35,1.306-2.965,2.11-4.793,2.499c-0.102,0.022-0.212,0.005-0.319,0.005C16.428,30.637,16.478,30.676,16.527,30.715z"/>
		</g>
	</g>
</g>
</svg>
