<?xml version="1.0" encoding="utf-8"?>
<!-- Generator: Adobe Illustrator 16.0.0, SVG Export Plug-In . SVG Version: 6.00 Build 0)  -->
<!DOCTYPE svg PUBLIC "-//W3C//DTD SVG 1.1//EN" "http://www.w3.org/Graphics/SVG/1.1/DTD/svg11.dtd">
<svg version="1.1" id="Layer_1" xmlns="http://www.w3.org/2000/svg" xmlns:xlink="http://www.w3.org/1999/xlink" x="0px" y="0px"
	 width="25.25px" height="32px" viewBox="0 0 25.25 32" enable-background="new 0 0 25.25 32" xml:space="preserve">
<path fill="#DD4D3D" d="M2.473,20.258c1.221,5.789,6.188,13.104,13.151,11.523c6.964-1.583,9.847-8.226,8.153-15.682
	c-1.695-7.454-5.293-9.91-7.472-10.232c0,0,3.538,6.082,0.586,7.433c-2.953,1.354-7.072-4.412-4.782-9.343
	c2.29-4.93,7.111-0.048,7.111-0.048s-4.074-6.324-8.434-2.242c-3.556,3.331-3.12,7.65-7.955,7.999c0,0,2.352,1.113,3.869,2.269
	c3.253,2.479,6.535,8.672,3.748,10.533c-2.787,1.86-7.728-4.652-8.791-11.977C1.657,10.491,1.184,14.143,2.473,20.258z"/>
<path fill="#F99B1C" d="M15.271,29.347c4.188,0.474,7.633-3.71,7.366-9.308c-0.271-5.596-2.916-8.404-2.916-8.404
	s5.222,13.266-4.205,12.613c-9.428-0.653,4.396-3.385-1.594-9.659C7.934,8.315,7.639,7.904,9.961,6.423c0,0-4.723-0.7-2.761,3.082
	c1.963,3.78,7.762,6.183,5.549,10.571c-2.212,4.389-5.83,4.965-8.645-0.802C4.104,19.274,3.843,28.058,15.271,29.347z"/>
<path fill="#F99B1C" d="M3.135,13.905c-0.202-0.485,3.384,5.964,4.988,4.956c1.63-1.022,0.318-4.118,0.318-4.118
	s3.42,4.677,0.349,5.511C5.72,21.088,4.793,17.891,3.135,13.905z"/>
<path fill="#F99B1C" d="M6.354,1.924c0,0-0.684,6.166,1.308,8.475C9.654,12.707,6.948,4.875,6.354,1.924z"/>
</svg>
