<?xml version="1.0" encoding="utf-8"?>
<!-- Generator: Adobe Illustrator 16.0.0, SVG Export Plug-In . SVG Version: 6.00 Build 0)  -->
<!DOCTYPE svg PUBLIC "-//W3C//DTD SVG 1.1//EN" "http://www.w3.org/Graphics/SVG/1.1/DTD/svg11.dtd">
<svg version="1.1" id="Layer_1" xmlns="http://www.w3.org/2000/svg" xmlns:xlink="http://www.w3.org/1999/xlink" x="0px" y="0px"
	 width="500px" height="200px" viewBox="0 0 500 200" enable-background="new 0 0 500 200" xml:space="preserve">
<rect x="-1" y="-1" fill="#80CDF2" width="502.5" height="202"/>
<polygon fill="#FFD15E" points="427.105,200 440.553,112.53 79.544,108.393 80.579,200 "/>
<polygon fill="#EFBE62" points="86.785,137.07 100.339,120.806 112.537,139.782 97.628,160.112 "/>
<polygon fill="#EFBE62" points="117.816,137.07 131.371,120.806 143.568,139.782 128.66,160.112 "/>
<polygon fill="#EFBE62" points="148.848,137.07 162.402,120.806 174.6,139.782 159.691,160.112 "/>
<polygon fill="#EFBE62" points="179.879,136.036 193.434,119.771 205.631,138.747 190.723,159.077 "/>
<polygon fill="#EFBE62" points="210.911,136.036 224.465,119.771 236.663,138.747 221.754,159.077 "/>
<polygon fill="#EFBE62" points="241.942,136.036 255.497,119.771 267.694,138.747 252.785,159.077 "/>
<polygon fill="#EFBE62" points="271.939,135.002 285.494,118.736 297.691,137.713 282.783,158.043 "/>
<polygon fill="#EFBE62" points="302.971,135.002 316.525,118.736 328.723,137.713 313.814,158.043 "/>
<polygon fill="#EFBE62" points="83.682,180.515 97.236,164.249 109.434,183.226 94.525,203.556 "/>
<polygon fill="#EFBE62" points="114.713,180.515 128.268,164.249 140.465,183.226 125.557,203.556 "/>
<polygon fill="#EFBE62" points="145.745,180.515 159.299,164.249 171.497,183.226 156.588,203.556 "/>
<polygon fill="#EFBE62" points="176.776,179.48 190.331,163.215 202.528,182.191 187.62,202.521 "/>
<polygon fill="#EFBE62" points="207.808,179.48 221.362,163.215 233.56,182.191 218.651,202.521 "/>
<polygon fill="#EFBE62" points="238.839,179.48 252.395,163.215 264.592,182.191 249.683,202.521 "/>
<polygon fill="#EFBE62" points="268.836,178.446 282.391,162.181 294.588,181.157 279.68,201.487 "/>
<polygon fill="#EFBE62" points="299.867,178.446 313.422,162.181 325.62,181.157 310.711,201.487 "/>
<circle fill="#64599A" cx="113.742" cy="70.335" r="88.742"/>
<circle fill="#C77DC9" cx="394.736" cy="73.236" r="100.77"/>
<circle fill="#A35FA2" cx="390.279" cy="77.692" r="96.314"/>
<circle fill="#6968AB" cx="101.242" cy="70.421" r="70.421"/>
<circle fill="#8CD6F0" cx="261.097" cy="29.041" r="122.857"/>
<circle fill="#5A8BC3" cx="259.982" cy="39.068" r="115.057"/>
<path fill="#C77DC9" d="M476.01,44.375c-5.533-14.753,4.456,40.109-12.256,28.968s13.37-24.511-12.255-43.452
	c-25.626-18.939,20.055,3.343,5.57-20.054s22.282,3.342,26.739,21.168C488.266,48.832,496.063,97.853,476.01,44.375z"/>
<polygon fill="#EFBE62" points="332.867,183.136 343.663,170.181 353.379,185.295 341.504,201.487 "/>
<g>
	<path fill="#694690" d="M249.17-37.081c0,1.203-0.975,2.178-2.178,2.178h-0.006c-1.203,0-2.179-0.975-2.179-2.178v-16.208
		c0-1.203,0.976-2.178,2.179-2.178h0.006c1.203,0,2.178,0.975,2.178,2.178V-37.081z"/>
	<path fill="#694690" d="M321.007-13.894c0.521,1.085,0.062,2.385-1.022,2.906l-0.006,0.002c-1.085,0.52-2.386,0.062-2.905-1.022
		l-7.006-14.616c-0.521-1.085-0.062-2.385,1.022-2.906l0.005-0.002c1.085-0.52,2.386-0.062,2.906,1.022L321.007-13.894z"/>
	<path fill="#694690" d="M239.996-32.588c0.52,1.085,0.062,2.385-1.023,2.906l-0.005,0.002c-1.084,0.52-2.385,0.062-2.905-1.022
		l-7.006-14.616c-0.52-1.085-0.062-2.386,1.022-2.906l0.005-0.002c1.085-0.52,2.386-0.063,2.906,1.022L239.996-32.588z"/>
	<path fill="#694690" d="M283.617-51.284c0.52,1.085,0.062,2.386-1.022,2.906l-0.006,0.002c-1.085,0.52-2.386,0.062-2.906-1.022
		l-7.005-14.616c-0.521-1.085-0.062-2.386,1.021-2.906l0.006-0.003c1.085-0.52,2.386-0.062,2.906,1.022L283.617-51.284z"/>
	<path fill="#694690" d="M327.238-57.515c0.521,1.085,0.062,2.386-1.022,2.906l-0.006,0.002c-1.085,0.52-2.385,0.063-2.905-1.022
		l-7.006-14.616c-0.521-1.085-0.062-2.385,1.022-2.906l0.005-0.002c1.086-0.52,2.386-0.062,2.906,1.022L327.238-57.515z"/>
	<path fill="#694690" d="M342.645,43.93c0,1.203-0.975,2.178-2.178,2.178h-0.007c-1.203,0-2.178-0.975-2.178-2.178V27.722
		c0-1.203,0.975-2.178,2.178-2.178h0.007c1.203,0,2.178,0.975,2.178,2.178V43.93z"/>
	<path fill="#694690" d="M358.396,42.191c0.521,1.085,0.062,2.386-1.022,2.906l-0.006,0.002c-1.085,0.52-2.385,0.062-2.905-1.022
		l-7.006-14.616c-0.521-1.085-0.062-2.386,1.022-2.906l0.005-0.002c1.086-0.52,2.386-0.063,2.906,1.022L358.396,42.191z"/>
	<path fill="#694690" d="M333.47,48.423c0.521,1.085,0.062,2.385-1.022,2.906l-0.005,0.002c-1.085,0.52-2.386,0.062-2.906-1.022
		l-7.006-14.616c-0.521-1.085-0.062-2.385,1.022-2.906l0.006-0.002c1.085-0.52,2.385-0.062,2.905,1.022L333.47,48.423z"/>
	<path fill="#694690" d="M321.007,11.033c0.521,1.085,0.062,2.386-1.022,2.906l-0.006,0.002c-1.085,0.52-2.386,0.062-2.905-1.022
		l-7.006-14.616c-0.521-1.085-0.062-2.386,1.022-2.906l0.005-0.002c1.085-0.52,2.386-0.063,2.906,1.022L321.007,11.033z"/>
	<path fill="#694690" d="M352.165-1.43c0.521,1.085,0.062,2.385-1.022,2.906l-0.006,0.002c-1.085,0.52-2.386,0.062-2.905-1.022
		l-7.006-14.616c-0.521-1.085-0.062-2.386,1.022-2.906l0.005-0.002c1.085-0.52,2.386-0.063,2.906,1.022L352.165-1.43z"/>
	<path fill="#694690" d="M272.748,2.138c-0.626,1.027-1.967,1.352-2.994,0.727l-0.005-0.004c-1.026-0.625-1.353-1.965-0.726-2.993
		l8.436-13.84c0.627-1.028,1.967-1.352,2.993-0.727l0.006,0.003c1.027,0.626,1.353,1.966,0.726,2.993L272.748,2.138z"/>
	<path fill="#694690" d="M287.104,8.852c-0.121,1.197-1.188,2.069-2.386,1.948l-0.006,0c-1.197-0.121-2.07-1.188-1.949-2.386
		l1.626-16.126c0.12-1.198,1.188-2.07,2.385-1.949l0.006,0c1.197,0.121,2.069,1.188,1.949,2.386L287.104,8.852z"/>
	<path fill="#694690" d="M262.576,1.199c-0.121,1.197-1.188,2.069-2.386,1.949l-0.006-0.001c-1.197-0.12-2.07-1.188-1.949-2.385
		l1.625-16.127c0.12-1.197,1.188-2.069,2.386-1.949l0.005,0.001c1.197,0.121,2.07,1.188,1.949,2.385L262.576,1.199z"/>
	<path fill="#694690" d="M238.415-49.422c-0.121,1.197-1.188,2.069-2.386,1.949l-0.006-0.001c-1.197-0.121-2.069-1.188-1.949-2.385
		l1.625-16.126c0.121-1.197,1.188-2.069,2.386-1.949l0.005,0.001c1.197,0.121,2.07,1.188,1.949,2.385L238.415-49.422z"/>
	<path fill="#694690" d="M327.593-18.92c-0.121,1.197-1.189,2.069-2.387,1.949l-0.005,0c-1.197-0.121-2.07-1.188-1.949-2.385
		l1.625-16.126c0.12-1.197,1.188-2.069,2.385-1.949l0.006,0.001c1.197,0.121,2.07,1.188,1.949,2.385L327.593-18.92z"/>
	<path fill="#694690" d="M268.08,51.497c-0.217-1.183,0.567-2.318,1.75-2.535l0.007-0.001c1.183-0.217,2.317,0.566,2.534,1.75
		l2.921,15.943c0.216,1.183-0.567,2.318-1.75,2.535l-0.006,0.001c-1.184,0.216-2.318-0.567-2.535-1.75L268.08,51.497z"/>
	<path fill="#694690" d="M252.899,56.046c-0.707-0.974-0.491-2.336,0.482-3.043L253.387,53c0.973-0.708,2.335-0.492,3.042,0.482
		l9.525,13.114c0.707,0.974,0.491,2.335-0.482,3.043l-0.005,0.003c-0.974,0.707-2.335,0.492-3.042-0.482L252.899,56.046z"/>
	<path fill="#694690" d="M288.759,45.425c-0.708-0.974-0.491-2.335,0.482-3.042l0.005-0.004c0.973-0.707,2.335-0.491,3.041,0.483
		l9.525,13.114c0.708,0.974,0.492,2.335-0.481,3.042l-0.005,0.004c-0.974,0.707-2.336,0.492-3.043-0.482L288.759,45.425z"/>
	<path fill="#694690" d="M233.456,0.822c-0.217-1.184,0.567-2.318,1.75-2.535l0.006-0.001c1.183-0.217,2.318,0.566,2.535,1.75
		l2.921,15.943c0.217,1.184-0.567,2.318-1.75,2.536l-0.006,0c-1.183,0.217-2.318-0.566-2.535-1.75L233.456,0.822z"/>
	<path fill="#694690" d="M218.274,5.372c-0.707-0.974-0.491-2.336,0.482-3.043l0.005-0.003c0.973-0.707,2.335-0.491,3.042,0.482
		l9.525,13.114c0.708,0.973,0.491,2.335-0.482,3.042l-0.005,0.003c-0.974,0.707-2.335,0.492-3.042-0.482L218.274,5.372z"/>
	<path fill="#694690" d="M229.207-11.482c-0.707-0.974-0.491-2.335,0.483-3.043l0.005-0.003c0.973-0.707,2.335-0.491,3.042,0.482
		l9.525,13.114c0.707,0.974,0.491,2.336-0.482,3.043l-0.005,0.003c-0.974,0.707-2.335,0.491-3.042-0.482L229.207-11.482z"/>
	<path fill="#694690" d="M260.871,31.527c-0.707-0.973-0.491-2.335,0.482-3.042l0.005-0.004c0.974-0.707,2.335-0.491,3.042,0.482
		l9.525,13.115c0.707,0.973,0.49,2.335-0.482,3.042l-0.005,0.004c-0.973,0.706-2.335,0.491-3.042-0.482L260.871,31.527z"/>
	<path fill="#694690" d="M220.005,49.401c-0.707-0.973-0.491-2.335,0.482-3.042l0.005-0.004c0.974-0.707,2.335-0.492,3.042,0.482
		l9.525,13.115c0.707,0.973,0.491,2.335-0.482,3.042l-0.005,0.003c-0.973,0.707-2.335,0.491-3.042-0.482L220.005,49.401z"/>
	<path fill="#694690" d="M296.561,27.697c0.431-1.123,1.69-1.685,2.814-1.254l0.005,0.002c1.123,0.43,1.685,1.69,1.253,2.813
		l-5.804,15.133c-0.431,1.124-1.689,1.685-2.813,1.254l-0.006-0.002c-1.123-0.43-1.685-1.69-1.254-2.813L296.561,27.697z"/>
	<path fill="#694690" d="M281.229,23.68c-0.096-1.2,0.798-2.25,1.996-2.347l0.007,0c1.198-0.097,2.249,0.796,2.347,1.995
		l1.307,16.155c0.098,1.2-0.796,2.25-1.995,2.347l-0.006,0.001c-1.198,0.096-2.25-0.796-2.347-1.996L281.229,23.68z"/>
	<path fill="#694690" d="M306.736,26.788c-0.098-1.199,0.796-2.25,1.994-2.347h0.006c1.199-0.097,2.25,0.796,2.347,1.995
		l1.309,16.155c0.097,1.2-0.797,2.25-1.996,2.347l-0.006,0c-1.199,0.098-2.249-0.795-2.347-1.995L306.736,26.788z"/>
	<path fill="#694690" d="M293.347,61.698c-0.098-1.199,0.796-2.25,1.994-2.347l0.007,0c1.199-0.097,2.25,0.796,2.347,1.996
		l1.308,16.155c0.098,1.2-0.796,2.25-1.995,2.347l-0.006,0c-1.199,0.096-2.25-0.795-2.347-1.995L293.347,61.698z"/>
	<path fill="#694690" d="M259.78-45.728c-0.949,0.738-2.318,0.566-3.056-0.384l-0.004-0.005c-0.737-0.95-0.566-2.318,0.384-3.056
		l12.801-9.943c0.95-0.738,2.318-0.566,3.056,0.384l0.004,0.005c0.738,0.95,0.566,2.318-0.384,3.056L259.78-45.728z"/>
	<path fill="#694690" d="M285.537,25.229c-0.538,1.076-1.846,1.512-2.922,0.975l-0.006-0.003c-1.075-0.538-1.513-1.846-0.975-2.922
		L288.88,8.78c0.538-1.077,1.845-1.513,2.922-0.976l0.005,0.003c1.076,0.538,1.513,1.846,0.975,2.922L285.537,25.229z"/>
	<path fill="#694690" d="M250.605-50.217c-0.538,1.076-1.846,1.512-2.923,0.975l-0.005-0.003c-1.076-0.538-1.514-1.846-0.975-2.922
		l7.244-14.499c0.537-1.077,1.846-1.513,2.922-0.975l0.005,0.003c1.076,0.538,1.513,1.845,0.975,2.922L250.605-50.217z"/>
	<path fill="#694690" d="M292.129-27.236c-0.538,1.077-1.846,1.512-2.923,0.975l-0.005-0.003c-1.076-0.537-1.514-1.845-0.976-2.921
		l7.245-14.499c0.537-1.077,1.846-1.513,2.922-0.975l0.006,0.003c1.075,0.538,1.513,1.846,0.975,2.922L292.129-27.236z"/>
	<path fill="#694690" d="M323.81,3.391c-0.538,1.076-1.847,1.512-2.922,0.975l-0.006-0.003c-1.076-0.538-1.513-1.846-0.975-2.921
		l7.244-14.499c0.538-1.077,1.846-1.513,2.923-0.976l0.005,0.003c1.076,0.538,1.513,1.846,0.975,2.922L323.81,3.391z"/>
	<path fill="#694690" d="M243.969,73.299c-0.537,1.077-1.845,1.513-2.922,0.975l-0.005-0.002c-1.076-0.538-1.513-1.846-0.975-2.922
		l7.245-14.499c0.538-1.076,1.846-1.513,2.922-0.976l0.005,0.003c1.076,0.538,1.514,1.845,0.976,2.921L243.969,73.299z"/>
	<path fill="#694690" d="M265.852,40.52c-0.538,1.077-1.846,1.513-2.922,0.975l-0.005-0.002c-1.076-0.538-1.513-1.846-0.976-2.921
		l7.244-14.499c0.538-1.077,1.847-1.513,2.923-0.976l0.005,0.003c1.076,0.538,1.513,1.845,0.975,2.922L265.852,40.52z"/>
	<path fill="#694690" d="M294.809,57.48c-0.538,1.077-1.846,1.513-2.923,0.976l-0.005-0.003c-1.076-0.538-1.513-1.846-0.975-2.922
		l7.244-14.499c0.538-1.076,1.847-1.513,2.922-0.975l0.006,0.003c1.075,0.538,1.513,1.845,0.975,2.921L294.809,57.48z"/>
	<path fill="#694690" d="M243.272-3.049c-1.196,0.136-2.274-0.723-2.41-1.918l0-0.006c-0.136-1.195,0.723-2.274,1.918-2.409
		l16.105-1.828c1.196-0.136,2.274,0.724,2.41,1.918v0.006c0.136,1.195-0.722,2.274-1.918,2.41L243.272-3.049z"/>
	<path fill="#694690" d="M246.776,12.407c-1.02,0.639-2.363,0.33-3.003-0.689l-0.003-0.005c-0.638-1.02-0.331-2.364,0.688-3.003
		l13.732-8.609c1.02-0.64,2.363-0.331,3.002,0.688l0.004,0.005c0.639,1.02,0.331,2.364-0.688,3.003L246.776,12.407z"/>
	<path fill="#694690" d="M237.774-11.658c-1.02,0.639-2.363,0.331-3.003-0.688l-0.002-0.005c-0.639-1.019-0.332-2.363,0.688-3.002
		l13.733-8.609c1.02-0.64,2.363-0.331,3.002,0.688l0.003,0.005c0.64,1.02,0.331,2.364-0.688,3.002L237.774-11.658z"/>
	<path fill="#694690" d="M262.93-61.792c-1.02,0.639-2.363,0.331-3.003-0.688l-0.003-0.005c-0.639-1.02-0.331-2.363,0.688-3.002
		l13.732-8.609c1.02-0.64,2.363-0.331,3.003,0.688l0.003,0.005c0.638,1.019,0.331,2.363-0.688,3.002L262.93-61.792z"/>
	<path fill="#694690" d="M293.547,27.345c-1.02,0.639-2.363,0.331-3.002-0.689l-0.004-0.005c-0.639-1.019-0.331-2.363,0.688-3.002
		l13.733-8.609c1.02-0.639,2.363-0.331,3.003,0.688l0.003,0.005c0.639,1.02,0.331,2.363-0.688,3.002L293.547,27.345z"/>
	<path fill="#694690" d="M201.429,23.544c0.801-0.897,2.178-0.975,3.075-0.173l0.004,0.003c0.897,0.802,0.975,2.179,0.173,3.076
		l-10.799,12.086c-0.801,0.897-2.179,0.975-3.075,0.174l-0.005-0.004c-0.897-0.801-0.975-2.178-0.173-3.076L201.429,23.544z"/>
	<path fill="#694690" d="M188.523,14.346c0.335-1.155,1.543-1.82,2.699-1.485l0.005,0.002c1.156,0.335,1.821,1.542,1.486,2.698
		L188.2,31.127c-0.335,1.156-1.543,1.821-2.699,1.486l-0.005-0.002c-1.155-0.335-1.821-1.542-1.486-2.698L188.523,14.346z"/>
	<path fill="#694690" d="M218.908,36.15c0.335-1.156,1.543-1.821,2.699-1.486l0.006,0.001c1.155,0.335,1.82,1.543,1.485,2.699
		l-4.513,15.567c-0.335,1.156-1.543,1.82-2.698,1.485l-0.006-0.001c-1.155-0.335-1.821-1.542-1.485-2.698L218.908,36.15z"/>
	<path fill="#694690" d="M173.997,63.032c0.335-1.156,1.543-1.821,2.699-1.485l0.005,0.001c1.156,0.335,1.821,1.543,1.486,2.699
		l-4.514,15.567c-0.335,1.155-1.542,1.82-2.698,1.486l-0.006-0.002c-1.155-0.335-1.821-1.542-1.486-2.698L173.997,63.032z"/>
	<path fill="#694690" d="M154.812,42.724c0.335-1.156,1.543-1.821,2.699-1.485l0.005,0.001c1.156,0.335,1.821,1.543,1.485,2.698
		l-4.513,15.568c-0.335,1.156-1.543,1.82-2.699,1.485l-0.005-0.002c-1.155-0.335-1.821-1.542-1.486-2.698L154.812,42.724z"/>
	<path fill="#694690" d="M220.208-34.887c0.802-0.897,2.178-0.975,3.075-0.173l0.004,0.004c0.897,0.801,0.975,2.178,0.173,3.075
		l-10.799,12.087c-0.802,0.897-2.178,0.975-3.076,0.174l-0.004-0.005c-0.897-0.801-0.976-2.178-0.174-3.075L220.208-34.887z"/>
	<path fill="#694690" d="M207.302-44.084c0.335-1.156,1.543-1.821,2.699-1.486l0.006,0.001c1.155,0.335,1.82,1.543,1.485,2.698
		l-4.514,15.567c-0.334,1.156-1.543,1.821-2.698,1.485l-0.006-0.001c-1.155-0.335-1.821-1.543-1.485-2.698L207.302-44.084z"/>
	<path fill="#694690" d="M227.318-45.79c0.335-1.156,1.543-1.821,2.699-1.486l0.005,0.002c1.155,0.335,1.82,1.543,1.485,2.698
		l-4.513,15.567c-0.335,1.156-1.543,1.821-2.699,1.486l-0.006-0.001c-1.155-0.335-1.82-1.543-1.485-2.699L227.318-45.79z"/>
	<path fill="#694690" d="M212.776,5.6c0.335-1.155,1.543-1.819,2.699-1.485l0.005,0.002c1.156,0.335,1.821,1.543,1.486,2.698
		l-4.514,15.567c-0.334,1.156-1.543,1.82-2.699,1.486l-0.005-0.002c-1.155-0.335-1.82-1.542-1.486-2.698L212.776,5.6z"/>
	<path fill="#694690" d="M173.592-15.708c0.334-1.155,1.543-1.82,2.699-1.485l0.006,0.001c1.155,0.335,1.821,1.542,1.485,2.698
		l-4.514,15.568c-0.335,1.155-1.543,1.82-2.698,1.485l-0.006-0.002c-1.155-0.335-1.821-1.542-1.486-2.698L173.592-15.708z"/>
	<path fill="#694690" d="M237.695,31.436c1.151-0.348,2.367,0.302,2.716,1.453l0.001,0.006c0.349,1.151-0.301,2.367-1.452,2.715
		l-15.512,4.7c-1.152,0.35-2.367-0.302-2.716-1.453l-0.002-0.006c-0.349-1.151,0.302-2.367,1.453-2.715L237.695,31.436z"/>
	<path fill="#694690" d="M231.463,16.865c0.888-0.812,2.265-0.751,3.077,0.137l0.004,0.004c0.812,0.887,0.752,2.265-0.136,3.078
		l-11.956,10.942c-0.888,0.813-2.265,0.751-3.077-0.136l-0.004-0.004c-0.811-0.888-0.751-2.265,0.136-3.077L231.463,16.865z"/>
	<path fill="#694690" d="M244.654,38.914c0.888-0.812,2.266-0.751,3.078,0.136l0.004,0.005c0.812,0.888,0.752,2.265-0.136,3.077
		l-11.957,10.943c-0.888,0.813-2.265,0.751-3.077-0.136l-0.004-0.004c-0.812-0.887-0.752-2.265,0.136-3.077L244.654,38.914z"/>
	<path fill="#694690" d="M208.871,49.756c0.888-0.812,2.265-0.752,3.078,0.135l0.004,0.004c0.812,0.888,0.752,2.265-0.136,3.078
		l-11.956,10.942c-0.888,0.813-2.265,0.751-3.078-0.136l-0.004-0.004c-0.811-0.888-0.752-2.264,0.137-3.077L208.871,49.756z"/>
	<path fill="#694690" d="M180.263,13.707c0.888-0.812,2.266-0.751,3.078,0.137l0.004,0.004c0.812,0.887,0.751,2.265-0.136,3.077
		l-11.957,10.943c-0.888,0.812-2.265,0.751-3.078-0.136l-0.004-0.005c-0.812-0.887-0.751-2.265,0.136-3.077L180.263,13.707z"/>
</g>
<g>
	<path fill="#F6F978" d="M416.992,3.847c0,1.07-0.866,1.938-1.938,1.938h-0.005c-1.07,0-1.938-0.868-1.938-1.938v-14.419
		c0-1.07,0.868-1.938,1.938-1.938h0.005c1.071,0,1.938,0.867,1.938,1.938V3.847z"/>
	<path fill="#F6F978" d="M480.901,24.475c0.463,0.965,0.055,2.122-0.91,2.585l-0.005,0.002c-0.965,0.462-2.122,0.056-2.585-0.91
		l-6.232-13.003c-0.463-0.965-0.056-2.122,0.91-2.585l0.004-0.002c0.965-0.462,2.122-0.056,2.586,0.91L480.901,24.475z"/>
	<path fill="#F6F978" d="M408.831,7.844c0.462,0.965,0.055,2.122-0.91,2.585l-0.005,0.002c-0.965,0.462-2.122,0.056-2.584-0.91
		l-6.233-13.002c-0.464-0.965-0.056-2.123,0.909-2.585l0.005-0.002c0.965-0.462,2.122-0.056,2.585,0.91L408.831,7.844z"/>
	<path fill="#F6F978" d="M447.638-8.789c0.463,0.966,0.055,2.123-0.909,2.585l-0.005,0.002c-0.966,0.462-2.123,0.056-2.586-0.91
		l-6.231-13.003c-0.463-0.965-0.056-2.122,0.908-2.585l0.006-0.002c0.965-0.462,2.122-0.056,2.585,0.91L447.638-8.789z"/>
	<path fill="#F6F978" d="M500.15,75.917c0,1.07-0.866,1.938-1.937,1.938h-0.007c-1.07,0-1.938-0.868-1.938-1.938V61.498
		c0-1.07,0.867-1.938,1.938-1.938h0.007c1.07,0,1.937,0.868,1.937,1.938V75.917z"/>
	<path fill="#F6F978" d="M491.988,79.914c0.463,0.965,0.056,2.122-0.909,2.585l-0.005,0.001c-0.965,0.462-2.122,0.056-2.585-0.91
		l-6.232-13.002c-0.464-0.965-0.055-2.122,0.909-2.585l0.005-0.002c0.966-0.462,2.122-0.055,2.585,0.91L491.988,79.914z"/>
	<path fill="#F6F978" d="M480.901,46.65c0.463,0.966,0.055,2.123-0.91,2.585l-0.005,0.002c-0.965,0.462-2.122,0.055-2.585-0.91
		l-6.232-13.003c-0.463-0.965-0.056-2.123,0.91-2.585l0.004-0.002c0.965-0.462,2.122-0.056,2.586,0.909L480.901,46.65z"/>
	<path fill="#F6F978" d="M437.969,38.737c-0.558,0.914-1.75,1.203-2.664,0.646l-0.004-0.003c-0.913-0.557-1.203-1.749-0.646-2.662
		l7.504-12.312c0.558-0.915,1.75-1.203,2.663-0.646l0.005,0.003c0.914,0.557,1.204,1.749,0.646,2.663L437.969,38.737z"/>
	<path fill="#F6F978" d="M450.739,44.71c-0.107,1.064-1.057,1.84-2.122,1.733h-0.005c-1.065-0.108-1.842-1.058-1.734-2.123
		l1.446-14.346c0.107-1.066,1.057-1.841,2.122-1.734l0.005,0c1.065,0.108,1.841,1.058,1.734,2.123L450.739,44.71z"/>
	<path fill="#F6F978" d="M428.919,37.902c-0.107,1.064-1.057,1.84-2.122,1.734l-0.005-0.001c-1.065-0.106-1.842-1.057-1.734-2.122
		l1.445-14.347c0.107-1.065,1.058-1.841,2.123-1.734l0.004,0.001c1.065,0.107,1.842,1.057,1.734,2.122L428.919,37.902z"/>
	<path fill="#F6F978" d="M407.425-7.133c-0.107,1.065-1.058,1.841-2.123,1.734l-0.005-0.001c-1.065-0.107-1.841-1.057-1.734-2.122
		l1.446-14.347c0.107-1.065,1.058-1.841,2.123-1.734l0.005,0.001c1.063,0.107,1.841,1.057,1.733,2.122L407.425-7.133z"/>
	<path fill="#F6F978" d="M486.76,20.003c-0.107,1.065-1.058,1.841-2.123,1.734l-0.004,0c-1.065-0.107-1.842-1.057-1.734-2.122
		l1.445-14.347c0.107-1.065,1.057-1.841,2.122-1.734l0.005,0c1.065,0.107,1.842,1.057,1.734,2.122L486.76,20.003z"/>
	<path fill="#F6F978" d="M433.815,82.649c-0.192-1.053,0.505-2.062,1.558-2.255l0.006-0.001c1.052-0.193,2.062,0.504,2.254,1.557
		l2.599,14.183c0.192,1.053-0.505,2.062-1.557,2.255l-0.005,0.002c-1.054,0.191-2.062-0.505-2.256-1.558L433.815,82.649z"/>
	<path fill="#F6F978" d="M420.311,86.696c-0.629-0.866-0.438-2.078,0.429-2.708l0.005-0.001c0.865-0.63,2.077-0.438,2.706,0.428
		l8.475,11.667c0.629,0.865,0.437,2.077-0.43,2.707l-0.004,0.002c-0.866,0.629-2.077,0.438-2.707-0.429L420.311,86.696z"/>
	<path fill="#F6F978" d="M452.212,77.247c-0.63-0.866-0.437-2.078,0.43-2.707l0.004-0.003c0.865-0.628,2.077-0.437,2.706,0.43
		l8.474,11.667c0.63,0.865,0.438,2.076-0.429,2.705l-0.004,0.003c-0.866,0.629-2.078,0.438-2.707-0.428L452.212,77.247z"/>
	<path fill="#F6F978" d="M458.206,109.965c-0.629-0.865-0.438-2.077,0.429-2.707l0.005-0.002c0.865-0.629,2.077-0.438,2.706,0.429
		l8.475,11.667c0.629,0.865,0.437,2.077-0.43,2.707l-0.004,0.002c-0.866,0.629-2.078,0.438-2.707-0.429L458.206,109.965z"/>
	<path fill="#F6F978" d="M421.851,125.866c-0.629-0.865-0.438-2.077,0.43-2.706l0.003-0.003c0.866-0.63,2.078-0.438,2.706,0.429
		l8.475,11.667c0.63,0.866,0.438,2.077-0.429,2.706l-0.004,0.004c-0.866,0.628-2.078,0.437-2.706-0.43L421.851,125.866z"/>
	<path fill="#F6F978" d="M403.012,37.566c-0.192-1.053,0.505-2.062,1.558-2.255l0.005-0.001c1.053-0.193,2.062,0.504,2.255,1.557
		l2.599,14.183c0.193,1.053-0.505,2.062-1.557,2.256l-0.005,0c-1.053,0.193-2.062-0.503-2.256-1.557L403.012,37.566z"/>
	<path fill="#F6F978" d="M389.507,41.614c-0.629-0.866-0.437-2.078,0.429-2.708l0.005-0.003c0.865-0.628,2.078-0.437,2.706,0.429
		L401.121,51c0.63,0.866,0.437,2.077-0.429,2.707l-0.005,0.003c-0.865,0.629-2.077,0.438-2.706-0.429L389.507,41.614z"/>
	<path fill="#F6F978" d="M399.232,26.621c-0.629-0.866-0.437-2.078,0.43-2.707l0.004-0.003c0.866-0.628,2.078-0.437,2.707,0.429
		l8.474,11.667c0.629,0.867,0.437,2.078-0.429,2.708l-0.005,0.003c-0.866,0.629-2.077,0.437-2.706-0.429L399.232,26.621z"/>
	<path fill="#F6F978" d="M427.402,64.883c-0.629-0.866-0.438-2.078,0.429-2.707l0.005-0.003c0.866-0.628,2.077-0.437,2.706,0.429
		l8.475,11.667c0.629,0.865,0.436,2.077-0.43,2.706l-0.004,0.003c-0.865,0.628-2.077,0.437-2.706-0.429L427.402,64.883z"/>
	<path fill="#F6F978" d="M391.047,80.785c-0.629-0.866-0.437-2.078,0.43-2.707l0.003-0.003c0.867-0.628,2.078-0.437,2.707,0.428
		l8.475,11.668c0.629,0.865,0.437,2.077-0.429,2.706l-0.006,0.003c-0.865,0.629-2.076,0.438-2.705-0.429L391.047,80.785z"/>
	<path fill="#F6F978" d="M459.153,61.476c0.383-0.999,1.504-1.499,2.503-1.115l0.005,0.002c0.999,0.383,1.499,1.503,1.114,2.502
		l-5.163,13.463c-0.383,1-1.503,1.499-2.503,1.116l-0.005-0.002c-0.999-0.382-1.499-1.503-1.115-2.502L459.153,61.476z"/>
	<path fill="#F6F978" d="M445.514,57.902c-0.085-1.067,0.71-2.001,1.776-2.087l0.006,0c1.065-0.086,2.001,0.708,2.088,1.775
		l1.162,14.372c0.087,1.068-0.708,2.002-1.775,2.088l-0.005,0.001c-1.065,0.085-2.002-0.708-2.088-1.775L445.514,57.902z"/>
	<path fill="#F6F978" d="M468.206,60.667c-0.087-1.067,0.708-2.001,1.773-2.088h0.006c1.066-0.086,2.001,0.708,2.087,1.774
		l1.164,14.373c0.087,1.067-0.709,2.001-1.775,2.088h-0.005c-1.067,0.087-2.001-0.708-2.088-1.774L468.206,60.667z"/>
	<path fill="#F6F978" d="M456.294,91.725c-0.087-1.067,0.708-2.002,1.773-2.089h0.007c1.066-0.086,2.001,0.708,2.087,1.775
		l1.164,14.372c0.087,1.067-0.708,2.001-1.775,2.088h-0.005c-1.067,0.085-2.002-0.707-2.088-1.774L456.294,91.725z"/>
	<path fill="#F6F978" d="M415.354,92.149c-0.087-1.066,0.708-2,1.775-2.086l0.004-0.001c1.067-0.086,2.002,0.708,2.088,1.775
		l1.164,14.372c0.085,1.067-0.709,2.001-1.775,2.088h-0.005c-1.067,0.087-2.002-0.707-2.088-1.773L415.354,92.149z"/>
	<path fill="#F6F978" d="M426.432-3.846c-0.844,0.657-2.062,0.504-2.718-0.341l-0.004-0.004c-0.656-0.845-0.504-2.062,0.342-2.719
		l11.388-8.846c0.846-0.657,2.062-0.503,2.719,0.342l0.003,0.004c0.657,0.845,0.504,2.062-0.341,2.719L426.432-3.846z"/>
	<path fill="#F6F978" d="M449.346,59.28c-0.479,0.957-1.642,1.345-2.599,0.867l-0.006-0.002c-0.956-0.479-1.346-1.642-0.867-2.6
		l6.446-12.898c0.479-0.958,1.641-1.346,2.599-0.868l0.005,0.002c0.957,0.479,1.346,1.642,0.867,2.599L449.346,59.28z"/>
	<path fill="#F6F978" d="M418.27-7.84c-0.479,0.958-1.642,1.345-2.601,0.868l-0.004-0.003c-0.957-0.479-1.347-1.642-0.867-2.599
		l6.444-12.899c0.479-0.958,1.643-1.346,2.6-0.868l0.005,0.003c0.957,0.478,1.346,1.642,0.867,2.599L418.27-7.84z"/>
	<path fill="#F6F978" d="M455.21,12.605c-0.479,0.958-1.642,1.345-2.6,0.867l-0.005-0.003c-0.957-0.478-1.347-1.641-0.867-2.599
		l6.445-12.898c0.478-0.958,1.642-1.346,2.6-0.868l0.005,0.002c0.956,0.479,1.346,1.642,0.867,2.6L455.21,12.605z"/>
	<path fill="#F6F978" d="M483.395,39.852c-0.479,0.958-1.643,1.345-2.6,0.868l-0.005-0.003c-0.957-0.479-1.346-1.642-0.867-2.599
		l6.444-12.899c0.479-0.958,1.643-1.346,2.601-0.868l0.005,0.002c0.957,0.479,1.346,1.643,0.866,2.6L483.395,39.852z"/>
	<path fill="#F6F978" d="M420.528,106.038c-0.845,0.657-2.062,0.504-2.718-0.341l-0.004-0.005c-0.656-0.845-0.503-2.062,0.342-2.719
		l11.388-8.846c0.846-0.656,2.062-0.503,2.72,0.342l0.002,0.005c0.657,0.845,0.504,2.062-0.341,2.719L420.528,106.038z"/>
	<path fill="#F6F978" d="M430.348,116.156c-0.479,0.958-1.643,1.347-2.6,0.867l-0.004-0.002c-0.958-0.478-1.346-1.642-0.868-2.6
		l6.445-12.897c0.478-0.959,1.642-1.347,2.6-0.869l0.004,0.004c0.958,0.478,1.346,1.641,0.867,2.599L430.348,116.156z"/>
	<path fill="#F6F978" d="M412.365,102.045c-0.478,0.958-1.642,1.346-2.6,0.867l-0.005-0.002c-0.956-0.479-1.345-1.643-0.867-2.6
		l6.445-12.899c0.479-0.958,1.643-1.346,2.6-0.868l0.005,0.003c0.957,0.479,1.347,1.642,0.867,2.599L412.365,102.045z"/>
	<path fill="#F6F978" d="M431.833,72.883c-0.479,0.958-1.642,1.346-2.6,0.867l-0.004-0.002c-0.957-0.478-1.346-1.642-0.868-2.599
		l6.444-12.899c0.479-0.958,1.644-1.346,2.601-0.868l0.005,0.003c0.957,0.479,1.346,1.642,0.866,2.599L431.833,72.883z"/>
	<path fill="#F6F978" d="M457.595,87.972c-0.479,0.958-1.643,1.346-2.601,0.868l-0.005-0.002c-0.957-0.479-1.346-1.642-0.866-2.6
		l6.444-12.899c0.479-0.958,1.643-1.346,2.6-0.867l0.005,0.002c0.957,0.479,1.346,1.642,0.867,2.599L457.595,87.972z"/>
	<path fill="#F6F978" d="M411.746,34.123c-1.064,0.121-2.023-0.644-2.145-1.707l-0.001-0.005c-0.12-1.063,0.645-2.023,1.707-2.144
		l14.327-1.626c1.064-0.121,2.023,0.644,2.145,1.707v0.006c0.121,1.062-0.642,2.023-1.706,2.144L411.746,34.123z"/>
	<path fill="#F6F978" d="M414.863,47.873c-0.907,0.568-2.103,0.294-2.672-0.613l-0.002-0.004c-0.567-0.907-0.295-2.103,0.612-2.671
		l12.217-7.659c0.907-0.569,2.103-0.295,2.671,0.612l0.003,0.004c0.568,0.907,0.295,2.103-0.612,2.671L414.863,47.873z"/>
	<path fill="#F6F978" d="M406.854,26.464c-0.906,0.568-2.103,0.294-2.67-0.613l-0.003-0.004c-0.569-0.907-0.295-2.103,0.611-2.671
		l12.218-7.659c0.907-0.569,2.103-0.294,2.671,0.612l0.003,0.004c0.568,0.907,0.294,2.103-0.613,2.671L406.854,26.464z"/>
	<path fill="#F6F978" d="M429.233-18.137c-0.906,0.568-2.103,0.295-2.671-0.612l-0.003-0.004c-0.568-0.907-0.295-2.103,0.612-2.671
		l12.217-7.659c0.907-0.569,2.103-0.295,2.672,0.612l0.003,0.005c0.567,0.907,0.294,2.102-0.613,2.67L429.233-18.137z"/>
	<path fill="#F6F978" d="M456.472,61.163c-0.907,0.568-2.103,0.294-2.671-0.613l-0.003-0.004c-0.568-0.906-0.295-2.102,0.611-2.671
		l12.218-7.659c0.907-0.568,2.103-0.294,2.672,0.612l0.002,0.004c0.568,0.907,0.295,2.103-0.612,2.671L456.472,61.163z"/>
	<path fill="#F6F978" d="M390.07,68.996c0.299-1.029,1.373-1.62,2.401-1.322l0.006,0.001c1.026,0.298,1.619,1.373,1.32,2.401
		l-4.015,13.849c-0.298,1.028-1.373,1.619-2.4,1.322l-0.005-0.002c-1.028-0.298-1.62-1.373-1.322-2.4L390.07,68.996z"/>
	<path fill="#F6F978" d="M397.553-3.901c0.298-1.028,1.373-1.62,2.401-1.322l0.004,0.002c1.028,0.298,1.62,1.373,1.321,2.4
		l-4.015,13.849c-0.298,1.029-1.373,1.62-2.401,1.322l-0.005-0.001c-1.027-0.298-1.619-1.373-1.321-2.401L397.553-3.901z"/>
	<path fill="#F6F978" d="M406.784,64.802c1.023-0.31,2.106,0.269,2.416,1.293l0.001,0.005c0.312,1.024-0.268,2.105-1.291,2.416
		l-13.801,4.181c-1.024,0.311-2.105-0.268-2.416-1.292l-0.002-0.005c-0.311-1.024,0.268-2.105,1.293-2.416L406.784,64.802z"/>
	<path fill="#F6F978" d="M401.24,51.839c0.79-0.723,2.016-0.668,2.738,0.122l0.003,0.004c0.722,0.789,0.669,2.015-0.121,2.738
		l-10.637,9.735c-0.79,0.723-2.015,0.668-2.737-0.121l-0.004-0.004c-0.722-0.79-0.669-2.015,0.121-2.738L401.24,51.839z"/>
	<path fill="#F6F978" d="M412.976,71.455c0.789-0.723,2.016-0.668,2.738,0.121l0.003,0.004c0.724,0.79,0.669,2.015-0.12,2.737
		l-10.637,9.736c-0.791,0.723-2.016,0.668-2.738-0.122l-0.004-0.003c-0.723-0.789-0.669-2.016,0.122-2.738L412.976,71.455z"/>
</g>
<g>
	<path fill="#EDF4DA" d="M107.568,17.012c0.463,0.965,0.055,2.122-0.91,2.585l-0.005,0.002c-0.965,0.462-2.122,0.056-2.585-0.91
		L97.836,5.687c-0.463-0.965-0.056-2.122,0.91-2.585L98.75,3.1c0.965-0.462,2.122-0.056,2.586,0.91L107.568,17.012z"/>
	<path fill="#EDF4DA" d="M113.112-21.795c0.463,0.965,0.055,2.122-0.91,2.585l-0.005,0.002c-0.966,0.463-2.122,0.056-2.585-0.91
		L103.38-33.12c-0.463-0.965-0.056-2.122,0.909-2.585l0.005-0.002c0.966-0.462,2.122-0.056,2.585,0.91L113.112-21.795z"/>
	<path fill="#EDF4DA" d="M126.817,68.454c0,1.07-0.866,1.938-1.937,1.938h-0.007c-1.07,0-1.938-0.868-1.938-1.938V54.035
		c0-1.07,0.867-1.938,1.938-1.938h0.007c1.07,0,1.937,0.868,1.937,1.938V68.454z"/>
	<path fill="#EDF4DA" d="M140.831,66.907c0.463,0.966,0.055,2.123-0.909,2.585l-0.006,0.002c-0.965,0.462-2.121,0.056-2.584-0.91
		L131.1,55.583c-0.464-0.965-0.056-2.123,0.909-2.585l0.004-0.002c0.967-0.463,2.123-0.056,2.586,0.909L140.831,66.907z"/>
	<path fill="#EDF4DA" d="M118.655,72.451c0.463,0.965,0.056,2.122-0.909,2.585l-0.005,0.001c-0.965,0.462-2.122,0.056-2.585-0.91
		l-6.232-13.002c-0.464-0.965-0.055-2.122,0.909-2.585l0.005-0.002c0.966-0.462,2.122-0.055,2.585,0.91L118.655,72.451z"/>
	<path fill="#EDF4DA" d="M107.568,39.188c0.463,0.966,0.055,2.123-0.91,2.585l-0.005,0.002c-0.965,0.462-2.122,0.055-2.585-0.91
		l-6.232-13.003c-0.463-0.965-0.056-2.123,0.91-2.585l0.004-0.002c0.965-0.462,2.122-0.056,2.586,0.909L107.568,39.188z"/>
	<path fill="#EDF4DA" d="M135.288,28.1c0.463,0.965,0.055,2.122-0.91,2.585l-0.005,0.002c-0.966,0.462-2.123,0.055-2.585-0.91
		l-6.232-13.003c-0.463-0.965-0.056-2.123,0.909-2.585l0.005-0.002c0.965-0.463,2.122-0.056,2.585,0.909L135.288,28.1z"/>
	<path fill="#EDF4DA" d="M64.636,31.274c-0.558,0.914-1.75,1.203-2.664,0.646l-0.004-0.003c-0.913-0.557-1.203-1.749-0.646-2.662
		l7.504-12.312c0.558-0.915,1.75-1.203,2.663-0.646l0.005,0.003c0.914,0.557,1.204,1.749,0.646,2.663L64.636,31.274z"/>
	<path fill="#EDF4DA" d="M77.406,37.248c-0.107,1.064-1.057,1.84-2.122,1.733h-0.005c-1.065-0.108-1.842-1.058-1.734-2.123
		l1.446-14.346c0.107-1.066,1.057-1.841,2.122-1.734l0.005,0c1.065,0.108,1.841,1.058,1.734,2.123L77.406,37.248z"/>
	<path fill="#EDF4DA" d="M55.586,30.439c-0.107,1.064-1.057,1.84-2.122,1.734l-0.005-0.001c-1.065-0.106-1.842-1.057-1.734-2.122
		l1.445-14.347c0.107-1.065,1.058-1.841,2.123-1.734l0.004,0.001c1.065,0.107,1.842,1.057,1.734,2.122L55.586,30.439z"/>
	<path fill="#EDF4DA" d="M113.427,12.54c-0.107,1.065-1.058,1.841-2.123,1.734l-0.004,0c-1.065-0.107-1.842-1.057-1.734-2.122
		l1.445-14.347c0.107-1.065,1.057-1.841,2.122-1.734l0.005,0c1.065,0.107,1.842,1.057,1.734,2.122L113.427,12.54z"/>
	<path fill="#EDF4DA" d="M60.482,75.186c-0.192-1.053,0.505-2.062,1.558-2.255l0.006-0.001c1.052-0.193,2.062,0.504,2.254,1.557
		l2.599,14.183c0.192,1.053-0.505,2.062-1.557,2.255l-0.005,0.002c-1.054,0.191-2.062-0.505-2.256-1.558L60.482,75.186z"/>
	<path fill="#EDF4DA" d="M46.978,79.233c-0.629-0.866-0.438-2.078,0.429-2.708l0.005-0.001c0.865-0.63,2.077-0.438,2.706,0.428
		l8.475,11.667c0.629,0.865,0.437,2.077-0.43,2.707l-0.004,0.002c-0.866,0.629-2.077,0.438-2.707-0.429L46.978,79.233z"/>
	<path fill="#EDF4DA" d="M78.879,69.784c-0.63-0.866-0.437-2.078,0.43-2.707l0.004-0.003c0.865-0.628,2.077-0.437,2.706,0.43
		l8.474,11.667c0.63,0.865,0.438,2.076-0.429,2.705l-0.004,0.003c-0.866,0.629-2.078,0.438-2.707-0.428L78.879,69.784z"/>
	<path fill="#EDF4DA" d="M84.873,102.502c-0.629-0.865-0.438-2.077,0.429-2.707l0.005-0.002c0.865-0.629,2.077-0.438,2.706,0.429
		l8.475,11.667c0.629,0.865,0.437,2.077-0.43,2.707l-0.004,0.002c-0.866,0.629-2.078,0.438-2.707-0.429L84.873,102.502z"/>
	<path fill="#EDF4DA" d="M48.518,118.403c-0.629-0.865-0.438-2.077,0.43-2.706l0.003-0.003c0.866-0.63,2.078-0.438,2.706,0.429
		l8.475,11.667c0.63,0.866,0.438,2.077-0.429,2.706l-0.004,0.004c-0.866,0.628-2.078,0.437-2.706-0.43L48.518,118.403z"/>
	<path fill="#EDF4DA" d="M54.069,57.42c-0.629-0.866-0.438-2.078,0.429-2.707l0.005-0.003c0.866-0.628,2.077-0.437,2.706,0.429
		l8.475,11.667c0.629,0.865,0.436,2.077-0.43,2.706l-0.004,0.003c-0.865,0.628-2.077,0.437-2.706-0.429L54.069,57.42z"/>
	<path fill="#EDF4DA" d="M85.82,54.013c0.383-0.999,1.504-1.499,2.503-1.115l0.005,0.002c0.999,0.383,1.499,1.503,1.114,2.502
		l-5.163,13.463c-0.383,1-1.503,1.499-2.503,1.116l-0.005-0.002c-0.999-0.382-1.499-1.503-1.115-2.502L85.82,54.013z"/>
	<path fill="#EDF4DA" d="M72.181,50.439c-0.085-1.067,0.71-2.001,1.776-2.087l0.006,0c1.065-0.086,2.001,0.708,2.088,1.775
		l1.162,14.372c0.087,1.068-0.708,2.002-1.775,2.088l-0.005,0.001c-1.065,0.085-2.002-0.708-2.088-1.775L72.181,50.439z"/>
	<path fill="#EDF4DA" d="M94.873,53.204c-0.087-1.067,0.708-2.001,1.773-2.088h0.006c1.066-0.086,2.001,0.708,2.087,1.774
		l1.164,14.373c0.087,1.067-0.709,2.001-1.775,2.088h-0.005c-1.067,0.087-2.001-0.708-2.088-1.774L94.873,53.204z"/>
	<path fill="#EDF4DA" d="M82.961,84.262c-0.087-1.067,0.708-2.002,1.773-2.089h0.007c1.066-0.086,2.001,0.708,2.087,1.775
		l1.164,14.372c0.087,1.067-0.708,2.001-1.775,2.088h-0.005c-1.067,0.085-2.002-0.707-2.088-1.774L82.961,84.262z"/>
	<path fill="#EDF4DA" d="M42.021,84.687c-0.087-1.066,0.708-2,1.775-2.086l0.004-0.001c1.067-0.086,2.002,0.708,2.088,1.775
		l1.164,14.372c0.085,1.067-0.709,2.001-1.775,2.088h-0.005c-1.067,0.087-2.002-0.707-2.088-1.773L42.021,84.687z"/>
	<path fill="#EDF4DA" d="M76.013,51.817c-0.479,0.957-1.642,1.345-2.599,0.867l-0.006-0.002c-0.956-0.479-1.346-1.642-0.867-2.6
		l6.446-12.898c0.479-0.958,1.641-1.346,2.599-0.868l0.005,0.002c0.957,0.479,1.346,1.642,0.867,2.599L76.013,51.817z"/>
	<path fill="#EDF4DA" d="M81.877,5.142c-0.479,0.958-1.642,1.345-2.6,0.867l-0.005-0.003c-0.957-0.478-1.347-1.641-0.867-2.599
		l6.445-12.898c0.478-0.958,1.642-1.346,2.6-0.868l0.005,0.002c0.956,0.479,1.346,1.642,0.867,2.6L81.877,5.142z"/>
	<path fill="#EDF4DA" d="M110.062,32.389c-0.479,0.958-1.643,1.345-2.6,0.868l-0.005-0.003c-0.957-0.479-1.346-1.642-0.867-2.599
		l6.444-12.899c0.479-0.958,1.643-1.346,2.601-0.868l0.005,0.002c0.957,0.479,1.346,1.643,0.866,2.6L110.062,32.389z"/>
	<path fill="#EDF4DA" d="M47.195,98.575c-0.845,0.657-2.062,0.504-2.718-0.341l-0.004-0.005c-0.656-0.845-0.503-2.062,0.342-2.719
		l11.388-8.846c0.846-0.656,2.062-0.503,2.72,0.342l0.002,0.005c0.657,0.845,0.504,2.062-0.341,2.719L47.195,98.575z"/>
	<path fill="#EDF4DA" d="M57.015,108.693c-0.479,0.958-1.643,1.347-2.6,0.867l-0.004-0.002c-0.958-0.478-1.346-1.642-0.868-2.6
		l6.445-12.897c0.478-0.959,1.642-1.347,2.6-0.869l0.004,0.004c0.958,0.478,1.346,1.641,0.867,2.599L57.015,108.693z"/>
	<path fill="#EDF4DA" d="M39.032,94.582c-0.478,0.958-1.642,1.346-2.6,0.867l-0.005-0.002c-0.956-0.479-1.345-1.643-0.867-2.6
		l6.445-12.899c0.479-0.958,1.643-1.346,2.6-0.868l0.005,0.003c0.957,0.479,1.347,1.642,0.867,2.599L39.032,94.582z"/>
	<path fill="#EDF4DA" d="M58.5,65.42c-0.479,0.958-1.642,1.346-2.6,0.867l-0.004-0.002c-0.957-0.478-1.346-1.642-0.868-2.599
		l6.444-12.899c0.479-0.958,1.644-1.346,2.601-0.868l0.005,0.003c0.957,0.479,1.346,1.642,0.866,2.599L58.5,65.42z"/>
	<path fill="#EDF4DA" d="M84.262,80.509c-0.479,0.958-1.643,1.346-2.601,0.868l-0.005-0.002c-0.957-0.479-1.346-1.642-0.866-2.6
		l6.444-12.899c0.479-0.958,1.643-1.346,2.6-0.867l0.005,0.002c0.957,0.479,1.346,1.642,0.867,2.599L84.262,80.509z"/>
	<path fill="#EDF4DA" d="M38.413,26.66c-1.064,0.121-2.023-0.644-2.145-1.707l-0.001-0.005c-0.12-1.063,0.645-2.023,1.707-2.144
		l14.327-1.626c1.064-0.121,2.023,0.644,2.145,1.707v0.006c0.121,1.062-0.642,2.023-1.706,2.144L38.413,26.66z"/>
	<path fill="#EDF4DA" d="M41.53,40.41c-0.907,0.568-2.103,0.294-2.672-0.613l-0.002-0.004c-0.567-0.907-0.295-2.103,0.612-2.671
		l12.217-7.659c0.907-0.569,2.103-0.295,2.671,0.612l0.003,0.004c0.568,0.907,0.295,2.103-0.612,2.671L41.53,40.41z"/>
	<path fill="#EDF4DA" d="M83.139,53.7c-0.907,0.568-2.103,0.294-2.671-0.613l-0.003-0.004c-0.568-0.906-0.295-2.102,0.611-2.671
		l12.218-7.659c0.907-0.568,2.103-0.294,2.672,0.612l0.002,0.004c0.568,0.907,0.295,2.103-0.612,2.671L83.139,53.7z"/>
</g>
</svg>
