<?xml version="1.0" encoding="utf-8"?>
<!-- Generator: Adobe Illustrator 16.0.0, SVG Export Plug-In . SVG Version: 6.00 Build 0)  -->
<!DOCTYPE svg PUBLIC "-//W3C//DTD SVG 1.1//EN" "http://www.w3.org/Graphics/SVG/1.1/DTD/svg11.dtd">
<svg version="1.1" id="Layer_1" xmlns="http://www.w3.org/2000/svg" xmlns:xlink="http://www.w3.org/1999/xlink" x="0px" y="0px"
	 width="355.527px" height="153.111px" viewBox="0 0 355.527 153.111" enable-background="new 0 0 355.527 153.111"
	 xml:space="preserve">
<g>
	<path fill="#E4DFDC" d="M127.837,2.833l-2.07,0.002l-0.001,23.132h-1.855l-0.466-23.322l-2.793,0.001l-0.763,23.321h-1.885V2.835
		h-2.071l-2.072,23.132l-0.001,1.838c0,0-0.346,4.979,4.569,4.979c0.453,0.002,0.868,0,1.273,0l-0.954,23.819h6.478l-1.18-23.819
		c0.886,0,1.293,0,1.293,0s4.568-0.185,4.569-4.979v-1.838L127.837,2.833z"/>
	<path fill="#E4DFDC" d="M100.047,57.363h5.908V2.448c0,0-14.558,10.508-6.887,30.687C102.512,42.187,100.047,57.363,100.047,57.363
		z"/>
	<path fill="#EA8724" d="M138.342,114.792c-13.981,13.98-36.729,13.98-50.708,0c-13.981-13.98-13.981-36.728,0-50.707
		c13.979-13.982,36.728-13.982,50.708,0C152.32,78.064,152.32,100.812,138.342,114.792z"/>
	<path fill="#FAA52C" d="M33.555,57.177c1.072-0.17,2.119-0.282,3.136-0.34c1.017-0.054,2.062-0.084,3.137-0.084
		c0.96,0,1.949,0.03,2.967,0.084c1.018,0.058,2.062,0.169,3.136,0.34v61.125c-1.075,0.167-2.12,0.283-3.136,0.338
		c-1.018,0.058-2.036,0.086-3.052,0.086c-1.018,0-2.036-0.028-3.053-0.086c-1.018-0.055-2.064-0.171-3.136-0.338L33.555,57.177
		L33.555,57.177z M47.713,87.528l16.532-30.267c1.3-0.225,2.501-0.366,3.604-0.425c1.101-0.054,2.103-0.083,3.008-0.083
		c0.961,0,2.035,0.056,3.221,0.169c1.188,0.114,2.431,0.227,3.731,0.338L61.106,86.68l18.144,31.538
		c-1.301,0.111-2.558,0.226-3.772,0.34c-1.218,0.111-2.305,0.169-3.265,0.169c-0.904,0-1.908-0.028-3.009-0.086
		c-1.102-0.056-2.333-0.198-3.689-0.423L47.713,87.528z"/>
	<path fill="#FAA52C" d="M166.242,67.775h-15.176c-0.34-1.695-0.509-3.476-0.509-5.343c0-1.75,0.17-3.475,0.509-5.171h42.815
		c0.338,1.695,0.509,3.42,0.509,5.171c0,1.867-0.17,3.646-0.509,5.343h-15.176v50.443c-1.018,0.111-2.036,0.213-3.053,0.299
		c-1.018,0.084-2.007,0.125-2.967,0.125c-0.961,0-1.993-0.029-3.096-0.084c-1.102-0.058-2.216-0.17-3.348-0.34V67.775
		L166.242,67.775z"/>
	<path fill="#FAA52C" d="M212.505,67.775h-15.177c-0.338-1.695-0.506-3.476-0.506-5.343c0-1.75,0.169-3.475,0.506-5.171h42.816
		c0.338,1.695,0.507,3.42,0.507,5.171c0,1.867-0.168,3.646-0.507,5.343h-15.177v50.443c-1.019,0.111-2.035,0.213-3.054,0.299
		c-1.016,0.084-2.006,0.125-2.967,0.125c-0.963,0-1.992-0.029-3.093-0.084c-1.103-0.058-2.22-0.17-3.351-0.34L212.505,67.775
		L212.505,67.775z"/>
	<path fill="#FAA52C" d="M244.797,57.26h34.59c0.34,1.695,0.51,3.42,0.51,5.171c0,1.867-0.169,3.646-0.51,5.343h-22.211v13.224
		h17.633c0.339,1.811,0.51,3.562,0.51,5.258c0,1.808-0.17,3.591-0.51,5.341h-17.633v16.107h22.805
		c0.341,1.695,0.509,3.421,0.509,5.172c0,1.864-0.167,3.646-0.509,5.34h-35.183L244.797,57.26L244.797,57.26z"/>
	<path fill="#FAA52C" d="M298.851,67.775h-15.176c-0.338-1.695-0.51-3.476-0.51-5.343c0-1.75,0.171-3.475,0.51-5.171h42.816
		c0.337,1.695,0.508,3.42,0.508,5.171c0,1.867-0.17,3.646-0.508,5.343h-15.178v50.443c-1.018,0.111-2.036,0.213-3.053,0.299
		c-1.018,0.084-2.008,0.125-2.967,0.125c-0.963,0-1.993-0.029-3.095-0.084c-1.103-0.058-2.219-0.17-3.349-0.34V67.775
		L298.851,67.775z"/>
	<path fill="#03AA5C" d="M145.364,79.161c0,0,12.646,13.543,5.881,21.602c-6.763,8.058-9.219,4.358-14.755,10.854
		c-5.536,6.494-6.72,18.415-11.85,15.643c-5.127-2.774,3.334-9.308-5.083-7.815c-8.419,1.492-4.71,7.575-7.77,7.31
		c-7.387-0.64-14.33-15.29-14.33-15.29L145.364,79.161z"/>
	<circle fill="#24572B" cx="100.437" cy="113.797" r="12.42"/>
	<path fill="#03AA5C" d="M92.709,120.898l5.19,3.347l-5.19-5.946l8.356,4.128l-7.104-6.219c0,0,3.91,1.826,7.367,3.346
		c2.805,1.232,5.311,2.264,5.189,1.955c-0.271-0.687-11.859-10.591-11.859-10.591l11.088,6.664l-12.062-8.335l-0.976,1.951
		l7.372,6.546l-7.372-3.622v2.715l-1.722,0.448L92.709,120.898z"/>
	<path fill="#3CB766" d="M126.698,124.561c0,0,6.145-10.681,2.612-9.557c-3.533,1.122-5.155,0.484-8.458,2.817
		C120.852,117.821,124.737,127.559,126.698,124.561z"/>
	<path fill="#3CB766" d="M91.398,57.363c0,0-1.777-2.762,4.82-5.874c5.383-2.538,8.919,1.356,12.219,0.46
		c3.299-0.895-5.062,4.474-16.334,5.413"/>
	<circle fill="#24572B" cx="90.141" cy="97.859" r="11.703"/>
	<path fill="#03AA5C" d="M81.287,102.268l3.823,4.387l-3.143-6.741l6.484,5.923l-4.803-7.487c0,0,3.063,2.675,5.795,4.953
		c2.215,1.848,4.216,3.438,4.185,3.129c-0.066-0.692-7.962-12.688-7.962-12.688l8.293,8.932l-8.739-10.7l-1.394,1.509l4.96,7.854
		l-5.726-5.205l-0.71,2.458l-1.676-0.043L81.287,102.268z"/>
	<polygon fill="#FDEB03" points="86.74,60.666 148.333,66.514 151.285,104.566 73.11,91.974 	"/>
	<circle fill="#EE3326" cx="131.25" cy="107.72" r="17.228"/>
	<circle fill="#F1594E" cx="131.251" cy="107.72" r="13.654"/>
	<polygon fill="#F37261" points="134.069,101.085 142.728,102.19 139.29,106.954 142.728,110.131 136.474,110.131 139.509,117.278 
		132.908,114.043 130.376,118.504 128.034,116.362 125.413,120.066 125.413,112.315 	"/>
	<path fill="#511911" d="M135.891,109.818c-12.63,12.63-33.179,12.63-45.808,0c-12.629-12.63-12.629-33.178,0-45.807
		c12.629-12.63,33.178-12.63,45.808,0C148.521,76.64,148.521,97.188,135.891,109.818z"/>
	<g>
		<path fill="#371410" d="M93.915,86.689c0,0,0.809-0.318,2.359-0.811c1.552-0.478,3.851-1.13,6.843-1.694
			c2.989-0.556,6.675-1.073,10.954-1.064c4.261,0.003,9.176,0.525,14.204,2.441c1.255,0.47,2.495,1.072,3.726,1.742
			c0.628,0.341,1.183,0.711,1.847,1.114c0.105,0.071,0.366,0.254,0.569,0.461c0.111,0.117,0.229,0.241,0.354,0.464
			c0.114,0.189,0.256,0.565,0.204,0.981c-0.023,0.214-0.094,0.4-0.183,0.571c-0.083,0.143-0.19,0.284-0.276,0.365
			c-0.193,0.193-0.344,0.279-0.491,0.366c-0.282,0.154-0.505,0.227-0.723,0.294c-0.847,0.247-1.567,0.306-2.313,0.384
			c-0.738,0.066-1.469,0.103-2.202,0.131c-1.464,0.057-2.937,0.066-4.428,0.039c-2.979-0.027-6.023-0.17-9.131-0.3
			c-3.106-0.128-6.279-0.258-9.502-0.332c-1.611-0.037-3.237-0.059-4.872-0.052c-1.634,0.026-3.279,0.082-4.926,0.197
			c-1.644,0.129-3.299,0.325-4.89,0.713c-0.782,0.204-1.585,0.455-2.18,0.894c-0.293,0.218-0.495,0.48-0.528,0.748
			c-0.007,0.082-0.011,0.109,0,0.233c0.011,0.058,0.022,0.113,0.048,0.188c0.05,0.134,0.136,0.264,0.25,0.382
			c0.48,0.482,1.293,0.76,2.072,0.962c0.799,0.194,1.629,0.312,2.465,0.403c1.674,0.177,3.377,0.232,5.084,0.229
			c3.416-0.003,6.855-0.139,10.298-0.299c3.444-0.153,6.894-0.34,10.352-0.377c1.73-0.024,3.461-0.015,5.199,0.069
			c1.738,0.088,3.48,0.212,5.254,0.565c0.887,0.184,1.784,0.406,2.711,0.837c0.461,0.221,0.94,0.495,1.396,0.932
			c0.452,0.42,0.871,1.102,0.961,1.842c0.015,0.092,0.019,0.182,0.025,0.271c0.001,0.07,0.005,0.035,0.004,0.189l-0.001,0.078
			c0.003,0.049-0.023,0.36-0.059,0.518c-0.069,0.353-0.204,0.697-0.385,1.001c-0.366,0.612-0.864,1.01-1.33,1.309
			c-0.948,0.574-1.862,0.828-2.75,1.038c-1.775,0.392-3.481,0.514-5.167,0.592c-1.682,0.072-3.337,0.069-4.972,0.04
			c-3.267-0.09-6.452-0.293-9.557-0.479c-3.102-0.206-6.128-0.437-9.043-0.524c-1.455-0.045-2.887-0.049-4.248,0.022
			c-0.675,0.042-1.34,0.107-1.923,0.23c-0.286,0.062-0.56,0.141-0.75,0.227c-0.201,0.077-0.277,0.184-0.212,0.085
			c0.026-0.053,0.039-0.119,0.03-0.166l0.005,0.131c0.001,0.05,0.004,0.086,0.009,0.082c0.011,0.024-0.002,0.017,0.014,0.071
			c0.04,0.179,0.121,0.388,0.248,0.603c0.25,0.43,0.632,0.868,1.068,1.265c0.875,0.798,1.927,1.477,3.007,2.048
			c2.173,1.146,4.476,1.905,6.696,2.452c2.225,0.55,4.397,0.855,6.45,0.994c4.112,0.274,7.726-0.15,10.642-0.732
			c2.92-0.597,5.145-1.401,6.635-1.993c0.749-0.294,1.313-0.542,1.693-0.714c0.378-0.173,0.574-0.263,0.574-0.263l0.127,0.241
			c0,0-0.188,0.107-0.553,0.315c-0.364,0.207-0.91,0.509-1.638,0.871c-1.453,0.728-3.655,1.693-6.6,2.526
			c-2.936,0.845-6.652,1.449-10.945,1.396c-4.276-0.08-9.189-0.726-14.116-3.041c-1.223-0.594-2.451-1.293-3.595-2.276
			c-0.569-0.495-1.123-1.063-1.587-1.804c-0.231-0.368-0.434-0.796-0.561-1.288c-0.035-0.111-0.061-0.293-0.083-0.438
			c-0.014-0.089-0.019-0.139-0.02-0.175l-0.008-0.13c-0.026-0.393,0.057-0.812,0.247-1.173c0.398-0.728,0.945-1.018,1.372-1.238
			c0.445-0.213,0.854-0.331,1.256-0.435c0.799-0.195,1.558-0.288,2.316-0.358c1.511-0.138,3.004-0.14,4.511-0.125
			c3.008,0.046,6.059,0.213,9.165,0.387c3.104,0.196,6.264,0.401,9.458,0.501c1.595,0.062,3.201,0.097,4.799,0.062
			c1.593-0.038,3.201-0.132,4.683-0.431c0.729-0.148,1.444-0.365,1.935-0.656c0.238-0.144,0.406-0.297,0.474-0.407
			c0.037-0.058,0.056-0.105,0.071-0.166c0.004-0.05,0.007,0.053,0.014-0.106l0.003-0.078c-0.002,0.101-0.002,0.014-0.002,0.032
			c0-0.016,0.001-0.032-0.002-0.044c-0.011-0.1-0.037-0.188-0.191-0.351c-0.147-0.154-0.4-0.325-0.698-0.472
			c-0.6-0.299-1.352-0.517-2.121-0.689c-3.13-0.668-6.563-0.775-9.955-0.905c-3.41-0.092-6.854-0.129-10.302-0.156
			c-3.451-0.039-6.907-0.041-10.358-0.209c-1.724-0.094-3.449-0.196-5.168-0.419c-0.86-0.116-1.719-0.263-2.571-0.491
			c-0.843-0.243-1.731-0.494-2.47-1.221c-0.177-0.188-0.334-0.417-0.429-0.684c-0.044-0.126-0.079-0.277-0.093-0.43
			c-0.009-0.087-0.011-0.271,0.01-0.4c0.088-0.585,0.488-1.016,0.866-1.292c0.789-0.551,1.631-0.808,2.463-1.041
			c1.672-0.436,3.353-0.634,5.019-0.811c1.665-0.179,3.324-0.292,4.97-0.378c1.645-0.102,3.279-0.179,4.899-0.237
			c3.24-0.119,6.424-0.175,9.538-0.222c3.105-0.044,6.144-0.087,9.102-0.128c1.471-0.033,2.921-0.055,4.333-0.113
			c0.705-0.031,1.401-0.071,2.074-0.135c0.661-0.065,1.345-0.157,1.841-0.295c0.116-0.032,0.224-0.072,0.247-0.087
			c0.002-0.001,0.001-0.005-0.07,0.062c-0.05,0.048-0.192,0.231-0.223,0.489c-0.033,0.245,0.064,0.442,0.087,0.487
			c0.043,0.07,0.046,0.064,0.039,0.057c-0.04-0.038-0.056-0.058-0.232-0.184c-0.507-0.308-1.076-0.702-1.626-1.01
			c-1.121-0.63-2.252-1.203-3.412-1.656c-4.616-1.897-9.276-2.546-13.386-2.768c-4.127-0.188-7.759,0.055-10.731,0.385
			c-2.977,0.331-5.301,0.755-6.881,1.067C94.83,86.723,94,86.945,94,86.945L93.915,86.689z"/>
	</g>
	<path fill="#EA8724" d="M112.865,107.72c-18.425,0-33.417-14.549-33.417-32.432s14.991-32.433,33.417-32.433
		c18.428,0,33.419,14.549,33.418,32.433C146.283,93.171,131.292,107.72,112.865,107.72z"/>
	<path fill="#FFFFFF" d="M92.418,72.849c-0.062,0.911-0.849,1.599-1.759,1.535c-0.911-0.06-1.598-0.848-1.538-1.758
		c0.063-0.911,0.851-1.599,1.76-1.537C91.792,71.151,92.48,71.939,92.418,72.849z"/>
	<circle fill="#FFFFFF" cx="109.165" cy="71.086" r="1.652"/>
	<circle fill="#FFFFFF" cx="125.629" cy="66.514" r="1.653"/>
	<path fill="#FFFFFF" d="M117.816,53.598c0,0.913-0.74,1.651-1.651,1.651c-0.913,0-1.654-0.739-1.654-1.651
		c0-0.913,0.741-1.653,1.654-1.653C117.075,51.945,117.816,52.685,117.816,53.598z"/>
	<circle fill="#FFFFFF" cx="99.572" cy="61.748" r="1.652"/>
	<circle fill="#FFFFFF" cx="131.25" cy="79.162" r="1.653"/>
	<circle fill="#FFFFFF" cx="110.817" cy="87.236" r="1.651"/>
</g>
</svg>
