<?xml version="1.0" encoding="utf-8"?>
<!-- Generator: Adobe Illustrator 16.0.0, SVG Export Plug-In . SVG Version: 6.00 Build 0)  -->
<!DOCTYPE svg PUBLIC "-//W3C//DTD SVG 1.1//EN" "http://www.w3.org/Graphics/SVG/1.1/DTD/svg11.dtd">
<svg version="1.1" id="Layer_1" xmlns="http://www.w3.org/2000/svg" xmlns:xlink="http://www.w3.org/1999/xlink" x="0px" y="0px"
	 width="56.537px" height="55.087px" viewBox="0 0 56.537 55.087" enable-background="new 0 0 56.537 55.087" xml:space="preserve">
<g>
	<path fill="#FAEAC3" d="M1.545,27.731c-0.281-0.281-0.281-0.737,0.001-1.019L28.357-0.099c0.281-0.281,0.738-0.281,1.02-0.001
		l26.812,26.812c0.28,0.282,0.28,0.738,0,1.019L29.376,54.543c-0.281,0.281-0.738,0.281-1.02,0L1.545,27.731z"/>
	
		<rect x="6.925" y="26.006" transform="matrix(0.7071 0.7071 -0.7071 0.7071 28.5787 -10.3221)" fill="#E9CBB0" width="39.648" height="6.664"/>
	
		<rect x="14.579" y="29.661" transform="matrix(-0.7071 0.7071 -0.7071 -0.7071 82.0589 31.9962)" fill="#E9CBB0" width="39.647" height="6.663"/>
	
		<rect x="17.406" y="15.526" transform="matrix(0.7071 0.7071 -0.7071 0.7071 24.2389 -20.8031)" fill="#E9CBB0" width="39.649" height="6.664"/>
	
		<rect x="6.271" y="28.188" transform="matrix(0.7071 0.7071 -0.7071 0.7071 26.3082 -1.0851)" fill="#21B3DB" width="16.386" height="6.049"/>
	<ellipse opacity="0.2" fill="#231F20" cx="28.809" cy="38.254" rx="8.11" ry="3.502"/>
	<path fill="#8D53A1" d="M28.81,10.954c-4.95,0.001-8.963,4.012-8.963,8.963c0,8.099,8.963,18.676,8.963,18.676
		c0.594,0.596,8.963-9.716,8.963-18.676C37.773,14.967,33.759,10.955,28.81,10.954z M28.917,24.617
		c-2.504,0.001-4.534-2.031-4.534-4.534c0-2.503,2.03-4.533,4.534-4.534c2.503,0.001,4.536,2.031,4.536,4.534
		C33.451,22.586,31.42,24.619,28.917,24.617z"/>
</g>
</svg>
