<?xml version="1.0" encoding="utf-8"?>
<!-- Generator: Adobe Illustrator 16.0.0, SVG Export Plug-In . SVG Version: 6.00 Build 0)  -->
<!DOCTYPE svg PUBLIC "-//W3C//DTD SVG 1.1//EN" "http://www.w3.org/Graphics/SVG/1.1/DTD/svg11.dtd">
<svg version="1.1" id="Layer_1" xmlns="http://www.w3.org/2000/svg" xmlns:xlink="http://www.w3.org/1999/xlink" x="0px" y="0px"
	 width="156px" height="155px" viewBox="0 0 156 155" enable-background="new 0 0 156 155" xml:space="preserve">
<rect x="-1" fill="#F1F2F2" width="158.5" height="157"/>
<path fill="#DADBDC" d="M61.5,96.665V0.108H29v116.37C29,124.5,35.605,131,43.751,131H157l-0.399-34.335H61.5z"/>
<path fill="#00A651" d="M77.425,44.232c-11.089,0-20.078,8.988-20.078,20.078c0,18.143,20.078,41.848,20.078,41.848
	c1.331,1.332,20.079-21.771,20.079-41.848C97.504,53.221,88.514,44.232,77.425,44.232z M77.668,74.844
	c-5.612,0-10.161-4.548-10.161-10.159c0-5.611,4.549-10.161,10.161-10.161c5.607,0,10.157,4.548,10.157,10.161
	C87.825,70.296,83.275,74.844,77.668,74.844z"/>
<path fill="#BCBEC0" d="M77.268,110.945c7.093,0.1,12.823,1.529,12.798,3.193c-0.021,1.663-5.793,2.93-12.885,2.832
	c-7.093-0.1-12.819-1.529-12.798-3.191C64.404,112.116,70.173,110.848,77.268,110.945z"/>
</svg>
