<?xml version="1.0" encoding="utf-8"?>
<!-- Generator: Adobe Illustrator 16.0.0, SVG Export Plug-In . SVG Version: 6.00 Build 0)  -->
<!DOCTYPE svg PUBLIC "-//W3C//DTD SVG 1.1//EN" "http://www.w3.org/Graphics/SVG/1.1/DTD/svg11.dtd">
<svg version="1.1" id="Layer_1" xmlns="http://www.w3.org/2000/svg" xmlns:xlink="http://www.w3.org/1999/xlink" x="0px" y="0px"
	 width="355.527px" height="130.056px" viewBox="0 23.056 355.527 130.056" enable-background="new 0 23.056 355.527 130.056"
	 xml:space="preserve">
<polygon fill="#FAFCFC" points="168.591,59.691 171.313,59.622 177.25,87.29 168.472,116.913 168.591,106.145 "/>
<path fill="#FAFCFC" d="M107.632,59.691h-3.044l-4.689,26.768l5.946,24.225c0,0,1.788-2.441,1.941-7.761L107.632,59.691z"/>
<g>
	<g>
		<path fill="#BA5A5A" d="M114.73,106.039c0,0,5.626,3.352,5.626,7.378c0,4.027-5.428,13.991,1.542,13.991
			c6.493,0,2.271-10.192,2.271-13.454c0-3.969,2.615-6.765,2.615-6.765L114.73,106.039z"/>
	</g>
	<g>
		<path fill="#BA5A5A" d="M163.593,106.145c0,0-5.625,3.352-5.625,7.379c0,4.026,5.425,13.991-1.544,13.991
			c-6.492,0-2.271-10.192-2.271-13.453c0-3.97-2.615-6.765-2.615-6.765L163.593,106.145z"/>
	</g>
	<g>
		<path fill="#E9848A" d="M119.509,120.468c0,0,7.431,4.429,7.431,9.748c0,5.32-7.167,18.484,2.039,18.484
			c8.579,0,3.004-13.464,3.004-17.774c0-5.245,3.448-8.938,3.448-8.938L119.509,120.468z"/>
	</g>
	<g>
		<path fill="#E9848A" d="M158.814,120.034c0,0-7.432,4.43-7.432,9.748c0,5.32,7.164,18.485-2.042,18.485
			c-8.574,0-3.003-13.466-3.003-17.774c0-5.246-3.448-8.939-3.448-8.939L158.814,120.034z"/>
	</g>
	<g>
		<path fill="#9E3F3F" d="M165.618,83.862c0,17.179-11.678,31.104-26.089,31.104c-14.404,0-26.087-13.926-26.087-31.104
			s11.682-31.106,26.087-31.106C153.939,52.757,165.618,66.683,165.618,83.862z"/>
	</g>
	<g>
		<path fill="#BA5A5A" d="M152.673,88.928c0,11.501-6.407,20.825-14.312,20.825c-7.9,0-14.307-9.324-14.307-20.825
			s6.406-20.824,14.307-20.824C146.265,68.104,152.673,77.427,152.673,88.928z"/>
	</g>
	<g>
		<path fill="#FFFFFF" d="M112.049,86.604c0,0,15.61,7.583,23.194,4.908c7.58-2.679,8.472-3.123,15.158-0.447
			c6.691,2.677,9.369-4.905,9.369-4.905s4.458,9.809-0.892,18.283c-5.352,8.475-11.151,17.838-19.177,16.056
			C131.674,118.713,111.604,121.392,112.049,86.604z"/>
	</g>
	<g>
		<g>
			<path fill="#43C4E3" d="M25.435,59.691c2.122-0.319,4.165-0.477,6.13-0.477c2.07,0,4.111,0.158,6.129,0.477l13.129,32.791
				l13.533-32.791c1.643-0.319,3.473-0.477,5.49-0.477c2.014,0,3.953,0.158,5.81,0.477l2.705,57.222
				c-2.018,0.318-3.928,0.479-5.73,0.479c-1.805,0-3.581-0.161-5.333-0.479l-1.431-38.838l-11.62,26.902
				c-0.746,0.105-1.51,0.197-2.308,0.277c-0.799,0.081-1.59,0.121-2.389,0.121c-0.691,0-1.378-0.025-2.065-0.08
				c-0.692-0.053-1.41-0.159-2.15-0.316L34.509,77.518l-1.116,39.396c-1.702,0.318-3.343,0.479-4.935,0.479
				c-1.697,0-3.448-0.161-5.253-0.479L25.435,59.691z"/>
		</g>
		<g>
			<g>
				<path fill="none" d="M138.475,57.241c-12.201,0-18.307,9.643-18.307,28.922c0,19.28,6.067,28.92,18.189,28.92
					c12.05,0,18.079-9.64,18.079-28.92c0-9.64-1.458-16.87-4.376-21.692C149.148,59.652,144.618,57.241,138.475,57.241z"/>
			</g>
			<g>
				<path fill="#43C4E3" d="M101.979,86.163c0-6.22,0.714-11.993,2.156-17.318c0.898-3.334,2.094-6.385,3.59-9.155H86.974
					c-0.316,1.538-0.476,3.156-0.476,4.854c0,0.851,0.042,1.711,0.118,2.587c0.08,0.875,0.201,1.684,0.358,2.427h9.473v30.48
					c0,1.913-0.28,3.385-0.837,4.419c-0.555,1.032-1.25,1.818-2.07,2.348c-0.822,0.531-1.736,0.848-2.743,0.954
					c-1.01,0.107-1.964,0.16-2.866,0.16c-0.747,0-1.462-0.081-2.149-0.24c-0.694-0.16-1.33-0.292-1.91-0.397
					c-0.903,2.441-1.354,4.883-1.354,7.321c0,0.428,0.014,0.823,0.038,1.196c0.028,0.368,0.066,0.739,0.122,1.111
					c1.219,0.317,2.503,0.558,3.862,0.718c1.351,0.158,2.479,0.238,3.383,0.238c2.598,0,4.998-0.292,7.202-0.875
					c2.202-0.583,4.109-1.524,5.73-2.824c1.47-1.182,2.64-2.688,3.542-4.481c-0.889-1.985-1.649-4.088-2.259-6.326
					C102.694,98.115,101.979,92.383,101.979,86.163z"/>
			</g>
			<g>
				<path fill="#31AFC4" d="M107.632,102.172V59.691h-0.339c-1.498,2.799-2.693,5.884-3.592,9.253
					c-1.441,5.383-2.156,11.22-2.156,17.507c0,6.29,0.714,12.083,2.156,17.389c0.61,2.262,1.375,4.388,2.264,6.394
					c0.091-0.183,0.191-0.352,0.275-0.54C107.167,107.63,107.632,105.122,107.632,102.172z"/>
			</g>
			<g>
				<path fill="#43C4E3" d="M200.068,109.474c-0.051-0.822-0.159-1.685-0.318-2.586h-19.818V59.691
					c-2.014-0.319-3.951-0.477-5.809-0.477c-1.657,0-3.379,0.139-5.171,0.408c1.514,2.79,2.727,5.861,3.636,9.224
					c1.435,5.325,2.157,11.098,2.157,17.317c0,6.222-0.722,11.953-2.157,17.2c-1.003,3.652-2.382,6.959-4.115,9.934v3.618h31.277
					c0.16-0.899,0.268-1.762,0.318-2.584c0.054-0.824,0.081-1.658,0.081-2.509C200.15,111.078,200.122,110.297,200.068,109.474z"/>
			</g>
			<g>
				<path fill="#31AFC4" d="M174.862,86.163c0-6.223-0.695-11.892-2.156-17.318c-0.91-3.363-2.122-6.435-3.632-9.224
					c-0.164,0.022-0.32,0.042-0.483,0.069v53.604c1.736-2.975,3.111-6.28,4.115-9.933C174.139,98.115,174.862,92.383,174.862,86.163
					z"/>
			</g>
		</g>
		<g>
			<path fill="#43C4E3" d="M204.664,59.612c1.007-0.161,1.989-0.267,2.945-0.318c0.958-0.052,1.937-0.08,2.943-0.08
				c0.904,0,1.83,0.028,2.786,0.08c0.959,0.051,1.938,0.158,2.944,0.318v57.382c-1.006,0.16-1.985,0.267-2.944,0.319
				c-0.956,0.052-1.91,0.08-2.865,0.08c-0.956,0-1.907-0.028-2.864-0.08c-0.957-0.054-1.939-0.16-2.946-0.319L204.664,59.612
				L204.664,59.612z M217.957,88.104l15.516-28.413c1.222-0.212,2.351-0.347,3.385-0.398c1.036-0.052,1.976-0.08,2.826-0.08
				c0.899,0,1.911,0.052,3.026,0.158c1.109,0.107,2.278,0.214,3.499,0.319L230.53,87.307l17.033,29.606
				c-1.222,0.105-2.403,0.212-3.543,0.317c-1.142,0.107-2.164,0.161-3.062,0.161c-0.854,0-1.792-0.028-2.827-0.08
				c-1.038-0.055-2.19-0.187-3.462-0.398L217.957,88.104z"/>
		</g>
		<g>
			<path fill="#43C4E3" d="M251.39,59.691h32.474c0.319,1.589,0.479,3.21,0.479,4.854c0,1.75-0.16,3.422-0.479,5.015H263.01v12.415
				h16.557c0.317,1.7,0.474,3.344,0.474,4.935c0,1.699-0.157,3.371-0.474,5.015H263.01v15.121h21.409
				c0.318,1.592,0.479,3.212,0.479,4.856c0,1.75-0.161,3.421-0.479,5.014H251.39V59.691L251.39,59.691z"/>
		</g>
		<g>
			<path fill="#43C4E3" d="M289.593,59.691c1.646-0.319,3.209-0.477,4.695-0.477c1.594,0,3.236,0.158,4.934,0.477l22.128,36.45
				v-36.45c1.91-0.319,3.74-0.477,5.49-0.477c1.646,0,3.237,0.158,4.774,0.477v57.222c-1.697,0.318-3.236,0.479-4.614,0.479
				c-1.486,0-3.105-0.161-4.855-0.479l-22.284-36.37v36.37c-1.697,0.318-3.423,0.479-5.173,0.479c-1.752,0-3.449-0.161-5.096-0.479
				L289.593,59.691L289.593,59.691z"/>
		</g>
		<g>
			<path fill="#E9848A" d="M138.576,126.269c-5.667,0-10.56-0.981-14.689-2.938c-4.128-1.958-7.519-4.671-10.178-8.134
				c-2.661-3.462-4.636-7.552-5.924-12.274c-1.295-4.721-1.941-9.878-1.941-15.475c0-5.598,0.646-10.79,1.941-15.582
				c1.288-4.789,3.263-8.935,5.924-12.434c2.66-3.497,6.05-6.225,10.178-8.184c4.129-1.957,9.022-2.938,14.689-2.938
				c5.667,0,10.561,0.981,14.689,2.938c4.126,1.959,7.518,4.687,10.179,8.184c2.66,3.499,4.633,7.645,5.932,12.434
				c1.292,4.792,1.937,9.984,1.937,15.582s-0.646,10.754-1.937,15.475c-1.299,4.723-3.272,8.812-5.932,12.274
				c-2.661,3.464-6.053,6.176-10.179,8.134C149.137,125.288,144.243,126.269,138.576,126.269z M138.576,113.47
				c10.842,0,16.265-8.673,16.265-26.021c0-8.675-1.312-15.18-3.934-19.517c-2.625-4.335-6.702-6.506-12.226-6.506
				c-10.979,0-16.471,8.676-16.471,26.023C122.209,104.797,127.666,113.47,138.576,113.47z"/>
		</g>
	</g>
	<g>
		<path fill="#F59698" d="M138.576,118.573c-4.987,0-9.304-0.864-12.935-2.587c-3.633-1.726-6.623-4.113-8.963-7.161
			c-2.341-3.05-4.08-6.652-5.219-10.81c-1.138-4.158-1.708-8.699-1.708-13.628c0-4.928,0.568-9.5,1.708-13.72
			c1.138-4.217,2.878-7.87,5.219-10.948c2.341-3.081,5.331-5.483,8.963-7.208c3.631-1.723,7.948-2.587,12.935-2.587
			c4.99,0,9.304,0.865,12.935,2.587c3.631,1.724,6.623,4.127,8.962,7.208c2.34,3.08,4.08,6.731,5.22,10.948
			c1.139,4.22,1.71,8.792,1.71,13.72c0,4.93-0.571,9.471-1.71,13.628c-1.138,4.157-2.878,7.76-5.22,10.81
			c-2.34,3.048-5.331,5.437-8.962,7.161C147.879,117.709,143.567,118.573,138.576,118.573z M138.576,107.302
			c9.55,0,14.321-7.636,14.321-22.913c0-7.637-1.157-13.366-3.462-17.186c-2.312-3.816-5.903-5.728-10.765-5.728
			c-9.671,0-14.509,7.639-14.509,22.913C124.162,99.666,128.968,107.302,138.576,107.302z"/>
	</g>
</g>
</svg>
