<?xml version="1.0" encoding="utf-8"?>
<!-- Generator: Adobe Illustrator 16.0.0, SVG Export Plug-In . SVG Version: 6.00 Build 0)  -->
<!DOCTYPE svg PUBLIC "-//W3C//DTD SVG 1.1//EN" "http://www.w3.org/Graphics/SVG/1.1/DTD/svg11.dtd">
<svg version="1.1" id="Layer_1" xmlns="http://www.w3.org/2000/svg" xmlns:xlink="http://www.w3.org/1999/xlink" x="0px" y="0px"
	 width="300px" height="300px" viewBox="0 0 300 300" enable-background="new 0 0 300 300" xml:space="preserve">
<rect fill="#FFFFFF" width="300" height="300"/>
<path fill="#E1E2E3" d="M63.5,136.5c0-25,7-76,67-80s63,55,64,85s-7,49-29,63s-13,52,1,50s55,3,64,27s7,18.5,7,18.5h-221
	c0,0,9-29.5,29-40.5s51,2,58-12c6.708-13.416,9-26-2-36S63.5,173.5,63.5,136.5z"/>
<path fill-rule="evenodd" clip-rule="evenodd" fill="#E1E2E3" d="M255.645,198.355c2.001-12.975,1.654-13.437-11.405-14.012
	c2.2-4.847,4.129-9.47,6.365-13.939c4.459-8.91,9.562-17.537,13.331-26.721c1.062-2.587-0.656-7.753-2.883-9.75
	c-1.507-1.354-6.803-0.169-9.177,1.563c-2.753,2.001-4.464,5.695-6.093,8.923c-4.547,9.013-8.815,18.161-13.762,28.436
	c-0.605-2.296-1.006-3.359-1.155-4.46c-1.324-9.621-2.405-19.283-3.979-28.864c-0.783-4.766-2.863-9.318-8.9-8.596
	c-5.868,0.702-6.031,5.476-5.906,10.019c0.281,10.203,1.313,20.443,0.752,30.594c-0.478,8.637-0.914,18.124-4.727,25.5
	c-4.353,8.42-3.971,15.548-1.341,23.621c1.344,4.119,3.388,8.323,3.41,12.498c0.052,10.526-0.261,11.159,10.19,13.914
	c6.696,1.766,13.745,2.191,20.635,3.219c0.062-0.703,0.123-1.406,0.185-2.109c1.936-3.158,3.693-6.446,5.854-9.441
	c2.641-3.657,6.333-6.722,8.27-10.678c2.539-5.188,3.615-11.069,5.673-16.52C264.502,202.227,264.262,201.386,255.645,198.355z"/>
<polygon fill-rule="evenodd" clip-rule="evenodd" fill="#E1E2E3" points="211,231.5 193.5,300 245.5,300 243,240.5 "/>
</svg>
