<?xml version="1.0" encoding="utf-8"?>
<!-- Generator: Adobe Illustrator 16.0.0, SVG Export Plug-In . SVG Version: 6.00 Build 0)  -->
<!DOCTYPE svg PUBLIC "-//W3C//DTD SVG 1.1//EN" "http://www.w3.org/Graphics/SVG/1.1/DTD/svg11.dtd">
<svg version="1.1" id="Layer_1" xmlns="http://www.w3.org/2000/svg" xmlns:xlink="http://www.w3.org/1999/xlink" x="0px" y="0px"
	 width="300px" height="300px" viewBox="0 0 300 300" enable-background="new 0 0 300 300" xml:space="preserve">
<rect fill="#FFFFFF" width="300" height="300"/>
<path fill="#E1E2E3" d="M61.5,136.5c0-25,7-76,67-80s63,55,64,85s-7,49-29,63s-13,52,1,50s55,3,64,27s7,18.5,7,18.5h-221
	c0,0,9-29.5,29-40.5s51,2,58-12c6.708-13.416,9-26-2-36S61.5,173.5,61.5,136.5z"/>
<path fill-rule="evenodd" clip-rule="evenodd" fill="#E1E2E3" d="M259.944,197.962c-2.109-12.957-2.581-13.29-15.179-9.799
	c0.594-5.289,0.998-10.282,1.743-15.225c1.485-9.853,3.671-19.634,4.415-29.533c0.21-2.789-3.021-7.17-5.756-8.381
	c-1.852-0.822-6.521,1.943-8.244,4.324c-1.999,2.754-2.483,6.796-3.034,10.37c-1.538,9.977-2.769,19.997-4.296,31.297
	c-1.285-1.997-1.995-2.884-2.477-3.885c-4.235-8.74-8.251-17.594-12.71-26.219c-2.219-4.29-5.604-7.976-11.122-5.423
	c-5.363,2.481-4.043,7.072-2.52,11.354c3.423,9.615,7.57,19.035,10.176,28.862c2.216,8.361,4.734,17.519,3.389,25.712
	c-1.535,9.353,1.032,16.014,6.028,22.878c2.552,3.502,5.795,6.868,7.108,10.832c3.304,9.994,3.202,10.692,13.992,10.081
	c6.914-0.392,13.75-2.166,20.619-3.319c-0.158-0.688-0.317-1.376-0.477-2.063c0.864-3.602,1.52-7.272,2.648-10.788
	c1.381-4.295,3.944-8.352,4.562-12.712c0.811-5.72,0.017-11.646,0.287-17.464C269.564,198.904,269.076,198.179,259.944,197.962z"/>
<polygon fill-rule="evenodd" clip-rule="evenodd" fill="#E1E2E3" points="227.735,243.286 228,300 281,300 260.95,241.95 "/>
</svg>
