<?xml version="1.0" encoding="utf-8"?>
<!-- Generator: Adobe Illustrator 16.0.0, SVG Export Plug-In . SVG Version: 6.00 Build 0)  -->
<!DOCTYPE svg PUBLIC "-//W3C//DTD SVG 1.1//EN" "http://www.w3.org/Graphics/SVG/1.1/DTD/svg11.dtd">
<svg version="1.1" id="Layer_1" xmlns="http://www.w3.org/2000/svg" xmlns:xlink="http://www.w3.org/1999/xlink" x="0px" y="0px"
	 width="168px" height="187px" viewBox="0 0 168 187" enable-background="new 0 0 168 187" xml:space="preserve">
<ellipse fill="#E4E5E6" cx="82.5" cy="173.62" rx="65" ry="9"/>
<circle fill="#FCB117" cx="83.494" cy="92.337" r="80.59"/>
<ellipse fill="#5F2F00" cx="65.5" cy="115.12" rx="6.5" ry="6"/>
<ellipse fill="#5F2F00" cx="104" cy="115.12" rx="6.5" ry="6"/>
<path fill="#E17C26" d="M49.49,104.455l31.38,2.746C80.871,107.201,65.872,89.325,49.49,104.455z"/>
<path fill="#ED9E21" d="M137,101.12c0,0-4,34-28,51C109,152.12,137,145.12,137,101.12z"/>
<path fill="#ED9E21" d="M126.5,66.12c0,0,14,38-21,80C105.5,146.12,146.5,113.12,126.5,66.12z"/>
<path fill="#ED9E21" d="M35,69.12c0,0-14,43,18,72C53,141.12,33,118.12,35,69.12z"/>
<path fill="#57B947" d="M79.5,21.12l-10-11c0,0,6-8,10-4s5,3,11,2s4,0,5,4s13-3,8,3S88.5,21.12,79.5,21.12z"/>
<path fill="#E17C26" d="M89.538,108.312l31.096-5.033C120.634,103.278,101.709,89.626,89.538,108.312z"/>
<path fill="#302E2F" d="M3,99.5c0,0,25.5,9,60.5,9.5s100-21.5,100-21.5s-45,21-90.5,24.5c0,0,3.5,10.5-9.5,12S49,111.5,49,111.5
	S28,110,3,99.5z"/>
</svg>
