<?xml version="1.0" encoding="utf-8"?>
<!-- Generator: Adobe Illustrator 16.0.0, SVG Export Plug-In . SVG Version: 6.00 Build 0)  -->
<!DOCTYPE svg PUBLIC "-//W3C//DTD SVG 1.1//EN" "http://www.w3.org/Graphics/SVG/1.1/DTD/svg11.dtd">
<svg version="1.1" id="Layer_1" xmlns="http://www.w3.org/2000/svg" xmlns:xlink="http://www.w3.org/1999/xlink" x="0px" y="0px"
	 width="168px" height="187px" viewBox="0 0 168 187" enable-background="new 0 0 168 187" xml:space="preserve">
<ellipse fill="#E4E5E6" cx="82.5" cy="173.62" rx="65" ry="9"/>
<path fill="#57B947" d="M78,17.12l-10-11c0,0,6-8,10-4s5,3,11,2s4,0,5,4s13-3,8,3S87,17.12,78,17.12z"/>
<circle fill="#FCB117" cx="83.494" cy="92.337" r="80.59"/>
<ellipse fill="#5F2F00" cx="65.5" cy="49.12" rx="6.5" ry="6"/>
<ellipse fill="#5F2F00" cx="104" cy="49.12" rx="6.5" ry="6"/>
<path fill="#E17C26" d="M90,35.952c0,0,13.812-10.562,26,1.625C116,37.577,103,9.952,90,35.952z"/>
<path fill="#E17C26" d="M49.75,43.342h31.5C81.25,43.342,64.75,26.842,49.75,43.342z"/>
<path fill="#ED9E21" d="M137,101.12c0,0-4,34-28,51C109,152.12,137,145.12,137,101.12z"/>
<path fill="#ED9E21" d="M119,61.12c0,0,14,38-21,80C98,141.12,139,108.12,119,61.12z"/>
<path fill="#ED9E21" d="M37,64.12c0,0-14,43,18,72C55,136.12,35,113.12,37,64.12z"/>
<path fill="#ED9E21" d="M70,84.12c0,0-2,55,14,67C84,151.12,62,151.12,70,84.12z"/>
<path fill="#5F2F00" d="M76,68.12c0,0,9,5,20,0C96,68.12,86,58.12,76,68.12z"/>
</svg>
