<?xml version="1.0" encoding="utf-8"?>
<!-- Generator: Adobe Illustrator 16.0.0, SVG Export Plug-In . SVG Version: 6.00 Build 0)  -->
<!DOCTYPE svg PUBLIC "-//W3C//DTD SVG 1.1//EN" "http://www.w3.org/Graphics/SVG/1.1/DTD/svg11.dtd">
<svg version="1.1" id="Layer_1" xmlns="http://www.w3.org/2000/svg" xmlns:xlink="http://www.w3.org/1999/xlink" x="0px" y="0px"
	 width="500px" height="200px" viewBox="0 0 500 200" enable-background="new 0 0 500 200" xml:space="preserve">
<rect x="-1" y="-1" fill="#DEA568" width="500" height="202"/>
<path fill="#D29658" d="M219,36c9.401-0.784-8,19-1,31s8,14,16,14s25-6,23,4s-21-9-20,7s6-1,7,5s0,5-13,6s2-7-14-15s-2-14-7-29
	s1-11-5-15s0,2,7-3S207,37,219,36z"/>
<path fill="#D29658" d="M266,47c8.944,6.708,32,37,22,38s-15,1-14,6s0,12,0,12s-8-16-6-23s3-28-15-31S262,44,266,47z"/>
<path fill="#D29658" d="M225,135c-5.126-6.835,4,25,2,28s-8-3-7,3s5,12,9,15s0-12,4-12s1-11-1-20S228,139,225,135z"/>
<path fill="#D29658" d="M109,91c7.658,11.062,16,20,13,21s-9,21-7,25s-12-8-14-17s4,3,7,4s7-6,7-11s-7-4-18-12s-6-36-12-37
	s-11-2-13-6s14-4,15,0s3,5,5,8s-1,5,2,3s15,1,19-6s17,0,17,0s-8,2-12,3s-19,3-20,7s-4,12,2,19S100,78,109,91z"/>
<path fill="#D29658" d="M362,91c-17.085-0.322-34,46-30,57s18-20,21-20S415,92,362,91z"/>
<path fill="#D29658" d="M385,32c-7.535-2.055-48,8-38,20s-11,26-5,32s1-7,6-11s0-23,7-23s29,0,34-3s-29,3-23-2S396,35,385,32z"/>
<path fill="#D29658" d="M309,50c8-1,4,13-2,8S301,51,309,50z"/>
<path fill="#D29658" d="M302.893,119c11.5-1,5.75,13-2.875,8S291.393,120,302.893,119z"/>
<path fill="#D29658" d="M236,59c8-1,4,13-2,8S228,60,236,59z"/>
<path fill="#D29658" d="M136,29c8-1,4,13-2,8S128,30,136,29z"/>
<path fill="#D29658" d="M446,102.613c8-1.75,4,22.75-2,14S438,104.363,446,102.613z"/>
<path fill="#D29658" d="M154,110c-1.409-3.875,21,24,21,31s-16,8-15,13s-5,10-11,11s3-8,2-12s13-5,12-13S158,121,154,110z"/>
<path fill="#D29658" d="M43,91c-3.852-4.708,0,26,1,38S52,102,43,91z"/>
<path fill="#D29658" d="M427,54c11.401,0-4,11-8,11S413,54,427,54z"/>
<path fill="#D29658" d="M179,74c1.672,12.538,16,24,18,28s-18-4-24-16S177,59,179,74z"/>
<path fill="#D29658" d="M423,138c-1.315-7.892-39,21-51,20s1,6,13,5S425,150,423,138z"/>
<path opacity="0.8" fill="#E13E25" d="M390.752,0.116c13.761,21.196-7.339,1.116,5.504,20.081
	c12.844,18.965,9.174,40.162,35.777,40.162s8.256,3.347,17.43,12.271s-3.67,43.509,7.339,49.087
	c11.008,5.578,13.76,2.231,24.769,23.428c11.008,21.196-18.348,36.815,11.008,43.509L499,192L498.083-1L390.752,0.116z"/>
<path fill="#FEE1C9" d="M472.396,87.827c2.483,19.632,24.769,22.312,2.752,33.468s-49.537-6.693-44.033-25.659
	c5.505-18.965-8.256-26.774,0.918-27.89S470.562,73.324,472.396,87.827z"/>
<path fill="#FEE1C9" d="M375.248,40.127c22.687-4.087,62.38,2.231,36.694,23.428C386.256,84.751,350.479,44.59,375.248,40.127z"/>
<path fill="#FEE1C9" d="M403.595,28.046c24.949,2.582,39.446-4.462,51.372,18.965s-2.752,34.583-24.769,25.659
	S360.479,23.584,403.595,28.046z"/>
<path fill="#F36F62" d="M475.148,53.665c7.073,19.66-4.587,16.734-6.421,11.156c-1.835-5.578-17.43-29.006-28.438-32.353
	C429.281,29.122,468.728,35.815,475.148,53.665z"/>
<circle fill="#3A5CAA" cx="32" cy="53" r="10"/>
<circle fill="#3A5CAA" cx="12" cy="63" r="10"/>
<circle fill="#3A5CAA" cx="12" cy="43" r="10"/>
<circle fill="#3A5CAA" cx="2" cy="103" r="10"/>
<circle fill="#3A5CAA" cx="22" cy="83" r="10"/>
<path fill="#294E89" d="M24,77c0,0,0,0-2,6S30,84,24,77z"/>
<path fill="#294E89" d="M28,53l9,4C37,57,30,42,28,53z"/>
<path fill="#294E89" d="M-2,99l4,14C2,113-11,105-2,99z"/>
<circle fill="#3A5CAA" cx="2" cy="153" r="10"/>
<path fill="#294E89" d="M-2,149l4,14C2,163-11,155-2,149z"/>
<circle fill="#3A5CAA" cx="77" cy="64" r="10"/>
<path fill="#294E89" d="M73,60l4,14C77,74,64,66,73,60z"/>
</svg>
