<?xml version="1.0" encoding="utf-8"?>
<!-- Generator: Adobe Illustrator 16.0.0, SVG Export Plug-In . SVG Version: 6.00 Build 0)  -->
<!DOCTYPE svg PUBLIC "-//W3C//DTD SVG 1.1//EN" "http://www.w3.org/Graphics/SVG/1.1/DTD/svg11.dtd">
<svg version="1.1" id="Layer_1" xmlns="http://www.w3.org/2000/svg" xmlns:xlink="http://www.w3.org/1999/xlink" x="0px" y="0px"
	 width="1200px" height="630px" viewBox="0 0 1200 630" enable-background="new 0 0 1200 630" xml:space="preserve">
<rect x="0" y="0" fill="#694F8C" width="1200" height="630"/>
<path fill="#8368AE" d="M599.179,127.176c-65.8,0-119.136,53.336-119.136,119.147c0,107.654,119.136,248.318,119.136,248.318
	c7.898,7.897,119.144-129.183,119.144-248.318C718.323,180.516,664.979,127.176,599.179,127.176z M600.62,308.824
	c-33.3,0-60.292-26.994-60.292-60.285c0-33.291,26.993-60.292,60.292-60.292c33.274,0,60.276,26.984,60.276,60.292
	C660.896,281.831,633.895,308.824,600.62,308.824z"/>
</svg>
