<?xml version="1.0" encoding="utf-8"?>
<!-- Generator: Adobe Illustrator 16.0.0, SVG Export Plug-In . SVG Version: 6.00 Build 0)  -->
<!DOCTYPE svg PUBLIC "-//W3C//DTD SVG 1.1//EN" "http://www.w3.org/Graphics/SVG/1.1/DTD/svg11.dtd">
<svg version="1.1" id="Layer_1" xmlns="http://www.w3.org/2000/svg" xmlns:xlink="http://www.w3.org/1999/xlink" x="0px" y="0px"
	 width="1200px" height="630px" viewBox="0 0 1200 630" enable-background="new 0 0 1200 630" xml:space="preserve">
<rect x="0" y="0" fill="#F05476" width="1200" height="630"/>
<path fill="#F384A6" d="M797.771,159.622v286.153c0,0-40.169-9.514-97.138-9.514c-48.397,0-80.604,13.008-89.218,16.932v1.111
	c0,0-0.407-0.211-1.164-0.57c-0.756,0.359-1.164,0.57-1.164,0.57v-1.111c-8.614-3.924-40.819-16.932-89.216-16.932
	c-56.979,0-97.147,9.514-97.147,9.514V159.622c-23.61,5.307-32.176,11.354-32.176,11.354V489.26c0,0,47.062-20.027,113.817-20.027
	c56.688,0,94.422,13.712,104.518,17.849v1.173c0,0,0.479-0.223,1.364-0.602c0.887,0.379,1.364,0.602,1.364,0.602v-1.173
	c10.096-4.136,47.834-17.849,104.527-17.849c66.741,0,113.808,20.027,113.808,20.027V170.976
	C829.946,170.976,821.382,164.929,797.771,159.622z"/>
<path fill="#F384A6" d="M697.433,133.18c-52.546-1.568-81.595,16.495-87.182,20.356c-5.588-3.861-34.637-21.924-87.187-20.356
	c-58.805,1.761-76.768,16.689-76.768,16.689v270.547c0,0,35.119-8.799,84.936-8.799c42.312,0,70.469,12.029,78,15.658v1.028
	c0,0,0.357-0.194,1.019-0.528c0.661,0.334,1.018,0.528,1.018,0.528v-1.028c7.531-3.629,35.688-15.658,78.002-15.658
	c49.808,0,84.927,8.799,84.927,8.799V149.869C774.197,149.869,756.234,134.941,697.433,133.18z"/>
</svg>
