<?xml version="1.0" encoding="utf-8"?>
<!-- Generator: Adobe Illustrator 16.0.0, SVG Export Plug-In . SVG Version: 6.00 Build 0)  -->
<!DOCTYPE svg PUBLIC "-//W3C//DTD SVG 1.1//EN" "http://www.w3.org/Graphics/SVG/1.1/DTD/svg11.dtd">
<svg version="1.1" id="Layer_1" xmlns="http://www.w3.org/2000/svg" xmlns:xlink="http://www.w3.org/1999/xlink" x="0px" y="0px"
	 width="1200px" height="630px" viewBox="0 0 1200 630" enable-background="new 0 0 1200 630" xml:space="preserve">
<rect x="0" y="0" fill="#2270AF" width="1200" height="630"/>
<path fill="#2E89C6" d="M692.907,217.406c-3.258,0.485-6.556,0.815-9.947,0.815c-37.398,0-65.826-25.155-65.826-62.55
	c0-11.084,0.899-26.683,5.623-35.915c-6.131-1.327-12.554-2.047-19.069-2.047c-1.029,0-2.043,0.045-3.062,0.076
	c-47.875,1.619-86.173,40.893-86.173,89.136v217.557h0.316v5.127h67.382v79.998c0,6.131,4.966,11.094,11.097,11.094h24.364
	c6.132,0,11.098-4.963,11.098-11.094v-79.998h63.811v-5.127h0.388V241.345c-0.048,0.007-0.104,0.01-0.152,0.017
	c0.051-0.008,0.102-0.013,0.152-0.021V217.406z"/>
</svg>
