<?xml version="1.0" encoding="utf-8"?>
<!-- Generator: Adobe Illustrator 16.0.0, SVG Export Plug-In . SVG Version: 6.00 Build 0)  -->
<!DOCTYPE svg PUBLIC "-//W3C//DTD SVG 1.1//EN" "http://www.w3.org/Graphics/SVG/1.1/DTD/svg11.dtd">
<svg version="1.1" id="Layer_1" xmlns="http://www.w3.org/2000/svg" xmlns:xlink="http://www.w3.org/1999/xlink" x="0px" y="0px"
	 width="1200px" height="630px" viewBox="0 0 1200 630" enable-background="new 0 0 1200 630" xml:space="preserve">
<rect fill="#2270AF" width="1200" height="630"/>
<path fill="#1D639A" d="M684.907,226.533c-2.966,0.441-5.969,0.742-9.056,0.742c-34.045,0-59.924-22.9-59.924-56.942
	c0-10.09,0.818-24.291,5.119-32.695c-5.581-1.208-11.429-1.863-17.36-1.863c-0.936,0-1.859,0.041-2.786,0.069
	c-43.583,1.474-78.447,37.227-78.447,81.144V415.04h0.287v4.667h61.341v72.825c0,5.582,4.521,10.1,10.102,10.1h22.18
	c5.582,0,10.103-4.518,10.103-10.1v-72.825h58.091v-4.667h0.353V248.326c-0.044,0.006-0.095,0.009-0.139,0.015
	c0.046-0.007,0.094-0.012,0.139-0.019v-21.789H684.907z"/>
</svg>
