<?xml version="1.0" encoding="utf-8"?>
<!-- Generator: Adobe Illustrator 16.0.0, SVG Export Plug-In . SVG Version: 6.00 Build 0)  -->
<!DOCTYPE svg PUBLIC "-//W3C//DTD SVG 1.1//EN" "http://www.w3.org/Graphics/SVG/1.1/DTD/svg11.dtd">
<svg version="1.1" id="Layer_1" xmlns="http://www.w3.org/2000/svg" xmlns:xlink="http://www.w3.org/1999/xlink" x="0px" y="0px"
	 width="156px" height="155px" viewBox="0 0 156 155" enable-background="new 0 0 156 155" xml:space="preserve">
<rect fill="#F1F1F2" width="156" height="155"/>
<g>
	<path fill="#51312C" d="M83.646,139.172c0,1.931-1.564,3.495-3.495,3.495h-7.677c-1.931,0-3.495-1.564-3.495-3.495V77.829
		c0-1.93,1.564-3.495,3.495-3.495h7.677c1.931,0,3.495,1.565,3.495,3.495V139.172z"/>
	<path fill="#F6921E" d="M100.738,47.373c-11.782,0-21.333-9.552-21.333-21.333c0-3.492,0.855-6.779,2.344-9.688
		c-1.93-0.418-3.931-0.645-5.985-0.645c-15.531,0-28.114,12.584-28.114,28.106v68.54h56.222V47.117
		C102.846,47.269,101.806,47.373,100.738,47.373z"/>
	<g transform="matrix(0.1,0,0,-0.1,0,362)">
		<path fill="#FFFFFF" d="M910.869,3016.978c-7.285-1.914-22.715-5.391-34.248-7.676c-29.287-5.742-33.945-7.48-47.002-17.158
			c-18.555-13.789-31.514-40.449-31.426-64.639c0.098-9.238,1.475-15.811,3.027-14.072c0.371,0.459,1.631,3.115,2.734,5.84
			c5.586,13.418,21.738,33.877,35.537,44.932c7.002,5.654,21.162,11.23,21.172,8.311c-0.02-1.006-4.824-7.031-10.596-13.066
			c-5.4-5.742-7.207-8.135-17.344-22.832c-10.508-15.43-24.209-42.998-33.428-67.559c-8.945-23.843-15.527-42.827-19.902-57.085
			c-7.393-24.375-14.072-43.652-15.264-44.004c-1.445-0.566-5.479,12.5-13.877,44.922c-13.047,50.786-18.623,68.208-31.953,99.985
			c-9.131,21.641-21.182,38.994-45.664,65.566c-13.428,14.697-32.51,28.76-44.014,32.607c-7.48,2.549-8.115,1.279-2.461-5.02
			c26.66-30.049,42.119-52.324,58.457-84.023c13.75-26.934,23.262-53.691,40.527-115.054c4.365-15.703,14.053-55.703,17.168-71.211
			c3.477-17.266,7.305-34.16,8.32-36.797c0.352-0.84,1.729-1.934,3.105-2.285c3.096-0.84,18.076-0.82,21.26,0
			c4.746,1.367,5.654,5.098,12.246,48.203c4.365,29.141,8.135,46.582,15.605,72.598c12.686,44.38,26.211,76.88,34.424,82.183
			c1.191,0.723,7.031,2.188,13.164,3.193c23.74,3.926,42.822,14.424,56.328,31.143c9.053,11.133,11.426,19.355,13.711,46.748
			c1.172,14.521,1.924,18.623,4.658,27.305c1.738,5.654,2.92,10.781,2.744,11.406
			C927.246,3021.089,925.771,3020.903,910.869,3016.978z"/>
	</g>
</g>
</svg>
