<?xml version="1.0" encoding="utf-8"?>
<!-- Generator: Adobe Illustrator 16.0.0, SVG Export Plug-In . SVG Version: 6.00 Build 0)  -->
<!DOCTYPE svg PUBLIC "-//W3C//DTD SVG 1.1//EN" "http://www.w3.org/Graphics/SVG/1.1/DTD/svg11.dtd">
<svg version="1.1" id="Layer_1" xmlns="http://www.w3.org/2000/svg" xmlns:xlink="http://www.w3.org/1999/xlink" x="0px" y="0px"
	 width="156px" height="155px" viewBox="0 0 156 155" enable-background="new 0 0 156 155" xml:space="preserve">
<rect fill="#F1F1F2" width="156" height="155"/>
<path fill="#FAAF40" d="M133.666,85.234c1.701,1.702,1.701,4.461,0.001,6.161l-42.033,42.033c-1.702,1.702-4.461,1.702-6.162,0
	L22.573,70.531c-1.702-1.702-1.702-4.461,0-6.163l42.033-42.033c1.7-1.7,4.459-1.7,6.162,0.001L133.666,85.234z"/>
<rect x="44" y="47.334" transform="matrix(0.7071 -0.7071 0.7071 0.7071 -32.1425 78.0697)" fill="#F6921E" width="68.334" height="61"/>
<g transform="matrix(0.1,0,0,-0.1,0,362)">
	<path fill="#FFFFFF" d="M778.12,3039.326c-3.794-6.504-12.251-19.868-18.784-29.634c-16.65-24.78-18.711-29.307-21.104-45.381
		c-3.374-22.866,6.323-50.884,23.491-67.93c6.597-6.455,12.212-10.137,12.085-7.812c-0.063,0.591-1.045,3.359-2.197,6.069
		c-5.542,13.438-8.579,39.331-6.641,56.899c0.952,8.95,7.021,22.905,9.087,20.84c0.713-0.713,1.572-8.379,1.753-16.724
		c0.249-7.876,0.649-10.845,3.877-28.403c3.486-18.34,13.291-47.534,24.141-71.416c10.522-23.179,19.307-41.265,26.289-54.429
		c12.012-22.471,20.908-40.82,20.322-41.919c-0.625-1.411-12.715,4.976-41.572,21.963c-45.132,26.67-61.411,35.059-93.296,48.105
		c-21.763,8.848-42.554,12.588-78.657,14.067c-19.888,0.903-43.325-2.642-54.17-8.066c-7.104-3.481-6.65-4.839,1.812-5.293
		c40.088-2.397,66.768-7.222,100.732-18.071c28.779-9.316,54.419-21.519,110.02-52.695c14.194-8.022,49.331-29.453,62.495-38.232
		c14.668-9.746,29.326-18.975,31.904-20.137c0.84-0.322,2.588-0.132,3.809,0.586c2.783,1.611,13.369,12.202,15.039,15.034
		c2.383,4.321,0.391,7.612-25.43,42.739c-17.52,23.696-27.188,38.691-40.303,62.378c-22.407,40.352-35.825,72.905-33.77,82.451
		c0.332,1.357,3.423,6.523,7.051,11.572c14.014,19.561,20.078,40.479,17.812,61.846c-1.479,14.282-5.61,21.772-23.364,42.754
		c-9.434,11.104-11.811,14.536-16.011,22.598c-2.773,5.234-5.562,9.692-6.128,10.01
		C786.797,3053.813,785.889,3052.636,778.12,3039.326z"/>
</g>
</svg>
