<?xml version="1.0" encoding="utf-8"?>
<!-- Generator: Adobe Illustrator 16.0.0, SVG Export Plug-In . SVG Version: 6.00 Build 0)  -->
<!DOCTYPE svg PUBLIC "-//W3C//DTD SVG 1.1//EN" "http://www.w3.org/Graphics/SVG/1.1/DTD/svg11.dtd">
<svg version="1.1" id="Layer_1" xmlns="http://www.w3.org/2000/svg" xmlns:xlink="http://www.w3.org/1999/xlink" x="0px" y="0px"
	 width="156px" height="155px" viewBox="0 0 156 155" enable-background="new 0 0 156 155" xml:space="preserve">
<rect fill="#F1F1F2" width="156" height="155"/>
<g>
	<path fill="#EAB87D" d="M83.646,139.172c0,1.931-1.564,3.495-3.495,3.495h-7.677c-1.931,0-3.495-1.564-3.495-3.495V77.829
		c0-1.93,1.564-3.495,3.495-3.495h7.677c1.931,0,3.495,1.565,3.495,3.495V139.172z"/>
	<path fill="#2676BA" d="M100.738,47.373c-11.782,0-21.333-9.552-21.333-21.333c0-3.492,0.855-6.779,2.344-9.688
		c-1.93-0.418-3.931-0.645-5.985-0.645c-15.531,0-28.114,12.584-28.114,28.106v68.54h56.222V47.117
		C102.846,47.269,101.806,47.373,100.738,47.373z"/>
</g>
<rect x="47.75" y="101.016" fill="#2D9BE0" width="56" height="12.469"/>
<path fill="#15629B" d="M81.749,16.351c0,0-15.581,15.65-4.248,28.816c9.271,10.772,26.37,1.95,26.37,1.95s-9.703,1.55-18.703-7.283
	C75.075,29.928,81.749,16.351,81.749,16.351z"/>
</svg>
