<?xml version="1.0" encoding="utf-8"?>
<!-- Generator: Adobe Illustrator 16.0.0, SVG Export Plug-In . SVG Version: 6.00 Build 0)  -->
<!DOCTYPE svg PUBLIC "-//W3C//DTD SVG 1.1//EN" "http://www.w3.org/Graphics/SVG/1.1/DTD/svg11.dtd">
<svg version="1.1" id="Layer_1" xmlns="http://www.w3.org/2000/svg" xmlns:xlink="http://www.w3.org/1999/xlink" x="0px" y="0px"
	 width="156px" height="155px" viewBox="0 0 156 155" enable-background="new 0 0 156 155" xml:space="preserve">
<rect fill="#F1F1F2" width="156" height="155"/>
<g>
	<path fill="#EAB87D" d="M83.646,139.172c0,1.931-1.564,3.495-3.495,3.495h-7.677c-1.931,0-3.495-1.564-3.495-3.495V77.829
		c0-1.93,1.564-3.495,3.495-3.495h7.677c1.931,0,3.495,1.565,3.495,3.495V139.172z"/>
	<path fill="#2676BA" d="M100.738,47.373c-11.782,0-21.333-9.552-21.333-21.333c0-3.492,0.855-6.779,2.344-9.688
		c-1.93-0.418-3.931-0.645-5.985-0.645c-15.531,0-28.114,12.584-28.114,28.106v68.54h56.222V47.117
		C102.846,47.269,101.806,47.373,100.738,47.373z"/>
	<g transform="matrix(0.1,0,0,-0.1,0,362)">
		<path fill="#FFFFFF" d="M890.713,3003.843c-6.406-1.685-19.98-4.741-30.127-6.753c-25.762-5.049-29.854-6.577-41.338-15.088
			c-16.318-12.129-27.725-35.581-27.646-56.855c0.088-8.125,1.299-13.906,2.666-12.378c0.322,0.405,1.436,2.739,2.402,5.137
			c4.912,11.802,19.121,29.795,31.26,39.521c6.162,4.971,18.613,9.878,18.623,7.31c-0.02-0.884-4.248-6.187-9.316-11.494
			c-4.756-5.049-6.348-7.153-15.264-20.083c-9.238-13.569-21.289-37.817-29.395-59.419c-7.871-20.977-13.662-37.676-17.51-50.215
			c-6.499-21.436-12.378-38.389-13.423-38.701c-1.274-0.498-4.819,10.996-12.207,39.512c-11.475,44.668-16.382,59.995-28.105,87.944
			c-8.032,19.033-18.628,34.297-40.161,57.671c-11.812,12.925-28.599,25.293-38.716,28.677c-6.577,2.241-7.139,1.128-2.163-4.414
			c23.447-26.431,37.046-46.021,51.416-73.901c12.095-23.691,20.459-47.227,35.645-101.201
			c3.843-13.809,12.363-48.994,15.103-62.637c3.057-15.186,6.426-30.039,7.319-32.363c0.308-0.732,1.519-1.699,2.729-2.012
			c2.725-0.732,15.898-0.723,18.701,0c4.175,1.211,4.971,4.482,10.767,42.402c3.848,25.635,7.158,40.967,13.73,63.857
			c11.152,39.033,23.057,67.617,30.273,72.28c1.055,0.635,6.191,1.924,11.582,2.808c20.879,3.457,37.666,12.69,49.541,27.393
			c7.969,9.795,10.049,17.026,12.061,41.118c1.035,12.773,1.699,16.382,4.102,24.019c1.523,4.971,2.568,9.482,2.412,10.029
			C905.117,3007.461,903.818,3007.295,890.713,3003.843z"/>
	</g>
</g>
<rect x="47.75" y="101.016" fill="#2D9BE0" width="56" height="12.469"/>
</svg>
