<?xml version="1.0" encoding="utf-8"?>
<!-- Generator: Adobe Illustrator 16.0.0, SVG Export Plug-In . SVG Version: 6.00 Build 0)  -->
<!DOCTYPE svg PUBLIC "-//W3C//DTD SVG 1.1//EN" "http://www.w3.org/Graphics/SVG/1.1/DTD/svg11.dtd">
<svg version="1.1" id="Layer_1" xmlns="http://www.w3.org/2000/svg" xmlns:xlink="http://www.w3.org/1999/xlink" x="0px" y="0px"
	 width="156px" height="155px" viewBox="0 0 156 155" enable-background="new 0 0 156 155" xml:space="preserve">
<path fill="#EAB87D" d="M83.646,139.172c0,1.932-1.564,3.495-3.496,3.495h-7.676c-1.931,0-3.495-1.563-3.495-3.495V77.829
	c0-1.93,1.564-3.495,3.495-3.495h7.676c1.932,0,3.496,1.565,3.496,3.495V139.172z"/>
<g>
	<path fill="#2676BA" d="M74.417,29.833c-0.42-4.182-1.304-10.54,0.382-14.102C59.716,16.241,47.65,28.614,47.65,43.813v68.541
		h56.222V54.658c-1.371,0.21-4.228-0.339-5.538-0.908C83.334,47.25,75.767,43.273,74.417,29.833z"/>
	<path fill="#15629B" d="M100.738,47.373C88.956,47.373,80,39.448,80,27.667c0-3.492,0.283-8.406,1.771-11.315
		c-1.932-0.418-3.956-0.645-6.007-0.645c-0.324,0-0.644,0.014-0.965,0.024c-1.686,3.562-2.632,7.543-2.632,11.746
		c0,15.188,12.312,27.5,27.5,27.5c1.431,0,2.834-0.109,4.205-0.32v-7.541C102.846,47.269,101.807,47.373,100.738,47.373z"/>
</g>
<rect x="47.75" y="105.531" fill="#2D9BE0" width="56" height="8.438"/>
</svg>
