<?xml version="1.0" encoding="utf-8"?>
<!-- Generator: Adobe Illustrator 16.0.0, SVG Export Plug-In . SVG Version: 6.00 Build 0)  -->
<!DOCTYPE svg PUBLIC "-//W3C//DTD SVG 1.1//EN" "http://www.w3.org/Graphics/SVG/1.1/DTD/svg11.dtd">
<svg version="1.1" id="Layer_1" xmlns="http://www.w3.org/2000/svg" xmlns:xlink="http://www.w3.org/1999/xlink" x="0px" y="0px"
	 width="1170px" height="500px" viewBox="0 0 1170 500" enable-background="new 0 0 1170 500" xml:space="preserve">
<path fill="none" stroke="#2382B7" stroke-miterlimit="10" d="M469.088,373.558c-1.65,0-4.084-0.684-6.742-1.773
	c4.145-3.907,8.438-8.804,12.587-14.927c15.736-23.23,6.294-65.558,2.439-74.849c-3.855-9.29-9.798-16.9-4.238,0
	c7.643,23.23,1.349,51.618-7.192,62.976c-8.543,11.354-31.472,10.324-31.472,8.775c0-0.634-0.302-13.81-0.657-29.156
	c2.786-0.365,9.106-8.623,8.842-10.968c-0.252-2.23-6.075,5.459-8.947,6.489c-0.491-21.097-1.037-44.312-1.037-44.312
	c18.883-2.064,28.324-24.259,28.324-24.259c16.185,8.259,16.185-3.614,12.588-2.066c-3.596,1.548-11.239-3.614-11.239-3.614
	c8.542-23.229-5.846-42.327-5.846-42.327s5.396,22.712,0,40.778c-5.395,18.068-25.626,16.001-25.626,16.001l-1.797-46.971
	c10.339-2.066,20.68-12.904,14.386-11.357c-6.294,1.549-15.286,1.549-15.286,1.549c-0.45-24.776-0.899-33.55-3.146-29.938
	c-2.249,3.613-5.845,65.557-5.845,65.557c-0.45-17.551-11.24-35.618-26.526-20.771c-15.286,14.847,9.891,27.999,9.891,27.999
	s-16.186-14.972-7.644-24.779c8.542-9.808,18.882,4.129,18.882,23.744c0,19.616,0,45.423,0,45.423
	c-4.046-11.354-19.332-11.354-19.332-11.354c0-22.198-9.891-22.713-18.433-22.713s-19.864,5.597-2.779,5.597
	c17.084,0,9.974,17.632,9.974,17.632s0,0-13.938,0c-13.937,0-11.613,1.342,3.598,3.099c18.732,2.162,36.865,10.325,37.315,32.002
	c0.632,30.448,0,76.139,0,76.139s-5.396,0.774-6.294-6.451c-0.899-7.229,2.697-7.229,2.697-34.071
	c0-26.84-4.945-37.68-29.593-40.634c-21.464-2.571-25.705,2.437-2.328,6.05c24.061,3.718,22.334,20.774,22.48,32.005
	c0.199,15.483-5.396,23.227-5.396,23.227c-0.449-11.355-6.831-22.71-6.831-22.71s0.762-3.356,3.684-6.713
	c2.923-3.354,0.406-9.34-3.684-4.646c-4.089,4.696-5.307,8.26-5.307,8.26s0,0-6.294-7.226c-6.295-7.228-11.241-6.194-3.148,3.095
	c8.092,9.292,17.084,25.81,17.084,41.812c0,16.004,16.635,29.423,16.635,40.779c0,11.357,0,65.556,0,76.913h30.971
	c-3.613-7.744-3.097-55.234-3.097-55.234l3.097,55.234h6.795l-2.698-46.458c0,0,3.148,0.516,16.635-13.421
	c13.487-13.937,10.341-19.099,3.148-12.388c-1.354,1.261-2.961,2.395-4.678,3.404c0.659-5.747,1.436-15.121-0.554-14.763
	c-1.993,0.36-1.944,9.986-3.099,16.67c-6.544,3.051-13.25,4.494-13.25,4.494c-0.899-10.839-0.45-51.619-0.45-51.619
	s5.807-1.05,13.922-6.005c3.654,1.389,8.384,2.484,13.502,1.877c13.038-1.55,16.463-9.818,15.687-12.133
	C479.055,368.22,476.282,373.558,469.088,373.558z M386.863,316.077c13.447,6.425,12.905,15.485,10.84,10.841
	C395.639,322.271,386.863,316.077,386.863,316.077z M397.704,385.764c19.778,33.457,13.937,59.876,13.937,59.876
	c1.033-14.453-4.128-33.551-6.194-38.715C403.381,401.764,397.704,385.764,397.704,385.764z M412.445,489.517
	c0,0-2.154-36.426,0-26.326C413.767,469.386,412.445,489.517,412.445,489.517z M419.153,242.779c-0.029,3.615,2.295,27.874,0,24.259
	C416.86,263.426,419.153,242.779,419.153,242.779z M418.351,389.952c0,0-0.517-45.998,0-59.422
	C418.351,330.53,422.48,382.27,418.351,389.952z M421.324,458.546c0,0-0.393-50.069,3.737-91.883L421.324,458.546z M425.062,287.171
	c-1.033-11.357,0-32.004,0-32.004C426.094,264.459,426.094,298.528,425.062,287.171z M440.547,376.472
	c5.162-3.097,23.745-16.23,23.745-16.23C460.678,368.273,437.577,378.253,440.547,376.472z"/>
<path fill="none" stroke="#2382B7" stroke-miterlimit="10" d="M599.957,287.335c18.809-6.646,36.169-33.381,15.432-50.259
	c-20.737-16.88-53.531,9.164-53.531,9.164c-4.341-17.844-0.454-42.378,0-48.226c0.644-8.261,2.894-13.023,0-13.023
	c-6.269,0-3.376,6.753-5.305,14.951c-1.928,8.199-5.786,12.943-5.786,12.943c-23.631-10.689-33.758,1.042-25.56,0.081
	c8.198-0.966,23.148,7.231,23.148,9.642s-5.277,37.137-5.277,37.137s-7.262-9.164-22.693-9.164
	c-27.153,0-33.275,15.915-31.348,27.488c1.929,11.575,9.974,15.752,7.095,9.268c-2.878-6.479-2.272-16.503,5.927-21.807
	c8.199-5.305,28.936-0.964,33.757,9.647c4.824,10.607,2.412,28.182,2.412,28.182c-3.376,1.658-11.574-6.482-11.574-6.482
	s-3.375-4.821-14.951-6.751c-11.575-1.931-18.274,3.223-8.199,4.34c17.362,1.931,25.079,14.952,27.972,33.76
	c2.894,18.808,1.929,15.433,1.929,24.111c0,8.682-8.198,32.506-8.198,32.506c-2.894-4.146-7.234-15.355-7.234-15.355
	s-0.157-2.732,4.823-6.54c8.198-6.271,5.186-19.243,3.858-15.312c-2.893,8.562-14.468,19.172-13.504,6.633
	c0.965-12.538-8.681-19.289-11.091-26.042c-2.412-6.753-5.305-10.61-5.789-6.27c-0.481,4.342,0,6.751,6.271,17.589
	c6.269,10.837-0.482,20.992,3.858,37.621c4.34,16.627,13.021,27.739,12.056,37.865c-0.562,5.908-1.473,30.009-2.255,52.505
	c-6.769-1.911-6.914-1.067-9.644-3.8c-2.403-2.401-4.38,12.109,9.324,13.023c-0.469,13.66-0.802,24.116-0.802,24.116H596.1
	l-11.093-33.76c0,0,13.021-5.785,15.915-17.844c2.894-12.057-0.272-8.876-4.339-2.893c-8.198,12.055-15.433,10.126-16.4,6.268
	c-0.962-3.856-4.339-8.197-8.196-31.347c-0.207-1.236-0.393-2.473-0.563-3.702c15.073-4.231,13.1-20.058,11.59-15.025
	c-1.253,4.179-7.944,5.334-12.484,6.734c-1.478-18.397,0.492-33.822,0.492-33.822s3.961-2.147,10.235-6.72
	c2.49,2.559,6.366,5.6,11.315,6.5c9.012,1.637,15.019-6.556,7.919-5.788c-5.165,0.559-9.615-2.671-12.809-5.656
	c3.032-2.453,6.354-5.307,9.864-8.592c14.95-13.982,9.645-15.43-1.446-7.595c-11.093,7.836-26.299,8.572-26.299,8.572
	s-1.674-4.836-2.155-14.478c-0.482-9.646-2.197-15.623,4.341-17.845c8.562-2.912,2.893-1.447,21.219-7.234
	c18.327-5.787,19.19-24.677,16.879-21.701c-4.288,5.518-5.787,12.539-22.184,14.469c-16.397,1.927-22.063,5.682-23.63-6.059
	c-2.413-18.054-2.413-22.878,0-32.112c1.235-4.732,17.36-17.77,17.36-17.77c12.539,8.194,1.491,10.914,5.351,15.254
	c0,0,2.849-1.754,6.705-6.579c3.859-4.819-3.856-13.5-3.856-13.5c20.254-10.126,22.666,19.773,16.396,27.97
	C599.957,284.82,581.149,293.982,599.957,287.335z M531.774,263.617c-3.519-4.066-14.308-7.639-14.308-7.639
	C533.055,258.344,535.292,267.686,531.774,263.617z M524.525,427.145c1.094-15.293-4.368-35.498-6.553-40.961
	c-2.184-5.459-8.191-22.39-8.191-22.39C530.706,399.194,524.525,427.145,524.525,427.145z M531.719,482.026
	c-2.207-14.234,8.089-98.789,8.089-98.789L531.719,482.026z M546.82,462.114c-2.427-3.824,0-25.668,0-25.668
	C546.789,440.269,549.248,465.937,546.82,462.114z M548.134,361.673c0,0-0.545-48.668,0-62.868
	C548.134,298.805,552.504,353.545,548.134,361.673z M554.603,233.259c1.092,9.829,1.092,45.874,0,33.859
	C553.511,255.102,554.603,233.259,554.603,233.259z M554.78,427.692c0,0-0.416-52.978,3.954-97.212L554.78,427.692z
	 M569.634,485.259c-4.024-8.097-4.712-58.337-4.712-58.337L569.634,485.259z M603.409,240.833
	c14.228,6.801,13.653,16.388,11.468,11.471C612.693,247.389,603.409,240.833,603.409,240.833z"/>
<path fill="none" stroke="#2382B7" stroke-miterlimit="10" d="M342.554,366.828c0.589-8.745-5.065,7.578-8.049,16.613
	c0,0-0.097-0.727-0.272-2.051c-0.114-0.864-0.26-1.975-0.438-3.328c-0.004-0.023-0.006-0.047-0.01-0.072
	c-2.778-21.154-12.688-97.569-13.376-116.124c-0.8-21.597-20.453-61.708,31.993-81.583c0,0,6.399-7.999-10.397,0
	c-16.796,7.999-29.595,23.073-29.595,23.073s-6.397-9.477,10.398-45.468c16.796-35.995,1.795-54.39,11.696-68.786
	c9.898-14.398,1.101-13.599-7.696,0c-8.799,13.598,0,39.189-19.198,51.989c0,0-5.597-13.597-4.798-31.993
	c0.8-18.397,13.598-43.991,16.796-49.589c3.2-5.6-8.153,0.8-16.874,17.595c-8.72,16.796-8.72,16.796-8.72,16.796
	s-11.197-30.395-9.598-41.593c1.599-11.196-5.599,0.801-5.599,17.598c0,16.796,10.398,29.594,10.398,53.589
	c0,23.993,0.8,49.589,0.8,49.589s-15.997-2.213-19.996-19.903c-4-17.689-8.799-4.892,0,9.507
	c8.798,14.395,20.794,25.044,20.794,25.044l4,84.639c0,0-1.6,4.904-17.596,0c-15.998-4.905,1.599,7.779,6.397,8.234
	c4.8,0.457,12.797,7.219,12.797,7.219l4.001,48.06c0,0-35.194-37.302-41.592-48.06c-6.4-10.761-11.198-70.3-12.798-76.922
	c-1.6-6.623,11.998-10.623,21.596-11.423c9.599-0.801,7.998-6.5-4.799-5.248c-12.797,1.248-16.926,3.647-16.926,3.647
	s3.329-17.595,6.528-31.191c3.2-13.596-6.656-34.394-6.528-38.395c0.13-3.999-1.73,3.202,0,15.999s-0.669,28.793-4.667,35.992
	c0,0-12.798-77.583-11.999-89.582c0.801-11.997,12.797-3.197,15.997-5.598c3.2-2.398-9.599-8.799-15.196-6.399
	c-5.6,2.399-9.598,3.199-8.798,15.997c0.8,12.796,4.799,96.431,10.397,116.201c5.6,19.771,3.999,35.708,3.999,35.708
	s-9.002,1.544-14.499,0c-5.496-1.542,1.702,8.06,7.302,8.06c5.599,0,5.599,0,5.599,0s0,5.811,2.399,17.701
	c2.4,11.892,8.798,31.861,14.397,37.472c5.598,5.613,21.595,40.001,21.595,40.001s-10.397,2.412-15.997-3.591
	c-5.598-6.003,4.799,17.938,18.397,10.366l6.829,11.378l0,0l20.365,33.934c0,0-1.266,32.24-5.032,41.667
	c0,0-8.565-6.408-10.966-11.688c-2.399-5.275,1.6,18.24,5.599,20.078c4,1.839,4,1.839,4,1.839s-2.4,11.996-7.199,19.997
	c-4.8,7.997-2.4,21.436-15.997,25.115c-13.597,3.676-19.997,15.059-19.997,15.059l89.583-0.737c0,0-2.4-27.441,0-41.838
	l-1.067-15.996c0,0-5.065-49.588,0-77.581C360.87,336.638,351.208,350.97,342.554,366.828z M240.16,221.074
	c0,0-2.716-45.943,0-33.205C241.827,195.684,240.16,221.074,240.16,221.074z M254.592,295.22
	c-4.223-3.364-9.979-28.928-9.979-28.928C246.063,270.612,258.813,298.582,254.592,295.22z M306.342,161.024
	c1.667,7.814,0,33.207,0,33.207S303.623,148.285,306.342,161.024z M301.131,231.081c-0.038,4.558,2.894,35.157,0,30.599
	C298.236,257.124,301.131,231.081,301.131,231.081z M300.368,354.552c-5.277-1.132-21.812-21.459-21.812-21.459
	C281.777,336.313,305.646,355.683,300.368,354.552z M314.764,301.667c0,0,2.028,25.421,2.287,46.888
	c-0.841,0.287-1.676,0.59-2.51,0.897C314.441,331.947,314.412,310.811,314.764,301.667z"/>
<path fill="none" stroke="#2382B7" stroke-miterlimit="10" d="M765.963,279.339c28.1-4.345,23.002-10.364-2.798-7.273
	c-29.628,3.547-35.573,16.579-35.573,48.841c0,32.263,4.326,32.263,3.242,40.948c-1.079,8.688-7.564,7.757-7.564,7.757
	s-0.758-54.916,0-91.516c0.543-26.058,22.338-35.868,44.854-38.466c18.28-2.114,21.075-3.723,4.324-3.723
	c-16.755,0-16.755,0-16.755,0s-12.443-9.679-4.383-28.563c7.665-17.945,8.056-24.865,2.691-16.109
	c-9.873,16.109-15.719,35.5-17.055,43.604c0,0-13.134,0.445-17.999,14.094c0,0,0-31.022,0-54.598
	c0-23.578,12.429-40.329,22.697-28.541c10.268,11.787-9.188,29.781-9.188,29.781s30.262-15.805,11.889-33.652
	c-18.375-17.845-31.346,3.871-31.882,24.966c0,0-4.323-74.455-7.027-78.795c-2.7-4.344-2.903-9.266-3.442,20.515
	c0,0-1.23,6.651-2.015,20.585c-1.084,19.321-1.319,21.585-0.193,27.246l-1.373,35.887c0,0-2.701,10.894-15.937,0.813
	c-21.15-16.108-21.667-41.177-21.667-41.177s-4.362,9.555-0.225,22.992c0,0-9.187,6.203-13.51,4.342
	c-4.322-1.862-4.322,12.411,15.13,2.482c0,0,11.351,26.677,34.047,29.158c0,0-0.659,27.906-1.249,53.262
	c-3.45-1.237-10.449-10.481-10.754-7.798c-0.316,2.814,7.28,12.74,10.628,13.184c-0.427,18.44-0.787,34.279-0.787,35.041
	c0,1.863-27.562,3.103-37.828-10.548c-10.268-13.648-10.967-36.665,16.409-47.363c17.472-6.828,12.052-8.105-2.113-6.814
	c-6.715,0.611-12.431,2.311-17.192,4.839c-2.218-2.202-4.608-6.104-5.797-12.999c-2.554-14.826,1.621-31.003-12.388-35.261
	c-14.007-4.258-3.872,0.247,0,4.806c3.873,4.56,2.94,13.42,0,24.741c-2.012,7.752,2.453,22.156,5.47,30.475
	c-8.813,14.144-6.797,34.727,4.803,51.848c4.988,7.361,10.148,13.246,15.131,17.945c-3.196,1.311-6.12,2.131-8.107,2.131
	c-8.645,0-11.977-6.417-12.909-3.632c-0.931,2.779,3.186,12.717,18.857,14.579c6.152,0.73,11.836-0.589,16.229-2.257
	c9.754,5.954,16.733,7.218,16.733,7.218s0.542,49.019-0.54,62.047c0,0-0.195,1.929-8.061-1.738c0,0-3.872-4.216-6.27-4.649
	c-2.392-0.432-2.392-0.432-5.987-1.31c-2.065-1.212-3.995-2.574-5.622-4.091c-8.646-8.065-12.432-1.86,3.78,14.889
	c16.215,16.754,19.997,16.134,19.997,16.134l-3.243,55.84h8.165l3.724-66.389c0,0,0.623,57.083-3.724,66.389h37.227
	c0-13.648,0-78.797,0-92.448c0-13.648,19.996-29.779,19.996-49.014s10.81-39.089,20.536-50.257
	c9.728-11.168,3.783-12.41-3.784-3.723c-7.564,8.686-7.564,8.686-7.564,8.686s-1.467-4.28-6.38-9.926
	c-4.917-5.646-7.939,1.549-4.427,5.586c3.511,4.031,4.427,8.065,4.427,8.065s-7.67,13.646-8.209,27.297c0,0-6.726-9.308-6.487-27.92
	C739.116,304.308,737.04,283.809,765.963,279.339z M658.245,332.421c0,0,22.335,15.785,28.54,19.508
	C690.354,354.071,662.586,342.073,658.245,332.421z M712.499,191.235c0,0,2.759,24.815,0,29.158
	C709.741,224.736,712.532,195.576,712.499,191.235z M705.398,206.125c0,0,1.242,24.814,0,38.465
	C704.156,258.242,704.156,217.292,705.398,206.125z M709.889,450.58l-4.49-110.439C710.361,390.397,709.889,450.58,709.889,450.58z
	 M713.463,368.132c-4.961-9.234,0-71.425,0-71.425C714.083,312.841,713.463,368.132,713.463,368.132z M720.562,487.809
	c0,0-1.589-24.198,0-31.644C723.153,444.024,720.562,487.809,720.562,487.809z M728.976,388.535
	c-2.483,6.205-8.687,29.159-7.446,46.533c0,0-7.021-31.756,16.753-71.973C738.282,363.096,731.456,382.328,728.976,388.535z
	 M738.282,292.367c-2.483,5.582-3.134-5.31,13.027-13.028C751.31,279.339,740.766,286.781,738.282,292.367z"/>
<path fill="none" stroke="#2382B7" stroke-miterlimit="10" d="M595.311,501.68c0,0,8.272-5.861,10.359-10.739
	c2.086-4.876,5.476-11.056,5.476-11.056s18.846-8.692,24.419-9.289c5.57-0.595,16.572-17.139,17.331-14.03
	c0.756,3.108,14.26,22.363,14.26,22.363l5.272,23.466L595.311,501.68z"/>
<path fill="none" stroke="#2382B7" stroke-miterlimit="10" d="M496.218,502.395c0,0-0.765-8.202-3.821-7.625
	c-3.057,0.571-9.861-11.448-9.861-11.448l-9.242,4.084l-8.137,7.364l-9.781,7.147L496.218,502.395z"/>
<polygon fill="none" stroke="#2382B7" stroke-miterlimit="10" points="281.367,504.997 258.111,495.528 258.111,483.817 
	237.764,475.507 237.764,472.108 229.045,461.421 218.87,461.421 198.87,504.997 "/>
<path fill="none" stroke="#2382B7" stroke-miterlimit="10" d="M725.093,502.395c0,0,1.595-8.202,7.978-7.625
	c6.379,0.571,20.588-11.448,20.588-11.448l19.295,4.084l16.99,7.364l20.421,7.147L725.093,502.395z"/>
<path fill="none" stroke="#2382B7" stroke-miterlimit="10" d="M797.569,502.395c0,0-0.764-8.202-3.82-7.625
	c-3.057,0.571-9.858-11.448-9.858-11.448l-9.245,4.084l-8.137,7.364l-9.78,7.147L797.569,502.395z"/>
<path fill="none" stroke="#2382B7" stroke-miterlimit="10" d="M865.574,503.319c0,0-0.766-5.646-3.822-5.25
	c-3.057,0.394-9.859-7.883-9.859-7.883l-9.242,2.812l-8.137,5.071l-9.781,4.922L865.574,503.319z"/>
<path fill="none" stroke="#2382B7" stroke-miterlimit="10" d="M218.046,301.454c-12.199,3.691-8.563,17.73-10.787,30.596
	c-1.034,5.981-3.116,9.366-5.047,11.279c-4.146-2.194-9.125-3.668-14.972-4.2c-12.334-1.118-17.053-0.012-1.839,5.913
	c23.838,9.282,23.23,29.252,14.289,41.096c-8.94,11.846-32.941,10.768-32.941,9.151c0-0.661-0.314-14.402-0.685-30.404
	c2.914-0.386,9.53-8.995,9.253-11.438c-0.264-2.329-6.36,5.691-9.364,6.766c-0.514-22.001-1.088-46.211-1.088-46.211
	c19.764-2.156,29.648-25.302,29.648-25.302c16.939,8.615,16.939-3.769,13.175-2.155c-3.765,1.613-11.764-3.767-11.764-3.767
	c3.602-11.659-0.195-19.948-0.195-19.948s-0.451,21.751-18.869,35.728c-11.525,8.745-13.876-0.706-13.876-0.706l-1.195-31.138
	c0.98-4.912,0.774-6.876-0.169-23.641c-0.685-12.091-1.754-17.86-1.754-17.86c-0.47-25.838-0.646-21.569-2.998-17.8
	c-2.354,3.767-6.119,68.367-6.119,68.367c-0.467-18.304-11.762-37.146-27.763-21.66c-15.999,15.483,10.353,29.196,10.353,29.196
	s-16.941-15.612-8-25.84c8.942-10.229,19.765,4.306,19.765,24.765c0,20.455,0,47.374,0,47.374
	c-4.236-11.846-15.674-12.231-15.674-12.231c-1.163-7.032-6.254-23.855-14.851-37.834c-4.671-7.595-4.331-1.593,2.343,13.979
	c7.021,16.385-3.816,24.783-3.816,24.783s0,0-14.59,0c-14.586,0-12.152,1.394,3.765,3.229c19.607,2.255,38.586,10.768,39.059,33.376
	c0.66,31.754,0,79.405,0,79.405s-5.647,0.807-6.586-6.731c-0.945-7.535,2.822-7.535,2.822-35.528
	c0-27.994-5.177-39.298-30.977-42.378c-22.465-2.681-26.905,2.541-2.435,6.312c25.185,3.88,23.377,21.664,23.528,33.374
	c0.208,16.15-5.648,24.227-5.648,24.227c-0.47-11.846-7.148-23.688-7.148-23.688s0.797-3.5,3.854-6.998
	c3.06-3.499,0.427-9.744-3.854-4.846c-4.279,4.898-5.556,8.614-5.556,8.614s0,0-6.587-7.538c-6.59-7.537-11.767-6.459-3.296,3.229
	c8.471,9.691,17.883,26.918,17.883,43.604c0,16.692,17.414,30.688,17.414,42.529c0,11.847,0,39.568,0,51.412h32.416
	c-3.785-8.074-3.243-28.802-3.243-28.802l3.243,28.802h7.109l-2.824-19.648c0,0,3.293,0.538,17.413-13.997
	c14.117-14.534,10.822-19.917,3.292-12.919c-1.417,1.316-3.097,2.497-4.895,3.551c-3.132,0.76-3.132,0.76-5.215,1.136
	c-2.087,0.376-5.46,4.034-5.46,4.034c-6.848,3.181-7.018,1.508-7.018,1.508c-0.943-11.306-0.47-53.836-0.47-53.836
	s6.077-1.097,14.572-6.261c3.825,1.447,8.773,2.59,14.131,1.955c13.647-1.615,17.231-10.237,16.42-12.652
	c-0.811-2.413-3.713,3.154-11.242,3.154c-1.729,0-4.275-0.712-7.058-1.851c4.338-4.076,8.832-9.182,13.175-15.567
	c10.101-14.857,11.857-32.714,4.182-44.989c2.627-7.216,6.516-19.714,4.763-26.439c-2.559-9.823-3.373-17.51,0-21.469
	C221.419,301.669,230.245,297.759,218.046,301.454z M116.922,355.993c14.074,6.696,13.507,16.15,11.345,11.304
	C126.104,362.45,116.922,355.993,116.922,355.993z M128.267,428.667c20.702,34.893,14.588,62.445,14.588,62.445
	c1.08-15.073-4.322-34.987-6.484-40.375C134.211,445.354,128.267,428.667,128.267,428.667z M143.697,519.872
	c0,0-2.257-20.988,0-10.454C145.081,515.88,143.697,519.872,143.697,519.872z M150.718,279.548c-0.029,3.767,2.402,29.068,0,25.302
	C148.316,301.08,150.718,279.548,150.718,279.548z M149.881,433.035c0,0-0.541-47.975,0-61.971
	C149.881,371.064,154.2,425.022,149.881,433.035z M152.992,504.57c0,0-0.413-52.218,3.91-95.822L152.992,504.57z M156.901,325.842
	c-1.082-11.841,0-33.376,0-33.376C157.984,302.157,157.984,337.688,156.901,325.842z M173.111,418.977
	c5.402-3.228,24.852-16.927,24.852-16.927C194.182,410.427,170.002,420.835,173.111,418.977z"/>
<path fill="none" stroke="#2382B7" stroke-miterlimit="10" d="M145.758,501.588c0,0,9.352-6.627,11.71-12.141
	c2.358-5.51,6.19-12.497,6.19-12.497s21.303-9.827,27.601-10.499c6.297-0.674,18.734-19.375,19.591-15.859
	c0.854,3.513,16.119,25.277,16.119,25.277l5.96,26.525L145.758,501.588z"/>
<path fill="none" stroke="#2382B7" stroke-miterlimit="10" d="M931.983,500.151c0,0-6.68-5.237-8.364-9.597
	c-1.682-4.356-4.419-9.879-4.419-9.879s-15.214-7.769-19.712-8.301c-4.496-0.532-13.38-15.315-13.992-12.537
	c-0.608,2.777-11.51,19.985-11.51,19.985l-4.258,20.967L931.983,500.151z"/>
<path fill="none" stroke="#2382B7" stroke-miterlimit="10" d="M887.461,501.598c0,0-6.679-3.077-8.362-5.637s-4.42-5.805-4.42-5.805
	s-15.215-4.562-19.712-4.874c-4.497-0.312-13.379-8.995-13.991-7.364c-0.61,1.633-11.512,11.738-11.512,11.738l-4.256,12.314
	L887.461,501.598z"/>
<path fill="none" stroke="#2382B7" stroke-miterlimit="10" d="M842.617,384.438c15.616-2.415,12.783-5.759-1.556-4.042
	c-16.464,1.973-19.766,9.214-19.766,27.143c0,17.93,2.402,17.93,1.802,22.756c-0.601,4.828-4.205,4.312-4.205,4.312
	s-0.423-30.521,0-50.858c0.3-14.48,12.413-19.933,24.926-21.379c10.158-1.17,11.712-2.067,2.402-2.067c-9.311,0-9.311,0-9.311,0
	s-4.75-11.776,6.663-11.776c11.412,0,3.848-3.739-1.858-3.739s-12.312,0.344-12.312,15.171c0,0-10.211,0-12.913,7.586
	c0,0,0-17.24,0-30.342c0-13.104,6.907-22.411,12.613-15.859c5.704,6.548-5.106,16.548-5.106,16.548s16.819-8.782,6.608-18.698
	c-10.21-9.92-17.419,2.15-17.719,13.872c0,0-2.402-41.375-3.904-43.789c-1.502-2.413-1.801,3.448-2.102,19.997
	c0,0-6.007,0-10.212-1.033c-4.203-1.035,2.704,6.207,9.61,7.585l-1.2,31.378c0,0-13.514,1.378-17.117-10.689
	c-3.604-12.068,0-27.24,0-27.24s-9.61,12.757-3.905,28.274c0,0-5.105,3.447-7.508,2.414c-2.401-1.035-2.401,6.896,8.408,1.38
	c0,0,6.309,14.825,18.922,16.203c0,0-0.366,15.507-0.694,29.599c-1.917-0.689-5.809-5.825-5.976-4.334
	c-0.176,1.565,4.046,7.081,5.906,7.325c-0.238,10.249-0.44,19.05-0.44,19.477c0,1.032-15.313,1.722-21.021-5.864
	c-5.705-7.584-9.909-26.547-4.805-42.064c3.714-11.288-0.255-6.208-2.83,0c-2.574,6.206-8.883,34.48,1.63,49.996
	c2.771,4.089,5.638,7.359,8.406,9.97c-1.774,0.729-3.401,1.188-4.504,1.188c-4.805,0-6.656-3.566-7.173-2.02
	c-0.52,1.545,1.769,7.067,10.477,8.103c3.419,0.405,6.579-0.327,9.02-1.253c5.422,3.307,9.299,4.01,9.299,4.01
	s0.301,27.24-0.3,34.48c0,0-4.479-0.963-8.85-3.001c-0.772-4.465-0.738-10.895-2.071-11.136c-1.329-0.24-0.809,6.023-0.369,9.861
	c-1.148-0.674-2.221-1.432-3.124-2.275c-4.806-4.484-6.908-1.033,2.102,8.275c9.009,9.311,11.112,8.964,11.112,8.964l-1.804,31.032
	h25.228c0-7.587,0-43.788,0-51.376c0-7.585,11.111-16.55,11.111-27.236c0-10.69,6.007-21.724,11.41-27.931
	c5.406-6.206,2.104-6.896-2.102-2.067c-4.204,4.827-4.204,4.827-4.204,4.827s-0.814-2.381-3.545-5.517
	c-2.732-3.139-4.412,0.861-2.461,3.103c1.952,2.24,2.461,4.483,2.461,4.483s-4.264,7.583-4.562,15.17c0,0-3.737-5.172-3.605-15.517
	C827.698,398.314,826.546,386.923,842.617,384.438z M782.756,413.938c0,0,12.413,8.771,15.861,10.841
	C800.6,425.969,785.169,419.302,782.756,413.938z M808.209,491.997l-3.002-73.769C808.525,451.798,808.209,491.997,808.209,491.997z
	 M812.906,335.479c0,0,1.533,13.79,0,16.203S812.928,337.89,812.906,335.479z M808.961,365.13c-0.689,7.586-0.689-15.17,0-21.379
	C808.961,343.751,809.651,357.543,808.961,365.13z M813.443,433.783c-2.759-5.134,0-39.692,0-39.692
	C813.788,403.058,813.443,433.783,813.443,433.783z M820.956,450.553c-1.657,4.146-5.803,19.48-4.973,31.083
	c0,0-4.688-21.21,11.189-48.073C827.173,433.562,822.615,446.409,820.956,450.553z M827.234,391.68
	c-1.38,3.103-1.742-2.95,7.24-7.241C834.475,384.438,828.614,388.575,827.234,391.68z"/>
<path fill="none" stroke="#2382B7" stroke-miterlimit="10" d="M922.199,370.533c-0.775,2.314,2.65,10.583,15.688,12.133
	c5.119,0.607,9.849-0.488,13.502-1.877c8.114,4.955,13.922,6.005,13.922,6.005s0.449,40.78-0.45,51.619
	c0,0-6.705-1.443-13.248-4.494c-1.156-6.684-1.106-16.31-3.099-16.67c-1.99-0.358-1.213,9.016-0.556,14.763
	c-1.718-1.01-3.323-2.144-4.678-3.404c-7.193-6.711-10.34-1.549,3.147,12.388c13.488,13.937,16.636,13.421,16.636,13.421
	l-2.698,46.458h6.793l3.1-55.234c0,0,0.516,47.49-3.1,55.234h30.973c0-11.357,0-65.556,0-76.913
	c0-11.356,16.634-24.775,16.634-40.779c0-16.003,8.992-32.521,17.084-41.812c8.093-9.289,3.147-10.322-3.147-3.095
	c-6.292,7.226-6.292,7.226-6.292,7.226s-1.221-3.563-5.31-8.26c-4.09-4.694-6.605,1.292-3.684,4.646
	c2.924,3.356,3.684,6.713,3.684,6.713s-6.381,11.354-6.83,22.71c0,0-5.595-7.743-5.396-23.227c0.146-11.23-1.58-28.287,22.48-32.005
	c23.379-3.613,19.137-8.621-2.328-6.05c-24.646,2.954-29.592,13.794-29.592,40.634c0,26.843,3.597,26.843,2.697,34.071
	c-0.898,7.226-6.296,6.451-6.296,6.451s-0.631-45.69,0-76.139c0.451-21.677,18.585-29.84,37.315-32.002
	c15.211-1.757,17.535-3.099,3.6-3.099c-13.939,0-13.939,0-13.939,0s-7.109-17.632,9.975-17.632c17.083,0,5.763-5.597-2.781-5.597
	c-8.541,0-18.431,0.515-18.431,22.713c0,0-15.287,0-19.333,11.354c0,0,0-25.808,0-45.423c0-19.615,10.341-33.552,18.883-23.744
	c8.542,9.807-7.644,24.779-7.644,24.779s25.177-13.152,9.892-27.999c-15.286-14.847-26.077,3.22-26.527,20.771
	c0,0-3.597-61.943-5.843-65.557c-2.249-3.612-2.698,5.162-3.147,29.938c0,0-8.993,0-15.287-1.549
	c-6.294-1.547,4.047,9.292,14.388,11.357l-1.798,46.971c0,0-20.232,2.066-25.627-16.001c-5.396-18.065,0-40.778,0-40.778
	s-14.388,19.098-5.846,42.327c0,0-7.643,5.163-11.239,3.614c-3.595-1.548-3.595,10.325,12.589,2.066c0,0,9.441,22.194,28.324,24.259
	c0,0-0.546,23.215-1.037,44.312c-2.871-1.03-8.693-8.72-8.946-6.489c-0.265,2.345,6.057,10.603,8.841,10.968
	c-0.355,15.347-0.656,28.522-0.656,29.156c0,1.549-22.928,2.579-31.472-8.775c-8.542-11.357-14.834-39.745-7.192-62.976
	c5.561-16.9-0.383-9.29-4.238,0c-3.854,9.291-13.297,51.618,2.439,74.849c4.149,6.123,8.444,11.02,12.587,14.927
	c-2.658,1.09-5.093,1.773-6.742,1.773C925.748,373.558,922.975,368.22,922.199,370.533z M1004.325,326.918
	c-2.065,4.645-2.608-4.416,10.841-10.841C1015.166,316.077,1006.391,322.271,1004.325,326.918z M996.583,406.925
	c-2.066,5.164-7.228,24.262-6.195,38.715c0,0-5.841-26.419,13.938-59.876C1004.325,385.764,998.646,401.764,996.583,406.925z
	 M989.584,463.19c2.154-10.1,0,26.326,0,26.326S988.262,469.386,989.584,463.19z M982.876,267.038
	c-2.295,3.614,0.029-20.644,0-24.259C982.876,242.779,985.169,263.426,982.876,267.038z M983.678,330.53
	c0.517,13.424,0,59.422,0,59.422C979.55,382.27,983.678,330.53,983.678,330.53z M976.968,366.663
	c4.129,41.813,3.736,91.883,3.736,91.883L976.968,366.663z M976.968,255.167c0,0,1.032,20.646,0,32.004
	C975.935,298.528,975.935,264.459,976.968,255.167z M937.736,360.241c0,0,18.584,13.134,23.744,16.23
	C964.452,378.253,941.351,368.273,937.736,360.241z"/>
<polygon fill="none" stroke="#2382B7" stroke-miterlimit="10" points="1165.64,502 1142.385,487.419 1142.385,475.708 
	1122.037,467.398 1122.037,463.998 1113.318,453.311 1103.144,453.311 1083.144,501 "/>
<path fill="none" stroke="#2382B7" stroke-miterlimit="10" d="M1029.032,504.478c0,0,9.351-6.626,11.71-12.14
	c2.357-5.51,6.189-12.496,6.189-12.496s21.303-9.827,27.603-10.501c6.296-0.674,18.733-19.374,19.591-15.859
	c0.854,3.513,16.117,25.278,16.117,25.278l5.961,26.525L1029.032,504.478z"/>
<g>
	<path fill="#A79484" d="M585.869,473.623c0,0,3.02-2.405,1.766-5.016s-6.146-3.264-7.309,0.282
		c-1.162,3.545,0.743,5.093,0.743,5.093s-1.601,1.329-3.253,3.195c-1.05,1.184-3.111,4.768-2.166,6.9
		c0.829,1.875,1.803,0.014,3.962-3.849c0.575-1.028,1.464-1.622,1.464-1.622s0.35,3.366-0.49,6.329
		c-0.842,2.965-2.09,8.031-0.951,11.836c1.137,3.804,2.973,2.121,3.159-0.487c0.188-2.606,1.249-7.671,1.342-8.068
		s0.692,4.51,1.618,6.567c1.893,4.205,5.797,4.51,4.528,1.112c-1.268-3.398-1.854-5.657-1.983-7.583
		c-0.131-1.924-1.828-7.984,0.788-10.978c1.13-1.293,4.892-1.82,5.447-10.14c0.196-2.956-2.327-0.441-3.569,2.659
		C589.529,473.438,588.014,473.574,585.869,473.623z"/>
	<path fill="#25222D" d="M587.777,484.445c0,0,1.428,5.582,1.311,6.547c-0.115,0.963,1.588,3.643,1.588,3.643
		s-1.887,3.811-3.82,2.656c0,0-2.988-4.558-2.72-9.074l-0.753,8.824c0,0-3.334,0.979-4.451-0.319c0,0-0.247-7.341,1.402-10.872
		L587.777,484.445z"/>
	<path fill="#2B4740" d="M591.408,468.878c0,0,2.551,2.503,3.354,2.561c0,0-2.044,3.886-4.633,5.08
		c-2.178,1.004-1.75,3.775-1.756,5.974c-0.008,2.198-0.008,2.198-0.008,2.198s-4.602,4.148-8.031,1.159c0,0,0.729-6.551,0.742-7.242
		l-2.066,4.402c0,0-1.891-0.347-2.523-1.372c-0.632-1.024-0.89-1.595-0.89-1.595s3.201-5.315,5.473-6.061
		c0,0-0.433,3.57,2.499,3.104c3.497-0.555,2.861-3.481,2.861-3.481S588.424,473.806,591.408,468.878z"/>
	<path fill="#2E2C33" d="M591.625,471.637c-0.678-0.56-0.848-1.927-0.541-2.889c0.308-0.963-0.25-6.793,0.725-8.014
		c0.976-1.222,0.911-1.469,1.589-1.064c0.679,0.402-0.558,8.56-0.373,8.735C593.208,468.582,592.669,472.502,591.625,471.637z"/>
	<path fill="#A79484" d="M595.154,465.957c-0.866-1.117-2.741-1.442-3.297,0.132c-0.556,1.573-0.166,2.997,1.169,2.906
		C594.362,468.903,596.262,467.384,595.154,465.957z"/>
	<path fill="#FAAF40" d="M593.903,460.052c0,0,5.749-3.65,1.847-7.391c-3.904-3.74-5.368-4.861-2.925-8.284
		c0,0-3.604,1.979-2.591,5.02c0,0-3.049-1.676-3.395-5.049c-0.347-3.374-3.71-6.58-6.184-6.688c0,0,3.896,2.603,3.861,5.491
		s-0.176,4.648-0.176,4.648s-1.924-0.255-3.015-3.046c0,0,0.347,7.937,5.372,9.462c5.028,1.524,0.026,7.927-2.842,2.949
		c0,0,0.445,7.875,7.602,5.097C591.459,462.261,589.402,459.275,593.903,460.052z"/>
	<path fill="#2E2C33" d="M586.607,472.9c0,0-2.902-2.138-6.576-2.813c0,0-0.272,2.13,0.383,3.013c0,0-1.357-0.571-2.074,0.99
		s-2.881,0.801-3.554,0.349c0,0,2.495,0.341,3.062-1.917c0.564-2.257,0.564-2.257,0.564-2.257s-1.465-0.663-1.643,0.41
		c-0.178,1.071-1.704-0.124-1.704-0.124s1.635-0.208,1.346-1.843c-0.29-1.633,2.477-2.241,2.477-2.241s-1.962-0.674-2.185-1.834
		c0,0,1.332,1.067,2.766,0.768c1.432-0.302,3.703-1.045,5.566-0.307C586.897,465.833,590.965,469.855,586.607,472.9z"/>
</g>
<path fill="none" stroke="#2382B7" stroke-miterlimit="10" d="M62.717,505.937c0,0-1.174-12.595-5.867-11.709
	c-4.694,0.877-15.143-17.58-15.143-17.58l-14.191,6.271L15.02,494.228L0,505.203L62.717,505.937z"/>
<circle fill="none" stroke="#2382B7" stroke-miterlimit="10" cx="159" cy="39" r="37"/>
<circle fill="none" stroke="#2382B7" stroke-miterlimit="10" cx="178" cy="45" r="10"/>
<circle fill="none" stroke="#2382B7" stroke-miterlimit="10" cx="147" cy="54" r="7"/>
<circle fill="none" stroke="#2382B7" stroke-miterlimit="10" cx="155" cy="17" r="6"/>
<circle fill="none" stroke="#2382B7" stroke-miterlimit="10" cx="138" cy="31" r="3.5"/>
</svg>
