<?xml version="1.0" encoding="utf-8"?>
<!-- Generator: Adobe Illustrator 16.0.0, SVG Export Plug-In . SVG Version: 6.00 Build 0)  -->
<!DOCTYPE svg PUBLIC "-//W3C//DTD SVG 1.1//EN" "http://www.w3.org/Graphics/SVG/1.1/DTD/svg11.dtd">
<svg version="1.1" id="Layer_1" xmlns="http://www.w3.org/2000/svg" xmlns:xlink="http://www.w3.org/1999/xlink" x="0px" y="0px"
	 width="20.016px" height="37.218px" viewBox="0 0 20.016 37.218" enable-background="new 0 0 20.016 37.218" xml:space="preserve">
<g>
	<path fill="#A79484" d="M12.048,11.841c0,0,3.02-2.405,1.766-5.016S7.667,3.562,6.505,7.107C5.343,10.652,7.248,12.2,7.248,12.2
		s-1.6,1.329-3.252,3.195c-1.051,1.184-3.111,4.768-2.166,6.9c0.828,1.875,1.803,0.014,3.961-3.849
		c0.576-1.028,1.465-1.622,1.465-1.622s0.35,3.366-0.49,6.329c-0.842,2.965-2.09,8.031-0.951,11.836
		c1.137,3.804,2.973,2.121,3.158-0.487c0.188-2.606,1.25-7.671,1.342-8.068c0.094-0.397,0.693,4.51,1.619,6.567
		c1.893,4.205,5.797,4.51,4.527,1.112c-1.268-3.398-1.854-5.657-1.982-7.583c-0.131-1.924-2.415-8.653,0.201-11.646
		c1.131-1.293,1.5,11.167,4.666,8.333c1.32-1.182-1.01-5.493-3.334-8.333C14.511,13.052,13.345,13.052,12.048,11.841z"/>
	<path fill="#25222D" d="M13.957,22.663c0,0,1.428,5.582,1.311,6.547c-0.115,0.963,1.588,3.643,1.588,3.643s-1.887,3.811-3.82,2.656
		c0,0-2.988-4.558-2.721-9.074l-0.752,8.824c0,0-3.334,0.979-4.451-0.319c0,0-0.248-7.341,1.402-10.872L13.957,22.663z"/>
	<path fill="#2B4740" d="M19.845,22.052c0,0-3.969,0.442-3.166,0.5c0,0-2.262-5.175-2.334-4.834c0,0,0,2.167,0.207,2.992
		c0.537,2.132-0.008,2.198-0.008,2.198s-4.602,4.148-8.031,1.159c0,0-0.271-4.551-0.258-5.242l-1.066,2.402
		c0,0-1.891-0.347-2.523-1.372c-0.633-1.024-0.891-1.595-0.891-1.595s3.201-5.315,5.473-6.061c0,0-0.432,3.57,2.5,3.104
		c3.496-0.555,2.861-3.481,2.861-3.481S19.555,14.387,19.845,22.052z"/>
	<path fill="#2E2C33" d="M11.857,12.792c0,0-1.772-3.139-4.847-5.26c0,0-0.806,2.022-0.568,3.097c0,0-1.321-1.269-2.614-0.138
		c-1.293,1.131-2.956-0.45-3.386-1.138c0,0,2.138,1.333,3.579-0.494c1.44-1.828,1.44-1.828,1.44-1.828S4.396,5.826,3.794,6.732
		C3.193,7.638,2.29,5.921,2.29,5.921s1.576,0.48,1.982-1.13c0.405-1.608,3.178-1.03,3.178-1.03S5.937,2.343,6.208,1.193
		c0,0,0.778,1.52,2.208,1.833c1.43,0.312,3.806,0.563,5.204,2.001C15.015,6.464,17.08,11.799,11.857,12.792z"/>
</g>
</svg>
