<?xml version="1.0" encoding="utf-8"?>
<!-- Generator: Adobe Illustrator 16.0.0, SVG Export Plug-In . SVG Version: 6.00 Build 0)  -->
<!DOCTYPE svg PUBLIC "-//W3C//DTD SVG 1.1//EN" "http://www.w3.org/Graphics/SVG/1.1/DTD/svg11.dtd">
<svg version="1.1" id="Layer_1" xmlns="http://www.w3.org/2000/svg" xmlns:xlink="http://www.w3.org/1999/xlink" x="0px" y="0px"
	 width="156px" height="155px" viewBox="0 0 156 155" enable-background="new 0 0 156 155" xml:space="preserve">
<rect fill="#F1F1F2" width="156" height="155"/>
<g>
	<path fill="#FF80AA" d="M78.001,121.267v-79.6c0,0,9.494-6.633,28.481-6.123c18.988,0.509,24.791,4.846,24.791,4.846v81.134
		c0,0-11.341-5.104-27.426-5.104C87.76,116.419,78.001,121.267,78.001,121.267z"/>
	<path fill="#E16081" d="M78.658,121.267v-79.6c0,0-9.494-6.633-28.482-6.123c-18.987,0.509-24.79,4.846-24.79,4.846v81.134
		c0,0,11.341-5.104,27.428-5.104S78.658,121.267,78.658,121.267z"/>
	<path fill="#FFFFFF" d="M78.05,112.613V37.079c0,0,8.104-6.296,24.312-5.812c16.207,0.485,21.158,4.6,21.158,4.6v74.573
		c0,0-9.68-2.426-23.409-2.426C86.378,108.014,78.05,112.613,78.05,112.613z"/>
	<path fill="#E6E7E8" d="M78.612,112.613V37.079c0,0-8.105-6.296-24.312-5.812c-16.208,0.485-21.16,4.6-21.16,4.6v74.573
		c0,0,9.68-2.426,23.411-2.426C70.283,108.014,78.612,112.613,78.612,112.613z"/>
</g>
<g>
	<path fill="#00843C" d="M79.058,57.93c0,0-2.44-11.555,9.661-15.476C88.719,42.454,91.822,57.304,79.058,57.93z"/>
	<path fill="#47281D" d="M78.796,58.084c0,0,1.248-11.77-3.726-13.593c-4.973-1.823-8.515-0.018-4.396,2.398
		c4.12,2.417,5.999,4.558,5.404,11.426L78.796,58.084z"/>
	<g>
		<path fill="#00A651" d="M99.415,57.105c-6.774-9.645-13.55,0.386-19.042-0.385c-0.433-0.061-0.88-0.152-1.342-0.261v40.959
			c1.964,0.107,3.741,1.714,10.68-0.96C97.219,93.564,106.188,66.75,99.415,57.105z"/>
		<path fill="#00843C" d="M57.298,58.456c-8.875,7.909,1.35,30.671,6.944,36.266c5.594,5.595,9.084,3.133,14.275,2.701
			c0.175-0.015,0.346-0.013,0.515-0.005V56.458C73.321,55.18,65.475,51.168,57.298,58.456z"/>
	</g>
</g>
</svg>
