<?xml version="1.0" encoding="utf-8"?>
<!-- Generator: Adobe Illustrator 16.0.0, SVG Export Plug-In . SVG Version: 6.00 Build 0)  -->
<!DOCTYPE svg PUBLIC "-//W3C//DTD SVG 1.1//EN" "http://www.w3.org/Graphics/SVG/1.1/DTD/svg11.dtd">
<svg version="1.1" id="Layer_1" xmlns="http://www.w3.org/2000/svg" xmlns:xlink="http://www.w3.org/1999/xlink" x="0px" y="0px"
	 width="156px" height="155px" viewBox="0 0 156 155" enable-background="new 0 0 156 155" xml:space="preserve">
<rect fill="#F4F4F4" width="156" height="155"/>
<g>
	<path fill="#FF80AA" d="M78.001,121.268V41.667c0,0,9.494-6.633,28.481-6.123c18.988,0.509,24.791,4.846,24.791,4.846v81.133
		c0,0-11.342-5.104-27.426-5.104C87.76,116.419,78.001,121.268,78.001,121.268z"/>
	<path fill="#E16081" d="M78.658,121.268V41.667c0,0-9.494-6.633-28.482-6.123c-18.987,0.509-24.79,4.846-24.79,4.846v81.133
		c0,0,11.341-5.104,27.428-5.104S78.658,121.268,78.658,121.268z"/>
	<path fill="#FFFFFF" d="M78.05,112.613V37.079c0,0,8.104-6.296,24.312-5.812c16.207,0.485,21.158,4.6,21.158,4.6v74.572
		c0,0-9.68-2.426-23.408-2.426C86.378,108.014,78.05,112.613,78.05,112.613z"/>
	<path fill="#E6E7E8" d="M78.611,112.613V37.079c0,0-8.104-6.296-24.312-5.812c-16.208,0.485-21.16,4.6-21.16,4.6v74.572
		c0,0,9.68-2.426,23.411-2.426C70.283,108.014,78.611,112.613,78.611,112.613z"/>
</g>
</svg>
