<?xml version="1.0" encoding="utf-8"?>
<!-- Generator: Adobe Illustrator 16.0.0, SVG Export Plug-In . SVG Version: 6.00 Build 0)  -->
<!DOCTYPE svg PUBLIC "-//W3C//DTD SVG 1.1//EN" "http://www.w3.org/Graphics/SVG/1.1/DTD/svg11.dtd">
<svg version="1.1" id="Layer_1" xmlns="http://www.w3.org/2000/svg" xmlns:xlink="http://www.w3.org/1999/xlink" x="0px" y="0px"
	 width="156px" height="155px" viewBox="0 0 156 155" enable-background="new 0 0 156 155" xml:space="preserve">
<rect fill="#F1F1F2" width="156" height="155"/>
<path fill="#FF80AA" d="M78.047,116.051V47.396c0,0,8.188-5.721,24.564-5.281c16.377,0.439,21.382,4.18,21.382,4.18v69.977
	c0,0-9.781-4.401-23.655-4.401C86.463,111.87,78.047,116.051,78.047,116.051z"/>
<path fill="#E16081" d="M78.613,116.051V47.396c0,0-8.188-5.721-24.565-5.281c-16.377,0.439-21.381,4.18-21.381,4.18v69.977
	c0,0,9.781-4.401,23.656-4.401S78.613,116.051,78.613,116.051z"/>
<path fill="#FFFFFF" d="M78.088,108.586V43.439c0,0,6.99-5.43,20.969-5.012c13.979,0.418,18.25,3.967,18.25,3.967v64.318
	c0,0-8.351-2.092-20.191-2.092C85.271,104.62,78.088,108.586,78.088,108.586z"/>
<path fill="#E6E7E8" d="M78.573,108.586V43.439c0,0-6.99-5.43-20.968-5.012c-13.979,0.418-18.25,3.967-18.25,3.967v64.318
	c0,0,8.349-2.092,20.192-2.092C71.389,104.62,78.573,108.586,78.573,108.586z"/>
<polygon fill="#FF80AA" points="89.667,38.121 89.667,80.271 94.333,77.082 99.133,80.54 99.133,37.586 "/>
</svg>
