<?xml version="1.0" encoding="utf-8"?>
<!-- Generator: Adobe Illustrator 16.0.0, SVG Export Plug-In . SVG Version: 6.00 Build 0)  -->
<!DOCTYPE svg PUBLIC "-//W3C//DTD SVG 1.1//EN" "http://www.w3.org/Graphics/SVG/1.1/DTD/svg11.dtd">
<svg version="1.1" id="Layer_1" xmlns="http://www.w3.org/2000/svg" xmlns:xlink="http://www.w3.org/1999/xlink" x="0px" y="0px"
	 width="156px" height="155px" viewBox="0 0 156 155" enable-background="new 0 0 156 155" xml:space="preserve">
<polygon fill="#FEBE10" points="78.719,45.712 90.819,70.232 117.874,74.159 98.296,93.248 102.918,120.193 78.719,107.471 
	54.519,120.193 59.141,93.248 39.56,74.159 66.617,70.232 "/>
<polygon fill="#BFBFBF" points="120.198,88.629 123.564,95.445 131.086,96.537 125.644,101.846 126.926,109.337 120.198,105.8 
	113.471,109.337 114.757,101.846 109.312,96.537 116.833,95.445 "/>
<polygon fill="#BFBFBF" points="144.054,88.629 147.416,95.445 154.941,96.537 149.495,101.846 150.781,109.337 144.054,105.8 
	137.324,109.337 138.608,101.846 133.166,96.537 140.688,95.445 "/>
<polygon fill="#FEBE10" points="12.471,88.629 15.836,95.445 23.357,96.537 17.916,101.846 19.199,109.337 12.471,105.8 
	5.743,109.337 7.028,101.846 1.584,96.537 9.106,95.445 "/>
<polygon fill="#FEBE10" points="36.326,88.629 39.69,95.445 47.213,96.537 41.768,101.846 43.054,109.337 36.326,105.8 
	29.597,109.337 30.881,101.846 25.438,96.537 32.96,95.445 "/>
</svg>
