<?xml version="1.0" encoding="utf-8"?>
<!-- Generator: Adobe Illustrator 16.0.0, SVG Export Plug-In . SVG Version: 6.00 Build 0)  -->
<!DOCTYPE svg PUBLIC "-//W3C//DTD SVG 1.1//EN" "http://www.w3.org/Graphics/SVG/1.1/DTD/svg11.dtd">
<svg version="1.1" id="Layer_1" xmlns="http://www.w3.org/2000/svg" xmlns:xlink="http://www.w3.org/1999/xlink" x="0px" y="0px"
	 width="355.527px" height="108px" viewBox="0 23.113 355.527 108" enable-background="new 0 23.113 355.527 108"
	 xml:space="preserve">
<g>
	<path fill="#1FCCBA" d="M69.36,59.137l-0.174,0.758l-0.176,0.524l-0.349,0.935l-0.817,1.575l-0.409,0.876l-1.05,3.267l-0.408,0.875
		l-1.518,3.092l-0.408,0.875L63,75.124l-0.35,0.933l-1.226,3.151l-0.35,0.934l-1.283,3.151l-0.41,0.876l-1.576,3.091l-0.409,0.876
		l-1.283,3.151l-0.351,0.933l-1.4,3.033l-0.351,0.935l-1.341,3.15l-0.233,0.642l-0.351,0.232l-0.7,0.059l-4.259-0.059l-0.933,0.059
		l-3.267,0.293l-0.993,0.06l-0.758-0.117l-0.409-0.408l-0.35-0.701l-1.284-3.095l-0.349-0.874l-1.518-3.208l-0.35-0.877
		l-1.283-3.091l-0.35-0.933l-1.05-3.209l-0.349-0.932l-1.401-3.093l-0.35-0.875l-1.517-3.209l-0.35-0.874l-1.167-3.15l-0.409-0.934
		l-1.4-3.035l-0.35-0.933l-1.05-3.267l-0.35-0.876l-1.051-1.692l-0.35-0.875l-0.175-0.524l-0.116-0.758l0.175-0.526l0.41-0.35
		l0.641-0.175l0.35-0.058h0.875l2.624,0.174l2.8-0.058l3.735,0.233l0.758,0.058l0.468,0.117l0.35,0.466l0.232,0.584l0.234,0.816
		l0.583,1.926l0.292,0.933l1.4,3.034l0.35,0.934l1.167,3.092l0.35,0.933l1.167,3.676l0.35,0.934l1.284,3.617l1.458,4.667
		l0.292,0.642l0.408,0.234l0.525-0.234l0.35-0.642l1.401-3.617l0.291-0.934l0.933-3.793l0.292-0.933l1.635-3.501l0.292-0.934
		l0.992-3.208l0.291-0.876l1.458-3.093l0.292-0.875l0.582-2.158l0.35-0.992l0.467-0.758l0.409-0.234l0.701-0.116h0.408l0.934-0.059
		l1.458,0.117H64.4l2.685-0.174l1.05,0.116l0.701,0.174l0.35,0.35L69.36,59.137z"/>
	<path fill="#1FCCBA" d="M105.943,94.785l-0.058,0.934l-0.232,3.151l-0.06,0.585l-0.233,0.407l-0.292,0.233l-7.643,0.232h-0.934
		l-3.092-0.232l-0.934,0.059l-3.034,0.232l-0.933,0.06h-4.027l-3.034-0.234h-0.934l-5.018,0.293l-1.984-0.116l-0.701-0.117
		l-0.408-0.291l-0.174-0.408l-0.117-0.642l-0.116-1.343l-0.059-0.934l0.059-0.876v-0.875l0.233-3.093v-0.933l0.057-3.092
		l-0.057-0.934l-0.175-3.092l-0.059-0.935l0.116-3.151v-4.958l0.233-3.093l-0.059-0.934l-0.174-3.092l-0.058-0.934v-1.4l0.116-1.75
		v-0.876l0.174-3.034l0.059-0.817l0.175-0.467l0.292-0.233l0.466-0.059l0.759-0.117l3.793,0.234l3.559-0.058h0.934l3.5,0.233h0.933
		l3.5-0.233h0.934l7.935,0.116l0.992-0.058l1.983-0.174h1.458l0.817,0.174l0.35,0.292l0.116,0.408l0.116,0.759v1.575l-0.116,1.458
		v0.992l0.058,1.458l0.058,0.876l-0.058,0.875l-0.116,0.7l-0.233,0.409l-0.292,0.233l-0.7,0.116h-0.466l-0.934,0.058l-5.485-0.117
		H95.79l-2.975,0.117h-0.934l-3.034-0.117l-2.626-0.175h-0.875l-0.467,0.059l-0.583,0.116l-0.292,0.292l-0.059,0.35l-0.116,0.641
		l-0.117,1.4v0.934l0.058,0.991l0.059,0.643l0.116,0.408l0.234,0.292l0.642,0.175l1.867,0.118l1.868-0.118h5.543l6.535-0.349
		l1.808,0.116l0.643,0.116l0.349,0.292l0.175,0.35l0.059,0.642l0.117,0.992l0.058,0.992v1.926l0.116,1.341l-0.116,1.75l-0.117,0.701
		l-0.233,0.407l-0.408,0.292l-0.584,0.116h-1.167l-2.625-0.291l-0.934-0.058l-4.667,0.291l-3.734-0.117h-0.934l-2.334-0.174
		l-0.992,0.058l-0.7,0.058L84.12,83.99l-0.175,0.409l-0.059,0.876l-0.174,1.458l-0.059,0.934v1.284l0.059,0.584l0.174,0.407
		l0.234,0.234l0.642,0.058l3.209,0.116h0.934l3.15-0.233l4.143,0.233h0.934l4.142-0.233h0.875l0.876,0.06l2.1,0.233l0.35,0.176
		l0.234,0.35l0.057,0.642L105.943,94.785z"/>
	<path fill="#1FCCBA" d="M149.584,76.348l0.059,0.992l-0.233,3.792v5.485l-0.117,2.451v3.441l-0.058,0.642l-0.35,0.585l-0.466,0.758
		l-0.525,0.76l-0.991,0.992l-0.7,0.64l-0.349,0.351l-0.759,0.525l-0.409,0.233l-0.758,0.468l-1.167,0.583l-0.876,0.35l-0.816,0.292
		l-1.343,0.409l-0.875,0.232l-0.933,0.176l-0.876,0.175l-1.342,0.175l-0.817,0.118l-0.876,0.176l-2.333,0.289l-0.875,0.061
		l-1.809-0.118l-1.343-0.117l-0.933-0.114l-0.934-0.176l-0.875-0.232l-2.042-0.584l-0.875-0.232l-0.876-0.292l-1.167-0.408
		l-0.758-0.409l-1.167-0.641l-0.7-0.526l-0.758-0.525l-0.7-0.583l-0.7-0.525l-0.642-0.585l-0.934-0.933l-0.583-0.698l-0.643-0.878
		l-0.524-0.817l-1.458-2.624l-0.408-0.934l-0.408-0.875l-0.292-0.934l-0.291-0.991l-0.176-0.934l-0.174-0.992l-0.117-0.934
		l-0.233-1.284l-0.116-0.934l-0.058-0.875v-0.875l0.174-2.626l0.116-0.467l0.176-0.992l0.232-0.993l0.292-0.933l0.291-0.992
		l0.292-0.935l0.292-0.875l0.408-0.933l0.41-0.992l0.408-0.817l0.758-1.05l0.525-0.701l0.641-0.758l0.643-0.701l0.699-0.641
		l1.517-1.284l0.759-0.583l0.7-0.525l0.7-0.466l1.925-1.109l0.875-0.525l0.992-0.41l0.992-0.292l0.933-0.232l2.159-0.35l1.692-0.233
		l0.875-0.175l0.875-0.117l1.341-0.116l0.934-0.058l1.284,0.116l0.875,0.059l1.342,0.176l0.816,0.174l1.284,0.234l0.875,0.233
		l1.284,0.408l0.875,0.292l2.101,1.05l0.875,0.524l0.758,0.525l0.292,0.175l0.642,0.409l0.641,0.467l0.292,0.292l0.641,0.467
		l0.351,0.292l0.35,0.408v0.408l-0.174,0.408l-0.351,0.526l-0.524,0.759l-0.584,0.641l-1.634,1.634l-1.05,0.934l-0.7,0.584
		l-0.641,0.467l-0.468,0.35l-0.35,0.234l-0.468,0.058l-0.641-0.409l-0.758-0.524l-0.76-0.467l-0.816-0.467l-0.934-0.409l-0.934-0.35
		l-0.992-0.233l-0.992-0.175l-2.742-0.174h-0.408l-0.934,0.058l-1.517,0.116l-0.934,0.234l-1.75,0.816l-0.759,0.524l-0.759,0.584
		l-0.641,0.641l-0.584,0.759l-0.524,0.759l-0.467,0.817l-0.35,0.875l-0.292,0.934l-0.233,0.876l-0.35,1.75l-0.175,0.934
		l-0.059,0.992v0.991l0.118,1.4l0.175,0.934l0.292,1.341l0.292,0.935l0.584,1.4l0.408,0.815l0.7,1.051l0.583,0.699l1.051,0.991
		l0.759,0.583l1.167,0.644l0.875,0.349l1.75,0.408l0.992,0.117l0.992,0.059h0.934l0.934-0.116l0.875-0.176l3.149-0.76l0.934-0.349
		l0.875-0.408l0.584-0.408l0.174-0.35v-0.643l0.058-0.524v-0.875l-0.116-1.75v-0.992l-0.232-0.35l-0.643-0.116h-1.399l-0.934,0.058
		l-1.343,0.176l-0.934,0.059h-1.342l-0.933-0.059l-1.984-0.35l-0.35-0.118l-0.233-0.291l-0.116-0.701l-0.059-0.467l-0.058-0.934
		l0.058-1.458l-0.117-1.75l-0.116-0.876v-1.225l0.175-0.642l0.292-0.292l0.7-0.116l1.458-0.175l0.992-0.058h2.684l3.792-0.176
		l4.667,0.292h0.933l2.392-0.292l0.934-0.058l0.466,0.058l0.875,0.176l0.409,0.233l0.117,0.35l0.174,0.816L149.584,76.348z"/>
	<path fill="#1FCCBA" d="M199.296,78.74l-0.059,0.934l-0.117,1.343l-0.115,0.875l-0.349,1.751l-0.118,1.342l-0.117,0.875
		l-0.174,0.934l-0.233,0.875l-0.584,1.224l-0.408,0.817l-1.575,2.625l-0.525,0.761l-0.584,0.758l-0.584,0.642l-0.934,0.992
		l-0.64,0.583l-0.759,0.585l-0.701,0.524l-1.049,0.702l-0.758,0.466l-0.875,0.468l-0.818,0.35l-1.167,0.468l-0.875,0.232
		l-1.868,0.584l-0.99,0.292l-0.935,0.232l-0.992,0.233l-0.992,0.174l-0.992,0.06h-3.15l-1.983-0.117l-1.926-0.232l-0.817-0.175
		l-0.875-0.233l-3.15-1.049l-0.935-0.294l-0.992-0.406l-1.866-0.817l-0.875-0.468l-0.875-0.525l-0.759-0.583l-0.759-0.644
		l-0.7-0.757l-0.642-0.759l-1.576-1.575l-0.583-0.702l-0.583-0.76l-0.467-0.756l-0.467-1.168l-0.875-2.625l-0.35-1.227l-0.175-0.875
		l-0.176-0.934l-0.174-0.875l-0.175-1.283l-0.059-0.875l-0.058-0.992V78.74l0.058-0.991l0.059-1.049l0.117-0.993l0.174-0.992
		l0.234-0.992l0.292-0.992l0.292-0.875l0.35-0.934l0.408-1.342l0.408-0.933l0.234-0.525l0.467-0.875l0.817-1.284l0.583-0.818
		l0.292-0.467l0.7-0.7l0.992-0.817l0.758-0.583l0.759-0.525l1.75-1.167l0.758-0.468l0.817-0.466l0.817-0.408l1.226-0.525
		l0.816-0.292l0.875-0.291l0.875-0.234l2.218-0.408l0.874-0.175l2.917-0.351l1.867-0.116l1.75,0.116l1.401,0.059l0.991,0.117
		l0.992,0.175l0.992,0.233l0.992,0.175l0.934,0.233l0.876,0.234l0.875,0.292l1.225,0.467l0.817,0.35l1.925,1.109l0.76,0.525
		l0.759,0.584l0.992,0.934l0.641,0.583l0.642,0.641l0.526,0.701l0.815,1.107l0.467,0.76l0.408,0.758l0.468,0.758l0.642,1.168
		l0.467,0.758l0.408,0.876l0.292,0.816l0.292,1.343l0.349,1.75l0.118,0.992l0.173,0.992L199.296,78.74z M187.043,79.732V78.74
		l-0.059-0.991l-0.058-0.934l-0.351-1.751l-0.234-0.817l-0.642-1.282l-0.467-0.759l-0.817-1.051l-0.584-0.642l-0.875-0.933
		l-0.641-0.525l-1.518-0.875l-0.818-0.35l-0.934-0.291l-0.933-0.175l-1.868-0.117l-0.874,0.058l-1.284,0.059l-0.875,0.175
		l-1.518,0.409l-0.934,0.35l-1.342,0.7l-0.816,0.524l-0.934,0.818l-0.643,0.7l-0.641,0.875l-0.467,0.758l-0.175,0.351l-0.526,1.225
		l-0.292,0.875l-0.174,0.408l-0.176,0.816l-0.116,0.818l-0.058,0.816l-0.059,0.876v0.874l0.059,0.934l0.174,0.934l0.058,0.526
		l0.234,0.875l0.116,0.409l0.292,0.818l0.234,0.466l0.467,0.817l0.292,0.468l0.643,0.816l0.35,0.409l0.7,0.699l1.168,0.992
		l0.816,0.523l0.934,0.468l0.876,0.349l1.226,0.408l0.875,0.177l1.458,0.173l0.992,0.06l1.458-0.117l0.935-0.116l1.283-0.293
		l0.818-0.348l1.282-0.818l0.701-0.524l0.934-0.933l0.583-0.642l0.759-0.934l0.525-0.816l0.584-1.284l0.349-0.875l0.292-1.342
		l0.117-0.875L187.043,79.732z"/>
	<path fill="#1FCCBA" d="M233.603,62.755l-0.059,0.874l0.059,1.751l-0.059,0.934l-0.06,0.466l-0.115,0.701l-0.176,0.408
		l-0.349,0.292l-0.701,0.116h-0.934l-1.751-0.175l-0.932-0.059l-2.684,0.175h-0.934l-1.458-0.116h-0.876l-0.408,0.059l-0.584,0.174
		l-0.232,0.35l-0.059,0.758l-0.235,3.443v0.933l0.235,3.501l-0.06,0.933l-0.234,3.501l-0.059,0.934l0.117,3.442v5.367l-0.117,3.443
		l0.059,0.876l0.294,2.627l0.059,0.933l-0.176,0.701l-0.293,0.292l-0.759,0.116l-1.107-0.059l-1.459-0.177l-0.992-0.059
		l-2.625,0.176h-0.933l-2.625-0.176l-0.702-0.057l-0.348-0.176l-0.117-0.644v-0.99l0.176-2.452l0.059-0.934v-4.376l0.059-3.501
		v-0.931l0.059-3.442v-0.934l-0.233-3.501l-0.06-0.933v-4.433l-0.116-3.443v-0.817l-0.175-0.466l-0.583-0.118h-0.875l-1.867,0.118
		h-1.051l-1.574-0.118l-0.992-0.06l-0.993,0.06l-1.342,0.059h-0.875l-0.468-0.059l-0.642-0.118l-0.35-0.233l-0.232-0.35
		l-0.117-0.584v-0.408l-0.057-0.933l0.116-1.75v-0.875l-0.175-2.218l0.059-0.933l0.174-0.759l0.232-0.409l0.35-0.175l0.584-0.117
		h1.341l2.159,0.175h0.932l3.384-0.233h0.934l3.442,0.292h0.933l4.318-0.292l3.385,0.058h0.933l4.377-0.058h4.316l1.927-0.117
		l0.992,0.059l0.466,0.058l0.7,0.116l0.409,0.233l0.292,0.409l0.116,0.7v0.408l0.058,0.876L233.603,62.755z"/>
	<path fill="#1FCCBA" d="M249.24,90.991v0.935l-0.233,3.15v0.935l-0.059,3.208v0.642l-0.177,0.294l-0.466,0.174l-0.816,0.059
		l-2.977-0.059h-3.617l-2.918-0.232l-0.349-0.117l-0.176-0.176v-0.584l-0.115-1.459v-0.933l-0.06-0.876v-0.875l-0.177-3.15
		l0.06-0.935l0.177-3.149l0.059-0.934L237.22,83.7v-0.934l-0.059-3.151v-5.018l-0.06-3.209v-0.934l0.06-3.151v-5.017l-0.117-3.208
		l0.176-0.642l0.351-0.234l0.582-0.058h0.469l0.875-0.058l1.4,0.058h0.934l2.684-0.117h3.617l0.641,0.117l0.117,0.35l0.06,0.642
		l0.116,1.518l0.059,0.933v5.717l0.059,3.151v0.934l-0.059,3.209v0.933l0.059,3.151v0.934l-0.115,3.151v5.075L249.24,90.991z"/>
	<path fill="#1FCCBA" d="M292.413,73.139l0.059,0.876l-0.059,0.875l-0.058,0.992l-0.292,1.458l-0.175,0.934l-0.469,1.168
		l-0.349,0.816l-0.583,1.108l-0.526,0.76l-0.815,1.108l-0.641,0.701l-0.76,0.7l-0.76,0.643l-0.76,0.526l-0.813,0.524l-1.286,0.583
		l-0.875,0.408l-0.992,0.409l-0.875,0.292l-1.285,0.35l-0.875,0.174l-0.875,0.117l-0.933,0.059l-1.517,0.117h-4.902l-0.992-0.059
		l-0.993,0.059l-0.991,0.116l-0.698,0.117l-0.177,0.408l-0.059,0.758l-0.232,3.91v0.932l0.058,1.75l-0.058,0.877l-0.061,1.284
		l-0.114,0.643l-0.177,0.35l-0.291,0.116l-0.643,0.115l-1.867,0.117l-2.275-0.117h-0.934l-1.867,0.117l-0.934-0.06l-1.342-0.059
		l-0.757-0.232l-0.352-0.349l-0.117-0.7l-0.116-0.877l-0.059-0.935v-6.242l0.232-3.093v-0.932l-0.232-3.094v-0.933l-0.116-7.118
		v-0.934l0.233-3.151v-0.934l-0.175-3.092v-0.934l0.231-3.093v-0.875l-0.115-1.75l0.059-0.875l0.058-0.467l0.117-0.642l0.178-0.35
		l0.29-0.292l0.641-0.059l1.691-0.116l1.344,0.058h0.875l3.908-0.058h3.91l3.908,0.233h3.852l2.217-0.117l0.817,0.059h0.466
		l0.88,0.176l1.343,0.35l0.933,0.292l0.934,0.349l0.876,0.41l0.874,0.524l0.758,0.584l1.051,0.934l0.7,0.583l0.292,0.35l1.05,1.051
		l0.584,0.758l0.292,0.351l0.406,0.7l0.235,0.35l0.35,0.758l0.292,0.875l0.231,0.816l0.06,0.408l0.233,0.817l0.116,0.467
		l0.233,0.817l0.35,1.633L292.413,73.139L292.413,73.139z M274.969,78.858l1.051-0.118l0.991-0.232l0.467-0.175l0.817-0.468
		l0.349-0.233l0.584-0.584l0.233-0.348l0.408-0.76l0.177-0.409l0.231-0.933l0.059-0.409v-1.458l-0.174-0.875l-0.175-0.468
		l-0.352-0.759l-0.232-0.349l-0.642-0.7l-0.467-0.291l-0.875-0.468l-1.518-0.408l-0.934-0.116h-1.341l-1.751,0.116l-2.566-0.175
		h-0.876l-0.468,0.059l-0.641,0.116l-0.232,0.174l-0.177,0.409l-0.115,0.7v1.342l0.176,2.158l0.058,0.934l0.059,3.384l0.059,0.7
		l0.176,0.409l0.642,0.234l3.032,0.232L274.969,78.858z"/>
	<path fill="#1FCCBA" d="M329.931,87.201l-0.06,0.992l-0.116,0.992l-0.175,0.932l-0.292,1.285l-0.293,0.817l-0.523,1.168
		l-0.409,0.759l-0.699,1.05l-0.586,0.699l-0.698,0.701l-0.7,0.641l-1.167,0.76l-0.76,0.525l-0.875,0.467l-0.816,0.408l-1.344,0.468
		l-1.748,0.584l-0.934,0.176l-1.458,0.232l-0.875,0.116l-1.285,0.117l-0.815,0.059l-1.343,0.058l-2.799,0.176h-1.284l-0.817-0.06
		l-1.342-0.116l-0.874-0.116l-0.992-0.175l-0.876-0.291l-1.284-0.409l-0.818-0.409l-0.875-0.408l-0.815-0.407l-0.759-0.469
		l-1.869-1.283l-0.698-0.584l-1.051-0.816l-0.698-0.584l-0.644-0.642l-0.466-0.525l-0.06-0.408l0.293-0.525l0.232-0.291l0.584-0.642
		l1.632-1.518l0.526-0.64l0.991-1.518l0.525-0.641l0.583-0.642l0.643-0.35l0.641,0.116l0.642,0.467l1.868,1.284l0.875,0.467
		l0.816,0.409l1.341,0.641l0.875,0.293l0.935,0.291l0.933,0.175l1.342,0.058l0.935,0.06l3.675-0.233l0.935-0.116l0.466-0.118
		l0.875-0.351l0.76-0.466l0.585-0.583l0.29-0.409l0.35-0.874l-0.059-0.993l-0.117-0.467l-0.466-0.817l-0.292-0.35l-0.761-0.584
		l-0.466-0.174l-0.875-0.35l-0.993-0.234l-0.992-0.176l-5.541-0.524l-1.75-0.351l-0.934-0.233l-1.284-0.466l-0.874-0.292
		l-0.877-0.409l-1.983-0.992l-0.759-0.526l-0.877-0.524l-0.759-0.526l-0.992-0.816l-0.524-0.758l-0.524-0.876l-0.35-0.875
		l-0.407-1.225l-0.175-0.876l-0.177-1.284l-0.117-1.866l0.06-0.934l0.116-1.399l0.175-0.875l0.233-0.759l0.292-0.875l0.584-1.284
		l0.408-0.816l0.468-0.701l0.582-0.642l0.933-0.875l0.761-0.583l0.758-0.526l0.817-0.408l1.107-0.642l1.751-0.701l0.881-0.295
		l1.341-0.234l0.933-0.176l1.751-0.232l1.283-0.234l0.934-0.116l0.875-0.059h0.936l1.749,0.175l0.874,0.118l0.408,0.116l0.935,0.117
		l1.983,0.35l0.992,0.232l0.935,0.292l0.992,0.292l0.932,0.35l0.877,0.408l0.874,0.351l1.108,0.641l0.818,0.409l0.758,0.524
		l0.523,0.526v0.583l-0.349,0.641l-0.643,1.168l-0.466,0.699l-2.217,2.917l-0.642,0.818l-0.699,0.583l-0.468,0.175l-0.408-0.059
		l-0.584-0.291l-0.876-0.526l-0.875-0.35l-0.408-0.175l-0.876-0.292l-0.467-0.117l-0.992-0.233l-1.342-0.292l-0.933-0.058
		l-1.516-0.118h-1.518l-0.993,0.059l-0.992,0.174l-0.932,0.292l-0.353,0.175l-0.699,0.526l-0.292,0.35l-0.407,0.816l-0.115,0.934
		l0.175,0.758l0.465,0.759l0.643,0.583l0.701,0.35l0.408,0.176l0.875,0.174l1.459,0.175l1.983,0.118l0.992,0.174l1.983,0.467
		l1.866,0.584l1.343,0.291l0.874,0.234l1.636,0.583l1.165,0.524l0.819,0.409l0.815,0.467l0.759,0.467l1.692,1.4l0.643,0.7l0.583,0.7
		l0.699,1.05l0.467,0.758l0.41,0.876l0.232,0.875l0.231,1.284l0.118,0.874L329.931,87.201z"/>
</g>
</svg>
