<?xml version="1.0" encoding="utf-8"?>
<!-- Generator: Adobe Illustrator 16.0.0, SVG Export Plug-In . SVG Version: 6.00 Build 0)  -->
<!DOCTYPE svg PUBLIC "-//W3C//DTD SVG 1.1//EN" "http://www.w3.org/Graphics/SVG/1.1/DTD/svg11.dtd">
<svg version="1.1" id="Layer_1" xmlns="http://www.w3.org/2000/svg" xmlns:xlink="http://www.w3.org/1999/xlink" x="0px" y="0px"
	 width="357.578px" height="85px" viewBox="0 -12.684 357.578 85" enable-background="new 0 -12.684 357.578 85"
	 xml:space="preserve">
<g>
	<g>
		<path fill="#1E1E1E" d="M109.546,14.376h10.887l-19.063,38.441H89.903L87.17,14.376h10.044l0.711,21.062v1.344
			c0,2.523-0.143,4.77-0.423,6.73h0.21c0.245-1.12,0.635-2.504,1.17-4.143c0.535-1.637,1.021-2.915,1.459-3.825L109.546,14.376z"/>
		<path fill="#1E1E1E" d="M137.461,52.817h-22.823l8.124-38.441h22.824l-1.709,8.338h-12.543l-1.235,6.046h11.675l-1.894,8.336
			h-11.674l-1.499,7.261h12.542L137.461,52.817z"/>
		<path fill="#1E1E1E" d="M160.563,30.314h16.04l-4.391,20.906c-4.382,1.418-8.949,2.126-13.7,2.126
			c-4.575,0-8.125-1.329-10.649-3.996c-2.524-2.661-3.785-6.444-3.785-11.333c0-4.679,0.963-8.903,2.891-12.675
			c1.929-3.769,4.57-6.635,7.928-8.609c3.357-1.974,7.261-2.96,11.713-2.96c4.663,0,8.588,0.94,11.781,2.817l-3.866,8.124
			c-2.682-1.577-5.365-2.372-8.047-2.372c-2.313,0-4.359,0.64-6.141,1.911c-1.778,1.27-3.197,3.15-4.258,5.638
			c-1.06,2.49-1.591,5.146-1.591,7.967c0,4.631,1.832,6.945,5.495,6.945c1.106,0,2.272-0.124,3.498-0.37l1.342-6.104h-6.022
			L160.563,30.314z"/>
		<path fill="#1E1E1E" d="M199.837,13.771c4.559,0,8.104,1.302,10.636,3.905c2.536,2.604,3.801,6.24,3.801,10.899
			c0,4.666-0.871,8.929-2.614,12.792c-1.744,3.87-4.151,6.829-7.219,8.892c-3.067,2.061-6.628,3.089-10.677,3.089
			c-4.717,0-8.358-1.303-10.926-3.917c-2.568-2.612-3.851-6.239-3.851-10.886c0-4.646,0.903-8.916,2.708-12.806
			c1.805-3.893,4.264-6.859,7.377-8.901C192.181,14.795,195.771,13.771,199.837,13.771z M203.887,28.68
			c0-1.997-0.418-3.56-1.262-4.693c-0.841-1.13-2.06-1.694-3.653-1.694c-1.734,0-3.332,0.737-4.787,2.208
			c-1.455,1.471-2.617,3.497-3.484,6.075c-0.866,2.576-1.302,5.215-1.302,7.916c0,4.241,1.754,6.363,5.26,6.363
			c1.665,0,3.215-0.726,4.642-2.183c1.432-1.454,2.552-3.417,3.365-5.89C203.479,34.31,203.887,31.606,203.887,28.68z"/>
		<path fill="#1E1E1E" d="M239.967,41.54c0,3.893-1.286,6.921-3.866,9.087c-2.577,2.164-6.169,3.249-10.777,3.249
			c-1.933,0-3.755-0.213-5.473-0.646c-1.718-0.428-3.199-1.057-4.443-1.878v-9.206c1.473,0.928,3.161,1.708,5.063,2.341
			c1.903,0.63,3.625,0.946,5.166,0.946c1.297,0,2.28-0.272,2.947-0.815c0.666-0.54,1-1.314,1-2.312c0-0.472-0.105-0.916-0.318-1.331
			c-0.206-0.411-0.505-0.824-0.894-1.234c-0.382-0.411-1.419-1.319-3.099-2.723c-2.053-1.649-3.545-3.33-4.475-5.048
			c-0.929-1.716-1.393-3.605-1.393-5.653c0-2.295,0.573-4.363,1.72-6.193c1.15-1.83,2.772-3.253,4.866-4.259
			c2.097-1.009,4.44-1.51,7.034-1.51c4.188,0,7.961,0.938,11.309,2.814l-3.55,7.808c-2.996-1.542-5.548-2.313-7.648-2.313
			c-1.127,0-1.99,0.246-2.593,0.737c-0.607,0.487-0.907,1.207-0.907,2.155c0,0.86,0.291,1.661,0.878,2.406
			c0.588,0.747,1.705,1.743,3.354,2.987c2.067,1.525,3.602,3.126,4.6,4.812C239.469,37.438,239.967,39.366,239.967,41.54z"/>
		<path fill="#1E1E1E" d="M267.409,14.903h10.884L259.23,53.347h-11.465l-2.735-38.443h10.047l0.709,21.064v1.342
			c0,2.521-0.139,4.768-0.42,6.731h0.211c0.243-1.121,0.634-2.505,1.171-4.146c0.535-1.636,1.021-2.913,1.461-3.821L267.409,14.903z
			"/>
		<path fill="#1E1E1E" d="M293.515,46.145h-11.778l-3.287,7.203h-10.679l19.565-38.441h13.225l3.234,38.441h-10.018L293.515,46.145z
			 M285.494,37.938h7.705l-0.448-11.149l-0.052-2.261c0-1.315,0.034-2.462,0.104-3.447c-0.421,1.507-0.955,2.964-1.604,4.365
			L285.494,37.938z"/>
		<path fill="#1E1E1E" d="M318.773,39.359l-2.972,13.989h-10.28l8.123-38.444h10.177c4.417,0,7.801,0.875,10.151,2.629
			c2.348,1.754,3.523,4.396,3.523,7.917c0,2.734-0.624,5.12-1.869,7.153c-1.245,2.03-3.094,3.586-5.549,4.652l5.891,13.568
			l1.051,2.528h-11.204l-5.122-13.99L318.773,39.359L318.773,39.359z M320.429,31.547h1.343c1.666,0,2.988-0.475,3.971-1.431
			c0.979-0.956,1.472-2.292,1.472-4.011c0-1.085-0.303-1.912-0.909-2.485c-0.604-0.57-1.484-0.853-2.645-0.853h-1.394
			L320.429,31.547z"/>
	</g>
	<path fill="#1E1E1E" d="M70.463,42.152c1.719-3.642,2.59-7.536,2.59-11.579c0-15.04-12.236-27.276-27.277-27.276
		c-15.042,0-27.279,12.236-27.279,27.276c0,15.039,12.238,27.274,27.279,27.274c4.062,0,7.969-0.875,11.621-2.608l16.094,3.042
		L70.463,42.152z M67.757,52.541L56.73,50.457l-0.697,0.354c-3.208,1.632-6.657,2.462-10.257,2.462
		c-3.516,0-6.846-0.802-9.819-2.237c1.924-5.861,3.796-9.936,5.034-10.729c0.225-0.138,1.329-0.416,2.484-0.604
		c4.484-0.742,8.089-2.727,10.642-5.882c1.706-2.105,2.156-3.658,2.587-8.832c0.223-2.743,0.361-3.518,0.878-5.157
		c0.329-1.07,0.553-2.035,0.519-2.155c-0.121-0.312-0.397-0.277-3.208,0.465c-1.381,0.362-4.295,1.017-6.468,1.449
		c-5.537,1.086-6.417,1.413-8.883,3.241c-3.501,2.605-5.951,7.642-5.934,12.213c0.017,1.74,0.277,2.984,0.569,2.657
		c0.071-0.087,0.311-0.586,0.519-1.104c1.05-2.535,4.104-6.399,6.709-8.488c1.327-1.069,4.002-2.121,4.002-1.568
		c0,0.189-0.915,1.328-2.002,2.467c-1.018,1.086-1.362,1.534-3.278,4.311c-1.982,2.918-4.569,8.122-6.312,12.766
		c-0.4,1.065-0.767,2.064-1.117,3.025c-5.819-4.115-9.626-10.891-9.626-18.538c0-12.516,10.184-22.701,22.702-22.701
		c12.517,0,22.7,10.185,22.7,22.701c0,3.584-0.821,7.023-2.442,10.223l-0.352,0.692L67.757,52.541z"/>
</g>
</svg>
