<?xml version="1.0" standalone="no"?>
<!DOCTYPE svg PUBLIC "-//W3C//DTD SVG 20010904//EN"
 "http://www.w3.org/TR/2001/REC-SVG-20010904/DTD/svg10.dtd">
<svg version="1.0" xmlns="http://www.w3.org/2000/svg"
 width="260.000000pt" height="260.000000pt" viewBox="0 0 260.000000 260.000000"
 preserveAspectRatio="xMidYMid meet">
<metadata>
Created by potrace 1.11, written by Peter Selinger 2001-2013
</metadata>
<g transform="translate(0.000000,260.000000) scale(0.100000,-0.100000)"
fill="#000000" stroke="none">
<path d="M1148 2120 c-268 -45 -502 -217 -618 -453 -100 -204 -109 -450 -23
-654 35 -82 99 -179 165 -249 48 -51 125 -111 132 -103 2 2 23 53 46 113 93
239 217 452 350 600 38 43 70 83 70 88 0 13 -43 2 -100 -24 -84 -40 -277 -260
-305 -349 -13 -39 -25 -6 -25 64 0 91 20 171 65 256 46 87 86 134 157 187 70
51 137 75 330 113 81 17 188 40 238 52 50 11 94 18 97 15 3 -3 -4 -40 -15 -83
-12 -43 -26 -127 -32 -188 -21 -199 -47 -264 -147 -355 -76 -70 -191 -124
-318 -151 -109 -23 -131 -37 -171 -105 -24 -41 -124 -285 -124 -303 0 -6 44
-24 98 -42 83 -27 116 -32 229 -37 113 -4 146 -1 225 17 51 12 120 34 153 50
l59 27 201 -37 c110 -20 201 -35 203 -34 2 2 -13 91 -34 198 l-38 196 32 68
c51 112 66 184 66 318 0 145 -18 223 -80 350 -117 242 -351 412 -624 455 -74
11 -193 11 -262 0z"/>
</g>
</svg>
