<?xml version="1.0" encoding="utf-8"?>
<!-- Generator: Adobe Illustrator 16.0.0, SVG Export Plug-In . SVG Version: 6.00 Build 0)  -->
<!DOCTYPE svg PUBLIC "-//W3C//DTD SVG 1.1//EN" "http://www.w3.org/Graphics/SVG/1.1/DTD/svg11.dtd">
<svg version="1.1" id="Layer_1" xmlns="http://www.w3.org/2000/svg" xmlns:xlink="http://www.w3.org/1999/xlink" x="0px" y="0px"
	 width="357.578px" height="61.633px" viewBox="-147 0 357.578 61.633" enable-background="new -147 0 357.578 61.633"
	 xml:space="preserve">
<g>
	<path fill="#FFFFFF" d="M-44.94,13.071h12.203l-21.369,43.09h-12.852l-3.064-43.09h11.259l0.797,23.609v1.506
		c0,2.828-0.16,5.346-0.474,7.545h0.236c0.275-1.256,0.712-2.807,1.312-4.645c0.599-1.834,1.145-3.267,1.635-4.287L-44.94,13.071z"
		/>
	<path fill="#FFFFFF" d="M-13.649,56.161h-25.583l9.106-43.09h25.584l-1.916,9.346h-14.06l-1.385,6.777h13.087l-2.123,9.344h-13.086
		l-1.68,8.139h14.059L-13.649,56.161z"/>
	<path fill="#FFFFFF" d="M12.247,30.936h17.98L25.305,54.37c-4.912,1.59-10.031,2.383-15.357,2.383
		c-5.128,0-9.107-1.49-11.937-4.479c-2.83-2.983-4.243-7.224-4.243-12.703c0-5.245,1.08-9.98,3.241-14.208
		c2.162-4.225,5.123-7.437,8.887-9.65c3.763-2.213,8.139-3.319,13.13-3.319c5.227,0,9.627,1.054,13.206,3.158l-4.333,9.106
		C24.892,22.89,21.885,22,18.879,22c-2.594,0-4.887,0.717-6.884,2.142c-1.993,1.424-3.584,3.531-4.773,6.32
		c-1.188,2.791-1.783,5.769-1.783,8.931c0,5.191,2.053,7.785,6.159,7.785c1.24,0,2.547-0.139,3.921-0.414l1.504-6.842h-6.75
		L12.247,30.936z"/>
	<path fill="#FFFFFF" d="M56.271,12.392c5.109,0,9.084,1.459,11.922,4.377c2.842,2.919,4.26,6.994,4.26,12.218
		c0,5.229-0.977,10.008-2.93,14.338c-1.955,4.338-4.654,7.655-8.092,9.967c-3.439,2.309-7.43,3.463-11.969,3.463
		c-5.287,0-9.369-1.461-12.246-4.392C34.337,49.436,32.9,45.37,32.9,40.161c0-5.207,1.012-9.994,3.035-14.354
		c2.023-4.363,4.779-7.689,8.268-9.978C47.689,13.541,51.712,12.392,56.271,12.392z M60.81,29.105c0-2.239-0.469-3.991-1.414-5.261
		c-0.943-1.267-2.309-1.899-4.096-1.899c-1.943,0-3.734,0.826-5.365,2.475s-2.934,3.92-3.906,6.81
		c-0.971,2.888-1.459,5.845-1.459,8.874c0,4.754,1.965,7.133,5.895,7.133c1.867,0,3.604-0.814,5.203-2.447
		c1.604-1.631,2.861-3.83,3.773-6.602C60.353,35.415,60.81,32.385,60.81,29.105z"/>
	<path fill="#FFFFFF" d="M101.253,43.52c0,4.363-1.441,7.758-4.334,10.186c-2.889,2.426-6.914,3.642-12.08,3.642
		c-2.166,0-4.209-0.238-6.135-0.724c-1.926-0.479-3.586-1.184-4.98-2.104V44.2c1.65,1.039,3.543,1.914,5.676,2.623
		c2.133,0.707,4.063,1.061,5.791,1.061c1.453,0,2.555-0.305,3.303-0.914c0.746-0.605,1.121-1.473,1.121-2.592
		c0-0.529-0.119-1.027-0.357-1.492c-0.232-0.461-0.566-0.924-1.002-1.383c-0.428-0.461-1.59-1.479-3.473-3.053
		c-2.301-1.849-3.973-3.732-5.016-5.658c-1.041-1.924-1.561-4.041-1.561-6.337c0-2.572,0.643-4.89,1.928-6.942
		c1.289-2.051,3.107-3.646,5.455-4.774c2.35-1.131,4.977-1.693,7.885-1.693c4.695,0,8.924,1.051,12.676,3.155l-3.98,8.752
		c-3.359-1.729-6.219-2.593-8.574-2.593c-1.262,0-2.23,0.276-2.906,0.826c-0.68,0.546-1.016,1.353-1.016,2.415
		c0,0.964,0.326,1.862,0.984,2.697c0.66,0.837,1.912,1.954,3.76,3.348c2.318,1.709,4.037,3.504,5.156,5.395
		C100.695,38.922,101.253,41.083,101.253,43.52z"/>
	<path fill="#FFFFFF" d="M132.015,13.662h12.199l-21.367,43.092h-12.852l-3.066-43.092h11.262l0.795,23.611v1.504
		c0,2.826-0.156,5.345-0.471,7.546h0.236c0.273-1.257,0.711-2.808,1.313-4.646c0.6-1.834,1.145-3.266,1.637-4.284L132.015,13.662z"
		/>
	<path fill="#FFFFFF" d="M161.277,48.682h-13.203l-3.684,8.074h-11.971l21.932-43.091h14.824l3.625,43.091h-11.229L161.277,48.682z
		 M152.286,39.482h8.637l-0.502-12.497l-0.059-2.535c0-1.474,0.039-2.76,0.117-3.863c-0.471,1.689-1.07,3.322-1.797,4.893
		L152.286,39.482z"/>
	<path fill="#FFFFFF" d="M189.591,41.075l-3.332,15.682h-11.523l9.105-43.094h11.408c4.951,0,8.744,0.981,11.379,2.947
		c2.631,1.966,3.949,4.927,3.949,8.874c0,3.065-0.699,5.738-2.095,8.018c-1.396,2.276-3.469,4.02-6.221,5.215l6.604,15.209
		l1.178,2.834h-12.558l-5.743-15.682L189.591,41.075L189.591,41.075z M191.445,32.318h1.506c1.867,0,3.35-0.532,4.451-1.604
		c1.098-1.071,1.65-2.57,1.65-4.496c0-1.217-0.34-2.144-1.02-2.786c-0.677-0.639-1.664-0.956-2.964-0.956h-1.562L191.445,32.318z"/>
</g>
<path fill="#FFFFFF" d="M-88.749,44.206c1.927-4.082,2.903-8.447,2.903-12.979c0-16.859-13.716-30.575-30.576-30.575
	c-16.86,0-30.578,13.716-30.578,30.575c0,16.858,13.718,30.573,30.578,30.573c4.554,0,8.933-0.982,13.026-2.924l18.041,3.41
	L-88.749,44.206z M-91.782,55.852l-12.361-2.336l-0.781,0.396c-3.595,1.83-7.462,2.76-11.498,2.76
	c-3.941,0-7.673-0.899-11.006-2.508c2.157-6.57,4.255-11.137,5.643-12.026c0.252-0.154,1.489-0.466,2.784-0.677
	c5.027-0.832,9.068-3.057,11.929-6.594c1.913-2.359,2.417-4.1,2.9-9.899c0.25-3.075,0.405-3.944,0.985-5.781
	c0.368-1.199,0.619-2.281,0.581-2.416c-0.135-0.35-0.445-0.31-3.595,0.522c-1.548,0.406-4.815,1.14-7.25,1.624
	c-6.207,1.217-7.193,1.583-9.958,3.633c-3.925,2.92-6.67,8.566-6.651,13.69c0.019,1.951,0.31,3.346,0.638,2.979
	c0.079-0.098,0.349-0.657,0.581-1.237c1.178-2.842,4.601-7.173,7.521-9.514c1.488-1.199,4.486-2.377,4.486-1.758
	c0,0.213-1.025,1.488-2.244,2.766c-1.141,1.218-1.527,1.72-3.674,4.832c-2.222,3.271-5.122,9.104-7.075,14.31
	c-0.449,1.194-0.86,2.313-1.252,3.391c-6.523-4.613-10.791-12.207-10.791-20.78c0-14.03,11.416-25.446,25.447-25.446
	c14.031,0,25.446,11.416,25.446,25.446c0,4.017-0.921,7.872-2.738,11.458l-0.394,0.777L-91.782,55.852z"/>
</svg>
