<?xml version="1.0" encoding="utf-8"?>
<!-- Generator: Adobe Illustrator 16.0.0, SVG Export Plug-In . SVG Version: 6.00 Build 0)  -->
<!DOCTYPE svg PUBLIC "-//W3C//DTD SVG 1.1//EN" "http://www.w3.org/Graphics/SVG/1.1/DTD/svg11.dtd">
<svg version="1.1" id="Layer_1" xmlns="http://www.w3.org/2000/svg" xmlns:xlink="http://www.w3.org/1999/xlink" x="0px" y="0px"
	 width="450px" height="140px" viewBox="0 0 450 140" enable-background="new 0 0 450 140" xml:space="preserve">
<ellipse fill="#DCDDDE" cx="225.5" cy="93" rx="220.5" ry="35"/>
<path fill="#176C37" d="M409.468,99.744c-13.075,12.059-76.996,7.029-156.898-13.504c-75.204-19.325-123.302,5.12-173.52,34.806
	c-50.218,29.685-74.827-3.455-39.94-30.771c34.887-27.314,97.981-80.507,164.55-79.699c66.569,0.807,162.51,24.409,195.46,47.6
	C432.067,81.365,417.049,92.754,409.468,99.744z"/>
<path fill="#145F30" d="M315.438,82.203c0,0-57.372-4.249-78.004-12.925c-20.632-8.674-45.822-6.902-45.822-6.902
	S240.225,59.877,315.438,82.203z"/>
<path fill="#145F30" d="M233.51,35.599c0,0-55.69-2.219-79.137,13.314C130.927,64.445,170.238,40.371,233.51,35.599z"/>
<path fill="#145F30" d="M82.85,87.846L43.03,113.893C43.03,113.893,61.205,92.273,82.85,87.846z"/>
<path fill="#145F30" d="M155.813,73.996l-49.43,22.526C106.384,96.522,129.885,72.591,155.813,73.996z"/>
<path fill="#112917" d="M337.891,51.778c0,0,0.526,0.772,1.116,2.247c0.307,0.738,0.603,1.655,0.882,2.731
	c0.268,1.077,0.492,2.314,0.636,3.685c0.246,2.729,0.136,6.031-0.882,9.387c-0.506,1.673-1.263,3.33-2.179,4.912
	c-0.458,0.793-0.933,1.579-1.465,2.331c-0.5,0.771-1.063,1.5-1.616,2.231c-0.554,0.729-1.175,1.405-1.76,2.098
	c-0.642,0.644-1.25,1.312-1.907,1.914c-1.305,1.219-2.684,2.296-4.062,3.252c-0.704,0.457-1.377,0.932-2.066,1.344
	c-0.697,0.395-1.38,0.781-2.044,1.157c-1.371,0.663-2.639,1.33-3.874,1.798c-0.608,0.248-1.191,0.486-1.746,0.712
	c-0.565,0.196-1.102,0.382-1.604,0.557c-1.003,0.355-1.881,0.645-2.624,0.823c-1.466,0.397-2.305,0.624-2.305,0.624l-0.156-0.475
	c0,0,0.783-0.355,2.153-0.979c0.688-0.298,1.503-0.707,2.429-1.183c0.463-0.236,0.955-0.487,1.474-0.753
	c0.503-0.292,1.031-0.599,1.583-0.92c1.116-0.609,2.235-1.418,3.436-2.218c0.577-0.433,1.169-0.876,1.774-1.33
	c0.596-0.461,1.166-0.979,1.765-1.476c1.166-1.032,2.287-2.174,3.363-3.372c0.538-0.6,1.02-1.253,1.535-1.877
	c0.457-0.67,0.948-1.314,1.37-2.004c0.85-1.375,1.58-2.813,2.129-4.289c0.554-1.473,1.017-2.935,1.406-4.365
	c0.442-1.416,0.773-2.815,1.104-4.153c0.317-1.343,0.541-2.639,0.757-3.852c0.188-1.214,0.357-2.347,0.463-3.363
	c0.114-1.017,0.2-1.92,0.263-2.669c0.057-0.759,0.102-1.354,0.132-1.761c0.026-0.413,0.04-0.633,0.04-0.633L337.891,51.778z"/>
<path fill="#145F30" d="M415.892,80.889l-7.554,2.791l0.959,4.453l-2.028,7.892C407.269,96.024,417.781,93.994,415.892,80.889z"/>
<circle fill="#112917" cx="358.367" cy="75.571" r="5.762"/>
<circle fill="#112917" cx="349.38" cy="90.087" r="5.762"/>
</svg>
