<?xml version="1.0" encoding="utf-8"?>
<!-- Generator: Adobe Illustrator 16.0.0, SVG Export Plug-In . SVG Version: 6.00 Build 0)  -->
<!DOCTYPE svg PUBLIC "-//W3C//DTD SVG 1.1//EN" "http://www.w3.org/Graphics/SVG/1.1/DTD/svg11.dtd">
<svg version="1.1" id="Layer_1" xmlns="http://www.w3.org/2000/svg" xmlns:xlink="http://www.w3.org/1999/xlink" x="0px" y="0px"
	 width="156px" height="155px" viewBox="0 0 156 155" enable-background="new 0 0 156 155" xml:space="preserve">
<g>
	<path fill="#EFC889" d="M35.683,123.98c21.752,7.849,64.034,7.849,81.917-1.354c5.006-6.387,6.967-12.036,0.564-15.786
		c-6.398-3.753-59.757-6.916-76.769-2.85C24.386,108.059,31.777,123.463,35.683,123.98z"/>
	<path fill="#51382D" d="M28.432,112.469c0,0,44.206,7.915,96.263,0c0,0,4.879-2.797,1.121-10.398S43.249,94.029,33.775,97.1
		C24.3,100.169,28.432,112.469,28.432,112.469z"/>
	<path fill="#65B458" d="M27.535,102.07c2.934,1.32,1.933,0.3,7.961,3.582c6.029,3.285,8.709-3.983,14.211,2.847
		s6.46,10.233,14.642,5.337s6.969-5.434,12.098-4.727c5.129,0.705,6.362,2.897,12.637,2.897c6.273,0,16.609,1.752,18.762-0.877
		c2.154-2.631,0.863-2.289,5.6-2.021c4.738,0.267,9.797-0.61,11.272-1.926c1.479-1.315,8.726,1.524,8.229-1.533
		s2.062-5.264,0.023-5.92c-2.037-0.655,1.602-1.754-5.734-1.754c-7.332,0,2.718-4.438-9.055-2.658
		c-11.772,1.779-12.824-0.461-21.916,0c-9.093,0.461-17.203,2.547-28.64,0.007c-11.434-2.539-12.32-2.63-23.088-0.429
		C33.772,97.1,28.43,97.538,28.43,97.538S19.573,98.488,27.535,102.07z"/>
	<path fill="#EDE48A" d="M124.912,96.566c2.309,0.547-2.234,8.858-7.982,8.506c-5.752-0.354-5.057-0.406-13.287,1.144
		c-8.229,1.55-11.381-0.593-15.748,0.851c-4.367,1.439,4.512-4.812-7.66-3.709c-12.169,1.104-13.764,1.166-18.696,1.136
		c-4.932-0.031-12.422,0.315-15.508,0.582c-3.084,0.264-13.661,0.194-3.084-7.226C53.521,90.43,106.402,92.182,124.912,96.566z"/>
	<path fill="#C15959" d="M117.553,91.205c6.688,1.189,13.959,7.994,7.496,8.854c-6.462,0.864-31.219,4.113-36.811,0
		C82.65,95.949,94.956,87.182,117.553,91.205z"/>
	<path fill="#C15959" d="M39.373,96.758c10.947,2.182,12.918,8.092,24.978,5.312c12.059-2.78,24.118,1.109,16.364-6.754
		c-7.751-7.865-12.918-9.619-25.407-9.181C42.819,86.574,17.84,92.471,39.373,96.758z"/>
	<path fill="#D36363" d="M96.717,94.479c0,0-0.052,0.01-0.15,0.029c-1.334,0.258-11.104,2.145-11.09,2.122
		c0.015-0.024,13.854,0,13.854,0l-4.491,5.231l10.442-6.178l4.967,5.871l2.796-4.203l10.055,3.203l-11.597-7.107l8.331,1.847
		l-7.191-4.058L96.717,94.479z"/>
	<path fill="#D36363" d="M60.476,96.758l-1.723,5.312l-3.445-5.312l-9.475-0.535l4.307-3.508l-16.67-1.262l17.962-1.123l9.044-4.229
		c0,0-2.585,4.825,0,4.842c2.583,0.019,15.353,0,15.353,0l-8.201,2.107l8.82,3.708H64.35l3.278,2.974L60.476,96.758z"/>
	<path fill="#EFC889" d="M33.469,95.057c15.369,1.961,82.977,2.973,86.407-1.185c5.267-6.379,7.323-12.024,0.565-15.787
		c-6.76-3.764-45.754-15.966-80.987-3.005C22.181,81.434,29.346,94.532,33.469,95.057z"/>
</g>
<ellipse fill="#F4D8B0" cx="99.506" cy="80.408" rx="3.227" ry="1.738"/>
<ellipse fill="#F4D8B0" cx="61.419" cy="82.145" rx="3.227" ry="1.738"/>
<ellipse fill="#F4D8B0" cx="83.77" cy="86.102" rx="3.226" ry="1.738"/>
<path fill="#DBAF75" d="M77.972,73.3c8.354,0.117,15.104,1.792,15.074,3.738c-0.024,1.946-6.823,3.431-15.177,3.315
	c-8.354-0.117-15.099-1.789-15.074-3.736C62.82,74.672,69.614,73.186,77.972,73.3z"/>
<ellipse fill="#F4D8B0" cx="47.97" cy="84.365" rx="3.227" ry="1.738"/>
<path fill="#00A651" d="M77.244,22.516c-7.713,0-13.965,6.252-13.965,13.966c0,12.619,13.965,29.107,13.965,29.107
	c0.925,0.926,13.966-15.143,13.966-29.107C91.21,28.769,84.957,22.516,77.244,22.516z M77.413,43.809
	c-3.903,0-7.067-3.164-7.067-7.067c0-3.902,3.164-7.067,7.067-7.067c3.899,0,7.065,3.164,7.065,7.067
	C84.479,40.645,81.312,43.809,77.413,43.809z"/>
</svg>
