<?xml version="1.0" encoding="utf-8"?>
<!-- Generator: Adobe Illustrator 16.0.0, SVG Export Plug-In . SVG Version: 6.00 Build 0)  -->
<!DOCTYPE svg PUBLIC "-//W3C//DTD SVG 1.1//EN" "http://www.w3.org/Graphics/SVG/1.1/DTD/svg11.dtd">
<svg version="1.1" id="Layer_1" xmlns="http://www.w3.org/2000/svg" xmlns:xlink="http://www.w3.org/1999/xlink" x="0px" y="0px"
	 width="500px" height="200px" viewBox="0 0 500 200" enable-background="new 0 0 500 200" xml:space="preserve">
<rect y="-2" fill="#DC913C" width="500" height="202"/>
<path fill="#EFBE62" d="M346.341,131.117c-0.277-4.172-1.046-16.727,15.682-25.09s49.137-5.228,53.318,6.272
	s16.728,24.046,10.454,33.454C419.522,155.163,348.432,162.481,346.341,131.117z"/>
<path fill="#EFBE62" d="M405.341,63.118c-0.277-4.172-1.046-16.727,15.682-25.091c16.728-8.363,49.137-5.227,53.318,6.273
	s16.728,24.045,10.454,33.455C478.522,87.163,407.432,94.481,405.341,63.118z"/>
<path fill="#FFD15E" d="M431.974,65.579c27.524,12.623,59.867,11.716,51.301,30.398c-0.496,1.078-1.071,2.132-1.719,3.159
	l-2.921,1.586l-2.885,5.241c-0.441,0.399-0.894,0.794-1.36,1.18l-3.164,0.343l-1.641,2.237l-0.396,2.208l-2.277,0.19
	c-14.073,7.525-33.994,9.475-51.931,1.249c-8.25-3.783-10.263-4.211-15.641-10.571l-3.137-3.137l-4.356-5.263
	c-10.521-14.348-13.807-32.002-8.245-44.129C392.168,31.588,404.451,52.958,431.974,65.579z"/>
<g>
	<path fill="#FEC25C" d="M425.246,90.521c-46.309,32.518-106.512,41.152-83.784,73.522c1.312,1.869,2.768,3.664,4.343,5.385
		l5.988,2.05l7.269,8.925c0.966,0.611,1.947,1.207,2.951,1.783l5.982-0.367l3.86,3.678l1.547,4.021l4.285-0.367
		c28.818,9.643,66.41,6.937,96.586-14.252c13.882-9.749,24.613-22.301,32.23-35.971l-15.338-9.104l18.957,2.029
		c14.196-30.324,13.791-64.549-0.964-85.562C486.432,13.923,471.556,58.004,425.246,90.521z"/>
	<path fill="#EAAC58" d="M484.21,58.061c1.14-6.514,8.738,1.529,6.608,9.411S483.445,62.43,484.21,58.061z"/>
	<path fill="#EAAC58" d="M466.771,80.525c0,0,8.412,11.979,10.141,23.54C478.641,115.624,486.924,98.311,466.771,80.525z"/>
	<path fill="#EAAC58" d="M340.914,141.235c0,0,25.544,10.168,32.594,19.27c7.048,9.103,26.909,27.093,26.909,27.093
		S371.429,173.462,340.914,141.235z"/>
</g>
<path fill="#223067" d="M195-3c0,0,56,37,72,203H0L-3-2L195-3z"/>
<polygon fill="#2D3D72" points="141.688,0 152.597,17.165 172.292,12.094 159.338,27.773 170.247,44.938 151.333,37.463 
	138.378,53.143 139.643,32.844 120.728,25.369 140.423,20.299 "/>
<polygon fill="#2D3D72" points="81.355,20.537 92.265,37.702 111.96,32.631 99.006,48.31 109.915,65.475 91,58 78.047,73.679 
	79.311,53.381 60.396,45.906 80.092,40.835 "/>
<polygon fill="#2D3D72" points="20.959,44.701 31.868,61.866 51.563,56.795 38.609,72.475 49.519,89.64 30.604,82.165 17.65,97.844 
	18.914,77.545 0,70.07 19.695,65 "/>
<polygon fill="#2D3D72" points="185,18 209,57 168,91 188,55 180,38 "/>
<path fill="#2D3D72" d="M196,120l-51,30l-14,11c0,0-31-28-32-34s39,7,39,7l10-23L196,120z"/>
<path fill="#2D3D72" d="M39,145c0,0,57,20,59,25s-10-19-6-20s63-15,63-15l70,8V92c0,0,19,31,21,35s-4,22-4,22l18,11l-12,40l-172,3
	c0,0-27-24-32-25s-30-10-30-10s1-9,2-22s2-35,2-35L39,145z"/>
<path fill="#BA4126" d="M0,138c0,0,52-51,82-56s68-19,68-19s27-18,33-17s43-11,43-11s10,17,18,40s14,60,14,60l-158,65H0V138z"/>
<polygon opacity="0.5" fill="#FFD15E" points="205.709,46.807 212.07,56.814 223.553,53.858 216,63 222.361,73.008 211.332,68.649 
	203.779,77.792 204.517,65.956 193.488,61.598 204.972,58.642 "/>
<polygon opacity="0.5" fill="#FFD15E" points="170.532,58.78 176.893,68.789 188.376,65.832 180.823,74.974 187.184,84.982 
	176.155,80.624 168.603,89.766 169.339,77.93 158.312,73.573 169.795,70.615 "/>
<path fill="#FFD15E" d="M75.727,133.201c22.991,8.978,49.268,6.722,43.174,22.327c-0.353,0.901-0.771,1.786-1.25,2.651l-2.302,1.428
	l-2.102,4.4c-0.34,0.347-0.69,0.688-1.051,1.024l-2.559,0.428l-1.23,1.896l-0.218,1.816l-1.844,0.262
	c-11.099,6.785-27.219,9.307-42.201,3.455c-6.892-2.691-8.549-2.944-13.225-7.868l-2.699-2.404l-3.793-4.079
	c-9.234-11.181-12.738-25.394-8.781-35.523C41.738,107.409,52.737,124.222,75.727,133.201z"/>
<path fill="#FEC25C" d="M99.588,127.235c22.991,8.979,49.268,6.722,43.174,22.327c-0.352,0.901-0.771,1.786-1.25,2.651l-2.302,1.429
	l-2.103,4.4c-0.339,0.347-0.689,0.688-1.05,1.024l-2.56,0.427l-1.23,1.896l-0.218,1.817l-1.844,0.261
	c-11.099,6.786-27.219,9.308-42.201,3.455c-6.892-2.69-8.549-2.944-13.225-7.867l-2.7-2.405l-3.792-4.078
	c-9.234-11.181-12.738-25.395-8.781-35.523C65.6,101.443,76.598,118.256,99.588,127.235z"/>
<path fill="#F3B250" d="M123.449,120.418c22.991,8.979,49.269,6.722,43.174,22.327c-0.352,0.901-0.771,1.786-1.251,2.651
	l-2.302,1.429l-2.102,4.4c-0.34,0.347-0.689,0.688-1.05,1.024l-2.56,0.427l-1.23,1.896l-0.218,1.817l-1.844,0.261
	c-11.099,6.786-27.219,9.308-42.201,3.455c-6.892-2.691-8.548-2.944-13.225-7.867l-2.7-2.405l-3.792-4.078
	c-9.234-11.181-12.738-25.395-8.781-35.523C89.46,94.626,100.459,111.438,123.449,120.418z"/>
<path fill="#CD472C" d="M228,71c0,0-10,27-15,31s12,16,10,22s-25,33-25,33s25-18,29-24s6-20,5-24s8-1,8-1l6,19c0,0-4-38-7-40
	S228,71,228,71z"/>
<path fill="#CD472C" d="M176,97c-3,7-14,6-10,9s17,8,17,8L176,97z"/>
<path fill="#CD472C" d="M19,154c-2.095-4.54-2,25-2,25s19,4,16,9s14-9,7-14S31,180,19,154z"/>
</svg>
