<?xml version="1.0" encoding="utf-8"?>
<!-- Generator: Adobe Illustrator 16.0.0, SVG Export Plug-In . SVG Version: 6.00 Build 0)  -->
<!DOCTYPE svg PUBLIC "-//W3C//DTD SVG 1.1//EN" "http://www.w3.org/Graphics/SVG/1.1/DTD/svg11.dtd">
<svg version="1.1" id="Layer_1" xmlns="http://www.w3.org/2000/svg" xmlns:xlink="http://www.w3.org/1999/xlink" x="0px" y="0px"
	 width="156px" height="155px" viewBox="0 0 156 155" enable-background="new 0 0 156 155" xml:space="preserve">
<g>
	<path fill="#E7E8E8" d="M134.814,20.787v112.39H23.751V20.787H134.814 M136.565,18.972H22v116.02h114.565V18.972L136.565,18.972z"
		/>
</g>
<polygon fill="#FEBE10" points="38.917,110.094 40.528,113.358 44.13,113.882 41.524,116.424 42.14,120.01 38.917,118.317 
	35.695,120.01 36.31,116.424 33.702,113.882 37.305,113.358 "/>
<rect x="22.23" y="18.972" fill="#C161A5" width="113.75" height="45.955"/>
<path fill="#EFBE62" d="M92.431,47.694c-0.062-0.949-0.236-3.805,3.567-5.707c3.807-1.903,11.18-1.189,12.131,1.426
	c0.952,2.617,3.806,5.471,2.378,7.61C109.08,53.164,92.907,54.83,92.431,47.694z"/>
<path fill="#FBCB5E" d="M105.854,32.225c-0.062-0.95-0.237-3.805,3.568-5.708c3.805-1.903,11.178-1.189,12.129,1.427
	c0.952,2.616,3.806,5.471,2.379,7.61C122.502,37.694,106.328,39.359,105.854,32.225z"/>
<path fill="#FFE161" d="M111.911,32.784c6.263,2.872,13.621,2.665,11.673,6.916c-0.113,0.245-0.244,0.485-0.391,0.719l-0.666,0.361
	l-0.656,1.192c-0.101,0.089-0.203,0.179-0.31,0.268l-0.72,0.078l-0.374,0.509l-0.089,0.502l-0.518,0.043
	c-3.203,1.711-7.734,2.155-11.816,0.284c-1.877-0.861-2.333-0.959-3.557-2.405l-0.714-0.714l-0.991-1.197
	c-2.394-3.264-3.141-7.281-1.876-10.039C102.856,25.051,105.649,29.914,111.911,32.784z"/>
<g>
	<path fill="#FEC25C" d="M110.382,38.459c-10.535,7.396-24.23,9.361-19.062,16.726c0.301,0.425,0.63,0.833,0.99,1.225l1.36,0.466
		l1.654,2.03c0.221,0.14,0.443,0.275,0.672,0.406l1.359-0.083l0.88,0.837l0.351,0.915l0.975-0.083
		c6.557,2.194,15.108,1.579,21.974-3.242c3.158-2.217,5.6-5.073,7.333-8.184l-3.49-2.071l4.313,0.462
		c3.229-6.899,3.137-14.686-0.22-19.465C124.301,21.033,120.918,31.061,110.382,38.459z"/>
	<path fill="#EAAC58" d="M123.796,31.074c0.261-1.482,1.987,0.348,1.504,2.14C124.815,35.008,123.622,32.068,123.796,31.074z"/>
	<path fill="#EAAC58" d="M119.829,36.184c0,0,1.913,2.726,2.307,5.355S124.413,40.23,119.829,36.184z"/>
	<path fill="#EAAC58" d="M91.196,49.995c0,0,5.811,2.314,7.415,4.384c1.604,2.071,6.122,6.164,6.122,6.164
		S98.139,57.327,91.196,49.995z"/>
</g>
<path fill="#851A51" d="M66.591,18.745c0,0,12.74,8.418,16.379,46.182H22.23l-0.683-45.955L66.591,18.745z"/>
<polygon fill="#96336B" points="54.463,19.427 56.945,23.332 61.425,22.179 58.479,25.746 60.96,29.651 56.658,27.95 53.71,31.518 
	53.998,26.899 49.696,25.199 54.176,24.045 "/>
<polygon fill="#96336B" points="40.738,24.099 43.22,28.004 47.7,26.851 44.753,30.417 47.235,34.323 42.933,32.622 39.985,36.189 
	40.273,31.571 35.97,29.87 40.451,28.716 "/>
<polygon fill="#96336B" points="26.998,29.596 29.479,33.501 33.959,32.348 31.013,35.915 33.495,39.82 29.192,38.12 26.245,41.686 
	26.532,37.068 22.23,35.368 26.71,34.215 "/>
<path fill="#2D3D72" d="M66.818,46.727l-11.602,6.825l-3.184,2.503c0,0-7.053-6.371-7.281-7.735
	c-0.228-1.365,8.873,1.592,8.873,1.592l2.275-5.232L66.818,46.727z"/>
<path fill="#851A51" d="M31.102,51.837c0,0,12.967,4.479,13.422,5.599c0.454,1.12-2.275-4.255-1.365-4.479
	c0.911-0.224,14.333-3.36,14.333-3.36l15.925,1.792V39.965c0,0,4.323,6.944,4.778,7.839c0.455,0.896-0.911,4.928-0.911,4.928
	l4.096,2.464l-2.73,8.959l-39.13,0.672c0,0-6.143-5.376-7.281-5.599c-1.137-0.225-6.824-2.24-6.824-2.24s0.227-2.016,0.455-4.928
	c0.228-2.912,0.454-7.839,0.454-7.839L31.102,51.837z"/>
<path fill="#C23160" d="M22.23,50.822c0,0,11.83-11.603,18.654-12.74c6.824-1.137,15.469-4.322,15.469-4.322
	s6.143-4.095,7.507-3.867c1.365,0.228,9.784-2.502,9.784-2.502s2.275,3.867,4.095,9.101c1.819,5.232,3.184,13.649,3.184,13.649
	L44.979,64.927H22.23V50.822z"/>
<path fill="#FFD15E" d="M39.458,49.73c5.229,2.042,11.208,1.529,9.822,5.079c-0.081,0.206-0.175,0.407-0.284,0.604l-0.524,0.325
	l-0.479,1.001c-0.077,0.079-0.157,0.157-0.239,0.234l-0.583,0.097L46.892,57.5l-0.05,0.414l-0.418,0.06
	c-2.526,1.543-6.193,2.118-9.602,0.787c-1.568-0.612-1.944-0.67-3.008-1.79L33.2,56.423l-0.862-0.928
	c-2.102-2.545-2.898-5.778-1.998-8.082C31.724,43.862,34.227,47.688,39.458,49.73z"/>
<path fill="#FEC25C" d="M44.885,48.373c5.231,2.042,11.208,1.53,9.822,5.079c-0.081,0.207-0.175,0.407-0.285,0.604l-0.523,0.326
	l-0.478,1c-0.078,0.08-0.157,0.157-0.239,0.233l-0.582,0.097l-0.279,0.431l-0.05,0.414l-0.419,0.059
	c-2.525,1.544-6.192,2.118-9.601,0.787c-1.568-0.611-1.944-0.669-3.008-1.79l-0.615-0.546l-0.863-0.928
	c-2.101-2.544-2.897-5.778-1.997-8.083C37.153,42.506,39.654,46.331,44.885,48.373z"/>
<path fill="#F3B250" d="M50.314,46.822c5.229,2.043,11.208,1.529,9.821,5.08c-0.08,0.205-0.175,0.407-0.285,0.604l-0.524,0.324
	l-0.478,1c-0.077,0.08-0.156,0.157-0.239,0.233l-0.583,0.097l-0.28,0.432l-0.049,0.414l-0.42,0.059
	c-2.525,1.544-6.192,2.118-9.601,0.787c-1.568-0.612-1.945-0.67-3.008-1.79l-0.615-0.546l-0.863-0.928
	c-2.102-2.543-2.897-5.776-1.997-8.081C42.581,40.954,45.083,44.779,50.314,46.822z"/>
<rect x="33.456" y="72.836" fill="#E0E1E2" width="80.137" height="9.958"/>
<rect x="32.741" y="89.768" fill="#E0E1E2" width="92.675" height="3.024"/>
<rect x="32.741" y="95.381" fill="#E0E1E2" width="92.255" height="3.024"/>
<polygon fill="#FEBE10" points="53.285,110.094 54.896,113.358 58.498,113.882 55.893,116.424 56.507,120.01 53.285,118.317 
	50.062,120.01 50.677,116.424 48.07,113.882 51.673,113.358 "/>
<polygon fill="#FEBE10" points="67.653,110.094 69.264,113.358 72.866,113.882 70.26,116.424 70.874,120.01 67.653,118.317 
	64.43,120.01 65.046,116.424 62.438,113.882 66.04,113.358 "/>
<polygon fill="#FEBE10" points="82.021,110.094 83.631,113.358 87.232,113.882 84.629,116.424 85.243,120.01 82.021,118.317 
	78.799,120.01 79.414,116.424 76.806,113.882 80.408,113.358 "/>
<polygon fill="#E0E1E2" points="96.388,110.094 97.999,113.358 101.602,113.882 98.995,116.424 99.61,120.01 96.388,118.317 
	93.165,120.01 93.781,116.424 91.176,113.882 94.776,113.358 "/>
<rect x="32.741" y="101.57" fill="#E0E1E2" width="92.255" height="3.024"/>
<g>
	<path fill="#FAAC4F" d="M149.88,148.77c-4.077,4.078-10.688,4.076-14.765,0l-44.479-44.478c-4.076-4.078-4.076-10.688,0-14.765l0,0
		c4.078-4.075,10.688-4.075,14.764,0l44.479,44.479C153.955,138.083,153.955,144.693,149.88,148.77L149.88,148.77z"/>
	<polygon fill="#FFD49C" points="103.954,88.08 73.668,70.275 89.346,102.995 89.953,94.628 97.562,94.628 97.562,88.998 	"/>
	<path fill="#4D2B19" d="M73.668,70.275l14,8.218c0,0,0.915,7.915-7.152,6.544L73.668,70.275z"/>
	<path fill="#F6914B" d="M97.562,94.628l53.229,53.228c0,0,4.645-6.771-0.529-13.166c-5.177-6.394-46.308-46.608-46.308-46.608
		l-6.394,0.918v5.629H97.562z"/>
</g>
<polygon fill="#D34F76" points="67.749,32.372 69.465,35.072 72.562,34.274 70.525,36.74 72.24,39.44 69.266,38.265 67.229,40.73 
	67.428,37.538 64.453,36.362 67.55,35.565 "/>
<polygon fill="#D34F76" points="58.261,35.603 59.977,38.302 63.074,37.505 61.037,39.97 62.752,42.67 59.778,41.494 57.741,43.96 
	57.939,40.768 54.965,39.592 58.063,38.794 "/>
</svg>
