<?xml version="1.0" encoding="utf-8"?>
<!-- Generator: Adobe Illustrator 16.0.0, SVG Export Plug-In . SVG Version: 6.00 Build 0)  -->
<!DOCTYPE svg PUBLIC "-//W3C//DTD SVG 1.1//EN" "http://www.w3.org/Graphics/SVG/1.1/DTD/svg11.dtd">
<svg version="1.1" id="Layer_1" xmlns="http://www.w3.org/2000/svg" xmlns:xlink="http://www.w3.org/1999/xlink" x="0px" y="0px"
	 width="156px" height="155px" viewBox="0 0 156 155" enable-background="new 0 0 156 155" xml:space="preserve">
<g>
	<path fill="#00A651" d="M78.029,118.49V45.766c0,0,8.674-6.06,26.021-5.594c17.349,0.466,22.65,4.428,22.65,4.428v74.125
		c0,0-10.362-4.664-25.058-4.664C86.945,114.061,78.029,118.49,78.029,118.49z"/>
	<path fill="#038E42" d="M78.63,118.49V45.766c0,0-8.674-6.06-26.022-5.594C35.261,40.638,29.959,44.6,29.959,44.6v74.125
		c0,0,10.361-4.664,25.059-4.664C69.716,114.061,78.63,118.49,78.63,118.49z"/>
	<path fill="#FFFFFF" d="M78.074,110.584V41.575c0,0,7.404-5.752,22.211-5.31c14.808,0.443,19.331,4.203,19.331,4.203v68.13
		c0,0-8.845-2.216-21.388-2.216C85.684,106.382,78.074,110.584,78.074,110.584z"/>
	<path fill="#E6E7E8" d="M78.587,110.584V41.575c0,0-7.404-5.752-22.212-5.31c-14.808,0.443-19.332,4.203-19.332,4.203v68.13
		c0,0,8.844-2.216,21.388-2.216C70.979,106.382,78.587,110.584,78.587,110.584z"/>
</g>
<ellipse fill="#E6E7E8" cx="77.572" cy="136.519" rx="42.026" ry="5.481"/>
</svg>
