<?xml version="1.0" encoding="utf-8"?>
<!-- Generator: Adobe Illustrator 16.0.0, SVG Export Plug-In . SVG Version: 6.00 Build 0)  -->
<!DOCTYPE svg PUBLIC "-//W3C//DTD SVG 1.1//EN" "http://www.w3.org/Graphics/SVG/1.1/DTD/svg11.dtd">
<svg version="1.1" id="Layer_1" xmlns="http://www.w3.org/2000/svg" xmlns:xlink="http://www.w3.org/1999/xlink" x="0px" y="0px"
	 width="25.25px" height="32px" viewBox="0 0 25.25 32" enable-background="new 0 0 25.25 32" xml:space="preserve">
<g id="_x37_2EDic.tif">
	<g>
		<g>
			<path fill="#FFFFFF" d="M16.527,30.715c0.543-0.634,1.104-1.252,1.627-1.9c2.846-3.532,3.132-8.195,0.765-12.351
				c-1.155-2.027-2.713-3.702-4.647-5.295c0.399,3.852-0.513,7.243-2.587,10.511c-0.33-1.91-1.054-3.457-2.43-4.545
				c-0.821,1.729-1.664,3.402-2.418,5.116c-0.9,2.048-1.169,4.115,0.276,6.062c0.428,0.58,0.945,1.092,1.437,1.623
				c0.122,0.131,0.302,0.205,0.39,0.383c-1.579-0.399-2.979-1.103-4.208-2.113c-3.155-2.594-4.068-6.316-2.601-10.488
				c0.842-2.396,2.267-4.473,3.616-6.59c1.752-2.75,3.408-5.546,4.366-8.693c0.176-0.579,0.345-1.161,0.518-1.74
				c0.004-0.015,0.029-0.024,0.093-0.072c0.758,0.669,1.536,1.338,2.294,2.026c2.827,2.564,5.584,5.193,7.822,8.312
				c1.722,2.4,2.945,5.005,3.388,7.955c0.52,3.492-0.096,6.636-2.733,9.183c-1.351,1.305-2.966,2.109-4.793,2.498
				c-0.103,0.022-0.212,0.006-0.319,0.006C16.428,30.637,16.479,30.676,16.527,30.715z"/>
		</g>
	</g>
</g>
</svg>
