<?xml version="1.0" encoding="utf-8"?>
<!-- Generator: Adobe Illustrator 16.0.0, SVG Export Plug-In . SVG Version: 6.00 Build 0)  -->
<!DOCTYPE svg PUBLIC "-//W3C//DTD SVG 1.1//EN" "http://www.w3.org/Graphics/SVG/1.1/DTD/svg11.dtd">
<svg version="1.1" id="Layer_1" xmlns="http://www.w3.org/2000/svg" xmlns:xlink="http://www.w3.org/1999/xlink" x="0px" y="0px"
	 width="156px" height="155px" viewBox="0 0 156 155" enable-background="new 0 0 156 155" xml:space="preserve">
<g>
	<path fill="#F05476" d="M77.102,127.324c-0.832,0-1.621-0.181-2.33-0.506c-6.481-2.415-18.351-13.833-24.727-20.947
		c-9.105-10.158-19.958-25.055-19.958-38.333c0-18.42,10.021-29.863,26.154-29.863c9.743,0,16.64,4.646,21.009,9.723
		c4.369-5.077,11.267-9.723,21.011-9.723c16.132,0,26.152,11.443,26.152,29.863c0,13.279-10.853,28.175-19.957,38.333
		c-6.4,7.143-18.338,18.621-24.803,20.975c-0.688,0.309-1.452,0.479-2.253,0.479C77.358,127.324,77.156,127.324,77.102,127.324z"/>
	<path opacity="0.1" fill="#F7DFE6" d="M98.36,48.504c8.76-2.121,15.795,9.199,15.795,18.645c0,16.298-27.352,40.714-31.82,41.603
		v0.029c-0.035,0-0.076-0.008-0.115-0.01c-0.038,0.002-0.079,0.01-0.113,0.01v-0.029C82.106,108.752,81.167,52.667,98.36,48.504z"/>
</g>
<path fill="#F7DFE6" d="M96.223,148.979c-0.154,0-0.301-0.033-0.432-0.093c-1.199-0.447-3.396-2.561-4.576-3.877
	c-1.685-1.88-3.693-4.636-3.693-7.093c0-3.409,1.855-5.526,4.84-5.526c1.803,0,3.079,0.86,3.888,1.801
	c0.809-0.94,2.085-1.801,3.888-1.801c2.984,0,4.839,2.117,4.839,5.526c0,2.457-2.008,5.213-3.692,7.093
	c-1.185,1.321-3.394,3.446-4.59,3.882c-0.127,0.057-0.268,0.088-0.417,0.088C96.269,148.979,96.232,148.979,96.223,148.979z"/>
<path fill="#F7DFE6" d="M39.879,134.312c-0.207,0-0.404-0.045-0.58-0.125c-1.611-0.601-4.563-3.44-6.148-5.209
	c-2.264-2.526-4.963-6.229-4.963-9.531c0-4.581,2.492-7.426,6.504-7.426c2.422,0,4.137,1.155,5.223,2.419
	c1.088-1.264,2.802-2.419,5.225-2.419c4.012,0,6.502,2.845,6.502,7.426c0,3.302-2.697,7.005-4.961,9.531
	c-1.592,1.775-4.561,4.631-6.168,5.216c-0.171,0.076-0.36,0.118-0.561,0.118C39.942,134.312,39.892,134.312,39.879,134.312z"/>
<path fill="#F7DFE6" d="M115.373,115.787c-0.096,0-0.187-0.021-0.267-0.057c-0.741-0.277-2.1-1.583-2.828-2.396
	c-1.041-1.162-2.283-2.865-2.283-4.384c0-2.106,1.146-3.415,2.991-3.415c1.114,0,1.903,0.531,2.402,1.113
	c0.5-0.582,1.289-1.113,2.403-1.113c1.844,0,2.99,1.309,2.99,3.415c0,1.519-1.241,3.222-2.282,4.384
	c-0.731,0.816-2.097,2.13-2.836,2.399c-0.079,0.034-0.166,0.054-0.258,0.054C115.401,115.787,115.379,115.787,115.373,115.787z"/>
</svg>
