<?xml version="1.0" encoding="utf-8"?>
<!-- Generator: Adobe Illustrator 16.0.0, SVG Export Plug-In . SVG Version: 6.00 Build 0)  -->
<!DOCTYPE svg PUBLIC "-//W3C//DTD SVG 1.1//EN" "http://www.w3.org/Graphics/SVG/1.1/DTD/svg11.dtd">
<svg version="1.1" id="Layer_1" xmlns="http://www.w3.org/2000/svg" xmlns:xlink="http://www.w3.org/1999/xlink" x="0px" y="0px"
	 width="19.98px" height="19.966px" viewBox="0 0 19.98 19.966" enable-background="new 0 0 19.98 19.966" xml:space="preserve">
<path fill="#464547" d="M8.896,15.717c0-0.582,0.47-1.054,1.054-1.054l0,0c0.581,0,1.052,0.472,1.052,1.054v3.176
	c0,0.58-0.472,1.053-1.052,1.053l0,0c-0.583,0-1.054-0.473-1.054-1.053V15.717z"/>
<path fill="#D3D5D6" d="M8.896,1.075c0-0.581,0.47-1.053,1.054-1.053l0,0c0.581,0,1.052,0.473,1.052,1.053v3.177
	c0,0.579-0.472,1.052-1.052,1.052l0,0c-0.583,0-1.054-0.473-1.054-1.052V1.075z"/>
<path fill="#FFFFFF" d="M4.216,8.93c0.581,0,1.053,0.47,1.053,1.053l0,0c0,0.58-0.472,1.052-1.053,1.052H1.039
	c-0.579,0-1.053-0.472-1.053-1.052l0,0c0-0.583,0.474-1.053,1.053-1.053H4.216z"/>
<path fill="#7B7C7F" d="M18.856,8.93c0.582,0,1.054,0.47,1.054,1.053l0,0c0,0.58-0.472,1.052-1.054,1.052H15.68
	c-0.579,0-1.052-0.472-1.052-1.052l0,0c0-0.583,0.473-1.053,1.052-1.053H18.856z"/>
<path fill="#5C5D60" d="M13.259,14.781c-0.411-0.411-0.412-1.077,0-1.488l0,0c0.409-0.411,1.077-0.411,1.488,0.001l2.245,2.245
	c0.409,0.41,0.411,1.077,0,1.487l0,0c-0.411,0.412-1.078,0.41-1.488,0.001L13.259,14.781z"/>
<path fill="#E9E9EA" d="M2.905,4.429c-0.412-0.412-0.414-1.078,0-1.491l0,0c0.41-0.409,1.078-0.409,1.489,0.002L6.64,5.187
	c0.41,0.408,0.41,1.077,0.001,1.487l0,0c-0.414,0.413-1.081,0.41-1.49,0L2.905,4.429z"/>
<path fill="#383839" d="M5.148,13.293c0.411-0.411,1.078-0.412,1.491,0l0,0c0.409,0.41,0.409,1.077-0.001,1.488l-2.247,2.245
	c-0.409,0.409-1.078,0.41-1.488,0l0,0c-0.413-0.413-0.41-1.079-0.001-1.488L5.148,13.293z"/>
<path fill="#9FA1A4" d="M15.503,2.938c0.411-0.412,1.075-0.413,1.488,0l0,0c0.41,0.41,0.41,1.079-0.001,1.489l-2.245,2.246
	c-0.41,0.41-1.077,0.41-1.487,0l0,0c-0.412-0.413-0.411-1.08-0.001-1.49L15.503,2.938z"/>
</svg>
