<?xml version="1.0" encoding="utf-8"?>
<!-- Generator: Adobe Illustrator 16.0.0, SVG Export Plug-In . SVG Version: 6.00 Build 0)  -->
<!DOCTYPE svg PUBLIC "-//W3C//DTD SVG 1.1//EN" "http://www.w3.org/Graphics/SVG/1.1/DTD/svg11.dtd">
<svg version="1.1" id="Layer_1" xmlns="http://www.w3.org/2000/svg" xmlns:xlink="http://www.w3.org/1999/xlink" x="0px" y="0px"
	 width="56.537px" height="57.378px" viewBox="0 0 56.537 57.378" enable-background="new 0 0 56.537 57.378" xml:space="preserve">
<g>
	<path fill="#FAEAC3" d="M1.545,27.731c-0.281-0.281-0.281-0.737,0.001-1.019L28.357-0.099c0.281-0.281,0.738-0.281,1.02-0.001
		l26.812,26.812c0.28,0.282,0.28,0.738,0,1.019L29.376,54.543c-0.281,0.281-0.738,0.281-1.02,0L1.545,27.731z"/>
	
		<rect x="6.272" y="28.188" transform="matrix(-0.7071 -0.7071 0.7071 -0.7071 2.623 63.5123)" fill="#21B3DB" width="16.386" height="6.049"/>
</g>
<polygon fill="#00AD4D" points="43.03,28.128 35.819,35.552 42.818,41.066 49.711,34.28 "/>
<rect x="6.924" y="26.005" transform="matrix(-0.7071 -0.7071 0.7071 -0.7071 24.9174 68.9948)" fill="#E9CBB0" width="39.648" height="6.664"/>
<rect x="14.581" y="29.662" transform="matrix(0.7071 -0.7071 0.7071 0.7071 -13.253 33.9906)" fill="#E9CBB0" width="39.646" height="6.662"/>
<rect x="17.405" y="15.525" transform="matrix(-0.7071 -0.7071 0.7071 -0.7071 50.2217 58.5164)" fill="#E9CBB0" width="39.649" height="6.664"/>
<ellipse opacity="0.2" fill="#231F20" enable-background="new    " cx="28.81" cy="38.254" rx="8.109" ry="3.502"/>
<path fill="#8D53A1" d="M28.81,10.954c-4.95,0.001-8.962,4.012-8.962,8.963c0,8.099,8.962,18.675,8.962,18.675
	c0.594,0.597,8.963-9.715,8.963-18.675C37.772,14.967,33.759,10.955,28.81,10.954z M28.917,24.617
	c-2.504,0.001-4.534-2.031-4.534-4.534s2.03-4.533,4.534-4.534c2.503,0.001,4.536,2.031,4.536,4.534
	C33.451,22.586,31.42,24.619,28.917,24.617z"/>
</svg>
