<?xml version="1.0" encoding="utf-8"?>
<!-- Generator: Adobe Illustrator 16.0.0, SVG Export Plug-In . SVG Version: 6.00 Build 0)  -->
<!DOCTYPE svg PUBLIC "-//W3C//DTD SVG 1.1//EN" "http://www.w3.org/Graphics/SVG/1.1/DTD/svg11.dtd">
<svg version="1.1" id="Layer_1" xmlns="http://www.w3.org/2000/svg" xmlns:xlink="http://www.w3.org/1999/xlink" x="0px" y="0px"
	 width="156px" height="155px" viewBox="0 0 156 155" enable-background="new 0 0 156 155" xml:space="preserve">
<circle fill="#DA4279" cx="79.518" cy="79.965" r="65.631"/>
<circle fill="#D28851" cx="80.76" cy="73.459" r="47.125"/>
<circle fill="#DA9F57" cx="71.984" cy="81.259" r="47.125"/>
<circle fill="#EDB469" cx="85.635" cy="83.209" r="47.125"/>
<g>
	<path fill="#E5A163" d="M83.577,71.178c3.134-0.24-2.666,5.833-0.332,9.515c2.333,3.683,2.664,4.298,5.332,4.298
		c2.666,0,8.331-1.843,7.664,1.227c-0.667,3.07-7-2.762-6.665,2.149c0.334,4.91,1.999-0.308,2.334,1.533
		c0.332,1.842,0,1.536-4.335,1.842c-4.33,0.307,0.668-2.146-4.663-4.603c-5.333-2.457-0.666-4.298-2.333-8.902
		c-1.666-4.604,0.332-3.375-1.666-4.604c-2-1.228,0,0.614,2.332-0.92S79.58,71.485,83.577,71.178z"/>
	<path fill="#E5A163" d="M99.24,74.553c2.981,2.06,10.665,11.356,7.332,11.664s-4.998,0.308-4.666,1.842
		c0.334,1.536,0,3.683,0,3.683s-2.666-4.91-1.999-7.06c0.668-2.148,1-8.593-4.998-9.513C88.909,74.247,97.908,73.633,99.24,74.553z"
		/>
	<path fill="#E5A163" d="M85.578,101.563c-1.708-2.098,1.333,7.674,0.666,8.594c-0.666,0.921-2.667-0.92-2.334,0.921
		c0.335,1.842,1.668,3.683,3.001,4.604c1.332,0.922,0-3.683,1.332-3.683c1.333,0,0.334-3.378-0.334-6.138
		C87.244,103.098,86.575,102.792,85.578,101.563z"/>
	<path fill="#E5A163" d="M61.917,93.891c-0.47-1.189,6.998,7.365,6.998,9.514s-5.332,2.457-5,3.991
		c0.333,1.534-1.666,3.07-3.665,3.375c-2,0.308,1-2.454,0.666-3.683c-0.333-1.227,4.333-1.535,3.999-3.99
		C64.583,100.643,63.249,97.266,61.917,93.891z"/>
	<path fill="#E5A163" d="M70.247,82.841c0.557,3.849,5.333,7.366,5.999,8.595c0.667,1.228-5.999-1.229-7.999-4.911
		C66.248,82.841,69.581,78.236,70.247,82.841z"/>
</g>
<g>
	<circle fill="#3A5CAA" cx="29.215" cy="73.291" r="3.389"/>
	<circle fill="#3A5CAA" cx="59.461" cy="68.563" r="3.389"/>
	<circle fill="#3A5CAA" cx="56.073" cy="88.899" r="3.39"/>
	<circle fill="#3A5CAA" cx="62.852" cy="82.12" r="3.39"/>
	<circle fill="#3A5CAA" cx="56.073" cy="105.845" r="3.39"/>
	<circle fill="#3A5CAA" cx="81.494" cy="75.68" r="3.389"/>
</g>
<path fill="#FEE1C9" d="M124.011,65.528c1.124,8.883,11.21,10.097,1.245,15.146c-9.964,5.049-22.418-3.03-19.927-11.613
	s-3.737-12.117,0.415-12.622C109.895,55.935,123.181,58.963,124.011,65.528z"/>
<path fill="#FEE1C9" d="M80.045,43.94c10.268-1.85,28.232,1.01,16.606,10.603C85.027,64.136,68.836,45.959,80.045,43.94z"/>
<path fill="#FEE1C9" d="M92.874,38.473c11.291,1.168,17.852-2.02,23.249,8.583s-1.246,15.651-11.209,11.612
	C94.949,54.629,73.361,36.454,92.874,38.473z"/>
<g>
	<circle fill="#3A5CAA" cx="45.532" cy="66.35" r="3.389"/>
	<circle fill="#3A5CAA" cx="42.144" cy="86.687" r="3.389"/>
	<circle fill="#3A5CAA" cx="48.923" cy="79.907" r="3.39"/>
	<path fill="#3A5CAA" d="M42.144,100.242c1.873,0,3.389,1.519,3.389,3.393c0,1.869-1.516,3.389-3.389,3.389
		c-1.872,0-3.389-1.52-3.389-3.389C38.755,101.761,40.272,100.242,42.144,100.242z"/>
	<circle fill="#3A5CAA" cx="67.565" cy="73.468" r="3.389"/>
</g>
<g>
	<circle fill="#3A5CAA" cx="55.958" cy="51.875" r="3.39"/>
	<circle fill="#3A5CAA" cx="55.958" cy="45.096" r="3.389"/>
	<circle fill="#3A5CAA" cx="52.569" cy="65.433" r="3.389"/>
	<circle fill="#3A5CAA" cx="59.348" cy="58.654" r="3.389"/>
	<circle fill="#3A5CAA" cx="52.569" cy="82.38" r="3.39"/>
	<circle fill="#3A5CAA" cx="77.99" cy="52.214" r="3.389"/>
</g>
</svg>
