<?xml version="1.0" encoding="utf-8"?>
<!-- Generator: Adobe Illustrator 16.0.0, SVG Export Plug-In . SVG Version: 6.00 Build 0)  -->
<!DOCTYPE svg PUBLIC "-//W3C//DTD SVG 1.1//EN" "http://www.w3.org/Graphics/SVG/1.1/DTD/svg11.dtd">
<svg version="1.1" id="Layer_1" xmlns="http://www.w3.org/2000/svg" xmlns:xlink="http://www.w3.org/1999/xlink" x="0px" y="0px"
	 width="156px" height="155px" viewBox="0 0 156 155" enable-background="new 0 0 156 155" xml:space="preserve">
<circle fill="#D28851" cx="80.747" cy="72.896" r="52.563"/>
<circle fill="#DA9F57" cx="70.959" cy="81.597" r="52.563"/>
<circle fill="#EDB469" cx="86.184" cy="83.771" r="52.563"/>
<g>
	<path fill="#E5A163" d="M83.889,70.352c3.496-0.268-2.974,6.505-0.37,10.613c2.603,4.107,2.972,4.793,5.947,4.793
		c2.974,0,9.293-2.055,8.549,1.368c-0.744,3.425-7.808-3.08-7.435,2.397s2.23-0.343,2.604,1.711c0.37,2.054,0,1.713-4.835,2.054
		c-4.83,0.342,0.745-2.395-5.201-5.134c-5.949-2.74-0.743-4.794-2.603-9.929c-1.858-5.135,0.37-3.765-1.858-5.135
		c-2.231-1.37,0,0.685,2.602-1.026C83.889,70.352,79.431,70.694,83.889,70.352z"/>
	<path fill="#E5A163" d="M101.359,74.117c3.325,2.297,11.896,12.666,8.179,13.009c-3.718,0.344-5.575,0.344-5.205,2.055
		c0.373,1.713,0,4.107,0,4.107s-2.974-5.477-2.229-7.874c0.745-2.396,1.115-9.584-5.575-10.61
		C89.837,73.775,99.874,73.09,101.359,74.117z"/>
	<path fill="#E5A163" d="M86.121,104.244c-1.905-2.34,1.486,8.559,0.743,9.585c-0.743,1.027-2.976-1.026-2.604,1.027
		c0.373,2.054,1.86,4.107,3.347,5.135c1.486,1.028,0-4.107,1.486-4.107s0.372-3.768-0.373-6.847
		C87.979,105.955,87.233,105.614,86.121,104.244z"/>
	<path fill="#E5A163" d="M59.729,95.686c-0.523-1.327,7.805,8.215,7.805,10.611s-5.947,2.74-5.576,4.452
		c0.372,1.711-1.858,3.424-4.087,3.765c-2.231,0.343,1.115-2.738,0.743-4.108c-0.372-1.368,4.833-1.712,4.46-4.45
		C62.703,103.217,61.215,99.45,59.729,95.686z"/>
	<path fill="#E5A163" d="M69.021,83.36c0.621,4.293,5.948,8.217,6.69,9.587c0.744,1.369-6.69-1.37-8.921-5.478
		C64.561,83.36,68.277,78.226,69.021,83.36z"/>
</g>
<g>
	<circle fill="#3A5CAA" cx="35.238" cy="48.822" r="3.781"/>
	<circle fill="#3A5CAA" cx="35.238" cy="41.261" r="3.78"/>
	<circle fill="#3A5CAA" cx="31.457" cy="63.944" r="3.781"/>
	<circle fill="#3A5CAA" cx="39.019" cy="56.383" r="3.781"/>
	<circle fill="#3A5CAA" cx="31.457" cy="82.847" r="3.78"/>
	<circle fill="#3A5CAA" cx="59.811" cy="49.2" r="3.781"/>
</g>
<g>
	<circle fill="#3A5CAA" cx="18.793" cy="70.479" r="3.78"/>
	<circle fill="#3A5CAA" cx="52.529" cy="65.204" r="3.781"/>
	<circle fill="#3A5CAA" cx="48.75" cy="87.887" r="3.781"/>
	<circle fill="#3A5CAA" cx="56.311" cy="80.326" r="3.781"/>
	<circle fill="#3A5CAA" cx="48.75" cy="106.789" r="3.781"/>
	<circle fill="#3A5CAA" cx="77.104" cy="73.143" r="3.78"/>
</g>
<path fill="#FEE1C9" d="M140.143,67.396c1.253,9.908,12.503,11.262,1.389,16.894c-11.114,5.631-25.005-3.38-22.227-12.953
	c2.779-9.573-4.168-13.515,0.463-14.078C124.397,56.696,139.216,60.075,140.143,67.396z"/>
<path fill="#FEE1C9" d="M91.104,43.318c11.452-2.063,31.489,1.126,18.522,11.826C96.66,65.844,78.601,45.57,91.104,43.318z"/>
<path fill="#FEE1C9" d="M105.413,37.22c12.594,1.303,19.911-2.252,25.931,9.573c6.021,11.825-1.39,17.457-12.502,12.952
	C107.728,55.24,83.648,34.967,105.413,37.22z"/>
<path fill="#C83821" d="M128.596,79.783c-4.505,13.514,15.949-2.899,16.675,2.176s2.175,18.85-10.149,25.374
	c-12.325,6.525,2.175,6.525-17.4,4.351c-19.574-2.176-8.698-10.875-7.975-28.275C110.471,66.009,131.496,71.083,128.596,79.783z"/>
<path fill="#F36F62" d="M111.937,92.644c1.521-4.182,2.404,3.607,4.008,5.61c1.603,2.004,7.213-0.401,7.613,1.603
	s-2.004,8.016-5.209,6.813C115.143,105.467,108.73,101.46,111.937,92.644z"/>
<g>
	<circle fill="#3A5CAA" cx="41.455" cy="64.967" r="3.78"/>
	<circle fill="#3A5CAA" cx="37.675" cy="87.65" r="3.78"/>
	<circle fill="#3A5CAA" cx="45.236" cy="80.089" r="3.781"/>
	<path fill="#3A5CAA" d="M37.675,102.771c2.088,0,3.78,1.693,3.78,3.783c0,2.085-1.691,3.78-3.78,3.78
		c-2.087,0-3.78-1.695-3.78-3.78C33.895,104.464,35.587,102.771,37.675,102.771z"/>
	<circle fill="#3A5CAA" cx="66.029" cy="72.906" r="3.781"/>
</g>
</svg>
