<?xml version="1.0" encoding="utf-8"?>
<!-- Generator: Adobe Illustrator 16.0.0, SVG Export Plug-In . SVG Version: 6.00 Build 0)  -->
<!DOCTYPE svg PUBLIC "-//W3C//DTD SVG 1.1//EN" "http://www.w3.org/Graphics/SVG/1.1/DTD/svg11.dtd">
<svg version="1.1" id="Layer_1" xmlns="http://www.w3.org/2000/svg" xmlns:xlink="http://www.w3.org/1999/xlink" x="0px" y="0px"
	 width="156px" height="155px" viewBox="0 0 156 155" enable-background="new 0 0 156 155" xml:space="preserve">
<polygon fill="#FEBE10" points="78.719,35.712 90.819,60.232 117.874,64.159 98.296,83.248 102.918,110.193 78.719,97.471 
	54.519,110.193 59.141,83.248 39.56,64.159 66.617,60.232 "/>
<polygon fill="#BFBFBF" points="120.198,78.629 123.564,85.445 131.086,86.537 125.644,91.846 126.926,99.337 120.198,95.8 
	113.471,99.337 114.757,91.846 109.312,86.537 116.833,85.445 "/>
<polygon fill="#BFBFBF" points="144.054,78.629 147.416,85.445 154.941,86.537 149.495,91.846 150.781,99.337 144.054,95.8 
	137.324,99.337 138.608,91.846 133.166,86.537 140.688,85.445 "/>
<polygon fill="#FEBE10" points="12.471,78.629 15.836,85.445 23.357,86.537 17.916,91.846 19.199,99.337 12.471,95.8 5.743,99.337 
	7.028,91.846 1.584,86.537 9.106,85.445 "/>
<polygon fill="#FEBE10" points="36.326,78.629 39.69,85.445 47.213,86.537 41.768,91.846 43.054,99.337 36.326,95.8 29.597,99.337 
	30.881,91.846 25.438,86.537 32.96,85.445 "/>
</svg>
