<?xml version="1.0" encoding="utf-8"?>
<!-- Generator: Adobe Illustrator 16.0.0, SVG Export Plug-In . SVG Version: 6.00 Build 0)  -->
<!DOCTYPE svg PUBLIC "-//W3C//DTD SVG 1.1//EN" "http://www.w3.org/Graphics/SVG/1.1/DTD/svg11.dtd">
<svg version="1.1" id="Layer_1" xmlns="http://www.w3.org/2000/svg" xmlns:xlink="http://www.w3.org/1999/xlink" x="0px" y="0px"
	 width="156px" height="155px" viewBox="0 0 156 155" enable-background="new 0 0 156 155" xml:space="preserve">
<g opacity="0.5">
	<g>
		<path fill="#FAEAC3" d="M13.843,77.452c-0.679-0.678-0.679-1.78,0.003-2.462l64.791-64.791c0.678-0.678,1.781-0.678,2.464-0.002
			l64.79,64.793c0.679,0.682,0.679,1.784,0,2.462l-64.792,64.793c-0.681,0.679-1.784,0.679-2.467,0L13.843,77.452z"/>
		
			<rect x="25.266" y="78.56" transform="matrix(0.7071 0.7071 -0.7071 0.7071 73.9201 -6.7138)" fill="#21B3DB" width="39.596" height="14.617"/>
	</g>
	<polygon fill="#00AD4D" points="114.094,78.411 96.668,96.353 113.578,109.677 130.237,93.277 	"/>
	
		<rect x="26.842" y="73.282" transform="matrix(0.7071 0.7071 -0.7071 0.7071 79.4049 -29.0315)" fill="#E9CBB0" width="95.808" height="16.102"/>
	
		<rect x="45.344" y="82.118" transform="matrix(-0.7071 0.7071 -0.7071 -0.7071 222.9389 87.992)" fill="#E9CBB0" width="95.805" height="16.098"/>
	
		<rect x="52.171" y="47.959" transform="matrix(0.7071 0.7071 -0.7071 0.7071 68.9185 -54.3611)" fill="#E9CBB0" width="95.813" height="16.103"/>
</g>
<g>
	<g>
		<path fill="#EFC889" d="M38.684,141.98c21.752,7.849,64.033,7.849,81.916-1.354c5.006-6.387,6.967-12.036,0.564-15.786
			c-6.398-3.753-59.757-6.916-76.77-2.85C27.386,126.059,34.777,141.463,38.684,141.98z"/>
		<path fill="#51382D" d="M31.432,130.469c0,0,44.207,7.915,96.264,0c0,0,4.879-2.797,1.121-10.398
			c-3.758-7.6-82.567-8.041-92.041-4.971C27.3,118.169,31.432,130.469,31.432,130.469z"/>
		<path fill="#65B458" d="M30.535,120.07c2.934,1.32,1.933,0.3,7.961,3.582c6.029,3.285,8.709-3.983,14.211,2.847
			s6.46,10.233,14.643,5.337c8.182-4.896,6.969-5.434,12.098-4.727c5.129,0.705,6.361,2.896,12.637,2.896
			c6.273,0,16.609,1.752,18.762-0.877c2.154-2.631,0.863-2.289,5.6-2.021c4.738,0.268,9.798-0.609,11.272-1.926
			c1.479-1.314,8.726,1.524,8.229-1.533c-0.497-3.057,2.062-5.264,0.023-5.92c-2.037-0.654,1.602-1.754-5.734-1.754
			c-7.332,0,2.718-4.438-9.055-2.658s-12.824-0.461-21.916,0c-9.094,0.461-17.203,2.548-28.641,0.008
			c-11.434-2.539-12.32-2.631-23.088-0.43c-10.766,2.205-16.107,2.644-16.107,2.644S22.573,116.488,30.535,120.07z"/>
		<path fill="#EDE48A" d="M127.912,114.566c2.309,0.547-2.234,8.857-7.982,8.506c-5.752-0.354-5.057-0.406-13.287,1.144
			c-8.229,1.55-11.381-0.593-15.748,0.851c-4.367,1.439,4.513-4.812-7.66-3.709c-12.168,1.104-13.764,1.166-18.695,1.137
			c-4.932-0.031-12.422,0.314-15.508,0.582c-3.084,0.264-13.661,0.193-3.084-7.227C56.521,108.43,109.402,110.182,127.912,114.566z"
			/>
		<path fill="#C15959" d="M120.553,109.205c6.688,1.189,13.959,7.994,7.496,8.854c-6.462,0.864-31.219,4.113-36.811,0
			C85.65,113.949,97.956,105.182,120.553,109.205z"/>
		<path fill="#C15959" d="M42.373,114.758c10.947,2.182,12.918,8.092,24.979,5.312c12.059-2.78,24.117,1.109,16.363-6.754
			c-7.751-7.865-12.918-9.619-25.406-9.182C45.818,104.574,20.84,110.471,42.373,114.758z"/>
		<path fill="#D36363" d="M99.717,112.479c0,0-0.052,0.011-0.15,0.029c-1.334,0.258-11.104,2.145-11.09,2.122
			c0.016-0.024,13.854,0,13.854,0l-4.491,5.231l10.442-6.178l4.967,5.871l2.796-4.203l10.055,3.203l-11.597-7.107l8.331,1.847
			l-7.191-4.058L99.717,112.479z"/>
		<path fill="#D36363" d="M63.477,114.758l-1.724,5.312l-3.444-5.312l-9.476-0.535l4.308-3.508l-16.67-1.262l17.961-1.123
			l9.045-4.229c0,0-2.586,4.824,0,4.842c2.582,0.019,15.353,0,15.353,0l-8.201,2.106l8.82,3.708H67.35l3.278,2.975L63.477,114.758z"
			/>
		<path fill="#EFC889" d="M36.469,113.057c15.369,1.961,82.977,2.973,86.407-1.185c5.267-6.379,7.323-12.024,0.565-15.787
			c-6.76-3.765-45.754-15.966-80.987-3.005C25.182,99.434,32.346,112.532,36.469,113.057z"/>
	</g>
	<path fill="#DBAF75" d="M80.979,91.096c9.459,0.19,17.1,2.908,17.066,6.074c-0.027,3.163-7.726,5.575-17.184,5.388
		c-9.458-0.19-17.096-2.907-17.067-6.071C63.824,93.325,71.515,90.91,80.979,91.096z"/>
</g>
<path fill="#8D53A1" d="M80.728,27.911c-11.96,0.001-21.656,9.694-21.656,21.659c0,19.571,21.656,45.126,21.656,45.126
	c1.437,1.445,21.66-23.474,21.66-45.126C102.388,37.607,92.689,27.912,80.728,27.911z M80.987,60.928
	c-6.05,0.001-10.956-4.909-10.956-10.958c0-6.048,4.906-10.954,10.956-10.957c6.05,0.003,10.963,4.909,10.963,10.957
	C91.945,56.019,87.037,60.933,80.987,60.928z"/>
</svg>
